<svg version="1.1" id="icon" xmlns="http://www.w3.org/2000/svg" x="0" y="0" viewBox="0 0 512 512" xml:space="preserve"><style type="text/css">.st1{fill:#fff}</style><path opacity=".1" fill="#fff" d="M20.4 28.4h472.3v458.5H20.4z"/><path class="st1" d="M0 5.9v500.2h512V5.9H0zm471.3 460.6H41.8V46.6h429.6v419.9z"/><path class="st1" d="M134.4 148.2c14.1-2.5 33.7-4.5 60.3-4.5 28.9 0 50 6.1 63.8 17.6 12.9 10.6 21.1 27.6 21.1 47.8 0 20.5-6.4 37.5-18.6 49.1-15.7 15.7-40.5 23-68.3 23-7.3 0-14.1-.3-19.2-1.3v81.5h-39.2V148.2h.1zm39 100.7c4.8 1.3 11.3 1.6 19.2 1.6 29.5 0 47.5-14.4 47.5-39.8 0-24.1-16.7-36.9-44-36.9-10.9 0-18.6 1-22.7 1.9v73.2zM308.2 255.6c0-21.1-.3-36.2-1.3-50.3h34.3l1.3 29.8h1.3c7.7-22.1 26-33.4 42.7-33.4 3.8 0 6.1.3 9.3 1v37.2c-3.2-.6-6.7-1.3-11.6-1.3-18.9 0-31.7 12.2-35.3 29.8-.6 3.5-1.3 7.6-1.3 12.2v80.8h-39.5V255.6h.1z"/></svg>