<?xml version="1.0" encoding="utf-8"?>
<!-- Generator: Adobe Illustrator 22.1.0, SVG Export Plug-In . SVG Version: 6.00 Build 0)  -->
<svg version="1.1" id="icon" xmlns="http://www.w3.org/2000/svg" xmlns:xlink="http://www.w3.org/1999/xlink" x="0px" y="0px"
	 viewBox="0 0 512 512" style="enable-background:new 0 0 512 512;" xml:space="preserve">
<style type="text/css">
	.st0{opacity:0.1;fill:#FFFFFF;enable-background:new    ;}
	.st1{fill:#FFFFFF;}
</style>
<g>
	<rect x="20.4" y="28.3" class="st0" width="472.3" height="458.5"/>
	<g>
		<g>
			<path class="st1" d="M0,5.9v500.2h512V5.9H0z M471.3,466.5H41.8V46.6h429.6V466.5z"/>
		</g>
	</g>
	<path class="st1" d="M186.6,298.4l-18.2,60h-39.9l67.8-211.7h49.3l68.7,211.7H273l-19.1-60H186.6z M247.2,269.2L230.6,217
		c-4.1-12.9-7.5-27.3-10.7-39.6h-0.6c-3.1,12.3-6.2,27-10.1,39.6l-16.3,52.1H247.2z"/>
	<path class="st1" d="M370.6,162.8c0,11.6-8.5,20.7-21.9,20.7c-12.9,0-21.3-9.1-21.3-20.7c0-12,8.8-21,21.6-21
		C362.1,141.8,370.3,150.8,370.6,162.8z M329.4,358.4V205.5h39v152.9H329.4z"/>
</g>
</svg>
