<svg version="1.1" id="icon" xmlns="http://www.w3.org/2000/svg" x="0" y="0" viewBox="0 0 512 512" xml:space="preserve"><style type="text/css">.st0{fill:#fff}</style><path class="st0" d="M0 6.4v499.2h512V6.4H0zm490.6 477.8H21.3V27.7h469.3v456.5z"/><path d="M21.3 27.7h469.3v456.5H21.3V27.7z" opacity=".1" fill="#fff"/><path class="st0" d="M66.8 123.9c0-1.7.4-2.6 2.6-2.8 8.1-.4 31.4-1.1 55.3-1.1 71.5 0 107.1 46.1 107.1 113.7 0 94.1-61.7 122.5-109.2 122.5-17.9 0-43.9-.4-53.5-.6-1.5 0-2.1-1.1-2.1-2.8-.4-.2-.4-228.9-.2-228.9zm38.4 197.8c6 .4 11.3.6 17.9.6 39.5 0 68.7-27.7 68.9-87.7.4-58.5-29.9-81.1-67.6-81.1-7.5 0-13.4.4-19.4.6v167.5l.2.1zm270.5 33.5c-2.6 0-3.2-.9-3.4-3-10.5-58.9-19.4-100.3-23.3-129.3h-.4c-4.5 26-13 69.3-27.1 129.5-.6 2.1-1.5 2.8-3.2 2.8h-34.6c-2.6 0-3.2-.4-3.8-2.6l-37.8-168.1c-.4-1.5.4-2.8 2.6-2.8h34.6c1.5 0 2.6.4 2.8 1.9 13.4 75.7 19 114.8 21.1 130.3h1.5c2.6-18.3 9.8-56.5 25.6-129.7.6-2.1.6-2.6 2.8-2.6h36.3c1.7 0 2.1.9 2.6 2.6 12.4 69.3 20.5 113.1 22.6 130.8h1.1c3.4-22.6 8.1-52.9 23.3-131 .4-1.5.6-2.3 2.6-2.3H454c1.5 0 2.6.6 1.7 2.6l-41.8 168.3c-.4 1.7-.6 2.6-3.2 2.6h-35z"/></svg>