<svg version="1.1" id="Layer_1" xmlns="http://www.w3.org/2000/svg" x="0" y="0" viewBox="0 0 512 512" xml:space="preserve"><style type="text/css">.st0{fill:#fff}</style><path class="st0" d="M421.4 6.4H90.7C40.5 6.4 0 46.9 0 97.1v317.8c0 50.2 40.5 90.7 90.7 90.7h330.6c50.2 0 90.7-40.5 90.8-90.6V97.1c0-50.2-40.6-90.7-90.7-90.7zm69 400.2c.3 42.9-34.5 77.7-77.2 77.7H98.8c-42.7 0-77.4-34.8-77.4-77.4V105.2c0-42.7 34.8-77.4 77.4-77.4H413c42.9 0 77.4 34.8 77.4 77.4v301.4z"/><path d="M413.2 484.3H98.8c-42.7 0-77.4-34.8-77.4-77.4V105.2c0-42.7 34.8-77.4 77.4-77.4H413c42.9 0 77.4 34.8 77.4 77.4v301.4c.3 42.9-34.5 77.7-77.2 77.7z" opacity=".1" fill="#fff"/><path class="st0" d="M202.5 240l59.7 114.8c1.1 1.7.4 3.4-1.3 3.4h-37.1c-2.3 0-3.4-.6-4.5-2.8-13.7-28.2-27.5-56.3-41.8-86.6h-.4c-12.8 28.6-26.9 58.7-40.5 86.8-1.1 1.7-2.1 2.3-3.8 2.3H97.5c-2.1 0-2.3-1.7-1.3-3l58.5-111.4L98.1 131c-1.3-1.7 0-3 1.3-3h36.7c2.1 0 3 .4 3.8 2.3 13.4 28.2 27.1 57.2 39.9 85.5h.4c12.4-28.2 26-57.4 39.3-85.3 1.1-1.7 1.7-2.8 3.8-2.8h34.3c1.7 0 2.3 1.3 1.3 3L202.5 240zm70.1 34.8c0-49.7 33.1-88.5 85.5-88.5 4.5 0 6.8 0 11.1.4v-56.5c0-1.3 1.1-2.1 2.1-2.1H405c1.7 0 2.1.6 2.1 1.7v195.8c0 5.8 0 13 1.1 20.9 0 1.3-.4 1.7-1.7 2.3-17.9 8.5-36.7 12.4-54.6 12.4-46.2.2-79.3-28.4-79.3-86.4zm96.7-54.6c-3-1.3-7.3-2.1-12.4-2.1-26.9 0-45.7 20.7-45.7 55 0 39.3 19.2 55 43.3 55 5.1 0 10.7-.6 14.7-2.3V220.2h.1z"/></svg>