<?xml version="1.0" encoding="utf-8"?>
<!-- Generator: Adobe Illustrator 19.2.0, SVG Export Plug-In . SVG Version: 6.00 Build 0)  -->
<svg version="1.1" id="icon" xmlns="http://www.w3.org/2000/svg" xmlns:xlink="http://www.w3.org/1999/xlink" x="0px" y="0px"
	 viewBox="0 0 512 512" style="enable-background:new 0 0 512 512;" xml:space="preserve">
<style type="text/css">
	.st0{opacity:0.1;fill:#FFFFFF;}
	.st1{fill:#FFFFFF;}
</style>
<g>
	<rect x="21.9" y="30.6" class="st0" width="469.3" height="455.5"/>
	<g>
		<g>
			<path class="st1" d="M1.6,8.3v497h508.7V8.3H1.6z M469.9,465.9H43.1V48.7h426.8V465.9z"/>
		</g>
	</g>
	<path class="st1" d="M144.8,144.2H184v182h88.3V359H144.8V144.2z"/>
	<path class="st1" d="M300.4,253.8c0-21-0.3-36-1.3-50h34.1l1.3,29.6h1.3c7.7-22,25.8-33.2,42.4-33.2c3.8,0,6.1,0.3,9.2,1v37
		c-3.2-0.6-6.7-1.3-11.5-1.3c-18.8,0-31.6,12.1-35.1,29.6c-0.6,3.5-1.3,7.7-1.3,12.1V359h-39.2V253.8H300.4z"/>
</g>
</svg>
