<svg version="1.1" id="icon" xmlns="http://www.w3.org/2000/svg" x="0" y="0" viewBox="0 0 512 512" xml:space="preserve"><style type="text/css">.st1{fill:#fff}</style><path opacity=".1" fill="#fff" d="M20.4 28.3h472.3v458.5H20.4z"/><path class="st1" d="M0 5.9v500.2h512V5.9H0zm471.3 460.6H41.8V46.6h429.6v419.9z"/><path class="st1" d="M130 145.2c12.5-2.5 35.3-4.5 57.5-4.5 29.2 0 47.2 3.5 61.9 13.8 13.5 8.1 22.4 22.1 22.4 40.5 0 19.9-12.5 38.1-35.9 46.8v.6c22.7 5.7 43.7 23.8 43.7 53.5 0 19.2-8.4 34.3-20.8 44.6-15.4 13.5-40.8 20.2-80.2 20.2-21.8 0-38.4-1.6-48.4-2.9V145.2h-.2zm39.2 85.3h20.2c27.3 0 42.7-12.9 42.7-31.1 0-20.2-15.4-29.5-40.5-29.5-11.6 0-18.3.6-22.4 1.6v59zm0 99.5c5.1 1 11.9 1 20.8 1 25.4 0 47.8-9.7 47.8-36.2 0-25.1-21.8-35.3-49.1-35.3h-19.5V330zM313.3 252.7c0-21.1-.3-36.2-1.3-50.3h34.3l1.3 29.8h1.3c7.7-22.1 26-33.3 42.7-33.3 3.8 0 6.1.3 9.3 1v37.2c-3.2-.6-6.7-1.3-11.6-1.3-18.9 0-31.8 12.2-35.3 29.8-.6 3.5-1.3 7.7-1.3 12.2v80.8h-39.5V252.7h.1z"/></svg>