<?xml version="1.0" encoding="utf-8"?>
<!-- Generator: Adobe Illustrator 22.1.0, SVG Export Plug-In . SVG Version: 6.00 Build 0)  -->
<svg version="1.1" id="icon" xmlns="http://www.w3.org/2000/svg" xmlns:xlink="http://www.w3.org/1999/xlink" x="0px" y="0px"
	 viewBox="0 0 512 512" style="enable-background:new 0 0 512 512;" xml:space="preserve">
<style type="text/css">
	.st0{opacity:0.1;fill:#FFFFFF;enable-background:new    ;}
	.st1{fill:#FFFFFF;}
</style>
<g>
	<rect x="20.4" y="28.3" class="st0" width="472.3" height="458.5"/>
	<g>
		<g>
			<path class="st1" d="M0,5.9v500.2h512V5.9H0z M471.3,466.5H41.8V46.6h429.6V466.5z"/>
		</g>
	</g>
	<path class="st1" d="M76.5,147.9c15.4-2.8,34.9-4.4,55.8-4.4c35.8,0,60.6,8.2,78.2,24.5c18.5,16.6,29.9,41.8,29.9,77.9
		c0,37.6-11.7,65.9-29.9,84.1c-19,19.1-49.4,28.9-86.7,28.9c-20.4,0-35.8-1.2-47.2-2.8V147.9H76.5z M111.4,327.2
		c4.8,0.9,12.2,0.9,19.3,0.9c45.5,0.3,72.5-27.3,72.5-81c0.3-46.8-24.2-73.5-67.9-73.5c-11.1,0-19,0.9-23.9,2.2V327.2z"/>
	<path class="st1" d="M278.8,203.8l14.1,69.4c3,16.3,6,33,8.6,49.6h0.6c2.7-16.6,7.1-33.6,11-49.3l17.3-69.7h27.6l16.8,67.8
		c4.1,17.9,7.7,34.5,10.8,51.2h0.5c2.2-16.6,5.2-33.3,8.9-51.2l14.9-67.8h33.3l-42.2,152.9h-31.4l-16-62.2c-4.1-16-7.1-30.5-10.2-49
		h-0.6c-2.7,18.8-6.3,33.9-10.2,49l-17.1,62.2h-31.7l-39.7-152.9H278.8z"/>
</g>
</svg>
