<?xml version="1.0" encoding="utf-8"?>
<!-- Generator: Adobe Illustrator 19.2.0, SVG Export Plug-In . SVG Version: 6.00 Build 0)  -->
<svg version="1.1" id="icon" xmlns="http://www.w3.org/2000/svg" xmlns:xlink="http://www.w3.org/1999/xlink" x="0px" y="0px"
	 viewBox="0 0 512 512" style="enable-background:new 0 0 512 512;" xml:space="preserve">
<style type="text/css">
	.st0{opacity:0.1;fill:#FFFFFF;}
	.st1{fill:#FFFFFF;}
</style>
<g>
	<rect x="21.9" y="29.8" class="st0" width="469.3" height="455.5"/>
	<g>
		<g>
			<path class="st1" d="M1.6,7.5v497h508.7V7.5H1.6z M469.9,465.1H43.1V47.9h426.8V465.1z"/>
		</g>
	</g>
	<path class="st1" d="M77.6,148.6c15.3-2.8,34.7-4.4,55.4-4.4c35.6,0,60.2,8.1,77.7,24.3c18.4,16.5,29.7,41.5,29.7,77.4
		c0,37.4-11.6,65.5-29.7,83.6c-18.9,19-49.1,28.7-86.1,28.7c-20.3,0-35.6-1.2-46.9-2.8V148.6z M112.3,326.7
		c4.8,0.9,12.1,0.9,19.2,0.9c45.2,0.3,72-27.1,72-80.5c0.3-46.5-24-73-67.5-73c-11,0-18.9,0.9-23.7,2.2V326.7z"/>
	<path class="st1" d="M278.6,204.1l14,69c3,16.2,6,32.8,8.5,49.3h0.6c2.7-16.5,7.1-33.4,10.9-49l17.2-69.3h27.4l16.7,67.4
		c4.1,17.8,7.7,34.3,10.7,50.9h0.5c2.2-16.5,5.2-33.1,8.8-50.9l14.8-67.4h33.1l-41.9,151.9h-31.2l-15.9-61.8
		c-4.1-15.9-7.1-30.3-10.1-48.7h-0.6c-2.7,18.7-6.3,33.7-10.1,48.7l-17,61.8h-31.5l-39.4-151.9H278.6z"/>
</g>
</svg>
