<?xml version="1.0" encoding="utf-8"?>
<!-- Generator: Adobe Illustrator 19.2.0, SVG Export Plug-In . SVG Version: 6.00 Build 0)  -->
<svg version="1.1" id="icon" xmlns="http://www.w3.org/2000/svg" xmlns:xlink="http://www.w3.org/1999/xlink" x="0px" y="0px"
	 viewBox="0 0 512 512" style="enable-background:new 0 0 512 512;" xml:space="preserve">
<style type="text/css">
	.st0{opacity:0.1;fill:#FFFFFF;}
	.st1{fill:#FFFFFF;}
</style>
<g>
	<rect x="21.9" y="29.8" class="st0" width="469.3" height="455.5"/>
	<g>
		<g>
			<path class="st1" d="M1.6,7.5v497h508.7V7.5H1.6z M469.9,465.1H43.1V47.9h426.8V465.1z"/>
		</g>
	</g>
	<path class="st1" d="M140,297.8l-18.5,60.9H81l68.8-214.8h50l69.8,214.8h-42.1l-19.4-60.9H140z M201.5,268.2l-16.9-52.9
		c-4.1-13.1-7.6-27.7-10.8-40.2h-0.6c-3.2,12.4-6.4,27.4-10.2,40.2l-16.6,52.9H201.5z"/>
	<path class="st1" d="M321.7,292.1c1,28.1,22.9,40.2,47.8,40.2c18.2,0,31.2-2.5,43-7l5.7,27.1c-13.4,5.4-31.9,9.9-54.2,9.9
		c-50.4,0-80-31.2-80-78.7c0-43,26.1-83.5,75.9-83.5c50.7,0,66.9,41.4,66.9,75.5c0,7.3-0.6,13.1-1.3,16.6H321.7z M389.9,264.7
		c0.3-14.3-6.1-37.9-32.2-37.9c-24.2,0-34.4,22-36,37.9H389.9z"/>
</g>
</svg>
