<?xml version="1.0" encoding="utf-8"?>
<!-- Generator: Adobe Illustrator 19.2.0, SVG Export Plug-In . SVG Version: 6.00 Build 0)  -->
<svg version="1.1" id="icon" xmlns="http://www.w3.org/2000/svg" xmlns:xlink="http://www.w3.org/1999/xlink" x="0px" y="0px"
	 viewBox="0 0 512 512" style="enable-background:new 0 0 512 512;" xml:space="preserve">
<style type="text/css">
	.st0{opacity:0.1;fill:#FFFFFF;}
	.st1{fill:#FFFFFF;}
</style>
<g>
	<rect x="21.9" y="29.8" class="st0" width="469.3" height="455.5"/>
	<g>
		<g>
			<path class="st1" d="M1.6,7.5v497h508.7V7.5H1.6z M469.9,465.1H43.1V47.9h426.8V465.1z"/>
		</g>
	</g>
	<path class="st1" d="M130.8,145.9c12.4-2.5,35.1-4.5,57.1-4.5c29,0,46.9,3.5,61.5,13.7c13.4,8,22.3,22,22.3,40.2
		c0,19.8-12.4,37.9-35.7,46.5v0.6c22.6,5.7,43.4,23.6,43.4,53.2c0,19.1-8.3,34.1-20.7,44.3c-15.3,13.4-40.5,20.1-79.7,20.1
		c-21.7,0-38.2-1.6-48.1-2.9V145.9z M169.7,230.7h20.1c27.1,0,42.4-12.8,42.4-30.9c0-20.1-15.3-29.3-40.2-29.3
		c-11.5,0-18.2,0.6-22.3,1.6V230.7z M169.7,329.5c5.1,1,11.8,1,20.7,1c25.2,0,47.5-9.6,47.5-36c0-24.9-21.7-35.1-48.8-35.1h-19.4
		V329.5z"/>
	<path class="st1" d="M312.9,252.7c0-21-0.3-36-1.3-50h34.1l1.3,29.6h1.3c7.7-22,25.8-33.1,42.4-33.1c3.8,0,6.1,0.3,9.2,1v37
		c-3.2-0.6-6.7-1.3-11.5-1.3c-18.8,0-31.6,12.1-35.1,29.6c-0.6,3.5-1.3,7.7-1.3,12.1v80.3h-39.2V252.7z"/>
</g>
</svg>
