<?xml version="1.0" encoding="utf-8"?>
<!-- Generator: Adobe Illustrator 22.1.0, SVG Export Plug-In . SVG Version: 6.00 Build 0)  -->
<svg version="1.1" id="icon" xmlns="http://www.w3.org/2000/svg" xmlns:xlink="http://www.w3.org/1999/xlink" x="0px" y="0px"
	 viewBox="0 0 512 512" style="enable-background:new 0 0 512 512;" xml:space="preserve">
<style type="text/css">
	.st0{opacity:0.1;fill:#FFFFFF;enable-background:new    ;}
	.st1{fill:#FFFFFF;}
</style>
<g>
	<path class="st0" d="M21.3,27.7h469.3v456.5H21.3V27.7z"/>
	<path class="st1" d="M0,6.4v499.2h512V6.4H0z M21.3,27.7h469.3v456.5H21.3V27.7z M144.6,289.1l-16.9,63.8c-0.4,1.7-1.1,2.3-3.2,2.3
		H93.2c-2.1,0-2.6-0.6-2.1-3.2l60.6-211.8c1.1-3.8,1.7-6.8,2.1-17.5c0-1.5,0.6-2.1,1.7-2.1h44.8c1.5,0,2.1,0.4,2.6,2.1l67.8,229.8
		c0.4,1.7,0,2.8-1.7,2.8h-35.2c-1.7,0-2.8-0.6-3.2-2.1l-17.7-64L144.6,289.1L144.6,289.1z M204.6,254.5
		c-6-23.7-20.5-75.3-25.8-100.3h-0.4c-4.5,25-16.2,67.2-25,100.3C153.6,254.5,204.6,254.5,204.6,254.5z M318.9,276.3
		c0.4,28.8,14.1,48.2,46.5,48.2c12.6,0,23.5-1.7,34.8-6.6c1.5-0.6,2.6-0.4,2.6,1.5V346c0,2.1-0.6,3.2-2.1,4.3
		c-11.3,5.5-25.4,8.1-42.9,8.1c-56.3,0-77.4-41.6-77.4-88.1c0-50.3,26-91.5,71.9-91.5c46.5,0,62.7,39,62.7,70.8
		c0,10.2-0.6,18.6-1.7,22.6c-0.4,1.7-1.1,2.3-2.8,2.8c-4.3,0.6-16.9,1.5-35.6,1.5L318.9,276.3L318.9,276.3z M362.2,246.8
		c10.9,0,14.7,0,15.8-0.4c0-1.5,0.4-2.6,0.4-3.6c0-11.5-5.5-32.9-27.7-32.9c-20.5,0-29.2,17.9-31.4,36.9L362.2,246.8L362.2,246.8z"
		/>
</g>
</svg>
