<?xml version="1.0" encoding="utf-8"?>
<!-- Generator: Adobe Illustrator 22.1.0, SVG Export Plug-In . SVG Version: 6.00 Build 0)  -->
<svg version="1.1" id="icon" xmlns="http://www.w3.org/2000/svg" xmlns:xlink="http://www.w3.org/1999/xlink" x="0px" y="0px"
	 viewBox="0 0 512 512" style="enable-background:new 0 0 512 512;" xml:space="preserve">
<style type="text/css">
	.st0{opacity:0.1;fill:#FFFFFF;enable-background:new    ;}
	.st1{fill:#FFFFFF;}
</style>
<g>
	<rect x="20.4" y="28.3" class="st0" width="472.3" height="458.5"/>
	<g>
		<g>
			<path class="st1" d="M0,5.9v500.2h512V5.9H0z M471.3,466.5H41.8V46.6h429.6V466.5z"/>
		</g>
	</g>
	<path class="st1" d="M190.1,146.1v211.7h-38.6V146.1H190.1z"/>
	<path class="st1" d="M358.4,134.8v180c0,15.7,0.6,32.6,1.1,43h-31.6l-1.4-24.2h-0.6c-8.4,16.9-25.3,27.7-45.7,27.7
		c-33.3,0-59.8-31.1-59.8-78.2c-0.3-51.2,29-81.6,62.7-81.6c19.2,0,33,8.8,39.4,20.1h0.6v-86.7h35.3V134.8z M323,268.6
		c0-3.1-0.3-6.9-0.8-10.1c-3.1-15.1-14.4-27.3-30.5-27.3c-22.7,0-35.3,21.9-35.3,50.5c0,28,12.7,48.3,35.1,48.3
		c14.4,0,27-10.7,30.5-27.3c0.9-3.4,1.1-7.2,1.1-11.3v-22.9H323z"/>
</g>
</svg>
