<?xml version="1.0" encoding="utf-8"?>
<!-- Generator: Adobe Illustrator 19.2.0, SVG Export Plug-In . SVG Version: 6.00 Build 0)  -->
<svg version="1.1" id="icon" xmlns="http://www.w3.org/2000/svg" xmlns:xlink="http://www.w3.org/1999/xlink" x="0px" y="0px"
	 viewBox="0 0 512 512" style="enable-background:new 0 0 512 512;" xml:space="preserve">
<style type="text/css">
	.st0{opacity:0.1;fill:#FFFFFF;}
	.st1{fill:#FFFFFF;}
</style>
<g>
	<rect x="21.9" y="29.9" class="st0" width="469.3" height="455.5"/>
	<g>
		<g>
			<path class="st1" d="M1.6,7.5v497h508.7V7.5H1.6z M469.9,465.1H43.1V47.9h426.7V465.1z"/>
		</g>
	</g>
	<path class="st1" d="M132.7,298.9l-18.5,60.9H73.8l68.9-214.8h50l69.8,214.8h-42.1l-19.4-60.9H132.7z M194.2,269.2l-16.9-52.9
		c-4.1-13.1-7.6-27.7-10.8-40.2h-0.6c-3.2,12.4-6.4,27.4-10.2,40.2l-16.6,52.9H194.2z"/>
	<path class="st1" d="M425.3,313.2c0,18.5,0.6,33.8,1.3,46.5h-34.4l-1.9-23.6h-0.6c-6.7,11.2-22,27.1-49.7,27.1
		c-28.4,0-54.2-16.9-54.2-67.6v-91.2h39.2V289c0,25.8,8.3,42.4,29,42.4c15.6,0,25.8-11.1,30-21c1.3-3.5,2.2-7.7,2.2-12.1v-93.7h39.2
		V313.2z"/>
</g>
</svg>
