<?xml version="1.0" encoding="utf-8"?>
<!-- Generator: Adobe Illustrator 19.2.0, SVG Export Plug-In . SVG Version: 6.00 Build 0)  -->
<svg version="1.1" id="icon" xmlns="http://www.w3.org/2000/svg" xmlns:xlink="http://www.w3.org/1999/xlink" x="0px" y="0px"
	 viewBox="0 0 512 512" style="enable-background:new 0 0 512 512;" xml:space="preserve">
<style type="text/css">
	.st0{opacity:0.1;fill:#FFFFFF;}
	.st1{fill:#FFFFFF;}
</style>
<g>
	<rect x="21.9" y="29.9" class="st0" width="469.3" height="455.5"/>
	<g>
		<g>
			<path class="st1" d="M1.6,7.5v497h508.7V7.5H1.6z M469.9,465.1H43.1V47.9h426.8V465.1z"/>
		</g>
	</g>
	<path class="st1" d="M135.1,148.9c14-2.5,33.5-4.5,59.9-4.5c28.7,0,49.7,6.1,63.4,17.5c12.8,10.5,21,27.4,21,47.5
		c0,20.4-6.4,37.3-18.5,48.8c-15.6,15.6-40.2,22.9-67.9,22.9c-7.3,0-14-0.3-19.1-1.3v81h-38.9V148.9z M173.9,248.9
		c4.8,1.3,11.2,1.6,19.1,1.6c29.3,0,47.2-14.3,47.2-39.5c0-23.9-16.6-36.7-43.7-36.7c-10.8,0-18.5,1-22.6,1.9V248.9z"/>
	<path class="st1" d="M307.8,255.6c0-21-0.3-36-1.3-50h34.1l1.3,29.6h1.3c7.7-22,25.8-33.2,42.4-33.2c3.8,0,6.1,0.3,9.2,1v37
		c-3.2-0.6-6.7-1.3-11.5-1.3c-18.8,0-31.5,12.1-35.1,29.6c-0.6,3.5-1.3,7.6-1.3,12.1v80.3h-39.2V255.6z"/>
</g>
</svg>
