<svg version="1.1" id="icon" xmlns="http://www.w3.org/2000/svg" x="0" y="0" viewBox="0 0 512 512" xml:space="preserve"><style type="text/css">.st0{fill:#fff}</style><path class="st0" d="M0 6.4v499.2h512V6.4H0zm490.6 477.8H21.3V27.7h469.3v456.5z"/><path d="M21.3 27.7h469.3v456.5H21.3V27.7z" opacity=".1" fill="#fff"/><path class="st0" d="M203.7 352.4c0 2.1-.4 2.8-2.8 2.8H168c-2.1 0-2.8-1.1-2.8-2.8V123.3c0-2.1 1.1-2.8 2.8-2.8h33.1c1.7 0 2.6.6 2.6 2.6v229.3zm157.5-1.7c0 1.5-.4 2.1-1.7 2.8-9.2 3.4-20.3 4.5-32 4.5-49.9 0-79.1-36.9-79.1-89.4 0-51.4 33.1-90 83.8-90 13.7 0 22.2 1.1 27.5 3.2 1.5 1.1 1.7 1.7 1.7 3.6l-.4 29.2c0 1.7-1.1 2.1-2.6 1.7-6-2.6-13.7-3.8-24.3-3.8-27.7 0-46.7 19.4-46.7 54.6 0 41.6 23.9 55.9 47.6 55.9 10.2 0 18.6-1.1 23.9-3.2 1.7-.4 2.6.4 2.6 1.7l-.3 29.2z"/></svg>