<?xml version="1.0" encoding="utf-8"?>
<!-- Generator: Adobe Illustrator 22.1.0, SVG Export Plug-In . SVG Version: 6.00 Build 0)  -->
<svg version="1.1" id="icon" xmlns="http://www.w3.org/2000/svg" xmlns:xlink="http://www.w3.org/1999/xlink" x="0px" y="0px"
	 viewBox="0 0 512 512" style="enable-background:new 0 0 512 512;" xml:space="preserve">
<style type="text/css">
	.st0{opacity:0.1;fill:#FFFFFF;}
	.st1{fill:#FFFFFF;}
</style>
<g>
	<path class="st0" d="M21.3,27.7h469.3v456.5H21.3V27.7z"/>
	<path class="st1" d="M0,6.4v499.2h512V6.4H0z M21.3,27.7h469.3v456.5H21.3V27.7z M123.7,123.3c0-1.5,3-2.6,4.7-2.6
		c13.7-0.6,33.9-1.1,55-1.1c59.1,0,82.1,32.4,82.1,74c0,54.2-39.3,77.4-87.5,77.4c-8.1,0-10.9-0.4-16.6-0.4v81.9
		c0,1.7-0.6,2.6-2.6,2.6h-32.6c-1.7,0-2.6-0.6-2.6-2.6V123.3H123.7z M161.7,236.6c4.9,0.4,8.7,0.4,17.3,0.4c25,0,48.4-8.7,48.4-42.7
		c0-27.1-16.9-40.7-45.2-40.7c-8.5,0-16.6,0.4-20.5,0.6V236.6L161.7,236.6z M345.2,211.2c-16.9,0-22.6,8.5-22.6,15.6
		c0,7.7,3.8,13,26.5,24.7c33.5,16.2,43.9,31.8,43.9,54.6c0,34.1-26,52.5-61.2,52.5c-18.6,0-34.6-3.8-43.7-9.2
		c-1.5-0.6-1.7-1.7-1.7-3.4v-31.4c0-2.1,1.1-2.8,2.6-1.7c13.4,8.7,28.8,12.6,42.9,12.6c16.9,0,23.9-7,23.9-16.6
		c0-7.7-4.9-14.5-26.5-25.6c-30.3-14.5-42.9-29.2-42.9-53.8c0-27.5,21.5-50.3,58.9-50.3c18.3,0,31.1,2.8,38.2,6
		c1.7,1.1,2.1,2.8,2.1,4.3v29.2c0,1.7-1.1,2.8-3.2,2.1C372.9,214.8,359,211.2,345.2,211.2L345.2,211.2z"/>
</g>
</svg>
