<?xml version="1.0" encoding="utf-8"?>
<!-- Generator: Adobe Illustrator 22.1.0, SVG Export Plug-In . SVG Version: 6.00 Build 0)  -->
<svg version="1.1" id="icon" xmlns="http://www.w3.org/2000/svg" xmlns:xlink="http://www.w3.org/1999/xlink" x="0px" y="0px"
	 viewBox="0 0 512 512" style="enable-background:new 0 0 512 512;" xml:space="preserve">
<style type="text/css">
	.st0{opacity:0.1;fill:#FFFFFF;enable-background:new    ;}
	.st1{fill:#FFFFFF;}
</style>
<g>
	<path class="st0" d="M256,0C129.5,0,26.8,102.7,26.8,229.2H256h229.2C485.4,102.5,382.7,0,256,0z"/>
	<path class="st0" d="M256,229.2H26.8c0,126.5,102.7,229.2,229.2,229.2s229.2-102.7,229.2-229.2H256z"/>
	<path class="st1" d="M439.8,469.2c-0.2-2.1-0.8-3.9-1.9-5.8l0,0l-66.6-115.6l-22.1-38.5L307.9,238l-31.5,31.5l38.7,67.3l21.3,36.9
		l64.4,111.2c1,1.9,2.5,3.3,4.1,4.3l32.1,21.9c1.2,0.8,2.7,0.8,3.9,0.2l0,0l0,0c1.2-0.8,1.9-2.1,1.9-3.5L439.8,469.2z"/>
	<path class="st1" d="M378.7,229.2c0,30.4-11.3,58.4-29.8,80c-9.6,11.1-20.9,20.5-33.8,27.5c-17.5,9.8-37.7,15.2-59.2,15.2
		s-41.6-5.6-59-15.2l38.7-67.3L204.2,238l-130,225.4c-1,1.9-1.7,3.7-1.9,5.8L69.3,508c-0.2,1.4,0.6,2.7,1.9,3.5l0,0l0,0
		c1.2,0.8,2.7,0.6,3.9-0.2l32.1-21.7c1.7-1.2,3.1-2.7,4.1-4.3l0,0l64.4-111.5c23.8,13.3,51.2,21.1,80.4,21.1s56.7-7.7,80.4-21.1
		c12.7-7.1,24.4-15.8,34.6-25.8c30.8-30,50.2-72.1,50.2-118.5L378.7,229.2L378.7,229.2z"/>
	<path class="st1" d="M296,144h-13.3v-42.7V101H256h-26.5v0.2V144H216c-13.1,0-24,10.8-24,24v54.3h0.2c-0.2,2.1,1,4.3,3.7,7.1
		l48.1,48.1c3.3,3.3,7.7,5,11.9,5v-0.2l0.2,0.2c4.3,0,8.8-1.7,11.9-5l48.1-48.1c2.7-2.7,3.7-5.2,3.7-7.1h0.2v-54.1
		C320,154.8,309.3,144,296,144z M256.2,229.2H256l0,0c-17.5,0-31.9-14.4-31.9-32.1s14.4-32.1,31.9-32.1v-0.4l0.2,0.4
		c17.5,0.2,31.9,14.4,31.9,32.1S273.7,229,256.2,229.2z"/>
</g>
</svg>
