<?xml version="1.0" encoding="utf-8"?>
<!-- Generator: Adobe Illustrator 19.2.0, SVG Export Plug-In . SVG Version: 6.00 Build 0)  -->
<svg version="1.1" id="icon" xmlns="http://www.w3.org/2000/svg" xmlns:xlink="http://www.w3.org/1999/xlink" x="0px" y="0px"
	 viewBox="0 0 512 512" style="enable-background:new 0 0 512 512;" xml:space="preserve">
<style type="text/css">
	.st0{opacity:0.1;fill:#FFFFFF;}
	.st1{fill:#FFFFFF;}
</style>
<g>
	<path class="st0" d="M256,2C130.5,2,28.6,103.9,28.6,229.4H256h227.4C483.6,103.7,381.7,2,256,2z"/>
	<path class="st0" d="M256,229.4H28.6c0,125.5,101.9,227.4,227.4,227.4s227.4-101.9,227.4-227.4L256,229.4z"/>
	<path class="st1" d="M438.3,467.5c-0.2-2.1-0.8-3.9-1.9-5.8l0,0L370.3,347l-21.9-38.2l-40.9-70.7l-31.2,31.2l38.4,66.8l21.1,36.6
		L399.7,483c1,1.9,2.5,3.3,4.1,4.3l31.8,21.7c1.2,0.8,2.7,0.8,3.9,0.2l0,0l0,0c1.2-0.8,1.9-2.1,1.9-3.5L438.3,467.5z"/>
	<path class="st1" d="M377.7,229.4c0,30.2-11.2,57.9-29.6,79.4c-9.5,11-20.7,20.3-33.5,27.3c-17.4,9.7-37.4,15.1-58.7,15.1
		s-41.3-5.6-58.5-15.1l38.4-66.8l-31.2-31.2L75.6,461.7c-1,1.9-1.7,3.7-1.9,5.8l-2.9,38.4c-0.2,1.4,0.6,2.7,1.9,3.5l0,0l0,0
		c1.2,0.8,2.7,0.6,3.9-0.2l31.8-21.5c1.7-1.2,3.1-2.7,4.1-4.3l0,0l63.9-110.6c23.6,13.2,50.8,20.9,79.8,20.9s56.2-7.6,79.8-20.9
		c12.6-7,24.2-15.7,34.3-25.6c30.6-29.8,49.8-71.5,49.8-117.6L377.7,229.4L377.7,229.4z"/>
	<path class="st1" d="M295.7,144.8h-13.2v-42.4v-0.2H256h-26.3v0.2v42.4h-13.4c-13,0-23.8,10.7-23.8,23.8v53.9h0.2
		c-0.2,2.1,1,4.3,3.7,7l47.7,47.7c3.3,3.3,7.6,5,11.8,5v-0.2l0.2,0.2c4.3,0,8.7-1.7,11.8-5l47.7-47.7c2.7-2.7,3.7-5.2,3.7-7h0.2
		v-53.7C319.5,155.6,308.9,144.8,295.7,144.8z M256.2,229.4H256l0,0c-17.4,0-31.6-14.3-31.6-31.8s14.3-31.8,31.6-31.8v-0.4l0.2,0.4
		c17.4,0.2,31.6,14.3,31.6,31.8S273.6,229.2,256.2,229.4z"/>
</g>
</svg>
