<svg version="1.1" id="icon" xmlns="http://www.w3.org/2000/svg" x="0" y="0" viewBox="0 0 512 512" xml:space="preserve"><style type="text/css">.st0{opacity:.1;enable-background:new}.st0,.st1{fill:#fff}</style><path class="st0" d="M256 0C129.5 0 26.8 102.7 26.8 229.2h458.4C485.4 102.5 382.7 0 256 0zM256 229.2H26.8c0 126.5 102.7 229.2 229.2 229.2s229.2-102.7 229.2-229.2H256z"/><path class="st1" d="M439.8 469.2c-.2-2.1-.8-3.9-1.9-5.8l-66.6-115.6-22.1-38.5-41.3-71.3-31.5 31.5 38.7 67.3 21.3 36.9 64.4 111.2c1 1.9 2.5 3.3 4.1 4.3l32.1 21.9c1.2.8 2.7.8 3.9.2 1.2-.8 1.9-2.1 1.9-3.5l-3-38.6z"/><path class="st1" d="M378.7 229.2c0 30.4-11.3 58.4-29.8 80-9.6 11.1-20.9 20.5-33.8 27.5-17.5 9.8-37.7 15.2-59.2 15.2s-41.6-5.6-59-15.2l38.7-67.3-31.4-31.4-130 225.4c-1 1.9-1.7 3.7-1.9 5.8l-3 38.8c-.2 1.4.6 2.7 1.9 3.5 1.2.8 2.7.6 3.9-.2l32.1-21.7c1.7-1.2 3.1-2.7 4.1-4.3l64.4-111.5c23.8 13.3 51.2 21.1 80.4 21.1s56.7-7.7 80.4-21.1c12.7-7.1 24.4-15.8 34.6-25.8 30.8-30 50.2-72.1 50.2-118.5l-42.6-.3z"/><path class="st1" d="M296 144h-13.3v-43h-53.2v43H216c-13.1 0-24 10.8-24 24v54.3h.2c-.2 2.1 1 4.3 3.7 7.1l48.1 48.1c3.3 3.3 7.7 5 11.9 5v-.2l.2.2c4.3 0 8.8-1.7 11.9-5l48.1-48.1c2.7-2.7 3.7-5.2 3.7-7.1h.2v-54.1c0-13.4-10.7-24.2-24-24.2zm-39.8 85.2h-.2c-17.5 0-31.9-14.4-31.9-32.1S238.5 165 256 165v-.4l.2.4c17.5.2 31.9 14.4 31.9 32.1s-14.4 31.9-31.9 32.1z"/></svg>