<?xml version="1.0" encoding="utf-8"?>
<!-- Generator: Adobe Illustrator 22.1.0, SVG Export Plug-In . SVG Version: 6.00 Build 0)  -->
<svg version="1.1" id="icon" xmlns="http://www.w3.org/2000/svg" xmlns:xlink="http://www.w3.org/1999/xlink" x="0px" y="0px"
	 viewBox="0 0 512 512" style="enable-background:new 0 0 512 512;" xml:space="preserve">
<style type="text/css">
	.st0{opacity:0.1;fill:#FFFFFF;}
	.st1{fill:#FFFFFF;}
</style>
<g>
	<circle class="st0" cx="256" cy="256" r="256"/>
	<path class="st1" d="M172.3,232.7c4.3-7.4,8.9-14.8,13.6-22.1c2.4-3.7,4.8-7.3,7.3-10.9c-10.9,0.8-21.2,1.9-31,3.3
		C165.1,212.5,168.4,222.5,172.3,232.7z"/>
	<path class="st1" d="M256,0C114.6,0,0,114.6,0,256s114.6,256,256,256s256-114.6,256-256S397.4,0,256,0z M416.4,329.7
		c-0.9,0.3-1.9,0.5-2.8,0.5c-3.3,0-6.3-2-7.6-5.2c-1.6-4.2,0.5-9,4.6-10.6c27.2-10.6,42.6-23.9,43.3-37.8
		c0.8-16.2-18.3-33.8-52.5-48.4c-37.3-15.9-87.6-26.2-141.8-29c-10.9-0.6-21.3-0.8-31-0.8c-5,0-10,0.1-14.8,0.3
		c-4.8,6.7-9.5,13.6-14.1,20.6c-7.1,10.9-13.6,21.8-19.7,32.7c4.8,11.3,10.2,22.9,16.2,34.7c24.6,48.3,54.5,90.1,84.2,117.7
		c27.3,25.4,51.2,35.7,65.6,28.4c27.1-13.8,23.6-95.7-24.5-195.6c-1.9-4.1-0.2-9,3.8-11c4.1-2,9-0.2,11,3.8
		c23.1,48,38,96.2,42.1,135.6c4.3,42.3-4.5,71.3-25,81.7c-5.3,2.6-11.2,3.9-17.5,3.9c-18.9,0-41.9-12-66.7-35
		c-31.1-28.9-62.2-72.4-87.6-122.3c-4-7.8-7.8-15.7-11.3-23.5c-14.3,28.4-24.8,55.9-30.5,80.6c-8.4,36.3-5.3,62.2,8.3,70.9
		c12.8,8.3,35.9,1.8,63.6-17.9c3.7-2.6,8.8-1.8,11.5,1.9c2.6,3.7,1.8,8.8-1.9,11.5c-23.2,16.5-43.4,24.8-60,24.8
		c-8.4,0-15.8-2.1-22.2-6.2c-20-13-25.4-44.4-15.3-88.4c6.9-29.6,20.1-62.8,38.1-96.6c-6.3-15.4-11.7-30.6-16-45.4
		c-55,10.4-86.8,30.6-87.8,50.2C57.4,269.7,71.2,284.6,97,298c4,2.1,5.6,7,3.5,11.1c-2.1,4-7,5.6-11.1,3.5
		c-32.4-16.7-48.9-36.5-47.8-57.5c1.5-29.9,39.9-53.7,100-65.3c-3.4-13.5-5.9-26.5-7.4-38.7c-5.4-44.9,3.2-75.6,24.5-86.3
		c4.3-2.2,9.2-3.5,14.4-3.9c16.9-1.3,37.7,7.8,60.1,26.5c3.5,2.9,3.9,8.1,1.1,11.6c-2.9,3.5-8.1,3.9-11.6,1.1
		c-18.8-15.6-36-23.6-48.4-22.7c-3,0.2-5.7,0.9-8.2,2.2c-18.6,9.4-22.7,50.8-8.3,107.5c14.8-2.2,30.7-3.7,47.4-4.4
		C254.5,115.7,310,71.4,348.7,70c9.2-0.4,17.3,1.7,24.2,6.1c19,12.4,24.9,40.4,16.9,81c-0.9,4.4-5.2,7.3-9.7,6.4
		c-4.4-0.9-7.3-5.1-6.4-9.7c6.4-32.6,2.8-55.9-9.8-64.1c-3.9-2.5-8.9-3.7-14.6-3.5c-31,1.2-79.5,39.8-123.2,95.9c0.8,0,1.5,0,2.3,0
		c10.1,0,20.7,0.2,31.9,0.8c55.9,2.9,108.3,13.7,147.3,30.3c41.6,17.7,63.8,40.6,62.5,64.3C469,298.4,450.4,316.5,416.4,329.7z
		 M280.6,256c0,13.6-11,24.6-24.6,24.6c-13.6,0-24.6-11-24.6-24.6c0-13.6,11-24.6,24.6-24.6C269.6,231.4,280.6,242.4,280.6,256z"/>
</g>
</svg>
