<?xml version="1.0" encoding="utf-8"?>
<!-- Generator: Adobe Illustrator 22.1.0, SVG Export Plug-In . SVG Version: 6.00 Build 0)  -->
<svg version="1.1" id="icon" xmlns="http://www.w3.org/2000/svg" xmlns:xlink="http://www.w3.org/1999/xlink" x="0px" y="0px"
	 viewBox="0 0 512 512" style="enable-background:new 0 0 512 512;" xml:space="preserve">
<style type="text/css">
	.st0{opacity:0.1;fill:#FFFFFF;enable-background:new    ;}
	.st1{fill:#FFFFFF;}
</style>
<g>
	<path class="st0" d="M459.5,511.9H79.4c-27.8,0-51.1-23.3-51.1-51.1v-354c0-27.8,23.3-51.1,51.1-51.1h380.1
		c27.8,0,51.1,23.3,51.1,51.1v355C510.6,489.5,487.3,511.9,459.5,511.9z"/>
	<path class="st1" d="M459.5,75.6c8.1,0,15.8,3.3,21.8,9.3c6,6,9.3,13.7,9.3,21.8v355c0,7.9-3.2,15.5-9.1,21.2c-5.9,5.8-13.7,9-22,9
		H79.4c-8.1,0-15.8-3.3-21.8-9.3c-6-6-9.3-13.7-9.3-21.8V106.7c0-8.1,3.3-15.8,9.3-21.8c6-6,13.7-9.3,21.8-9.3H459.5 M459.5,55.6
		H79.4c-27.8,0-51.1,23.3-51.1,51.1v354.1c0,27.8,23.3,51.1,51.1,51.1h380.1c27.8,0,51.1-22.4,51.1-50.2v-355
		C510.6,78.9,487.3,55.6,459.5,55.6L459.5,55.6z"/>
	<path class="st1" d="M1.4,343.3c0,0,40.3-122.8,101.3-199S293.6,0,293.6,0s-83.4,127.3-114.7,206.2s-31.3,186.5-31.3,186.5
		S99.1,373,65,363.1S1.4,343.3,1.4,343.3z"/>
	<path class="st1" d="M107.2,69.1c0,0,91.5,98.6,112.1,188.3s33.1,231.3,33.1,231.3s73.5-39.4,110.3-55.6s91.5-40.3,91.5-40.3
		s-80.7-156.9-152.4-222.3S107.2,69.1,107.2,69.1z"/>
</g>
</svg>
