<?xml version="1.0" encoding="utf-8"?>
<!-- Generator: Adobe Illustrator 19.2.0, SVG Export Plug-In . SVG Version: 6.00 Build 0)  -->
<svg version="1.1" id="icon" xmlns="http://www.w3.org/2000/svg" xmlns:xlink="http://www.w3.org/1999/xlink" x="0px" y="0px"
	 viewBox="0 0 512 512" style="enable-background:new 0 0 512 512;" xml:space="preserve">
<style type="text/css">
	.st0{opacity:0.1;fill:#FFFFFF;}
	.st1{fill:#FFFFFF;}
</style>
<g>
	<path class="st0" d="M459.3,511.7H79.6c-27.8,0-51.1-23.3-51.1-51.1V106.9c0-27.8,23.3-51.1,51.1-51.1h379.7
		c27.8,0,51.1,23.3,51.1,51.1v354.7C510.4,489.3,487.1,511.7,459.3,511.7z"/>
	<path class="st1" d="M459.3,75.8c8.1,0,15.8,3.3,21.8,9.3c6,6,9.3,13.7,9.3,21.8v354.7c0,7.9-3.2,15.5-9.1,21.2
		c-5.9,5.8-13.7,9-22,9H79.6c-8.1,0-15.8-3.3-21.8-9.3s-9.3-13.7-9.3-21.8V106.9c0-8.1,3.3-15.8,9.3-21.8s13.7-9.3,21.8-9.3H459.3
		 M459.3,55.8H79.6c-27.8,0-51.1,23.3-51.1,51.1v353.8c0,27.8,23.3,51.1,51.1,51.1h379.7c27.8,0,51.1-22.4,51.1-50.2V106.9
		C510.4,79.1,487.1,55.8,459.3,55.8L459.3,55.8z"/>
	<path class="st1" d="M1.6,343.3c0,0,40.3-122.7,101.2-198.8S293.6,0.3,293.6,0.3s-83.3,127.2-114.6,206s-31.3,186.3-31.3,186.3
		S99.3,372.9,65.2,363S1.6,343.3,1.6,343.3z"/>
	<path class="st1" d="M107.3,69.3c0,0,91.4,98.5,112,188.1s33.1,231.1,33.1,231.1s73.4-39.4,110.2-55.5s91.4-40.3,91.4-40.3
		s-80.6-156.7-152.3-222.1S107.3,69.3,107.3,69.3z"/>
</g>
</svg>
