<svg version="1.1" xmlns="http://www.w3.org/2000/svg" x="0" y="0" viewBox="0 0 512 512" xml:space="preserve"><g fill="#fff"><circle cx="256" cy="256" r="256" opacity=".1"/><path d="M256 22.8C127.2 22.8 22.8 127.2 22.8 256c0 105.2 69.6 194 165.2 223.1 8.3-1.6 11.4-12.9 11.4-18.1 0-5.4-.2-19.8-.3-38.9-63.6 13.8-77.1-30.7-77.1-30.7-10.4-26.5-25.4-33.5-25.4-33.5-20.7-14.2 1.6-13.9 1.6-13.9 22.8 1.7 34.9 23.7 34.9 23.7 20.4 34.9 53.5 24.9 66.6 19 2.1-14.8 7.9-24.9 14.5-30.6-50.8-5.7-104.3-25.4-104.3-113.1 0-25 9-45.4 23.5-61.4-2.3-5.8-10.2-29.1 2.2-60.6 0 0 19.2-6.1 62.9 23.4 18.2-5 37.8-7.6 57.3-7.7 19.4.1 39 2.6 57.3 7.7C356.8 114.8 376 121 376 121c12.5 31.5 4.6 54.7 2.3 60.6 14.7 16 23.5 36.4 23.5 61.4 0 87.9-53.5 107.3-104.5 112.9 8.3 7 15.5 21 15.5 42.4 0 30.6-.3 62.3-.3 69.8 0 4.9 2.7 10.7 10 11.4 96.2-28.8 166.3-117.9 166.3-223.4.4-128.9-104-233.3-232.8-233.3z"/></g></svg>