<?xml version="1.0" encoding="utf-8"?>
<!-- Generator: Adobe Illustrator 22.1.0, SVG Export Plug-In . SVG Version: 6.00 Build 0)  -->
<svg version="1.1" id="icon" xmlns="http://www.w3.org/2000/svg" xmlns:xlink="http://www.w3.org/1999/xlink" x="0px" y="0px"
	 viewBox="0 0 512 512" style="enable-background:new 0 0 512 512;" xml:space="preserve">
<style type="text/css">
	.st0{opacity:0.1;fill:#FFFFFF;enable-background:new    ;}
	.st1{fill:#FFFFFF;}
</style>
<g>
	<circle class="st0" cx="256" cy="256" r="256"/>
	<path class="st1" d="M256,22.8C127.2,22.8,22.8,127.2,22.8,256c0,105.2,69.6,194,165.2,223.1c8.3-1.6,11.4-12.9,11.4-18.1
		c0-5.4-0.2-19.8-0.3-38.9c-63.6,13.8-77.1-30.7-77.1-30.7c-10.4-26.5-25.4-33.5-25.4-33.5c-20.7-14.2,1.6-13.9,1.6-13.9
		c22.8,1.7,34.9,23.7,34.9,23.7c20.4,34.9,53.5,24.9,66.6,19c2.1-14.8,7.9-24.9,14.5-30.6c-50.8-5.7-104.3-25.4-104.3-113.1
		c0-25,9-45.4,23.5-61.4c-2.3-5.8-10.2-29.1,2.2-60.6c0,0,19.2-6.1,62.9,23.4c18.2-5,37.8-7.6,57.3-7.7c19.4,0.1,39,2.6,57.3,7.7
		c43.7-29.6,62.9-23.4,62.9-23.4c12.5,31.5,4.6,54.7,2.3,60.6c14.7,16,23.5,36.4,23.5,61.4c0,87.9-53.5,107.3-104.5,112.9
		c8.3,7,15.5,21,15.5,42.4c0,30.6-0.3,62.3-0.3,69.8c0,4.9,2.7,10.7,10,11.4c96.2-28.8,166.3-117.9,166.3-223.4
		C489.2,127.2,384.8,22.8,256,22.8z"/>
</g>
</svg>
