<?xml version="1.0" encoding="utf-8"?>
<!-- Generator: Adobe Illustrator 22.1.0, SVG Export Plug-In . SVG Version: 6.00 Build 0)  -->
<svg version="1.1" id="icon" xmlns="http://www.w3.org/2000/svg" xmlns:xlink="http://www.w3.org/1999/xlink" x="0px" y="0px"
	 viewBox="0 0 512 512" style="enable-background:new 0 0 512 512;" xml:space="preserve">
<style type="text/css">
	.st0{opacity:0.1;fill:#FFFFFF;}
	.st1{opacity:0.1;fill:#F1F1F1;enable-background:new    ;}
	.st2{fill:#FFFFFF;}
</style>
<g>
	<path class="st0" d="M154.6,313c0.1,0.1,0.2,0.3,0.2,0.4c-9.6-16.9-15.1-36.4-15.1-57.4c0-64.3,52.1-116.3,116.3-116.3h228
		C441.7,56.8,355.4,0,256,0C165.6,0,86.2,46.8,40.7,117.5v0.1L154.6,313z"/>
	<path class="st0" d="M356.8,314.2L356.8,314.2C336.7,349,299,372.4,256,372.4c-43.6,0-81.5-23.9-101.4-59.4L40.7,117.6
		C15,157.5,0,205,0,256c0,137.3,108.1,249.4,243.8,255.7L356.8,314.2z"/>
	<path class="st0" d="M484,139.7H256c64.3,0,116.3,52.1,116.3,116.3c0,21.2-5.6,41.1-15.6,58.2l0,0L243.8,511.7
		c4,0.2,8.1,0.3,12.2,0.3c141.4,0,256-114.6,256-256C512,214.1,501.9,174.6,484,139.7z"/>
	<circle class="st1" cx="256" cy="256" r="116.3"/>
	<circle class="st2" cx="256" cy="256" r="82.3"/>
	<path class="st2" d="M511.9,250.1c0-0.4,0-0.7,0-1.1c-0.1-1.9-0.1-3.7-0.2-5.6c0-0.4,0-0.9-0.1-1.3c-0.1-1.8-0.2-3.7-0.3-5.5
		c0-0.3-0.1-0.7-0.1-1c-0.1-1.5-0.3-3-0.4-4.5c-0.1-0.6-0.1-1.2-0.2-1.8c-0.2-1.6-0.3-3.1-0.5-4.7c-0.1-0.8-0.2-1.7-0.3-2.5
		c-0.1-1-0.3-1.9-0.4-2.9c-0.2-1.5-0.5-3-0.7-4.5c-0.1-0.5-0.2-1-0.2-1.5C491.8,114.4,418.7,35,323.5,9c-0.2,0-0.3-0.1-0.5-0.1
		c-3.9-1.1-7.8-2-11.8-2.9c-0.6-0.1-1.1-0.2-1.7-0.4c-1.1-0.2-2.2-0.5-3.4-0.7c-0.7-0.1-1.5-0.3-2.2-0.4c-1.6-0.3-3.3-0.6-4.9-0.9
		c-0.9-0.2-1.9-0.3-2.8-0.5c-0.9-0.1-1.8-0.3-2.7-0.4c-1.1-0.2-2.2-0.3-3.4-0.5c-0.7-0.1-1.4-0.2-2.1-0.3c-1.7-0.2-3.5-0.4-5.2-0.6
		c-0.7-0.1-1.4-0.1-2-0.2c-1.3-0.1-2.7-0.2-4-0.4c-0.6,0-1.2-0.1-1.8-0.1c-1.9-0.1-3.7-0.3-5.6-0.4c-0.4,0-0.9,0-1.3-0.1
		c-1.6-0.1-3.1-0.1-4.7-0.2c-0.6,0-1.1,0-1.7,0C259.9,0,258,0,256,0c-2,0-3.9,0-5.9,0.1c-0.4,0-0.9,0-1.3,0
		c-1.9,0.1-3.9,0.1-5.8,0.2c-0.2,0-0.5,0-0.7,0c-1.8,0.1-3.5,0.2-5.3,0.3c-0.4,0-0.7,0.1-1.1,0.1c-1.9,0.1-3.8,0.3-5.7,0.5
		c-0.3,0-0.6,0.1-0.9,0.1c-1.8,0.2-3.6,0.4-5.4,0.6c-0.2,0-0.4,0.1-0.7,0.1c-1.9,0.2-3.9,0.5-5.8,0.8c-0.3,0-0.6,0.1-0.9,0.1
		c-3.9,0.6-7.8,1.3-11.7,2.1c-0.3,0.1-0.5,0.1-0.8,0.2c-3.9,0.8-7.9,1.7-11.7,2.7c-0.2,0-0.3,0.1-0.5,0.1c-2,0.5-3.9,1-5.9,1.6
		c0,0,0,0,0,0c-4,1.1-8,2.4-12,3.7c0,0-0.1,0-0.1,0c-3.9,1.3-7.8,2.8-11.6,4.3c0,0-0.1,0-0.1,0c-13.5,5.3-26.5,11.8-38.8,19.3
		c0,0,0,0,0,0c-3.5,2.1-6.9,4.3-10.2,6.6c-0.1,0.1-0.2,0.1-0.2,0.2c-3.3,2.2-6.5,4.5-9.7,6.9c-0.1,0.1-0.3,0.2-0.4,0.3
		c-1.5,1.2-3.1,2.3-4.6,3.5c-0.2,0.1-0.3,0.2-0.5,0.4c-1.4,1.1-2.7,2.2-4.1,3.3c-0.2,0.1-0.4,0.3-0.5,0.4c-1.4,1.1-2.7,2.3-4.1,3.5
		c-0.3,0.3-0.7,0.6-1,0.9c-1.2,1-2.3,2-3.4,3c-0.3,0.2-0.5,0.5-0.8,0.7c-1.2,1.1-2.4,2.2-3.6,3.3c-0.5,0.5-1,0.9-1.5,1.4
		c-0.9,0.9-1.8,1.8-2.7,2.7c-0.7,0.7-1.5,1.5-2.2,2.2c-0.6,0.6-1.3,1.3-1.9,1.9c-0.7,0.7-1.3,1.4-1.9,2c-0.4,0.5-0.9,0.9-1.3,1.4
		c-1.2,1.3-2.5,2.7-3.7,4.1c-0.3,0.3-0.5,0.6-0.8,0.9c-31,35.1-52.5,78.8-60.6,127.1c0,0.2-0.1,0.3-0.1,0.5
		c-0.6,3.9-1.2,7.9-1.7,11.8c-0.1,0.8-0.2,1.6-0.3,2.5c-0.1,0.9-0.2,1.9-0.3,2.8c-0.1,1.1-0.2,2.2-0.3,3.4c-0.1,0.7-0.1,1.5-0.2,2.2
		c-0.1,1.8-0.2,3.6-0.3,5.5c0,0.6-0.1,1.2-0.1,1.8c-0.1,1.4-0.1,2.9-0.2,4.3c0,0.6,0,1.2,0,1.8c0,2-0.1,3.9-0.1,5.9
		c0,2.2,0,4.3,0.1,6.5c0,0.7,0.1,1.5,0.1,2.2c0,1.4,0.1,2.8,0.2,4.3c0,0.9,0.1,1.8,0.2,2.7c0.1,1.2,0.1,2.5,0.2,3.7
		c0.1,1,0.2,1.9,0.2,2.9c0.1,1.2,0.2,2.3,0.3,3.5c0.1,1,0.2,2,0.3,3c0.1,1.1,0.2,2.2,0.4,3.3c0.1,1,0.3,2.1,0.4,3.1
		c0.1,1.1,0.3,2.1,0.4,3.2c0.2,1.1,0.3,2.1,0.5,3.2c0.2,1,0.3,2.1,0.5,3.1c0.2,1.1,0.4,2.1,0.6,3.2c0.2,1,0.4,2,0.6,3
		c0.2,1.1,0.5,2.2,0.7,3.2c0.2,1,0.4,1.9,0.6,2.9c0.2,1.1,0.5,2.2,0.8,3.2c0.2,0.9,0.4,1.9,0.7,2.8c0.3,1.1,0.6,2.2,0.9,3.3
		c0.2,0.9,0.5,1.8,0.7,2.7c0.3,1.1,0.6,2.2,0.9,3.3c0.3,0.9,0.5,1.8,0.8,2.7c0.3,1.1,0.7,2.2,1,3.3c0.3,0.9,0.6,1.7,0.9,2.6
		c0.4,1.1,0.7,2.2,1.1,3.3c0.3,0.9,0.6,1.7,0.9,2.6c0.4,1.1,0.8,2.2,1.2,3.2c0.3,0.8,0.6,1.7,1,2.5c0.4,1.1,0.8,2.2,1.3,3.2
		c0.3,0.8,0.7,1.6,1,2.5c0.4,1.1,0.9,2.1,1.4,3.2c0.3,0.8,0.7,1.6,1.1,2.4c0.5,1.1,1,2.1,1.4,3.2c0.4,0.8,0.7,1.6,1.1,2.4
		c0.5,1.1,1,2.1,1.5,3.1c0.4,0.8,0.8,1.6,1.2,2.3c0.5,1,1.1,2.1,1.6,3.1c0.4,0.8,0.8,1.5,1.2,2.3c0.5,1,1.1,2.1,1.7,3.1
		c0.4,0.8,0.8,1.5,1.3,2.3c0.6,1,1.1,2,1.7,3c0.4,0.8,0.9,1.5,1.3,2.2c0.6,1,1.2,2,1.8,3c0.5,0.7,0.9,1.5,1.4,2.2
		c0.6,1,1.2,1.9,1.8,2.9c0.5,0.7,1,1.5,1.5,2.2c0.6,0.9,1.3,1.9,1.9,2.8c0.5,0.7,1,1.5,1.5,2.2c0.6,0.9,1.3,1.8,1.9,2.8
		c0.5,0.7,1.1,1.5,1.6,2.2c0.7,0.9,1.3,1.8,2,2.7c0.6,0.7,1.1,1.5,1.7,2.2c0.7,0.9,1.3,1.7,2,2.6c0.6,0.8,1.2,1.5,1.8,2.3
		c0.7,0.8,1.3,1.6,2,2.4c0.6,0.8,1.3,1.5,2,2.3c0.6,0.8,1.3,1.5,1.9,2.3c0.7,0.8,1.4,1.6,2.2,2.4c0.6,0.7,1.2,1.4,1.8,2.1
		c0.8,0.9,1.6,1.8,2.5,2.6c0.6,0.6,1.1,1.2,1.7,1.8c1,1,2,2,3,3.1c0.4,0.4,0.8,0.8,1.2,1.2c5.8,5.8,11.8,11.2,18.1,16.4
		c0.2,0.1,0.3,0.3,0.5,0.4c1.4,1.2,2.8,2.3,4.2,3.4c0.2,0.2,0.5,0.4,0.8,0.6c1.4,1.1,2.7,2.1,4.1,3.1c0.3,0.2,0.6,0.5,0.9,0.7
		c1.3,1,2.7,2,4,2.9c0.3,0.2,0.7,0.5,1,0.7c1.3,0.9,2.6,1.8,4,2.8c0.4,0.3,0.8,0.5,1.1,0.8c1.3,0.9,2.6,1.8,4,2.6
		c0.4,0.3,0.8,0.5,1.2,0.8c1.3,0.8,2.6,1.7,4,2.5c0.4,0.3,0.8,0.5,1.3,0.8c1.3,0.8,2.7,1.6,4,2.4c0.4,0.3,0.9,0.5,1.3,0.8
		c1.3,0.8,2.7,1.5,4,2.2c0.5,0.3,0.9,0.5,1.4,0.7c1.3,0.7,2.7,1.4,4,2.1c0.5,0.2,1,0.5,1.4,0.7c1.3,0.7,2.7,1.4,4,2
		c0.5,0.2,1,0.5,1.5,0.7c1.3,0.6,2.7,1.3,4,1.9c0.5,0.2,1.1,0.5,1.6,0.7c1.3,0.6,2.7,1.2,4,1.8c0.6,0.2,1.1,0.5,1.7,0.7
		c1.3,0.6,2.7,1.1,4,1.6c0.6,0.2,1.2,0.5,1.8,0.7c1.3,0.5,2.7,1,4,1.5c0.6,0.2,1.2,0.5,1.8,0.7c1.3,0.5,2.6,0.9,4,1.4
		c0.7,0.2,1.3,0.4,2,0.7c1.3,0.4,2.6,0.9,3.9,1.3c0.7,0.2,1.4,0.4,2.1,0.7c1.3,0.4,2.5,0.8,3.8,1.1c0.7,0.2,1.5,0.4,2.2,0.6
		c1.2,0.3,2.5,0.7,3.7,1c0.8,0.2,1.6,0.4,2.4,0.6c1.2,0.3,2.4,0.6,3.5,0.9c0.9,0.2,1.8,0.4,2.6,0.6c1.1,0.3,2.2,0.5,3.3,0.7
		c1,0.2,1.9,0.4,2.9,0.6c1,0.2,2.1,0.4,3.1,0.6c1.1,0.2,2.1,0.4,3.2,0.6c0.9,0.2,1.8,0.3,2.8,0.5c1.2,0.2,2.4,0.4,3.6,0.6
		c0.8,0.1,1.6,0.2,2.3,0.3c1.4,0.2,2.7,0.4,4.1,0.5c0.6,0.1,1.2,0.1,1.8,0.2c1.5,0.2,3.1,0.4,4.7,0.5c0.4,0,0.7,0.1,1.1,0.1
		c1.8,0.2,3.6,0.3,5.4,0.5c0,0,0.1,0,0.1,0c4,0.3,8.1,0.5,12.2,0.6c2.1,0.1,4.2,0.1,6.2,0.1c141.4,0,256-114.6,256-256
		C512,254,512,252,511.9,250.1z M89.1,89.2c21.6-21.7,46.9-38.6,75-50.5c29.2-12.3,60.1-18.6,91.9-18.6s62.7,6.2,91.8,18.5
		c28.1,11.9,53.3,28.9,75,50.5c12.4,12.3,23.2,25.9,32.5,40.5H256c-67.8,0-123.4,53.7-126.3,120.9l-71.6-123
		C67,113.8,77.4,101,89.1,89.2z M256,362.3c-58.6,0-106.3-47.7-106.3-106.3c0-58.6,47.7-106.3,106.3-106.3
		c58.6,0,106.3,47.7,106.3,106.3C362.3,314.6,314.6,362.3,256,362.3z M243.9,491.4c-27.5-1.4-54.3-7.5-79.7-18.2
		c-28.1-11.9-53.3-28.9-75-50.5c-21.7-21.6-38.6-46.8-50.6-74.9c-12.3-29.1-18.5-60-18.5-91.8c0-31.8,6.2-62.7,18.5-91.8
		c2.4-5.7,5-11.2,7.8-16.7L145.8,318c22.4,39.7,64.6,64.5,110.2,64.5c20.6,0,40.7-5.1,58.4-14.4L243.9,491.4z M473.3,347.7
		c-11.9,28.1-28.9,53.3-50.5,75c-21.6,21.7-46.9,38.6-75,50.5c-25.8,10.9-52.9,17-80.9,18.2l98.6-172.2l2.8-5l-0.1-0.1
		c9.3-17.8,14.1-37.8,14.1-58.1c0-44.6-23.1-83.7-58.1-106.3h142.4c2.4,4.7,4.6,9.5,6.7,14.4c12.3,29.1,18.5,60,18.5,91.8
		C491.8,287.7,485.6,318.6,473.3,347.7z"/>
</g>
</svg>
