<?xml version="1.0" encoding="utf-8"?>
<!-- Generator: Adobe Illustrator 19.2.0, SVG Export Plug-In . SVG Version: 6.00 Build 0)  -->
<svg version="1.1" id="icon" xmlns="http://www.w3.org/2000/svg" xmlns:xlink="http://www.w3.org/1999/xlink" x="0px" y="0px"
	 viewBox="0 0 512 512" style="enable-background:new 0 0 512 512;" xml:space="preserve">
<style type="text/css">
	.st0{opacity:0.1;}
	.st1{fill:#FFFFFF;}
	.st2{opacity:0.1;fill:#F1F1F1;}
</style>
<g>
	<g class="st0">
		<path class="st1" d="M155.2,312.6c0.1,0.1,0.2,0.3,0.2,0.4c-9.5-16.8-15-36.2-15-57c0-63.9,51.8-115.6,115.6-115.6h226.6
			C440.5,58,354.8,1.6,256,1.6c-89.8,0-168.7,46.5-214,116.8v0.1L155.2,312.6z"/>
	</g>
	<g class="st0">
		<path class="st1" d="M356.2,313.8L356.2,313.8c-20,34.6-57.4,57.8-100.2,57.8c-43.3,0-81-23.8-100.8-59L42,118.5
			C16.5,158.1,1.6,205.3,1.6,256c0,136.4,107.4,247.8,242.3,254.1L356.2,313.8z"/>
	</g>
	<g class="st0">
		<path class="st1" d="M482.6,140.4H256c63.9,0,115.6,51.8,115.6,115.6c0,21.1-5.6,40.8-15.5,57.8l0,0L243.9,510.1
			c4,0.2,8,0.3,12.1,0.3c140.5,0,254.4-113.9,254.4-254.4C510.4,214.4,500.4,175.1,482.6,140.4z"/>
	</g>
	<circle class="st2" cx="256" cy="256" r="115.6"/>
	<path class="st1" d="M256,11.6c45.9,0,90.6,12.8,129.3,37c32.9,20.6,60.5,48.6,80.4,81.8H256c-67.4,0-122.6,53.4-125.5,120.1
		L53.8,118.8c21.4-31.5,50.2-57.8,83.4-76.4C173.3,22.3,214.4,11.6,256,11.6 M256,1.6c-89.8,0-168.7,46.5-214,116.8v0.1l113.1,194
		c0.1,0.1,0.2,0.3,0.2,0.4c-9.5-16.8-15-36.2-15-57c0-63.9,51.8-115.6,115.6-115.6h226.6C440.5,58,354.8,1.6,256,1.6L256,1.6z"/>
	<path class="st1" d="M41.9,138.2l104.6,179.4c22.3,39.5,64.2,64.1,109.5,64.1c20.5,0,40.4-5.1,58-14.3l-75.7,132.4
		c-60.5-4.3-116.7-30.7-158.9-74.8C35.7,379.2,11.6,319.3,11.6,256C11.6,214.5,22.1,174.1,41.9,138.2 M42,118.5
		C16.5,158.1,1.6,205.3,1.6,256c0,136.4,107.4,247.8,242.3,254.1l112.2-196.3h0c-20,34.6-57.4,57.8-100.1,57.8
		c-43.3,0-81-23.8-100.8-59L42,118.5L42,118.5z"/>
	<path class="st1" d="M476.4,150.4c15.9,33,23.9,68.5,23.9,105.6c0,33-6.5,65-19.2,95.1c-12.3,29.1-29.9,55.2-52.4,77.7
		c-22.4,22.4-48.6,40.1-77.7,52.4c-28.6,12.1-58.9,18.5-90.1,19.1l103.8-181.5l2.8-5l-0.1-0.1c9.2-17.7,14-37.6,14-57.7
		c0-44.3-23-83.2-57.7-105.6H476.4 M482.6,140.4H256c63.9,0,115.6,51.8,115.6,115.6c0,21.1-5.6,40.8-15.5,57.8l0,0L243.9,510.1
		c4,0.2,8,0.3,12.1,0.3c140.5,0,254.4-113.9,254.4-254.4C510.4,214.4,500.4,175.1,482.6,140.4L482.6,140.4z"/>
	<path class="st1" d="M256,21.6c31.6,0,62.3,6.2,91.2,18.4c27.9,11.8,53,28.7,74.5,50.2c21.5,21.5,38.4,46.6,50.2,74.5
		c12.2,28.9,18.4,59.6,18.4,91.2s-6.2,62.3-18.4,91.2c-11.8,27.9-28.7,53-50.2,74.5c-21.5,21.5-46.6,38.4-74.5,50.2
		c-28.9,12.2-59.6,18.4-91.2,18.4s-62.3-6.2-91.2-18.4c-27.9-11.8-53-28.7-74.5-50.2S51.9,375.1,40,347.2
		c-12.2-28.9-18.4-59.6-18.4-91.2s6.2-62.3,18.4-91.2c11.8-27.9,28.7-53,50.2-74.5s46.6-38.4,74.5-50.2
		C193.7,27.8,224.4,21.6,256,21.6 M256,1.6C115.5,1.6,1.6,115.5,1.6,256S115.5,510.4,256,510.4S510.4,396.5,510.4,256
		S396.5,1.6,256,1.6L256,1.6z"/>
	<path class="st1" d="M256,150.4c58.2,0,105.6,47.4,105.6,105.6S314.2,361.6,256,361.6S150.4,314.2,150.4,256S197.8,150.4,256,150.4
		 M256,140.4c-63.9,0-115.6,51.8-115.6,115.6S192.1,371.6,256,371.6S371.6,319.9,371.6,256S319.9,140.4,256,140.4L256,140.4z"/>
	<circle class="st1" cx="256" cy="256" r="81.8"/>
</g>
</svg>
