<?xml version="1.0" encoding="utf-8"?>
<!-- Generator: Adobe Illustrator 22.1.0, SVG Export Plug-In . SVG Version: 6.00 Build 0)  -->
<svg version="1.1" id="icon" xmlns="http://www.w3.org/2000/svg" xmlns:xlink="http://www.w3.org/1999/xlink" x="0px" y="0px"
	 viewBox="0 0 512 512" style="enable-background:new 0 0 512 512;" xml:space="preserve">
<style type="text/css">
	.st0{opacity:0.1;}
	.st1{fill:#FFFFFF;}
	.st2{opacity:0.1;fill:#F1F1F1;enable-background:new    ;}
</style>
<g>
	<g class="st0">
		<path class="st1" d="M154.6,313c0.1,0.1,0.2,0.3,0.2,0.4c-9.6-16.9-15.1-36.4-15.1-57.4c0-64.3,52.1-116.3,116.3-116.3h228
			C441.7,56.8,355.4,0,256,0C165.6,0,86.2,46.8,40.7,117.5v0.1L154.6,313z"/>
	</g>
	<g class="st0">
		<path class="st1" d="M356.8,314.2L356.8,314.2c-20.1,34.8-57.8,58.2-100.8,58.2c-43.6,0-81.5-23.9-101.4-59.4L40.7,117.6
			C15,157.5,0,205,0,256c0,137.3,108.1,249.4,243.8,255.7L356.8,314.2z"/>
	</g>
	<g class="st0">
		<path class="st1" d="M484,139.7H256c64.3,0,116.3,52.1,116.3,116.3c0,21.2-5.6,41.1-15.6,58.2l0,0L243.8,511.7
			c4,0.2,8.1,0.3,12.2,0.3c141.4,0,256-114.6,256-256C512,214.1,501.9,174.6,484,139.7z"/>
	</g>
	<circle class="st2" cx="256" cy="256" r="116.3"/>
	<path class="st1" d="M256,10.1c46.2,0,91.2,12.9,130.1,37.2C419.2,68,447,96.2,467,129.6H256c-67.8,0-123.4,53.7-126.3,120.9
		L52.5,117.9c21.5-31.7,50.5-58.2,83.9-76.9C172.8,20.8,214.1,10.1,256,10.1 M256,0C165.6,0,86.2,46.8,40.7,117.5v0.1l113.8,195.2
		c0.1,0.1,0.2,0.3,0.2,0.4c-9.6-16.9-15.1-36.4-15.1-57.4c0-64.3,52.1-116.3,116.3-116.3h228C441.7,56.8,355.4,0,256,0L256,0z"/>
	<path class="st1" d="M40.6,137.5L145.8,318c22.4,39.7,64.6,64.5,110.2,64.5c20.6,0,40.7-5.1,58.4-14.4l-76.2,133.2
		c-60.9-4.3-117.4-30.9-159.9-75.3C34.3,380,10.1,319.7,10.1,256C10.1,214.2,20.6,173.6,40.6,137.5 M40.7,117.6
		C15,157.5,0,205,0,256c0,137.3,108.1,249.4,243.8,255.7l112.9-197.5l0,0C336.6,349,299,372.3,256,372.3
		c-43.6,0-81.5-23.9-101.4-59.4L40.7,117.6L40.7,117.6z"/>
	<path class="st1" d="M477.8,149.7c16,33.2,24.1,68.9,24.1,106.3c0,33.2-6.5,65.4-19.3,95.7c-12.4,29.3-30.1,55.5-52.7,78.2
		c-22.5,22.5-48.9,40.4-78.2,52.7c-28.8,12.2-59.3,18.6-90.7,19.2l104.5-182.6l2.8-5l-0.1-0.1c9.3-17.8,14.1-37.8,14.1-58.1
		c0-44.6-23.1-83.7-58.1-106.3H477.8 M484,139.7H256c64.3,0,116.3,52.1,116.3,116.3c0,21.2-5.6,41.1-15.6,58.2l0,0L243.8,511.7
		c4,0.2,8.1,0.3,12.2,0.3c141.4,0,256-114.6,256-256C512,214.1,501.9,174.6,484,139.7L484,139.7z"/>
	<path class="st1" d="M256,20.1c31.8,0,62.7,6.2,91.8,18.5c28.1,11.9,53.3,28.9,75,50.5s38.6,46.9,50.5,75
		c12.3,29.1,18.5,60,18.5,91.8s-6.2,62.7-18.5,91.8c-11.9,28.1-28.9,53.3-50.5,75s-46.9,38.6-75,50.5c-29.1,12.3-60,18.5-91.8,18.5
		s-62.7-6.2-91.8-18.5c-28.1-11.9-53.3-28.9-75-50.5s-38.6-46.8-50.6-74.9c-12.3-29.1-18.5-60-18.5-91.8s6.2-62.7,18.5-91.8
		c11.9-28.1,28.9-53.3,50.5-75s46.9-38.6,75-50.5C193.3,26.4,224.2,20.1,256,20.1 M256,0C114.6,0,0,114.6,0,256s114.6,256,256,256
		s256-114.6,256-256S397.4,0,256,0L256,0z"/>
	<path class="st1" d="M256,149.7c58.6,0,106.3,47.7,106.3,106.3S314.6,362.3,256,362.3S149.7,314.6,149.7,256S197.4,149.7,256,149.7
		 M256,139.7c-64.3,0-116.3,52.1-116.3,116.3s52,116.3,116.3,116.3s116.3-52,116.3-116.3S320.3,139.7,256,139.7L256,139.7z"/>
	<circle class="st1" cx="256" cy="256" r="82.3"/>
</g>
</svg>
