<svg version="1.1" id="icon" xmlns="http://www.w3.org/2000/svg" x="0" y="0" viewBox="0 0 512 512" xml:space="preserve"><style type="text/css">.st0{opacity:.1}.st0,.st2{fill:#fff}</style><path class="st0" d="M154.6 313c.1.1.2.3.2.4-9.6-16.9-15.1-36.4-15.1-57.4 0-64.3 52.1-116.3 116.3-116.3h228C441.7 56.8 355.4 0 256 0 165.6 0 86.2 46.8 40.7 117.5v.1L154.6 313z"/><path class="st0" d="M356.8 314.2C336.7 349 299 372.4 256 372.4c-43.6 0-81.5-23.9-101.4-59.4L40.7 117.6C15 157.5 0 205 0 256c0 137.3 108.1 249.4 243.8 255.7l113-197.5z"/><path class="st0" d="M484 139.7H256c64.3 0 116.3 52.1 116.3 116.3 0 21.2-5.6 41.1-15.6 58.2L243.8 511.7c4 .2 8.1.3 12.2.3 141.4 0 256-114.6 256-256 0-41.9-10.1-81.4-28-116.3z"/><circle cx="256" cy="256" r="116.3" opacity=".1" fill="#f1f1f1"/><circle class="st2" cx="256" cy="256" r="82.3"/><path class="st2" d="M511.9 250.1V249c-.1-1.9-.1-3.7-.2-5.6 0-.4 0-.9-.1-1.3-.1-1.8-.2-3.7-.3-5.5 0-.3-.1-.7-.1-1-.1-1.5-.3-3-.4-4.5-.1-.6-.1-1.2-.2-1.8-.2-1.6-.3-3.1-.5-4.7-.1-.8-.2-1.7-.3-2.5-.1-1-.3-1.9-.4-2.9-.2-1.5-.5-3-.7-4.5-.1-.5-.2-1-.2-1.5C491.8 114.4 418.7 35 323.5 9c-.2 0-.3-.1-.5-.1-3.9-1.1-7.8-2-11.8-2.9-.6-.1-1.1-.2-1.7-.4-1.1-.2-2.2-.5-3.4-.7-.7-.1-1.5-.3-2.2-.4-1.6-.3-3.3-.6-4.9-.9-.9-.2-1.9-.3-2.8-.5-.9-.1-1.8-.3-2.7-.4-1.1-.2-2.2-.3-3.4-.5l-2.1-.3c-1.7-.2-3.5-.4-5.2-.6-.7-.1-1.4-.1-2-.2-1.3-.1-2.7-.2-4-.4-.6 0-1.2-.1-1.8-.1-1.9-.1-3.7-.3-5.6-.4-.4 0-.9 0-1.3-.1-1.6-.1-3.1-.1-4.7-.2h-1.7c-1.8.1-3.7.1-5.7.1s-3.9 0-5.9.1h-1.3c-1.9.1-3.9.1-5.8.2h-.7c-1.8.1-3.5.2-5.3.3-.4 0-.7.1-1.1.1-1.9.1-3.8.3-5.7.5-.3 0-.6.1-.9.1l-5.4.6c-.2 0-.4.1-.7.1-1.9.2-3.9.5-5.8.8-.3 0-.6.1-.9.1-3.9.6-7.8 1.3-11.7 2.1-.3.1-.5.1-.8.2-3.9.8-7.9 1.7-11.7 2.7-.2 0-.3.1-.5.1-2 .5-3.9 1-5.9 1.6-4 1.1-8 2.4-12 3.7h-.1c-3.9 1.3-7.8 2.8-11.6 4.3h-.1c-13.5 5.3-26.5 11.8-38.8 19.3-3.5 2.1-6.9 4.3-10.2 6.6-.1.1-.2.1-.2.2-3.3 2.2-6.5 4.5-9.7 6.9-.1.1-.3.2-.4.3-1.5 1.2-3.1 2.3-4.6 3.5-.2.1-.3.2-.5.4-1.4 1.1-2.7 2.2-4.1 3.3-.2.1-.4.3-.5.4-1.4 1.1-2.7 2.3-4.1 3.5-.3.3-.7.6-1 .9-1.2 1-2.3 2-3.4 3-.3.2-.5.5-.8.7l-3.6 3.3c-.5.5-1 .9-1.5 1.4L76 74l-2.2 2.2-1.9 1.9c-.7.7-1.3 1.4-1.9 2-.4.5-.9.9-1.3 1.4-1.2 1.3-2.5 2.7-3.7 4.1-.3.3-.5.6-.8.9-31 35.1-52.5 78.8-60.6 127.1 0 .2-.1.3-.1.5-.6 3.9-1.2 7.9-1.7 11.8-.1.8-.2 1.6-.3 2.5-.1.9-.2 1.9-.3 2.8-.1 1.1-.2 2.2-.3 3.4-.1.7-.1 1.5-.2 2.2-.1 1.8-.2 3.6-.3 5.5 0 .6-.1 1.2-.1 1.8-.1 1.4-.1 2.9-.2 4.3v1.8c0 2-.1 3.9-.1 5.9 0 2.2 0 4.3.1 6.5 0 .7.1 1.5.1 2.2 0 1.4.1 2.8.2 4.3 0 .9.1 1.8.2 2.7.1 1.2.1 2.5.2 3.7.1 1 .2 1.9.2 2.9.1 1.2.2 2.3.3 3.5l.3 3c.1 1.1.2 2.2.4 3.3.1 1 .3 2.1.4 3.1.1 1.1.3 2.1.4 3.2.2 1.1.3 2.1.5 3.2.2 1 .3 2.1.5 3.1.2 1.1.4 2.1.6 3.2l.6 3c.2 1.1.5 2.2.7 3.2.2 1 .4 1.9.6 2.9.2 1.1.5 2.2.8 3.2.2.9.4 1.9.7 2.8l.9 3.3c.2.9.5 1.8.7 2.7l.9 3.3c.3.9.5 1.8.8 2.7.3 1.1.7 2.2 1 3.3.3.9.6 1.7.9 2.6.4 1.1.7 2.2 1.1 3.3.3.9.6 1.7.9 2.6.4 1.1.8 2.2 1.2 3.2.3.8.6 1.7 1 2.5.4 1.1.8 2.2 1.3 3.2.3.8.7 1.6 1 2.5.4 1.1.9 2.1 1.4 3.2.3.8.7 1.6 1.1 2.4.5 1.1 1 2.1 1.4 3.2.4.8.7 1.6 1.1 2.4.5 1.1 1 2.1 1.5 3.1.4.8.8 1.6 1.2 2.3.5 1 1.1 2.1 1.6 3.1.4.8.8 1.5 1.2 2.3.5 1 1.1 2.1 1.7 3.1.4.8.8 1.5 1.3 2.3.6 1 1.1 2 1.7 3 .4.8.9 1.5 1.3 2.2l1.8 3c.5.7.9 1.5 1.4 2.2.6 1 1.2 1.9 1.8 2.9.5.7 1 1.5 1.5 2.2.6.9 1.3 1.9 1.9 2.8.5.7 1 1.5 1.5 2.2.6.9 1.3 1.8 1.9 2.8.5.7 1.1 1.5 1.6 2.2.7.9 1.3 1.8 2 2.7.6.7 1.1 1.5 1.7 2.2.7.9 1.3 1.7 2 2.6.6.8 1.2 1.5 1.8 2.3.7.8 1.3 1.6 2 2.4.6.8 1.3 1.5 2 2.3.6.8 1.3 1.5 1.9 2.3.7.8 1.4 1.6 2.2 2.4l1.8 2.1c.8.9 1.6 1.8 2.5 2.6.6.6 1.1 1.2 1.7 1.8 1 1 2 2 3 3.1l1.2 1.2C81 443 87 448.4 93.3 453.6c.2.1.3.3.5.4 1.4 1.2 2.8 2.3 4.2 3.4.2.2.5.4.8.6 1.4 1.1 2.7 2.1 4.1 3.1.3.2.6.5.9.7 1.3 1 2.7 2 4 2.9.3.2.7.5 1 .7 1.3.9 2.6 1.8 4 2.8.4.3.8.5 1.1.8 1.3.9 2.6 1.8 4 2.6.4.3.8.5 1.2.8 1.3.8 2.6 1.7 4 2.5.4.3.8.5 1.3.8 1.3.8 2.7 1.6 4 2.4.4.3.9.5 1.3.8 1.3.8 2.7 1.5 4 2.2.5.3.9.5 1.4.7 1.3.7 2.7 1.4 4 2.1.5.2 1 .5 1.4.7 1.3.7 2.7 1.4 4 2 .5.2 1 .5 1.5.7 1.3.6 2.7 1.3 4 1.9.5.2 1.1.5 1.6.7 1.3.6 2.7 1.2 4 1.8.6.2 1.1.5 1.7.7 1.3.6 2.7 1.1 4 1.6.6.2 1.2.5 1.8.7 1.3.5 2.7 1 4 1.5.6.2 1.2.5 1.8.7 1.3.5 2.6.9 4 1.4.7.2 1.3.4 2 .7 1.3.4 2.6.9 3.9 1.3.7.2 1.4.4 2.1.7 1.3.4 2.5.8 3.8 1.1.7.2 1.5.4 2.2.6 1.2.3 2.5.7 3.7 1l2.4.6c1.2.3 2.4.6 3.5.9.9.2 1.8.4 2.6.6 1.1.3 2.2.5 3.3.7 1 .2 1.9.4 2.9.6 1 .2 2.1.4 3.1.6 1.1.2 2.1.4 3.2.6.9.2 1.8.3 2.8.5l3.6.6c.8.1 1.6.2 2.3.3 1.4.2 2.7.4 4.1.5.6.1 1.2.1 1.8.2 1.5.2 3.1.4 4.7.5.4 0 .7.1 1.1.1 1.8.2 3.6.3 5.4.5h.1c4 .3 8.1.5 12.2.6 2.1.1 4.2.1 6.2.1 141.4 0 256-114.6 256-256 .1-2.2.1-4.2 0-6.1zM89.1 89.2c21.6-21.7 46.9-38.6 75-50.5 29.2-12.3 60.1-18.6 91.9-18.6s62.7 6.2 91.8 18.5c28.1 11.9 53.3 28.9 75 50.5 12.4 12.3 23.2 25.9 32.5 40.5H256c-67.8 0-123.4 53.7-126.3 120.9l-71.6-123c8.9-13.7 19.3-26.5 31-38.3zM256 362.3c-58.6 0-106.3-47.7-106.3-106.3 0-58.6 47.7-106.3 106.3-106.3 58.6 0 106.3 47.7 106.3 106.3 0 58.6-47.7 106.3-106.3 106.3zm-12.1 129.1c-27.5-1.4-54.3-7.5-79.7-18.2-28.1-11.9-53.3-28.9-75-50.5-21.7-21.6-38.6-46.8-50.6-74.9-12.3-29.1-18.5-60-18.5-91.8 0-31.8 6.2-62.7 18.5-91.8 2.4-5.7 5-11.2 7.8-16.7L145.8 318c22.4 39.7 64.6 64.5 110.2 64.5 20.6 0 40.7-5.1 58.4-14.4l-70.5 123.3zm229.4-143.7c-11.9 28.1-28.9 53.3-50.5 75-21.6 21.7-46.9 38.6-75 50.5-25.8 10.9-52.9 17-80.9 18.2l98.6-172.2 2.8-5-.1-.1c9.3-17.8 14.1-37.8 14.1-58.1 0-44.6-23.1-83.7-58.1-106.3h142.4c2.4 4.7 4.6 9.5 6.7 14.4 12.3 29.1 18.5 60 18.5 91.8 0 31.8-6.2 62.7-18.5 91.8z"/></svg>