<?xml version="1.0" encoding="utf-8"?>
<!-- Generator: Adobe Illustrator 19.2.0, SVG Export Plug-In . SVG Version: 6.00 Build 0)  -->
<svg version="1.1" id="icon" xmlns="http://www.w3.org/2000/svg" xmlns:xlink="http://www.w3.org/1999/xlink" x="0px" y="0px"
	 viewBox="0 0 512 512" style="enable-background:new 0 0 512 512;" xml:space="preserve">
<style type="text/css">
	.st0{fill:#FFFFFF;}
	.st1{opacity:0.1;fill:#FFFFFF;}
</style>
<g>
	<polygon class="st0" points="52,460 52,137.5 1.6,138.7 1.6,510.4 99.7,510.4 123.4,460 	"/>
	<polygon class="st0" points="207.1,1.6 207.1,52 460,52 460,343.3 510.4,343.3 510.4,1.6 	"/>
	<polygon class="st0" points="460,235.5 460,460 229,460 139.9,510.4 510.4,510.4 510.4,183.8 	"/>
	<polygon class="st0" points="52,460 52,338.5 1.6,510.2 1.6,510.4 206.6,510.4 362.1,460 	"/>
	<polygon class="st0" points="52,52 328.2,52 280.5,1.6 1.6,1.6 1.6,194.3 52,195.7 	"/>
</g>
<rect x="52" y="52" class="st1" width="408" height="408"/>
<polygon class="st0" points="161.9,132.2 161.9,104.2 147.5,104.2 106.3,104.2 91.9,104.2 91.9,132.2 106.3,132.2 106.3,254.7 
	91.9,254.7 91.9,282.7 106.3,282.7 147.5,282.7 161.9,282.7 161.9,254.7 147.5,254.7 147.5,132.2 "/>
<rect x="91.9" y="377.7" class="st0" width="150.1" height="28"/>
<path class="st0" d="M269.8,104.2v102.5c0,0,0,14.3,0,21.3s-6.5,18.7-23.8,19.3S213.5,231,213.5,231l-24.2,26.3
	c0,0,15.4,25.5,58,25.5c45.7,0,63.7-29.7,63.7-50.4c0-17.1,0-25.6,0-25.6V104.2H269.8z"/>
</svg>
