<?xml version="1.0" encoding="utf-8"?>
<!-- Generator: Adobe Illustrator 19.2.0, SVG Export Plug-In . SVG Version: 6.00 Build 0)  -->
<svg version="1.1" id="icon" xmlns="http://www.w3.org/2000/svg" xmlns:xlink="http://www.w3.org/1999/xlink" x="0px" y="0px"
	 viewBox="0 0 512 512" style="enable-background:new 0 0 512 512;" xml:space="preserve">
<style type="text/css">
	.st0{fill:#FFFFFF;}
	.st1{opacity:0.1;fill:#FFFFFF;}
</style>
<g>
	<path class="st0" d="M256,510.4C115.7,510.4,1.6,396.3,1.6,256C1.6,115.7,115.7,1.6,256,1.6S510.4,115.7,510.4,256
		C510.4,396.3,396.3,510.4,256,510.4z M256,18.5C125,18.5,18.5,125,18.5,256C18.5,387,125,493.5,256,493.5S493.5,387,493.5,256
		C493.5,125,387,18.5,256,18.5z"/>
	<path id="path3795" class="st1" d="M460.6,256c0,113-91.5,204.7-204.5,204.7c-113,0-204.7-91.5-204.7-204.5c0-0.1,0-0.1,0-0.2
		c0-113,91.5-204.7,204.5-204.7c113,0,204.7,91.5,204.7,204.5C460.6,255.9,460.6,255.9,460.6,256z"/>
	<g id="g3853" transform="translate(-145.99777,29.127545)">
		<rect id="rect3801" x="276" y="328.1" class="st0" width="252" height="32.3"/>
		<path id="rect3803" class="st0" d="M276,287.8V320h106.8v-32.3H276z M421.1,287.8V320H528v-32.3H421.1z"/>
		<path id="rect3807" class="st0" d="M276,247.5v32.3h106.8v-32.3H276z M421.1,247.5v32.3H528v-32.3H421.1z"/>
		<rect id="rect3809" x="276" y="207.1" class="st0" width="252" height="32.3"/>
		<path id="path3832" class="st0" d="M402,53.1c-23.6,0-43.6,11.1-57.8,25.6S320.2,111,313,128.3c-14.4,34.5-18.7,68.2-18.7,68.2
			l-0.3,2.5h38.6c0.9-6,5.2-30.8,15.7-56.1c6-14.4,14-28.2,23.1-37.5c9.1-9.3,18.2-14.1,30.5-14.1c12.3,0,21.5,4.9,30.6,14.1
			c9.1,9.3,17.1,23.1,23.1,37.5c10.5,25.3,14.8,50,15.7,56.1H510l-0.3-2.5c0,0-4.3-33.7-18.6-68.2c-7.2-17.3-16.9-35.1-31.2-49.6
			S425.6,53.1,402,53.1z"/>
	</g>
</g>
</svg>
