<svg version="1.1" id="Layer_1" xmlns="http://www.w3.org/2000/svg" x="0" y="0" viewBox="0 0 512 512" xml:space="preserve"><style type="text/css">.st1{fill:#fff}</style><path d="M499.4 256c0 134.4-109 243.4-243.4 243.4S12.6 390.4 12.6 256 121.6 12.6 256 12.6s243.4 109 243.4 243.4z" opacity=".1" fill="#fff"/><path class="st1" d="M256 512C114.8 512 0 397.2 0 256S114.8 0 256 0s256 114.8 256 256-114.8 256-256 256zm0-486.9C128.7 25.1 25.1 128.7 25.1 256S128.7 486.9 256 486.9 486.9 383.3 486.9 256 383.3 25.1 256 25.1z"/><path class="st1" d="M255.9 53.4C144.1 53.4 53.5 144.1 53.5 256v.2c0 111.8 90.7 202.4 202.6 202.4 111.8 0 202.4-90.7 202.4-202.6v-.2c0-111.8-90.7-202.4-202.6-202.4zM149.5 225.9s4.3-33.3 18.5-67.5c7.1-17.1 16.7-34.8 30.8-49.1C212.9 95 232.6 84 256 84c23.3 0 43 11 57.2 25.3 14.2 14.3 23.8 32 30.9 49.1 14.3 34.2 18.5 67.5 18.5 67.5l.3 2.5h-38.2c-.9-6-5.2-30.5-15.6-55.5-5.9-14.3-13.8-27.9-22.8-37.1s-18-14-30.2-14-21.2 4.8-30.2 14-17 22.8-22.9 37.1c-10.4 25-14.7 49.5-15.6 55.5h-38.2l.3-2.5zm-18.2 50.4H237v31.9H131.3v-31.9zm0 39.9H237v31.9H131.3v-31.9zM380.7 388H131.3v-31.9h249.4V388zm0-39.9H274.9v-31.9h105.8v31.9zm0-39.9H274.9v-31.9h105.8v31.9zm0-39.9H131.3v-31.9h249.4v31.9z"/></svg>