<?xml version="1.0" encoding="utf-8"?>
<!-- Generator: Adobe Illustrator 19.2.0, SVG Export Plug-In . SVG Version: 6.00 Build 0)  -->
<svg version="1.1" id="icon" xmlns="http://www.w3.org/2000/svg" xmlns:xlink="http://www.w3.org/1999/xlink" x="0px" y="0px"
	 viewBox="0 0 512 512" style="enable-background:new 0 0 512 512;" xml:space="preserve">
<style type="text/css">
	.st0{opacity:0.1;fill:#FFFFFF;}
	.st1{fill:#FFFFFF;}
</style>
<g id="g3607" transform="translate(-223.01556,0)">
	<path id="path74_1_" class="st0" d="M317.4,160.2c31.4,1.5,69.4-12.4,95.4,11.1
		c24.9,30.2,18.3,85.8-18.6,103.9c-13.1,6.7-28.1,5.8-42.4,5.3c-0.1,22.6-0.1,45.2-0.1,67.8c-11.4-1-22.9-2-34.4-2.9
		C316.8,283.7,316.7,221.9,317.4,160.2z"/>
	<path id="path54_1_" class="st0" d="M525.1,76.9c63.6,0,127.1,0,190.7,0c0,117.5,0,235,0,352.5
		c-63.6,0-127.1,0-190.7,0c0-15.4,0-30.8,0-46.2c46.2,0,92.5,0,138.7,0c0-7.7,0-15.4,0-23.1c-46.2,0-92.5,0-138.7,0
		c0-9.7,0-19.2,0-28.9c46.2,0,92.5,0,138.7,0c0-7.7,0-15.4,0-23.1c-46.2,0-92.5,0-138.6,0c-0.1-11.3-0.1-22.7-0.1-34
		c22.9,7.1,48.9,6.9,69.4-6.8c22.1-13.1,33.7-38.1,35.6-63.1c-25.4-0.2-50.7-0.1-76.1-0.1c-0.1-25.1,0.3-50.3-0.5-75.4
		c-9.5,1.8-19,3.8-28.4,5.8C525.1,115.3,525.1,96,525.1,76.9z"/>
	<path id="path60" class="st1" d="M565.6,116.6c40.2,1.8,73.9,35.7,76.1,75.7
		c-25.4,0.3-50.7,0.2-76.1,0.2C565.5,167.1,565.5,141.8,565.6,116.6z"/>
	<path class="st1" d="M732.8,82.2c1.3-13.3-9.1-23.6-22.4-22.4c-61.7-0.9-123.6,0.1-185.3-0.3c0-17.3,0-34.7,0-52h-32.8
		C403,22.7,313.9,38.4,224.7,53.9c0,134.8-0.1,269.6,0,404.4c88.1,15.5,176.4,30.2,264.4,46.2h35.9c0-19.2,0-38.5,0-57.8
		c57.8,0,115.6-0.1,173.4,0.2c9.9-0.5,20.9,0.3,29.3-5.8c6.7-10.3,5-23.3,5.5-35C732.5,298.1,733.7,190.1,732.8,82.2z M394.2,275.2
		c-13.1,6.7-28.1,5.8-42.4,5.3c-0.1,22.6-0.1,45.2-0.1,67.8c-11.4-1-22.9-2-34.4-2.9c-0.5-61.7-0.6-123.5,0.1-185.2
		c31.4,1.5,69.4-12.4,95.4,11.1C437.7,201.5,431.1,257.1,394.2,275.2z M715.8,429.4c-63.6,0-127.1,0-190.7,0c0-15.4,0-30.8,0-46.2
		c46.2,0,92.5,0,138.7,0c0-7.7,0-15.4,0-23.1c-46.2,0-92.5,0-138.7,0c0-9.7,0-19.2,0-28.9c46.2,0,92.5,0,138.7,0
		c0-7.7,0-15.4,0-23.1c-46.2,0-92.5,0-138.6,0c-0.1-11.3-0.1-22.7-0.1-34c22.9,7.1,48.9,6.9,69.4-6.8c22.1-13.1,33.7-38.1,35.6-63.1
		c-25.4-0.2-50.7-0.1-76.1-0.1c-0.1-25.1,0.3-50.3-0.5-75.4c-9.5,1.8-19,3.8-28.4,5.8c0-19.2,0-38.4,0-57.6c63.6,0,127.1,0,190.7,0
		C715.8,194.3,715.8,311.9,715.8,429.4z"/>
	<path id="path94" class="st1" d="M351.7,191.4c11.4-0.5,25.5-2.6,33.2,8.1
		c6.6,11.3,6.2,26.2,0.8,37.9c-6.6,11.9-21.5,10.7-33,12.1C351.4,230.2,351.5,210.9,351.7,191.4z"/>
</g>
</svg>
