<svg version="1.1" id="icon" xmlns="http://www.w3.org/2000/svg" x="0" y="0" viewBox="0 0 512 512" xml:space="preserve"><style type="text/css">.st0{opacity:.1;fill:#fff;enable-background:new}</style><path id="path52_1_" class="st0" d="M302.1 69.9c50.4 0 100.8-.1 151.3 0-.1 7.7-.1 15.4 0 23.1 13.4.1 26.8.3 40.2.9.8 30.6 1 61.2-.2 91.8-13.3.5-26.7.7-40 .8 0 85.2.1 170.5 0 255.7-50.4.1-100.8 0-151.3 0v-46.6c36.8-.1 73.6 0 110.5 0-.1-7.7-.1-15.4 0-23.1-36.8 0-73.7.1-110.5 0v-29.2c36.8-.1 73.6 0 110.5 0-.1-7.7-.1-15.4 0-23.1-36.8 0-73.7.1-110.5 0V291c36.8-.1 73.6 0 110.5 0-.1-7.7-.1-15.4 0-23.1-36.8 0-73.7.1-110.5 0v-29.2c36.8-.1 73.6 0 110.4 0 0-7.7 0-15.4.1-23.1-36.8 0-73.7.1-110.5 0v-29.2c36.8-.1 73.6 0 110.5 0-.1-7.7-.1-15.4 0-23.1-36.8 0-73.7.1-110.5 0v-29.2c36.8-.1 73.6 0 110.5 0-.1-7.7-.1-15.4 0-23.1-36.8 0-73.7.1-110.5 0V69.9z"/><path id="path80_1_" class="st0" d="M179.7 158.5c11.6-.6 23.2-1.3 34.9-1.8v192.6c-12.6-.5-25-1.2-37.4-1.9-23.1-44.5-48.2-88-70.5-132.8 1.3 43.1.5 86.1.6 129.1-10.6-.7-21-1.3-31.6-2 .2-59.1.1-118.2 0-177.2 12-.6 23.9-1.3 35.9-1.9 22.7 41.7 45.8 83.1 67.9 125.1.4-43.1-.1-86.2.2-129.2z"/><path id="path102_1_" class="st0" d="M470.7 203.4c7.5.3 15.1.6 22.7 1 1 30.6 1.2 61.1-.2 91.6-7.5.3-15.1.7-22.5 1v-93.6z"/><path id="path116_1_" class="st0" d="M470.7 313.8c7.5.3 15.2.8 22.8 1.2.9 30.4.8 60.8 0 91.2-7.6.5-15.3.9-22.8 1.4v-93.8z"/><path d="M507.7 305.6c6.3-36 4.2-72.8 1-109 2.2-34.1 5.3-68.5.9-102.5-2.1-18.6-24.3-16.9-37.9-19.3-2-6.1-4-12.2-6-18.4-54-8.2-109.1-1.6-163.5-3.7-.2-15.6-.2-31.2-.2-46.7h-34.7C178.3 21.9 89.2 37.2 0 52.7c0 135.7 0 271.2.1 406.9C88.7 475 177.3 489.8 265.8 506h36.4c0-15.5 0-31.1.1-46.6 42.6 0 85.1-.2 127.8.2 11.7-.5 24.7 1 35.1-5.5 5.1-8.5 4.9-18.8 6.9-28.3 13.6-2.5 35-1.3 37.5-19.3 3.4-33.4 3.4-67.6-1.9-100.9zm-293.1 43.7c-12.6-.5-25-1.2-37.4-1.9-23.1-44.5-48.2-88-70.5-132.8 1.3 43.1.5 86.1.6 129.1-10.6-.7-21-1.3-31.6-2 .2-59.1.1-118.2 0-177.2 12-.6 23.9-1.3 35.9-1.9 22.7 41.7 45.8 83.1 67.9 125.1.5-43.1 0-86.1.2-129.1 11.6-.6 23.2-1.3 34.9-1.8v192.5zm238.8 92.8c-50.4.1-100.8 0-151.3 0v-46.6c36.8-.1 73.6 0 110.5 0-.1-7.7-.1-15.4 0-23.1-36.8 0-73.7.1-110.5 0v-29.2c36.8-.1 73.6 0 110.5 0-.1-7.7-.1-15.4 0-23.1-36.8 0-73.7.1-110.5 0v-29.2c36.8-.1 73.6 0 110.5 0-.1-7.7-.1-15.4 0-23.1-36.8 0-73.7.1-110.5 0v-29.2c36.8-.1 73.6 0 110.4 0 0-7.7 0-15.4.1-23.1-36.8 0-73.7.1-110.5 0v-29.2c36.8-.1 73.6 0 110.5 0-.1-7.7-.1-15.4 0-23.1-36.8 0-73.7.1-110.5 0V134c36.8-.1 73.6 0 110.5 0-.1-7.7-.1-15.4 0-23.1-36.8 0-73.7.1-110.5 0V70c50.4 0 100.8-.1 151.3 0-.1 7.7-.1 15.4 0 23.1 13.4.1 26.8.3 40.2.9.8 30.6 1 61.2-.2 91.8-13.3.5-26.7.7-40 .8 0 85 .1 170.3 0 255.5zm40.1-35.9c-7.6.5-15.3.9-22.8 1.4-.1-31.3-.1-62.5 0-93.8 7.5.3 15.2.8 22.8 1.2.9 30.4.8 60.8 0 91.2zm-.3-110.2c-7.5.3-15.1.7-22.5 1-.1-31.2-.1-62.4 0-93.6 7.5.3 15.1.6 22.7 1 1 30.6 1.2 61.1-.2 91.6z" fill="#fff"/></svg>