<?xml version="1.0" encoding="utf-8"?>
<!-- Generator: Adobe Illustrator 22.1.0, SVG Export Plug-In . SVG Version: 6.00 Build 0)  -->
<svg version="1.1" id="icon" xmlns="http://www.w3.org/2000/svg" xmlns:xlink="http://www.w3.org/1999/xlink" x="0px" y="0px"
	 viewBox="0 0 512 512" style="enable-background:new 0 0 512 512;" xml:space="preserve">
<style type="text/css">
	.st0{opacity:0.1;fill:#FFFFFF;enable-background:new    ;}
	.st1{fill:#FFFFFF;}
</style>
<g>
	<path class="st0" d="M114.7,168l12.9,75.8c2.4,15.3,4.8,30.6,7.2,47.6h0.7c2.1-17.4,4.1-31.6,6.6-47.6l13.2-75.8h44.8l-45.5,169.9
		h-42.1L66.4,168H114.7z"/>
	
		<rect x="376.6" y="141.5" transform="matrix(0.7071 -0.7071 0.7071 0.7071 -1.5782 336.32)" class="st0" width="57.2" height="57.2"/>
	<polygon class="st0" points="290,180 290,274.9 358.1,274.9 358.1,319.7 395.2,319.7 395.2,228.7 346.5,180 	"/>
	<rect x="290" y="294.9" class="st0" width="48.3" height="76.7"/>
	<polygon class="st0" points="290,421.4 492.2,421.4 492.2,80.7 290,80.7 290,160.1 346.5,160.1 405.2,101.5 473.9,170 415.2,228.7 
		415.2,339.6 358.1,339.6 358.1,391.5 290,391.5 	"/>
	<path class="st1" d="M290,60.7V14.9L0,70.7v372.6l289.9,53.7v-55.8H512V60.7H290z M154.7,338h-42.1L66.4,168h48.3l12.9,75.8
		c2.4,15.3,4.8,30.6,7.2,47.6h0.7c2.1-17.4,4.1-31.6,6.6-47.6l13.2-75.8h44.8L154.7,338z M290,180h56.7l48.7,48.7v91h-37.1v-44.8
		H290V180z M364.8,170l40.5-40.5l40.5,40.5l-40.5,40.5L364.8,170z M290,294.9h48.3v76.7H290V294.9z M492.2,421.4H290v-29.9h68.2
		v-51.8h57.1V228.7L474,170l-68.6-68.6l-58.7,58.7H290V80.7h202.2V421.4z"/>
</g>
</svg>
