<?xml version="1.0" encoding="utf-8"?>
<!-- Generator: Adobe Illustrator 19.2.0, SVG Export Plug-In . SVG Version: 6.00 Build 0)  -->
<svg version="1.1" id="icon" xmlns="http://www.w3.org/2000/svg" xmlns:xlink="http://www.w3.org/1999/xlink" x="0px" y="0px"
	 viewBox="0 0 512 512" style="enable-background:new 0 0 512 512;" xml:space="preserve">
<style type="text/css">
	.st0{opacity:0.1;fill:#FFFFFF;enable-background:new    ;}
	.st1{fill:#FFFFFF;}
</style>
<g>
	<path id="path72" class="st0" d="M172.7,159.8c13.1-0.9,26.2-1.7,39.3-2.4c-15.4,31.6-30.9,63.2-46.6,94.7
		c15.9,32.4,32.1,64.5,48.1,96.9c-13.9-0.8-27.8-1.7-41.7-2.7c-9.8-24.1-21.8-47.4-28.8-72.6c-7.9,23.5-19.1,45.6-28.1,68.6
		c-12.7-0.2-25.3-0.7-38-1.2c14.9-29.1,29.2-58.4,44.5-87.3c-13-29.8-27.3-59-40.7-88.6c12.7-0.8,25.4-1.5,38.2-2.2
		c8.6,22.6,18,44.9,25.1,68.1C151.6,206.6,163,183.6,172.7,159.8z"/>
	<path class="st0" d="M302,70.9c0,11.6,0,23.1,0,34.7c15.4,0,30.8,0,46.2,0c0,13.5,0,27,0,40.5c-15.4,0-30.8,0-46.2,0
		c0,7.7,0,15.4,0,23.1c15.4,0,30.8,0,46.2,0c0,13.5,0,27,0,40.5c-15.4,0-30.8,0-46.2,0c0,7.7,0,15.4,0,23.1c15.4,0,30.8,0,46.2,0
		c0,13.5,0,27,0,40.5c-15.4,0-30.8,0-46.2,0c0,7.7,0,15.4,0,23.1c15.4,0,30.8,0,46.2,0c0,13.5,0,27,0,40.5c-15.4,0-30.8,0-46.2,0
		c0,7.7,0,15.4,0,23.1c15.4,0,30.8,0,46.2,0c0,13.5,0,27,0,40.5c-15.4,0-30.8,0-46.2,0c0,11.6,0,23.1,0,34.7c63.6,0,127.2,0,190.8,0
		c0-121.4,0-242.8,0-364.2C429.2,70.9,365.6,70.9,302,70.9z M452.3,400.5c-27,0-53.9,0-80.9,0c0-13.5,0-27,0-40.5
		c27,0,53.9,0,80.9,0C452.3,373.5,452.3,387,452.3,400.5z M452.3,336.9c-27,0-53.9,0-80.9,0c0-13.5,0-27,0-40.5c27,0,53.9,0,80.9,0
		C452.3,309.9,452.3,323.4,452.3,336.9z M452.3,273.3c-27,0-53.9,0-80.9,0c0-13.5,0-27,0-40.5c27,0,53.9,0,80.9,0
		C452.3,246.3,452.3,259.8,452.3,273.3z M452.3,209.6c-27,0-53.9,0-80.9,0c0-13.5,0-27,0-40.5c27,0,53.9,0,80.9,0
		C452.3,182.6,452.3,196.3,452.3,209.6z M452.3,146.1c-27,0-53.9,0-80.9,0c0-13.5,0-27,0-40.5c27,0,53.9,0,80.9,0
		C452.3,119,452.3,132.6,452.3,146.1z"/>
	<path class="st1" d="M510.1,389.1c-0.1-100.3-0.2-200.6,0.1-300.9c-0.4-9.8,0.3-20.7-5.7-29.2c-8.5-5.8-19.2-5.1-29-5.5
		c-57.9,0.3-115.7,0.2-173.6,0.2c0-15.4,0-30.8,0-46.2h-34.3C179,23,90.2,38.2,1.5,53.6c0,134.9,0,269.7,0,404.6
		c88.2,15.4,176.5,30.2,264.6,46.2H302c0-17.3,0-34.7,0-52c59.9-0.1,119.9,0.2,179.8,0c9.7-0.4,24.1-0.7,26.4-12.7
		C511.7,423.1,509.9,406,510.1,389.1z M171.7,346.4c-9.8-24.1-21.8-47.4-28.8-72.6c-7.9,23.5-19.1,45.6-28.1,68.6
		c-12.7-0.2-25.3-0.7-38-1.2c14.9-29.1,29.2-58.4,44.5-87.3c-13-29.8-27.3-59-40.7-88.6c12.7-0.8,25.4-1.5,38.2-2.2
		c8.6,22.6,18,44.9,25.1,68.1c7.6-24.6,19-47.7,28.8-71.4c13.1-0.9,26.2-1.7,39.3-2.4c-15.4,31.6-30.9,63.2-46.6,94.7
		c15.9,32.4,32.1,64.5,48.1,96.9C199.6,348.3,185.7,347.4,171.7,346.4z M492.7,435.1c-63.6,0-127.2,0-190.8,0c0-11.6,0-23.1,0-34.7
		c15.4,0,30.8,0,46.2,0c0-13.5,0-27,0-40.5c-15.4,0-30.8,0-46.2,0c0-7.7,0-15.4,0-23.1c15.4,0,30.8,0,46.2,0c0-13.5,0-27,0-40.5
		c-15.4,0-30.8,0-46.2,0c0-7.7,0-15.4,0-23.1c15.4,0,30.8,0,46.2,0c0-13.5,0-27,0-40.5c-15.4,0-30.8,0-46.2,0c0-7.7,0-15.4,0-23.1
		c15.4,0,30.8,0,46.2,0c0-13.5,0-27,0-40.5c-15.4,0-30.8,0-46.2,0c0-7.7,0-15.4,0-23.1c15.4,0,30.8,0,46.2,0c0-13.5,0-27,0-40.5
		c-15.4,0-30.8,0-46.2,0c0-11.6,0-23.1,0-34.7c63.6,0,127.2,0,190.8,0C492.7,192.4,492.7,313.8,492.7,435.1z"/>
	<path id="path58" class="st1" d="M371.4,105.6c27,0,53.9,0,80.9,0c0,13.5,0,27,0,40.5c-27,0-53.9,0-80.9,0
		C371.4,132.6,371.4,119,371.4,105.6z"/>
	<path id="path90" class="st1" d="M371.4,169.3c27,0,53.9,0,80.9,0c0,13.5,0,27,0,40.5c-27,0-53.9,0-80.9,0
		C371.4,196.3,371.4,182.6,371.4,169.3z"/>
	<path id="path108" class="st1" d="M371.4,232.8c27,0,53.9,0,80.9,0c0,13.5,0,27,0,40.5c-27,0-53.9,0-80.9,0
		C371.4,259.8,371.4,246.3,371.4,232.8z"/>
	<path id="path114" class="st1" d="M371.4,296.4c27,0,53.9,0,80.9,0c0,13.5,0,27,0,40.5c-27,0-53.9,0-80.9,0
		C371.4,323.4,371.4,309.9,371.4,296.4z"/>
	<path id="path120" class="st1" d="M371.4,360c27,0,53.9,0,80.9,0c0,13.5,0,27,0,40.5c-27,0-53.9,0-80.9,0
		C371.4,387,371.4,373.5,371.4,360z"/>
</g>
</svg>
