<?xml version="1.0" encoding="utf-8"?>
<!-- Generator: Adobe Illustrator 19.2.0, SVG Export Plug-In . SVG Version: 6.00 Build 0)  -->
<svg version="1.1" id="icon" xmlns="http://www.w3.org/2000/svg" xmlns:xlink="http://www.w3.org/1999/xlink" x="0px" y="0px"
	 viewBox="0 0 512 512" style="enable-background:new 0 0 512 512;" xml:space="preserve">
<style type="text/css">
	.st0{opacity:0.1;fill:#FFFFFF;}
	.st1{fill:#FFFFFF;}
</style>
<g>
	<path id="path44_1_" class="st0" d="M366.6,69.1c42-3.7,84.3-0.8,126.4-1.7
		c0,87.6,0,175.3,0,262.9c-13.4,0-26.7,0-40,0c-0.1-68.7,0.2-137.3-0.1-206C426.1,103,390,94.2,366.6,69.1z"/>
	<path id="path62_1_" class="st0" d="M298.7,130.3c43.8,0,87.6,0,131.4,0c0,99,0,198.1,0,297.2
		c-43.8,0-87.6,0-131.4,0c-0.1-11.4-0.1-22.9,0-34.3c32.4,0,64.7,0,97.2,0c-0.1-7.6-0.1-15.3,0-22.9c-32.4,0-64.7,0-97.2,0
		c-0.1-9.5-0.1-19,0-28.6c32.4,0,64.7,0,97.2,0c-0.1-7.6-0.1-15.3,0-22.9c-32.4,0-64.7,0-97.2,0c-0.1-9.5-0.1-19,0-28.6
		c32.4,0,64.7,0,97.2,0c-0.1-7.6-0.1-15.3,0-22.9c-32.4,0-64.7,0-97.2,0c-0.1-9.5-0.1-19,0-28.6c32.4,0,64.7,0,97.2,0
		c0-26.7,0-53.3,0-80c-32.4,0-64.7,0-97.2,0C298.7,149.3,298.7,139.8,298.7,130.3z"/>
	<path id="path82_1_" class="st0" d="M93,161.5c31.1,1,69-12.6,94.8,10.8
		c24.5,30,17.9,84.8-18.6,102.6c-13,6.6-27.8,5.8-41.9,5.2c-0.1,22.4-0.1,44.8-0.1,67.3c-11.5-1.1-23.1-2.3-34.6-3.5
		C93.3,283.1,92.8,222.3,93,161.5z"/>
	<path class="st1" d="M510.3,84.5c-0.4-8.6,0-17.6-3-25.8c-10.6-12.1-28.7-7.4-42.8-8.6c-35.8,1.5-71.8-2.3-107.4,1.9
		c-25.7,8.3-16.5,40.7-18.1,61.1c-13.4,0-26.9,0-40.2,0c0-34.3,0-68.6,0-102.9h-33.9C177.1,25.7,89.3,40.8,1.7,56
		c-0.1,133.3-0.1,266.7,0,400c87.2,15.3,174.5,29.9,261.7,45.7h35.4c0-19,0-38.1,0-57.1c40.1-0.1,80.1,0.2,120.1,0.1
		c11.6-0.3,27.5,0.3,32.3-13.1c4.1-25.8,1-52.3,1.8-78.4c17.8-0.5,36.5,2.3,53.8-3.4c3.5-9.9,3.3-20.7,3.5-31.1
		C510,240.7,510.1,162.6,510.3,84.5z M169.2,275c-13,6.6-27.8,5.8-41.9,5.2c-0.1,22.4-0.1,44.8-0.1,67.3
		c-11.5-1.1-23.1-2.3-34.6-3.5c0.6-60.8,0.1-121.6,0.3-182.4c31.1,1,69-12.6,94.8,10.8C212.3,202.3,205.8,257.1,169.2,275z
		 M430.2,427.4c-43.8,0-87.6,0-131.4,0c-0.1-11.4-0.1-22.9,0-34.3c32.4,0,64.7,0,97.2,0c-0.1-7.6-0.1-15.3,0-22.9
		c-32.4,0-64.7,0-97.2,0c-0.1-9.5-0.1-19,0-28.6c32.4,0,64.7,0,97.2,0c-0.1-7.6-0.1-15.3,0-22.9c-32.4,0-64.7,0-97.2,0
		c-0.1-9.5-0.1-19,0-28.6c32.4,0,64.7,0,97.2,0c-0.1-7.6-0.1-15.3,0-22.9c-32.4,0-64.7,0-97.2,0c-0.1-9.5-0.1-19,0-28.6
		c32.4,0,64.7,0,97.2,0c0-26.7,0-53.3,0-80c-32.4,0-64.7,0-97.2,0c-0.1-9.5-0.1-19,0-28.6c43.8,0,87.6,0,131.4,0
		C430.2,229.3,430.2,328.4,430.2,427.4z M493,330.3c-13.4,0-26.7,0-40,0c-0.1-68.7,0.2-137.3-0.1-206C426.1,103,390,94.2,366.6,69.1
		c42-3.7,84.3-0.8,126.4-1.7C493,155,493,242.7,493,330.3z"/>
	<path id="path100" class="st1" d="M127.3,192.2c11.3-0.6,25.5-2.7,33,8.2
		c6.3,11.2,5.8,25.8,0.5,37.3c-6.6,11.7-21.3,10.6-32.7,11.9C127,230.5,127.2,211.4,127.3,192.2z"/>
</g>
</svg>
