<?xml version="1.0" encoding="utf-8"?>
<!-- Generator: Adobe Illustrator 22.1.0, SVG Export Plug-In . SVG Version: 6.00 Build 0)  -->
<svg version="1.1" id="icon" xmlns="http://www.w3.org/2000/svg" xmlns:xlink="http://www.w3.org/1999/xlink" x="0px" y="0px"
	 viewBox="0 0 512 512" style="enable-background:new 0 0 512 512;" xml:space="preserve">
<style type="text/css">
	.st0{opacity:0.1;fill:#FFFFFF;enable-background:new    ;}
	.st1{fill:#FFFFFF;}
</style>
<g>
	<path id="path44_1_" class="st0" d="M367.4,67.9c42.3-3.7,84.9-0.8,127.2-1.7c0,88.2,0,176.4,0,264.6c-13.5,0-26.9,0-40.3,0
		c-0.1-69.1,0.2-138.2-0.1-207.3C427.2,102.1,390.9,93.2,367.4,67.9z"/>
	<path id="path62_1_" class="st0" d="M299,129.5c44.1,0,88.2,0,132.3,0c0,99.6,0,199.4,0,299.1c-44.1,0-88.2,0-132.3,0
		c-0.1-11.5-0.1-23,0-34.5c32.6,0,65.1,0,97.8,0c-0.1-7.6-0.1-15.4,0-23c-32.6,0-65.1,0-97.8,0c-0.1-9.6-0.1-19.1,0-28.8
		c32.6,0,65.1,0,97.8,0c-0.1-7.6-0.1-15.4,0-23c-32.6,0-65.1,0-97.8,0c-0.1-9.6-0.1-19.1,0-28.8c32.6,0,65.1,0,97.8,0
		c-0.1-7.6-0.1-15.4,0-23c-32.6,0-65.1,0-97.8,0c-0.1-9.6-0.1-19.1,0-28.8c32.6,0,65.1,0,97.8,0c0-26.9,0-53.6,0-80.5
		c-32.6,0-65.1,0-97.8,0C299,148.7,299,139.1,299,129.5z"/>
	<path id="path82_1_" class="st0" d="M92,160.9c31.3,1,69.5-12.7,95.4,10.9c24.7,30.2,18,85.4-18.7,103.3c-13.1,6.6-28,5.8-42.2,5.2
		c-0.1,22.5-0.1,45.1-0.1,67.7c-11.6-1.1-23.3-2.3-34.8-3.5C92.3,283.3,91.8,222.1,92,160.9z"/>
	<path class="st1" d="M512,83.4c-0.4-8.7,0-17.7-3-26c-10.7-12.2-28.9-7.4-43.1-8.7c-36,1.5-72.3-2.3-108.1,1.9
		c-25.9,8.4-16.6,41-18.2,61.5c-13.5,0-27.1,0-40.5,0c0-34.5,0-69,0-103.6H265C176.6,24.2,88.2,39.4,0.1,54.7
		C0,188.9,0,323.2,0.1,457.4c87.8,15.4,175.6,30.1,263.4,46h35.6c0-19.1,0-38.3,0-57.5c40.4-0.1,80.6,0.2,120.9,0.1
		c11.7-0.3,27.7,0.3,32.5-13.2c4.1-26,1-52.6,1.8-78.9c17.9-0.5,36.7,2.3,54.2-3.4c3.5-10,3.3-20.8,3.5-31.3
		C511.7,240.7,511.8,162,512,83.4z M168.7,275.2c-13.1,6.6-28,5.8-42.2,5.2c-0.1,22.5-0.1,45.1-0.1,67.7
		c-11.6-1.1-23.3-2.3-34.8-3.5c0.6-61.2,0.1-122.4,0.3-183.6c31.3,1,69.5-12.7,95.4,10.9C212.1,202,205.5,257.2,168.7,275.2z
		 M431.4,428.6c-44.1,0-88.2,0-132.3,0c-0.1-11.5-0.1-23,0-34.5c32.6,0,65.1,0,97.8,0c-0.1-7.6-0.1-15.4,0-23c-32.6,0-65.1,0-97.8,0
		c-0.1-9.6-0.1-19.1,0-28.8c32.6,0,65.1,0,97.8,0c-0.1-7.6-0.1-15.4,0-23c-32.6,0-65.1,0-97.8,0c-0.1-9.6-0.1-19.1,0-28.8
		c32.6,0,65.1,0,97.8,0c-0.1-7.6-0.1-15.4,0-23c-32.6,0-65.1,0-97.8,0c-0.1-9.6-0.1-19.1,0-28.8c32.6,0,65.1,0,97.8,0
		c0-26.9,0-53.6,0-80.5c-32.6,0-65.1,0-97.8,0c-0.1-9.6-0.1-19.1,0-28.8c44.1,0,88.2,0,132.3,0C431.4,229.2,431.4,328.9,431.4,428.6
		z M494.6,330.8c-13.5,0-26.9,0-40.3,0c-0.1-69.1,0.2-138.2-0.1-207.3c-27-21.4-63.3-30.3-86.9-55.6c42.3-3.7,84.9-0.8,127.2-1.7
		C494.6,154.4,494.6,242.7,494.6,330.8z"/>
	<path id="path100" class="st1" d="M126.5,191.8c11.4-0.6,25.7-2.7,33.2,8.3c6.3,11.3,5.8,26,0.5,37.5c-6.6,11.8-21.4,10.7-32.9,12
		C126.2,230.4,126.4,211.2,126.5,191.8z"/>
</g>
</svg>
