<?xml version="1.0" encoding="utf-8"?>
<!-- Generator: Adobe Illustrator 19.2.0, SVG Export Plug-In . SVG Version: 6.00 Build 0)  -->
<svg version="1.1" id="icon" xmlns="http://www.w3.org/2000/svg" xmlns:xlink="http://www.w3.org/1999/xlink" x="0px" y="0px"
	 viewBox="0 0 512 512" style="enable-background:new 0 0 512 512;" xml:space="preserve">
<style type="text/css">
	.st0{opacity:0.1;fill:#FFFFFF;}
	.st1{fill:#FFFFFF;}
</style>
<g>
	<path id="path50_1_" class="st0" d="M302.2,75.4c51.6-7.1,105.4-6.9,155.6,8.4
		c13.8,5.1,32.3,11.3,35.4,27.8c-2.3,13.5-16.4,19.5-27.5,24.4c-52.4,17.7-109.2,19.4-163.6,11.2C302.2,123.3,302.2,99.3,302.2,75.4
		z"/>
	<path id="path66_1_" class="st0" d="M420.6,165.3c25.4-3.8,52-9.3,72.6-25.8
		c-1.3,24.9,2,50-1.7,74.6c-10.3,12.3-26.8,16.7-41.6,20.9c-48.3,11.4-98.6,11.7-147.7,5.4c0-25,0-50,0-74.9
		C341.4,170.5,381.3,170.5,420.6,165.3z"/>
	<path id="path78_1_" class="st0" d="M119.6,159.4c13.5-1,26.9-1.9,40.4-2.9
		c19.4,64.8,37.8,129.9,56.9,194.7c-13.4-0.9-26.7-1.9-40-3.1c-3.5-14.5-7.3-28.9-11.1-43.3c-17.7-0.1-35.5-0.6-53.2-1.5
		c-3.4,13.7-6.9,27.3-10.4,41c-11.3-0.9-22.6-1.7-33.9-2.4C85.3,280.9,102.9,220.3,119.6,159.4z"/>
	<path id="path110_1_" class="st0" d="M420.9,257.8c25.4-3.8,51.7-9.3,72.2-25.7
		c-1.2,24.8,1.8,49.8-1.6,74.5c-10.1,12.4-26.5,16.8-41.3,21c-48.4,11.5-98.9,11.8-148.1,5.6c0-25,0-50,0-75
		C341.5,263.1,381.5,263,420.9,257.8z"/>
	<path id="path118_1_" class="st0" d="M420.7,350.3c25.4-3.7,51.9-9.3,72.4-25.7
		c-1.2,24.8,1.9,50-1.7,74.6c-16.4,17.8-42.3,21.1-64.8,25.7c-41.2,6.3-83.4,6.4-124.7,0.5c0.4-24.9,0.2-49.8,0.2-74.7
		C341.5,355.6,381.4,355.5,420.7,350.3z"/>
	<path class="st1" d="M510.2,116.8c2-24.1-20-39.8-40.2-46.7c-53.6-19-112-19.5-167.8-12.4c0-16.8,0-33.6,0-50.4h-34.6
		C179,23.2,90.3,38.3,1.6,53.8c0,134.8,0,269.7,0,404.6c88.2,15.5,176.5,30.2,264.5,46.3h36c0-20.8,0-41.5,0-62.3
		c55.7,7.9,113.4,5.8,167.1-12c20.4-6.8,43-22.4,40.9-46.8C510.4,294.6,510.4,205.7,510.2,116.8z M177,348
		c-3.5-14.5-7.3-28.9-11.1-43.3c-17.7-0.1-35.5-0.6-53.2-1.5c-3.4,13.7-6.9,27.3-10.4,41c-11.3-0.9-22.6-1.7-33.9-2.4
		c16.9-60.9,34.5-121.5,51.2-182.4c13.5-1,26.9-1.9,40.4-2.9c19.4,64.8,37.8,129.9,56.9,194.7C203.6,350.2,190.2,349.3,177,348z
		 M302.2,75.4c51.6-7.1,105.4-6.9,155.6,8.4c13.8,5.1,32.3,11.3,35.4,27.8c-2.3,13.5-16.4,19.5-27.5,24.4
		c-52.4,17.7-109.2,19.4-163.6,11.2C302.2,123.3,302.2,99.3,302.2,75.4z M302.2,258.1c39.4,5,79.4,4.9,118.8-0.3
		c25.4-3.8,51.7-9.3,72.2-25.7c-1.2,24.8,1.8,49.8-1.6,74.5c-10.1,12.4-26.5,16.8-41.3,21c-48.4,11.5-98.9,11.8-148.1,5.6
		C302.2,308,302.2,283.1,302.2,258.1z M491.4,399.2c-16.4,17.8-42.3,21.1-64.8,25.7c-41.2,6.3-83.4,6.4-124.7,0.5
		c0.4-24.9,0.2-49.8,0.2-74.7c39.3,5,79.2,4.9,118.5-0.3c25.4-3.7,51.9-9.3,72.4-25.7C491.9,349.4,495,374.5,491.4,399.2z
		 M491.4,214.2c-10.3,12.3-26.8,16.7-41.6,20.9c-48.3,11.4-98.6,11.7-147.7,5.4c0-25,0-50,0-74.9c39.3,5,79.1,4.9,118.4-0.2
		c25.4-3.8,52-9.3,72.6-25.8C491.9,164.4,495.1,189.6,491.4,214.2z"/>
	<path id="path98" class="st1" d="M119.9,272c5.8-27.1,14.5-53.5,18.4-80.9
		c5.2,27.4,13.2,54.1,19.8,81.2C145.4,272.2,132.7,272.1,119.9,272z"/>
</g>
</svg>
