<?xml version="1.0" encoding="utf-8"?>
<!-- Generator: Adobe Illustrator 22.1.0, SVG Export Plug-In . SVG Version: 6.00 Build 0)  -->
<svg version="1.1" id="icon" xmlns="http://www.w3.org/2000/svg" xmlns:xlink="http://www.w3.org/1999/xlink" x="0px" y="0px"
	 viewBox="0 0 512 512" style="enable-background:new 0 0 512 512;" xml:space="preserve">
<style type="text/css">
	.st0{opacity:0.1;fill:#FFFFFF;enable-background:new    ;}
	.st1{fill:#FFFFFF;}
</style>
<g>
	<path id="path50_1_" class="st0" d="M302.5,74.2c51.9-7.1,106.1-6.9,156.6,8.5c13.9,5.1,32.5,11.4,35.6,28
		c-2.3,13.6-16.5,19.6-27.7,24.6c-52.7,17.8-109.9,19.5-164.7,11.3C302.5,122.4,302.5,98.3,302.5,74.2z"/>
	<path id="path66_1_" class="st0" d="M421.7,164.7c25.6-3.8,52.3-9.4,73.1-26c-1.3,25.1,2,50.3-1.7,75.1c-10.4,12.4-27,16.8-41.9,21
		c-48.6,11.5-99.2,11.8-148.6,5.4c0-25.2,0-50.3,0-75.4C342,170,382.1,170,421.7,164.7z"/>
	<path id="path78_1_" class="st0" d="M118.8,158.8c13.6-1,27.1-1.9,40.7-2.9c19.5,65.2,38,130.7,57.3,196
		c-13.5-0.9-26.9-1.9-40.3-3.1c-3.5-14.6-7.3-29.1-11.2-43.6c-17.8-0.1-35.7-0.6-53.5-1.5c-3.4,13.8-6.9,27.5-10.5,41.3
		c-11.4-0.9-22.7-1.7-34.1-2.4C84.2,281.1,101.9,220.1,118.8,158.8z"/>
	<path id="path110_1_" class="st0" d="M422,257.8c25.6-3.8,52-9.4,72.7-25.9c-1.2,25,1.8,50.1-1.6,75
		c-10.2,12.5-26.7,16.9-41.6,21.1c-48.7,11.6-99.5,11.9-149.1,5.6c0-25.2,0-50.3,0-75.5C342.1,263.1,382.3,263,422,257.8z"/>
	<path id="path118_1_" class="st0" d="M421.8,350.9c25.6-3.7,52.2-9.4,72.9-25.9c-1.2,25,1.9,50.3-1.7,75.1
		c-16.5,17.9-42.6,21.2-65.2,25.9c-41.5,6.3-83.9,6.4-125.5,0.5c0.4-25.1,0.2-50.1,0.2-75.2C342.1,356.2,382.2,356.1,421.8,350.9z"
		/>
	<path class="st1" d="M511.9,115.9c2-24.3-20.1-40.1-40.5-47c-53.9-19.1-112.7-19.6-168.9-12.5c0-16.9,0-33.8,0-50.7h-34.8
		C178.5,21.7,89.3,36.9,0,52.5c0,135.7,0,271.4,0,407.2c88.8,15.6,177.6,30.4,266.2,46.6h36.2c0-20.9,0-41.8,0-62.7
		c56.1,8,114.1,5.8,168.2-12.1c20.5-6.8,43.3-22.5,41.2-47.1C512.1,294.8,512.1,205.4,511.9,115.9z M176.5,348.6
		c-3.5-14.6-7.3-29.1-11.2-43.6c-17.8-0.1-35.7-0.6-53.5-1.5c-3.4,13.8-6.9,27.5-10.5,41.3c-11.4-0.9-22.7-1.7-34.1-2.4
		c17-61.3,34.7-122.3,51.5-183.6c13.6-1,27.1-1.9,40.7-2.9c19.5,65.2,38,130.7,57.3,196C203.3,350.8,189.8,349.9,176.5,348.6z
		 M302.5,74.2c51.9-7.1,106.1-6.9,156.6,8.5c13.9,5.1,32.5,11.4,35.6,28c-2.3,13.6-16.5,19.6-27.7,24.6
		c-52.7,17.8-109.9,19.5-164.7,11.3C302.5,122.4,302.5,98.3,302.5,74.2z M302.5,258.1c39.7,5,79.9,4.9,119.6-0.3
		c25.6-3.8,52-9.4,72.7-25.9c-1.2,25,1.8,50.1-1.6,75c-10.2,12.5-26.7,16.9-41.6,21.1c-48.7,11.6-99.5,11.9-149.1,5.6
		C302.5,308.3,302.5,283.3,302.5,258.1z M492.9,400.1c-16.5,17.9-42.6,21.2-65.2,25.9c-41.5,6.3-83.9,6.4-125.5,0.5
		c0.4-25.1,0.2-50.1,0.2-75.2c39.6,5,79.7,4.9,119.3-0.3c25.6-3.7,52.2-9.4,72.9-25.9C493.4,350,496.6,375.3,492.9,400.1z
		 M492.9,213.9c-10.4,12.4-27,16.8-41.9,21c-48.6,11.5-99.2,11.8-148.6,5.4c0-25.2,0-50.3,0-75.4c39.6,5,79.6,4.9,119.2-0.2
		c25.6-3.8,52.3-9.4,73.1-26C493.4,163.8,496.7,189.2,492.9,213.9z"/>
	<path id="path98" class="st1" d="M119.1,272.1c5.8-27.3,14.6-53.8,18.5-81.4c5.2,27.6,13.3,54.4,19.9,81.7
		C144.7,272.3,131.9,272.2,119.1,272.1z"/>
</g>
</svg>
