<svg version="1.1" id="icon" xmlns="http://www.w3.org/2000/svg" x="0" y="0" viewBox="0 0 512 512" xml:space="preserve"><style type="text/css">.st0{opacity:.1;fill:#fff;enable-background:new}</style><path id="path46_1_" class="st0" d="M302.4 69.9h191.9v372.2H302.4v-46.6h151.2v-23.2H302.4v-29.1h151.2V320H302.4v-29.1h151.2v-23.2H302.4v-29.1h151.2v-23.2H302.4v-29.1h151.2v-23.2H302.4V134h151.2v-23.2H302.4V69.9z"/><path id="path88_1_" class="st0" d="M120.2 172.7c11.1-.6 22.1-1.1 33.2-1.7 7.7 39.2 15.7 78.5 24 117.6 6.5-40.3 13.9-80.6 20.9-120.9 11.7-.4 23.2-1 34.8-1.7-13.2 56.3-24.6 113.2-39 169.2-9.8 5-24.2-.2-35.8.6-7.7-38.5-16.8-76.7-23.6-115.5-6.8 37.6-15.7 74.8-23.4 112.1-11.2-.6-22.4-1.3-33.6-2-9.8-51.3-21.1-102.1-30.1-153.4 10-.5 19.9-.9 29.9-1.2 6 37 12.8 73.9 18 111 8.2-38.1 16.6-76.1 24.7-114.1z"/><path d="M511.4 75c1.2-13.3-9.2-23.5-22.4-22.2-62.2-1-124.3 0-186.6-.3V5.9h-34.8C178.5 21.8 89.3 37 0 52.6c0 135.6-.1 271.3 0 406.9 88.7 15.6 177.5 30.4 266 46.6h36.3v-46.6c58.2 0 116.4-.1 174.6.2 9.9-.5 20.9.3 29.4-5.7 6.8-10.5 5-23.4 5.6-35.2-.7-114.6.5-229.2-.5-343.8zM194.1 335.1c-9.8 5-24.2-.2-35.8.6-7.7-38.5-16.8-76.7-23.6-115.5-6.8 37.6-15.7 74.8-23.4 112.1-11.2-.6-22.4-1.3-33.6-2-9.7-51.3-21-102.1-30-153.4 10-.5 19.9-.9 29.9-1.2 6 37 12.8 73.9 18 111 8.2-38 16.6-76 24.7-114.1 11.1-.6 22.1-1.1 33.2-1.7 7.7 39.2 15.7 78.5 24 117.6 6.5-40.3 13.9-80.6 20.9-120.9 11.7-.4 23.2-1 34.8-1.7-13.2 56.4-24.8 113.2-39.1 169.2zm300.2 107H302.4v-46.6h151.2v-23.2H302.4v-29.1h151.2V320H302.4v-29.1h151.2v-23.2H302.4v-29.1h151.2v-23.2H302.4v-29.1h151.2v-23.2H302.4V134h151.2v-23.2H302.4V70.1h191.9v372z" fill="#fff"/></svg>