<svg version="1.1" id="icon" xmlns="http://www.w3.org/2000/svg" x="0" y="0" viewBox="0 0 512 512" xml:space="preserve"><style type="text/css">.st0{fill:#fff}</style><path id="path3" class="st0" d="M319.6 108.6v100.2l35 22.1c.9.3 3 .3 3.9 0l150.7-101.5c0-12.1-11.2-20.7-17.6-20.7l-172-.1z"/><path id="path5" class="st0" d="M319.6 246.1l31.9 22c4.5 3.3 9.9 0 9.9 0-5.4 3.3 147.6-98.4 147.6-98.4v184.1c0 20-12.8 28.4-27.3 28.4H319.6V246.1z"/><path d="M152.9 344.8c20.2 0 36.7-8.3 49.3-24.8 12.6-16.6 18.9-38.4 18.9-65.5 0-26.4-6-47.6-18.2-63.7-12.2-16.2-28-24.1-47.7-24.1-20.9 0-37.5 8.4-50.2 25.3s-19 38.7-19 66c0 25.8 6.2 46.7 18.6 62.8 12.5 15.9 28.5 24 48.3 24z" opacity=".1" fill="#fff"/><g id="g23" transform="translate(-13.481 -41.384) scale(3.91787)"><path id="path25" class="st0" d="M42.8 61.6c-2.8 0-5 1.3-6.6 3.9-1.6 2.6-2.5 6-2.5 10.3 0 4.4.8 7.8 2.5 10.3 1.6 2.6 3.8 3.8 6.4 3.8 2.8 0 4.9-1.2 6.5-3.7 1.6-2.5 2.5-5.9 2.5-10.2 0-4.6-.8-8.1-2.4-10.6-1.6-2.6-3.7-3.8-6.4-3.8z"/><path id="path27" class="st0" d="M4.2 25.3v100l76.1 15.9V10.6L4.2 25.3zm50.9 66.9c-3.2 4.2-7.4 6.3-12.6 6.3-5 0-9.1-2-12.4-6.1-3.2-4.1-4.8-9.4-4.8-16.1 0-7 1.6-12.6 4.8-16.9 3.3-4.3 7.5-6.4 12.8-6.4 5 0 9.1 2 12.2 6.1s4.7 9.5 4.7 16.3c.1 6.9-1.6 12.6-4.7 16.8z"/></g></svg>