<?xml version="1.0" encoding="utf-8"?>
<!-- Generator: Adobe Illustrator 19.2.0, SVG Export Plug-In . SVG Version: 6.00 Build 0)  -->
<svg version="1.1" id="icon" xmlns="http://www.w3.org/2000/svg" xmlns:xlink="http://www.w3.org/1999/xlink" x="0px" y="0px"
	 viewBox="0 0 512 512" style="enable-background:new 0 0 512 512;" xml:space="preserve">
<style type="text/css">
	.st0{opacity:0.1;fill:#FFFFFF;}
	.st1{fill:#FFFFFF;}
</style>
<g>
	<path id="path72" class="st0" d="M172.8,160.6c13.1-0.9,26.2-1.7,39.3-2.4c-15.4,31.6-30.9,63.2-46.6,94.7
		c15.9,32.4,32.1,64.5,48.1,96.9c-13.9-0.8-27.8-1.7-41.7-2.7c-9.8-24.1-21.8-47.4-28.8-72.6c-7.9,23.5-19.1,45.6-28.1,68.6
		c-12.7-0.2-25.3-0.7-38-1.2c14.9-29.1,29.2-58.4,44.5-87.3c-13-29.8-27.3-59-40.7-88.6c12.7-0.8,25.4-1.5,38.2-2.2
		c8.6,22.6,18,44.9,25.1,68.1C151.6,207.5,163,184.4,172.8,160.6z"/>
	<path class="st0" d="M302,71.8c0,11.6,0,23.1,0,34.7c15.4,0,30.8,0,46.2,0c0,13.5,0,27,0,40.5c-15.4,0-30.8,0-46.2,0
		c0,7.7,0,15.4,0,23.1c15.4,0,30.8,0,46.2,0c0,13.5,0,27,0,40.5c-15.4,0-30.8,0-46.2,0c0,7.7,0,15.4,0,23.1c15.4,0,30.8,0,46.2,0
		c0,13.5,0,27,0,40.5c-15.4,0-30.8,0-46.2,0c0,7.7,0,15.4,0,23.1c15.4,0,30.8,0,46.2,0c0,13.5,0,27,0,40.5c-15.4,0-30.8,0-46.2,0
		c0,7.7,0,15.4,0,23.1c15.4,0,30.8,0,46.2,0c0,13.5,0,27,0,40.5c-15.4,0-30.8,0-46.2,0c0,11.6,0,23.1,0,34.7c63.6,0,127.2,0,190.8,0
		c0-121.4,0-242.8,0-364.2C429.2,71.8,365.6,71.8,302,71.8z M452.3,401.3c-27,0-53.9,0-80.9,0c0-13.5,0-27,0-40.5
		c27,0,53.9,0,80.9,0C452.3,374.3,452.3,387.8,452.3,401.3z M452.3,337.7c-27,0-53.9,0-80.9,0c0-13.5,0-27,0-40.5
		c27,0,53.9,0,80.9,0C452.3,310.7,452.3,324.2,452.3,337.7z M452.3,274.1c-27,0-53.9,0-80.9,0c0-13.5,0-27,0-40.5
		c27,0,53.9,0,80.9,0C452.3,247.1,452.3,260.6,452.3,274.1z M452.3,210.5c-27,0-53.9,0-80.9,0c0-13.5,0-27,0-40.5
		c27,0,53.9,0,80.9,0C452.3,183.5,452.3,197.1,452.3,210.5z M452.3,146.9c-27,0-53.9,0-80.9,0c0-13.5,0-27,0-40.5
		c27,0,53.9,0,80.9,0C452.3,119.9,452.3,133.5,452.3,146.9z"/>
	<path class="st1" d="M510.2,390c-0.1-100.3-0.2-200.6,0.1-300.9c-0.4-9.8,0.3-20.7-5.7-29.2c-8.5-5.8-19.2-5.1-29-5.5
		c-57.9,0.3-115.7,0.2-173.6,0.2c0-15.4,0-30.8,0-46.2h-34.3C179,23.9,90.3,39.1,1.6,54.5c0,134.9,0,269.7,0,404.6
		c88.2,15.4,176.5,30.2,264.6,46.2H302c0-17.3,0-34.7,0-52c59.9-0.1,119.9,0.2,179.8,0c9.7-0.4,24.1-0.7,26.4-12.7
		C511.8,424,509.9,406.8,510.2,390z M171.8,347.2c-9.8-24.1-21.8-47.4-28.8-72.6c-7.9,23.5-19.1,45.6-28.1,68.6
		c-12.7-0.2-25.3-0.7-38-1.2c14.9-29.1,29.2-58.4,44.5-87.3c-13-29.8-27.3-59-40.7-88.6c12.7-0.8,25.4-1.5,38.2-2.2
		c8.6,22.6,18,44.9,25.1,68.1c7.6-24.6,19-47.7,28.8-71.4c13.1-0.9,26.2-1.7,39.3-2.4c-15.4,31.6-30.9,63.2-46.6,94.7
		c15.9,32.4,32.1,64.5,48.1,96.9C199.6,349.1,185.7,348.2,171.8,347.2z M492.8,436c-63.6,0-127.2,0-190.8,0c0-11.6,0-23.1,0-34.7
		c15.4,0,30.8,0,46.2,0c0-13.5,0-27,0-40.5c-15.4,0-30.8,0-46.2,0c0-7.7,0-15.4,0-23.1c15.4,0,30.8,0,46.2,0c0-13.5,0-27,0-40.5
		c-15.4,0-30.8,0-46.2,0c0-7.7,0-15.4,0-23.1c15.4,0,30.8,0,46.2,0c0-13.5,0-27,0-40.5c-15.4,0-30.8,0-46.2,0c0-7.7,0-15.4,0-23.1
		c15.4,0,30.8,0,46.2,0c0-13.5,0-27,0-40.5c-15.4,0-30.8,0-46.2,0c0-7.7,0-15.4,0-23.1c15.4,0,30.8,0,46.2,0c0-13.5,0-27,0-40.5
		c-15.4,0-30.8,0-46.2,0c0-11.6,0-23.1,0-34.7c63.6,0,127.2,0,190.8,0C492.8,193.2,492.8,314.6,492.8,436z"/>
	<path id="path58" class="st1" d="M371.4,106.5c27,0,53.9,0,80.9,0c0,13.5,0,27,0,40.5c-27,0-53.9,0-80.9,0
		C371.4,133.5,371.4,119.9,371.4,106.5z"/>
	<path id="path90" class="st1" d="M371.4,170.1c27,0,53.9,0,80.9,0c0,13.5,0,27,0,40.5c-27,0-53.9,0-80.9,0
		C371.4,197.1,371.4,183.5,371.4,170.1z"/>
	<path id="path108" class="st1" d="M371.4,233.6c27,0,53.9,0,80.9,0c0,13.5,0,27,0,40.5c-27,0-53.9,0-80.9,0
		C371.4,260.6,371.4,247.1,371.4,233.6z"/>
	<path id="path114" class="st1" d="M371.4,297.2c27,0,53.9,0,80.9,0c0,13.5,0,27,0,40.5c-27,0-53.9,0-80.9,0
		C371.4,324.2,371.4,310.7,371.4,297.2z"/>
	<path id="path120" class="st1" d="M371.4,360.8c27,0,53.9,0,80.9,0c0,13.5,0,27,0,40.5c-27,0-53.9,0-80.9,0
		C371.4,387.8,371.4,374.3,371.4,360.8z"/>
</g>
</svg>
