<?xml version="1.0" encoding="utf-8"?>
<!-- Generator: Adobe Illustrator 22.1.0, SVG Export Plug-In . SVG Version: 6.00 Build 0)  -->
<svg version="1.1" id="icon" xmlns="http://www.w3.org/2000/svg" xmlns:xlink="http://www.w3.org/1999/xlink" x="0px" y="0px"
	 viewBox="0 0 512 512" style="enable-background:new 0 0 512 512;" xml:space="preserve">
<style type="text/css">
	.st0{opacity:0.1;fill:#FFFFFF;}
	.st1{fill:#FFFFFF;}
</style>
<g>
	<polygon class="st0" points="337.7,372.4 337.7,332.5 337.7,292.7 314.7,292.7 291.6,292.7 291.6,332.5 291.6,372.4 314.7,372.4 	
		"/>
	<path class="st0" d="M403.8,217.2l24.1-24.1L452,169l-23-23.1c-12.7-12.7-24-23.1-25.2-23.1s-12.5,10.4-25.2,23.1l-23,23.1
		l24.1,24.1L403.8,217.2z"/>
	<path class="st0" d="M316.3,177.3h-24.7v48.2v48.2h30.3c36.2,0,34.7-1.2,34.7,28.2V322h18.9h18.9v-45.6v-45.6L367.7,204L341,177.3
		H316.3z"/>
	<path class="st0" d="M495.1,426.9V253.8v-173H393.3H291.6v38.8v38.8h25.5h25.5l28.6-28.3c17-16.8,30.2-28.3,32.7-28.3
		c4.9,0,68.1,62.3,68.1,67.1c0,1.8-13.2,16.4-29.4,32.5l-29.4,29.3v52.6c0,38.1-0.7,53.3-2.5,55.1c-1.7,1.7-11,2.5-28.3,2.5h-25.8
		v23c0,20.6-0.4,23.2-4.1,25.2c-2.2,1.2-16.9,2.2-32.5,2.2h-28.5v17.8v17.8h101.7H495.1z"/>
	<path class="st0" d="M91.5,259l20.4,77.5l11.7,0.7c6.4,0.4,14.1,0.9,17,1.1c5.2,0.4,5.6-1,27.9-79.8l0,0
		c12.5-44.1,23.2-82.4,23.8-85c1.2-4.6,0.7-4.7-13.2-4.7c-7.9,0-15.5,0.8-16.9,1.6c-1.8,1.2-31.2,115.9-32.2,126.1
		c-0.1,0.7-6.7-26-14.7-59.4s-15.2-61.3-16.1-62c-0.9-0.7-8-0.9-15.9-0.5c-11.2,0.6-14.1,1.4-13.2,3.7
		C70.7,180.1,80.3,216.3,91.5,259z"/>
	<path class="st1" d="M143.2,472.4L0,446.9V256V65l142.1-25c78.2-13.7,143.8-25.4,145.8-25.9c3.3-0.9,3.7,1.3,3.7,24.5V64h102.7
		c70.8,0,104.3,0.7,107.8,2.3c2.8,1.3,6.2,4.6,7.4,7.4c3.3,7.2,3.3,352.9,0,360.2c-1.3,2.8-4.6,6.2-7.4,7.4
		c-3.5,1.6-37,2.3-107.8,2.3H291.6V471c0,20.5-0.6,27.2-2.6,27.1C287.5,497.9,221.9,486.4,143.2,472.4L143.2,472.4z M495.1,253.9
		V80.8H393.3H291.6v38.8v38.8h25.5h25.5l28.6-28.3c17-16.8,30.2-28.3,32.7-28.3c4.9,0,68.1,62.3,68.1,67.1
		c0,1.8-13.2,16.4-29.4,32.5l-29.4,29.3v52.6c0,38.1-0.7,53.3-2.5,55.1c-1.7,1.7-11,2.5-28.3,2.5h-25.8v23c0,20.6-0.4,23.2-4.1,25.2
		c-2.2,1.2-16.9,2.2-32.5,2.2h-28.5v17.8v17.8h101.7h101.7L495.1,253.9z M337.7,332.5v-39.9h-23.1h-23.1v39.9v39.9h23.1h23.1V332.5z
		 M168.4,258.6c12.5-44.1,23.2-82.4,23.8-85c1.2-4.6,0.7-4.7-13.2-4.7c-7.9,0-15.5,0.8-16.9,1.6c-1.8,1.2-31.2,115.9-32.2,126.1
		c-0.1,0.7-6.7-26-14.7-59.4s-15.2-61.3-16.1-62c-0.9-0.7-8-0.9-15.9-0.5c-11.2,0.6-14.1,1.4-13.2,3.7c0.6,1.6,10.3,37.8,21.5,80.5
		l20.4,77.5l11.7,0.7c6.4,0.4,14.1,0.9,17,1.1C145.7,338.8,146.2,337.4,168.4,258.6L168.4,258.6z M394.4,276.4v-45.6L367.7,204
		L341,177.3h-24.7h-24.7v48.2v48.2h30.3c36.2,0,34.7-1.2,34.7,28.2V322h18.9h18.9L394.4,276.4z M429,145.8
		c-12.7-12.7-24-23.1-25.2-23.1s-12.5,10.4-25.2,23.1l-23,23.1l24.1,24.1l24.1,24.1l24.1-24.1l24.1-24.1L429,145.8z"/>
</g>
</svg>
