<svg version="1.1" id="icon" xmlns="http://www.w3.org/2000/svg" x="0" y="0" viewBox="0 0 512 512" xml:space="preserve"><style type="text/css">.st0{opacity:.1;enable-background:new}.st0,.st1{fill:#fff}</style><path id="path44_1_" class="st0" d="M367.4 67.9c42.3-3.7 84.9-.8 127.2-1.7v264.6h-40.3c-.1-69.1.2-138.2-.1-207.3-27-21.4-63.3-30.3-86.8-55.6z"/><path id="path62_1_" class="st0" d="M299 129.5h132.3v299.1H299c-.1-11.5-.1-23 0-34.5h97.8c-.1-7.6-.1-15.4 0-23H299c-.1-9.6-.1-19.1 0-28.8h97.8c-.1-7.6-.1-15.4 0-23H299c-.1-9.6-.1-19.1 0-28.8h97.8c-.1-7.6-.1-15.4 0-23H299c-.1-9.6-.1-19.1 0-28.8h97.8v-80.5H299v-28.7z"/><path id="path82_1_" class="st0" d="M92 160.9c31.3 1 69.5-12.7 95.4 10.9 24.7 30.2 18 85.4-18.7 103.3-13.1 6.6-28 5.8-42.2 5.2-.1 22.5-.1 45.1-.1 67.7-11.6-1.1-23.3-2.3-34.8-3.5.7-61.2.2-122.4.4-183.6z"/><path class="st1" d="M512 83.4c-.4-8.7 0-17.7-3-26-10.7-12.2-28.9-7.4-43.1-8.7-36 1.5-72.3-2.3-108.1 1.9-25.9 8.4-16.6 41-18.2 61.5h-40.5V8.5H265C176.6 24.2 88.2 39.4.1 54.7 0 188.9 0 323.2.1 457.4c87.8 15.4 175.6 30.1 263.4 46h35.6v-57.5c40.4-.1 80.6.2 120.9.1 11.7-.3 27.7.3 32.5-13.2 4.1-26 1-52.6 1.8-78.9 17.9-.5 36.7 2.3 54.2-3.4 3.5-10 3.3-20.8 3.5-31.3-.3-78.5-.2-157.2 0-235.8zM168.7 275.2c-13.1 6.6-28 5.8-42.2 5.2-.1 22.5-.1 45.1-.1 67.7-11.6-1.1-23.3-2.3-34.8-3.5.6-61.2.1-122.4.3-183.6 31.3 1 69.5-12.7 95.4 10.9 24.8 30.1 18.2 85.3-18.6 103.3zm262.7 153.4H299.1c-.1-11.5-.1-23 0-34.5h97.8c-.1-7.6-.1-15.4 0-23h-97.8c-.1-9.6-.1-19.1 0-28.8h97.8c-.1-7.6-.1-15.4 0-23h-97.8c-.1-9.6-.1-19.1 0-28.8h97.8c-.1-7.6-.1-15.4 0-23h-97.8c-.1-9.6-.1-19.1 0-28.8h97.8v-80.5h-97.8c-.1-9.6-.1-19.1 0-28.8h132.3v299.2zm63.2-97.8h-40.3c-.1-69.1.2-138.2-.1-207.3-27-21.4-63.3-30.3-86.9-55.6 42.3-3.7 84.9-.8 127.2-1.7.1 88.2.1 176.5.1 264.6z"/><path id="path100" class="st1" d="M126.5 191.8c11.4-.6 25.7-2.7 33.2 8.3 6.3 11.3 5.8 26 .5 37.5-6.6 11.8-21.4 10.7-32.9 12-1.1-19.2-.9-38.4-.8-57.8z"/></svg>