<svg version="1.1" id="icon" xmlns="http://www.w3.org/2000/svg" x="0" y="0" viewBox="0 0 512 512" xml:space="preserve"><style type="text/css">.st0,.st1{fill:#fff}.st1{opacity:.1}</style><path class="st0" d="M512 361c-1-73.6 1.2-147.4-1-221 .2-14.9-16-18.4-27.9-17.8-60.2-.2-120.4.1-180.7 0V5.9h-34.8C178.4 21.8 89.2 36.9 0 52.5c0 135.6 0 271.3.1 407 88.8 15.6 177.6 30.4 266.3 46.5h36.1V395.5c63.9-.7 127.8 1.3 191.7-.9 17.6-.1 18-20.6 17.8-33.6zm-323.7-27.1c-34.7 29.7-92.9 12.8-108.8-29.4-20.8-48.7-10.6-123.6 45.2-143.5 32.8-12.4 71.1 5 85 36.7 19 43.6 16.3 103.3-21.4 136.2zm306 44.2H302.4c0-50.7-.1-101.4.1-152.1 21.7 19.2 41.1 41.1 64.2 58.6 9.5 1.7 15.9-6.5 22.3-11.8 35-33.2 70.2-66.2 105.3-99.2.2 68.1 0 136.4 0 204.5zm-8.5-218.4c-38.5 35.9-76.8 71.9-115.2 108-23.1-20.9-45.5-42.5-68.3-63.7v-64.3c64.4.1 128.8-.2 193.3.1-1 7.6-3.4 15.1-9.8 19.9z"/><path class="st1" d="M302.4 139.7c64.4.1 128.8-.2 193.3.1-1.1 7.6-3.4 15.1-9.8 19.9-38.5 35.9-76.8 71.9-115.2 108-23.1-20.9-45.5-42.5-68.3-63.7v-64.3zM124.7 161c32.8-12.4 71.1 5 85 36.7 19 43.6 16.3 103.3-21.4 136.3-34.7 29.7-92.9 12.8-108.8-29.4-20.8-48.8-10.6-123.7 45.2-143.6z"/><path class="st1" d="M388.9 272.8c35-33.2 70.2-66.2 105.3-99.2.2 68.2 0 136.4.1 204.6H302.4c0-50.7-.1-101.4.1-152.1 21.7 19.2 41.1 41.1 64.2 58.6 9.4 1.7 15.8-6.5 22.2-11.9z"/><path class="st0" d="M130.3 195.9c15.5-7.4 34.8.1 42.1 15.4 11.6 23 11.6 51.1 4 75.4-5.4 17.3-24.3 31.5-42.6 24.7-22.9-7.2-29.8-34.3-30-55.5-.3-21.9 4.7-49.3 26.5-60z"/></svg>