<?xml version="1.0" encoding="utf-8"?>
<!-- Generator: Adobe Illustrator 19.2.0, SVG Export Plug-In . SVG Version: 6.00 Build 0)  -->
<svg version="1.1" id="icon" xmlns="http://www.w3.org/2000/svg" xmlns:xlink="http://www.w3.org/1999/xlink" x="0px" y="0px"
	 viewBox="0 0 512 512" style="enable-background:new 0 0 512 512;" xml:space="preserve">
<style type="text/css">
	.st0{opacity:0.1;fill:#FFFFFF;}
	.st1{fill:none;stroke:#FFFFFF;stroke-width:5;stroke-miterlimit:10;}
	.st2{fill:#FFFFFF;}
</style>
<g>
	<path class="st0" d="M457.1,80.4c-23-16.8-60.6-5-85.6,26.3c1.2,4.2,2.2,8.5,2.9,13c4.8,29.7-2.7,57.4-17.7,73.6
		c2.6,4.2,6,7.9,10.1,10.9c24,17.5,63.7,4,88.6-30.1C480.3,139.8,481.1,97.9,457.1,80.4z"/>
	<path class="st1" d="M457.1,80.4c-23-16.8-60.6-5-85.6,26.3c1.2,4.2,2.2,8.5,2.9,13c4.8,29.7-2.7,57.4-17.7,73.6
		c2.6,4.2,6,7.9,10.1,10.9c24,17.5,63.7,4,88.6-30.1C480.3,139.8,481.1,97.9,457.1,80.4z"/>
	<path class="st2" d="M185.4,265.5c0,0,2.2,10.3,0,15.2c-2.2,4.9-17.2,19-17.2,19l31.5,4.3c0,0,4-10.7,4.9-17.6c1-6.9,0-15.1,0-15.1
		"/>
	<path class="st2" d="M403,177.2c-8.4-4.9-19.9-7.8-31.7-10c-6.9,21.5-21.3,37.1-40,40.1c-30.8,4.9-61.4-26.3-68.3-69.8
		c-0.6-3.9-1-7.8-1.3-11.7c-18.1-7.6-39.2-14-62.7-15.6c-65-4.5-101.3,78.4-111.5,111.5s-14.7,59.9-10.2,102.6
		c4.5,42.7,30,86.4,44.9,102.3c15,15.9,34.7,36,62.8,36c37.6,0,51.1-27.8,54.2-41.1c4.3-22.9-17.5-66.9-47.2-68.5
		c-29.6-1.6-38.2,17.2-38.2,30c0,12.7,15,26.8,26.4,27.4c11.5,0.6,23.9-7,22.6-17.8s-9.6-5.7-9.6-5.7s1.9,9.6-6.4,10.2
		c-8.3,0.6-15.9-6.4-14.7-14c1.3-7.6,9.6-14.7,23.6-12.7c14,1.9,30,30.6,27.4,44.6c-2.5,14-8.3,35.7-38.9,29.3
		c-39.5-8.3-88-80.3-86-132.6c1.9-52.3,40.8-80.3,40.8-80.3s31.9,44.6,93.7,42.1c61.8-2.5,105.2-16.6,105.2-16.6s16,6.6,39.5,4.5
		c34.4-7,66.4-33.8,66.4-33.8S422.7,188.6,403,177.2z"/>
	
		<ellipse transform="matrix(0.9874 -0.1585 0.1585 0.9874 -16.346 52.1291)" class="st0" cx="318.7" cy="128.6" rx="56.4" ry="79.8"/>
	
		<ellipse transform="matrix(0.9874 -0.1585 0.1585 0.9874 -16.346 52.1291)" class="st1" cx="318.7" cy="128.6" rx="56.4" ry="79.8"/>
	<circle class="st2" cx="302.4" cy="141.8" r="13.2"/>
	<circle class="st2" cx="443.9" cy="128.6" r="13.2"/>
	<g>
		<path class="st2" d="M44.2,294.8H5.9c0,0-4.3,8.9-4.3,17.7c0,8.8,4.3,17.7,4.3,17.7h38.2V294.8z"/>
		<path class="st2" d="M74.8,294.8H36.5c0,0-4.3,8.9-4.3,17.7c0,8.8,4.3,17.7,4.3,17.7h38.2V294.8z"/>
		<path class="st2" d="M422.1,294.8H63.3c0,0-4.3,8.9-4.3,17.7c0,8.8,4.3,17.7,4.3,17.7h358.8l88.3-17.7L422.1,294.8z"/>
		<path class="st2" d="M422.1,294.8c0,0-5.3,6.2-5.3,17.7c0,11.5,5.3,17.7,5.3,17.7l88.3-17.7L422.1,294.8z"/>
		<path class="st2" d="M467.4,303.8c0,0-2.2,4-2.2,8.6c0,4.6,2.2,8.6,2.2,8.6l43-8.6L467.4,303.8z"/>
	</g>
	<path class="st2" d="M338.3,330.1c0,2.5,11.6,19.8,32.2,17.8c21.2-2.1,32.2-17.8,32.2-17.8h-21c0,0-5.9,3.3-13.8,3.3
		c-8,0-12.6-1.1-15.1-3.3c-2.5-2.2-2-4.9-8-4.9C340.2,325.2,338.3,327.6,338.3,330.1z"/>
	<path class="st2" d="M142.4,228.7c0,0-7.6,15-8.3,28.3c-0.7,13.4,5.5,32,5.5,32s-10.2,11.8-11.9,20.4c-0.8,4.2-0.6,9.1,4.8,15.9
		c5.5,7.1,10.6,10.6,13,11.2c4.8,1.2,7.9-0.9,11-2.6s7.3-2.9,4.6-3.8c-8.1-0.7-17.7-16.6-15.3-20.4c2.4-3.8,9-15,9-15h16
		c0,0-17.9-21.1-17.7-27.1c0.2-6,12.4-28.4,12.4-28.4"/>
	<path class="st2" d="M253.5,239.3c0,0-7.2,15.3-4.8,27.7c2.4,12.4,18.8,27.7,18.8,27.7s-1.4,12.4,0,19.8c1.4,7.3,5.8,23.4,17.1,26
		c11.3,2.5,20.2-10.4,20.2-10.4h-15.1c0,0-7.8-10.2-6.7-17.7c1.2-7.5,15.3-17.7,15.3-17.7H312c0,0-8.9-9.4-16.9-9.2
		c-8,0.2-16.3,7.3-16.3,7.3s-5-9.2-6.5-11s-7.2-19.3-5.8-25.7c1.4-6.4,9.2-16.9,9.2-16.9"/>
	<path class="st2" d="M312,263.4l30.2,31.3c0,0-0.7,1.8-3.6,7.6c-2.9,5.9-3.8,8.8-1.3,10c2.5,1.3,9.9-6,13.1-10s6.1-7.6,6.1-7.6
		h44.8c0,0-15.6-10.4-26.6-11c-11-0.6-21.7-1.1-21.7-1.1l-15-25.8"/>
</g>
</svg>
