<?xml version="1.0" encoding="utf-8"?>
<!-- Generator: Adobe Illustrator 22.1.0, SVG Export Plug-In . SVG Version: 6.00 Build 0)  -->
<svg version="1.1" id="icon" xmlns="http://www.w3.org/2000/svg" xmlns:xlink="http://www.w3.org/1999/xlink" x="0px" y="0px"
	 viewBox="0 0 512 512" style="enable-background:new 0 0 512 512;" xml:space="preserve">
<style type="text/css">
	.st0{opacity:0.1;fill:#FFFFFF;enable-background:new    ;}
	.st1{fill:none;stroke:#FFFFFF;stroke-width:5;stroke-miterlimit:10;}
	.st2{fill:#FFFFFF;}
</style>
<g>
	<path class="st0" d="M458.4,79.4c-23.1-16.9-61-5-86.1,26.5c1.2,4.2,2.2,8.6,2.9,13.1c4.8,29.9-2.7,57.8-17.8,74.1
		c2.6,4.2,6,7.9,10.2,11c24.2,17.6,64.1,4,89.2-30.3C481.7,139.1,482.5,97,458.4,79.4z"/>
	<path class="st1" d="M458.4,79.4c-23.1-16.9-61-5-86.1,26.5c1.2,4.2,2.2,8.6,2.9,13.1c4.8,29.9-2.7,57.8-17.8,74.1
		c2.6,4.2,6,7.9,10.2,11c24.2,17.6,64.1,4,89.2-30.3C481.7,139.1,482.5,97,458.4,79.4z"/>
	<path class="st2" d="M185,265.6c0,0,2.2,10.4,0,15.3c-2.2,4.9-17.3,19.1-17.3,19.1l31.7,4.3c0,0,4-10.8,4.9-17.7
		c1-6.9,0-15.2,0-15.2"/>
	<path class="st2" d="M403.9,176.8c-8.5-4.9-20-7.8-31.9-10.1c-6.9,21.6-21.4,37.3-40.3,40.4c-31,4.9-61.8-26.5-68.7-70.2
		c-0.6-3.9-1-7.8-1.3-11.8c-18.2-7.6-39.4-14.1-63.1-15.7c-65.4-4.5-101.9,78.9-112.2,112.2s-14.8,60.3-10.3,103.2
		c4.5,43,30.2,86.9,45.2,102.9c15.1,16,34.9,36.2,63.2,36.2c37.8,0,51.4-28,54.5-41.4c4.3-23-17.6-67.3-47.5-68.9
		c-29.8-1.6-38.4,17.3-38.4,30.2c0,12.8,15.1,27,26.6,27.6c11.6,0.6,24.1-7,22.7-17.9c-1.3-10.9-9.7-5.7-9.7-5.7s1.9,9.7-6.4,10.3
		c-8.4,0.6-16-6.4-14.8-14.1c1.3-7.6,9.7-14.8,23.7-12.8c14.1,1.9,30.2,30.8,27.6,44.9c-2.5,14.1-8.4,35.9-39.1,29.5
		c-39.7-8.4-88.6-80.8-86.5-133.4c1.9-52.6,41.1-80.8,41.1-80.8s32.1,44.9,94.3,42.4c62.2-2.5,105.9-16.7,105.9-16.7
		s16.1,6.6,39.7,4.5c34.6-7,66.8-34,66.8-34S423.7,188.2,403.9,176.8z"/>
	
		<ellipse transform="matrix(0.9874 -0.1585 0.1585 0.9874 -16.2298 52.1939)" class="st0" cx="319.1" cy="127.9" rx="56.8" ry="80.3"/>
	
		<ellipse transform="matrix(0.9874 -0.1585 0.1585 0.9874 -16.2298 52.1939)" class="st1" cx="319.1" cy="127.9" rx="56.8" ry="80.3"/>
	<circle class="st2" cx="302.7" cy="141.1" r="13.3"/>
	<circle class="st2" cx="445.1" cy="127.9" r="13.3"/>
	<g>
		<path class="st2" d="M42.9,295.1H4.3c0,0-4.3,9-4.3,17.8c0,8.9,4.3,17.8,4.3,17.8h38.4v-35.6H42.9z"/>
		<path class="st2" d="M73.7,295.1H35.1c0,0-4.3,9-4.3,17.8c0,8.9,4.3,17.8,4.3,17.8h38.4v-35.6H73.7z"/>
		<path class="st2" d="M423.1,295.1H62.1c0,0-4.3,9-4.3,17.8c0,8.9,4.3,17.8,4.3,17.8h361.1l88.9-17.8L423.1,295.1z"/>
		<path class="st2" d="M423.1,295.1c0,0-5.3,6.2-5.3,17.8s5.3,17.8,5.3,17.8l88.9-17.8L423.1,295.1z"/>
		<path class="st2" d="M468.7,304.2c0,0-2.2,4-2.2,8.7s2.2,8.7,2.2,8.7l43.3-8.7L468.7,304.2z"/>
	</g>
	<path class="st2" d="M338.8,330.6c0,2.5,11.7,19.9,32.4,17.9c21.3-2.1,32.4-17.9,32.4-17.9h-21.1c0,0-5.9,3.3-13.9,3.3
		c-8.1,0-12.7-1.1-15.2-3.3c-2.5-2.2-2-4.9-8.1-4.9C340.7,325.7,338.8,328.1,338.8,330.6z"/>
	<path class="st2" d="M141.7,228.6c0,0-7.6,15.1-8.4,28.5c-0.7,13.5,5.5,32.2,5.5,32.2s-10.3,11.9-12,20.5c-0.8,4.2-0.6,9.2,4.8,16
		c5.5,7.1,10.7,10.7,13.1,11.3c4.8,1.2,7.9-0.9,11.1-2.6s7.3-2.9,4.6-3.8c-8.2-0.7-17.8-16.7-15.4-20.5s9.1-15.1,9.1-15.1h16.1
		c0,0-18-21.2-17.8-27.3c0.2-6,12.5-28.6,12.5-28.6"/>
	<path class="st2" d="M253.5,239.3c0,0-7.2,15.4-4.8,27.9c2.4,12.5,18.9,27.9,18.9,27.9s-1.4,12.5,0,19.9
		c1.4,7.3,5.8,23.5,17.2,26.2c11.4,2.5,20.3-10.5,20.3-10.5h-15.2c0,0-7.8-10.3-6.7-17.8c1.2-7.5,15.4-17.8,15.4-17.8h13.8
		c0,0-9-9.5-17-9.3c-8.1,0.2-16.4,7.3-16.4,7.3s-5-9.3-6.5-11.1s-7.2-19.4-5.8-25.9c1.4-6.4,9.3-17,9.3-17"/>
	<path class="st2" d="M312.4,263.5l30.4,31.5c0,0-0.7,1.8-3.6,7.6c-2.9,5.9-3.8,8.9-1.3,10.1c2.5,1.3,10-6,13.2-10.1
		c3.2-4,6.1-7.6,6.1-7.6h45.1c0,0-15.7-10.5-26.8-11.1c-11.1-0.6-21.8-1.1-21.8-1.1l-15.1-26"/>
</g>
</svg>
