<?xml version="1.0" encoding="utf-8"?>
<!-- Generator: Adobe Illustrator 22.1.0, SVG Export Plug-In . SVG Version: 6.00 Build 0)  -->
<svg version="1.1" id="icon" xmlns="http://www.w3.org/2000/svg" xmlns:xlink="http://www.w3.org/1999/xlink" x="0px" y="0px"
	 viewBox="0 0 512 512" style="enable-background:new 0 0 512 512;" xml:space="preserve">
<style type="text/css">
	.st0{fill:#FFFFFF;}
</style>
<g>
	<path class="st0" d="M165.9,405.5c-31-7.7-48.2-32.4-48.3-68.9c0-11.7,0.8-17.3,3.7-24.8c7.1-18.4,26.1-32.3,51-37.4
		c12.4-2.5,16.2-5.2,16.2-11.6c0-2,1.5-7.8,3.3-13.2c8.2-23.9,23.3-43.7,39.5-51.7c16.9-8.5,25.6-10.4,46-10.3
		c29.1,0.2,43.7,6.4,64,27.8l11.2,11.8l10.1-3.4c48.5-16.8,96.8,11.8,100.6,59.5l1.1,13.1l9.6,3.4c27.3,9.8,40.1,30.3,37.7,60.4
		c-1.5,19.7-10.8,35.4-25.4,43.3l-6.8,3.7L327,407.4C209.6,407.6,172.4,407.1,165.9,405.5L165.9,405.5z"/>
	<path class="st0" d="M51.5,384.5c-18.1-4.3-37.2-20.2-46.2-38.5C0.2,335.6,0,334.1,0,315.8c0-17.4,0.4-20.2,4.5-28.9
		c8.6-18.2,25-31.4,45.5-36.6c4.3-1.1,8.5-2.8,9.1-3.9c0.6-1,1.4-6.7,1.6-12.6c1.4-36.5,25.4-68.7,58.9-79
		c18.1-5.5,40.8-4.2,60.5,3.6c6.2,2.5,5.5,3,18.7-14.3c7.7-10.3,23.5-22.9,36.4-29.4c13.9-6.9,28.4-10.2,45.7-10.2
		c48.4,0.1,90.1,30.4,105.5,76.6c4.9,14.8,4.7,18.9-1.1,19c-2.5,0.1-9.8,1.4-16.1,3.1l-11.6,3L347,195.7
		c-29.7-29.7-78.1-36.1-119.3-15.8c-16.4,8.2-29.7,19.7-39.7,34.9c-7.1,10.8-16.2,31-16.2,36c0,3.5-2.9,5.3-15.2,9.4
		c-38,12.5-60.3,41.3-60.3,78.2c0,13.4,3.4,29.9,8.3,39.2c1.8,3.5,2.8,6.9,2.2,7.4C105.4,386.5,58.1,386,51.5,384.5L51.5,384.5z"/>
</g>
</svg>
