<?xml version="1.0" encoding="utf-8"?>
<!-- Generator: Adobe Illustrator 19.2.0, SVG Export Plug-In . SVG Version: 6.00 Build 0)  -->
<svg version="1.1" xmlns="http://www.w3.org/2000/svg" xmlns:xlink="http://www.w3.org/1999/xlink" x="0px" y="0px"
	 viewBox="0 0 512 512" style="enable-background:new 0 0 512 512;" xml:space="preserve">
<style type="text/css">
	.st0{fill:#FFFFFF;}
</style>
<g id="icon">
	<g>
		<path id="path4256" class="st0" d="M166.6,404.6c-30.8-7.7-47.9-32.2-48-68.5
			c0-11.6,0.8-17.2,3.7-24.6c7.1-18.3,25.9-32.1,50.7-37.2c12.3-2.5,16.1-5.2,16.1-11.5c0-2,1.5-7.8,3.3-13.1
			c8.1-23.7,23.2-43.4,39.3-51.4c16.8-8.4,25.4-10.3,45.7-10.2c28.9,0.2,43.4,6.4,63.6,27.6l11.1,11.7l10-3.4
			c48.2-16.7,96.2,11.7,100,59.1l1.1,13l9.5,3.4c27.1,9.7,39.8,30.1,37.5,60c-1.5,19.6-10.7,35.2-25.2,43l-6.8,3.7l-151.6,0.3
			C210,406.6,173,406.2,166.6,404.6L166.6,404.6z"/>
		<path id="path4248" class="st0" d="M52.9,383.7c-18-4.3-37-20.1-45.9-38.3
			c-5.1-10.3-5.3-11.8-5.3-30c0-17.3,0.4-20.1,4.5-28.7c8.5-18.1,24.8-31.2,45.2-36.4c4.3-1.1,8.4-2.8,9-3.9c0.6-1,1.4-6.7,1.6-12.5
			c1.4-36.3,25.2-68.3,58.5-78.5c18-5.5,40.5-4.2,60.1,3.6c6.2,2.5,5.5,3,18.6-14.2c7.7-10.2,23.4-22.8,36.2-29.2
			c13.8-6.9,28.2-10.1,45.4-10.1c48.1,0.1,89.5,30.2,104.8,76.1c4.9,14.7,4.7,18.8-1.1,18.9c-2.5,0.1-9.7,1.4-16,3.1l-11.5,3
			l-10.5-10.5c-29.5-29.5-77.6-35.9-118.5-15.7c-16.3,8.1-29.5,19.6-39.4,34.7c-7.1,10.7-16.1,30.8-16.1,35.8
			c0,3.5-2.9,5.3-15.1,9.3c-37.8,12.4-59.9,41-59.9,77.7c0,13.3,3.4,29.7,8.2,39c1.8,3.5,2.8,6.9,2.2,7.4
			C106.4,385.7,59.4,385.2,52.9,383.7L52.9,383.7z"/>
	</g>
</g>
<g id="Guides">
</g>
</svg>
