<?xml version="1.0" encoding="utf-8"?>
<!-- Generator: Adobe Illustrator 22.1.0, SVG Export Plug-In . SVG Version: 6.00 Build 0)  -->
<svg version="1.1" id="icon" xmlns="http://www.w3.org/2000/svg" xmlns:xlink="http://www.w3.org/1999/xlink" x="0px" y="0px"
	 viewBox="0 0 512 512" style="enable-background:new 0 0 512 512;" xml:space="preserve">
<style type="text/css">
	.st0{opacity:0.1;fill:#FFFFFF;enable-background:new    ;}
	.st1{fill:#FFFFFF;}
</style>
<g>
	<path class="st0" d="M335.9,346c6.8,8.5,19.5,12.6,37.8,12.6c7.6,0,18.3-1.5,33.2-4.2l-1.5-28.3l-26.8,1.1c-8.1,0-13-2.3-14.9-6.5
		c-1.9-4.6-3-13.4-3-26.4v-71.5h44.7v-30.2h-44.7v-47h-35.1v47h-24.9v30.2h24.9v75.5C325.6,321.5,329,337.6,335.9,346z"/>
	<path class="st0" d="M272.9,312c5.7-16,8.5-37,8.5-63c0-39.4-6.8-68.7-20.2-87.5c-13.4-18.7-36.6-28.3-70-28.3
		c-33.2,0-57,9.6-70.4,28.7s-20.2,48.1-20.2,87.5c0,39,6.5,67.6,19.8,86c13,17.9,36.6,27.2,70.4,27.2c9.2,0,15.7-0.8,19.8-1.9
		l28.7,47.4l33.2-15.7l-26.8-43.6C258.4,340.2,267.5,328.1,272.9,312z M232.7,312.8c-7.2,12.6-21.4,18.7-42.1,18.7
		s-34.7-6.5-42.1-19.1c-7.2-12.6-11.1-33.6-11.1-63s3.8-50.8,11.5-64.2c7.2-13.4,21.4-20.2,41.7-20.2s34,6.8,41.7,19.8
		c7.2,13.4,11.1,35.1,11.1,64.6C243.5,279.1,239.6,300.1,232.7,312.8z"/>
	<path class="st1" d="M190.7,164.9c-20.2,0-34.4,6.8-41.7,20.2c-7.6,13.4-11.5,34.7-11.5,64.2c0,29.4,3.8,50.4,11.1,63
		s21.4,19.1,42.1,19.1s34.7-6.1,42.1-18.7c6.8-12.6,10.7-33.6,10.7-63.4c0-29.4-3.8-51.2-11.1-64.6
		C224.7,171.8,211,164.9,190.7,164.9z"/>
	<path class="st1" d="M462.4,67.4h-17.9H71.2l0,0L0,138.5v237.2v19.5v49.3h49.3h17.9h373.7l0,0l71.1-71.1V135.8v-19.5V67.4H462.4z
		 M272.5,392.2l-33.2,15.7l-28.7-47.4c-4.2,1.1-10.7,1.9-19.8,1.9c-33.6,0-57.3-9.2-70.4-27.2c-13.4-18.3-19.8-47-19.8-86
		c0-39.4,6.8-68.4,20.2-87.5s37-28.7,70.4-28.7s56.6,9.6,70,28.3c13.4,18.7,20.2,48.1,20.2,87.5c0,26-2.7,47-8.5,63
		c-5.3,16-14.5,28.3-27.2,36.6L272.5,392.2z M373.7,358.6c-18.3,0-31-4.2-37.8-12.6c-6.8-8.5-10.4-24.5-10.4-47.8v-75.3h-24.9v-30.2
		h24.9v-47h35.2v47h44.7v30.2h-44.7v71.5c0,13,1.1,21.7,3,26.4c1.9,4.2,6.8,6.5,14.9,6.5l26.8-1.1l1.5,28.3
		C392.1,357.1,381.4,358.6,373.7,358.6z"/>
</g>
</svg>
