<?xml version="1.0" encoding="utf-8"?>
<!-- Generator: Adobe Illustrator 19.2.0, SVG Export Plug-In . SVG Version: 6.00 Build 0)  -->
<svg version="1.1" id="icon" xmlns="http://www.w3.org/2000/svg" xmlns:xlink="http://www.w3.org/1999/xlink" x="0px" y="0px"
	 viewBox="0 0 512 512" style="enable-background:new 0 0 512 512;" xml:space="preserve">
<style type="text/css">
	.st0{opacity:0.1;fill:#FFFFFF;}
	.st1{fill:#FFFFFF;}
</style>
<g>
	<path class="st0" d="M335.3,345.4c6.8,8.4,19.4,12.5,37.6,12.5c7.6,0,18.2-1.5,33-4.2l-1.5-28.1l-26.6,1.1c-8,0-12.9-2.3-14.8-6.5
		c-1.9-4.6-3-13.3-3-26.2v-71h44.4v-30H360v-46.7h-34.9v46.7h-24.7v30h24.7V298C325.1,321.1,328.5,337.1,335.3,345.4z"/>
	<path class="st0" d="M272.7,311.6c5.7-15.9,8.4-36.8,8.4-62.6c0-39.1-6.8-68.3-20.1-86.9c-13.3-18.6-36.4-28.1-69.5-28.1
		c-33,0-56.6,9.5-69.9,28.5c-13.3,19-20.1,47.8-20.1,86.9c0,38.7,6.5,67.2,19.7,85.4c12.9,17.8,36.4,27,69.9,27
		c9.1,0,15.6-0.8,19.7-1.9l28.5,47.1l33-15.6l-26.6-43.3C258.3,339.7,267.4,327.6,272.7,311.6z M232.8,312.4
		c-7.2,12.5-21.3,18.6-41.8,18.6c-20.5,0-34.5-6.5-41.8-19c-7.2-12.5-11-33.4-11-62.6c0-29.2,3.8-50.5,11.4-63.8
		c7.2-13.3,21.3-20.1,41.4-20.1s33.8,6.8,41.4,19.7c7.2,13.3,11,34.9,11,64.2C243.5,279,239.7,299.8,232.8,312.4z"/>
	<path class="st1" d="M191.1,165.5c-20.1,0-34.2,6.8-41.4,20.1c-7.6,13.3-11.4,34.5-11.4,63.8c0,29.2,3.8,50.1,11,62.6
		c7.2,12.5,21.3,19,41.8,19s34.5-6.1,41.8-18.6c6.8-12.5,10.6-33.4,10.6-63c0-29.2-3.8-50.9-11-64.2
		C224.9,172.3,211.2,165.5,191.1,165.5z"/>
	<path class="st1" d="M461,68.6h-17.8H72.3l0,0L1.6,139.3V375v19.4v49h49h17.8h371.3l0,0l70.6-70.6V136.6v-19.4V68.6H461z
		 M272.3,391.3l-33,15.6l-28.5-47.1c-4.2,1.1-10.6,1.9-19.7,1.9c-33.4,0-56.9-9.1-69.9-27c-13.3-18.2-19.7-46.7-19.7-85.4
		c0-39.1,6.8-68,20.1-86.9s36.8-28.5,69.9-28.5s56.2,9.5,69.5,28.1c13.3,18.6,20.1,47.8,20.1,86.9c0,25.8-2.7,46.7-8.4,62.6
		c-5.3,15.9-14.4,28.1-27,36.4L272.3,391.3z M372.9,357.9c-18.2,0-30.8-4.2-37.6-12.5c-6.8-8.4-10.3-24.3-10.3-47.5v-74.8h-24.7v-30
		h24.7v-46.7H360v46.7h44.4v30H360v71c0,12.9,1.1,21.6,3,26.2c1.9,4.2,6.8,6.5,14.8,6.5l26.6-1.1l1.5,28.1
		C391.2,356.4,380.5,357.9,372.9,357.9z"/>
</g>
</svg>
