<?xml version="1.0" encoding="utf-8"?>
<!-- Generator: Adobe Illustrator 22.1.0, SVG Export Plug-In . SVG Version: 6.00 Build 0)  -->
<svg version="1.1" id="icon" xmlns="http://www.w3.org/2000/svg" xmlns:xlink="http://www.w3.org/1999/xlink" x="0px" y="0px"
	 viewBox="0 0 512 512" style="enable-background:new 0 0 512 512;" xml:space="preserve">
<style type="text/css">
	.st0{opacity:0.1;fill:#FFFFFF;enable-background:new    ;}
	.st1{fill:#FFFFFF;}
</style>
<g>
	<path id="path8_1_" class="st0" d="M84.6,54.2c26.8-18,61.9-22.4,92.4-12.1c10.9,3.4,20.6,9.5,30.4,15c38.2-8.4,78.9-7.1,115.8,6.1
		c59,20.3,107.1,69.2,126.4,128.5c12.3,36.1,13.1,75.5,5,112.6c9.6,15.6,17.8,32.5,19.7,51c4.7,34.7-9.5,71.2-36,93.9
		c-26,22.9-63.5,31.6-96.9,22.4c-13.4-3.2-25.3-10.2-37-17c-40.3,8.9-83.2,6.8-121.8-8.3c-56.8-21.6-102.7-70-121-128.1
		c-11.8-35.7-12.4-74.4-4.4-110.9c-12.3-19.2-21-41.3-20.5-64.3C36.3,107.9,55.1,73.4,84.6,54.2z"/>
	<path class="st1" d="M493.2,297.7c6.9-40,3.8-81.7-9.5-120.1C464.5,121,423,72.3,370.3,44C323.1,18.3,267.1,9.6,214.1,18.8
		C167.2-8.5,104.9-5.8,60.7,26C31.5,46.4,10.4,78.1,3.2,113c-7.3,34.1-1.8,70.9,15.6,101.1c-7.1,42.2-3.4,86.3,11.7,126.3
		c20.8,56.2,63.5,103.7,116.9,130.5c46,23.4,99.5,31,150.4,22.3c45.6,26.4,105.8,24.8,149.7-4.7c31.6-20.6,54.5-54.3,61.8-91.4
		C516,363.5,510.2,327.5,493.2,297.7z M438.4,449.3c-26,22.9-63.5,31.6-96.9,22.4c-13.4-3.2-25.3-10.2-37-17
		c-40.3,8.9-83.2,6.8-121.8-8.3c-56.9-21.6-102.8-70-121.1-128.1c-11.8-35.7-12.4-74.4-4.4-110.9c-12.3-19.2-21-41.3-20.5-64.3
		c-0.3-35.2,18.5-69.7,48-88.9c26.8-18,61.9-22.4,92.4-12.1c10.9,3.4,20.6,9.5,30.4,15c38.2-8.4,78.9-7.1,115.8,6.1
		c59,20.3,107.1,69.2,126.4,128.5c12.3,36.1,13.1,75.5,5,112.6c9.6,15.6,17.8,32.5,19.7,51C479.2,390.1,465,426.6,438.4,449.3z"/>
	<path id="path10" class="st1" d="M224.4,110.1c34.7-5.2,71.3,0.1,102.2,16.8c13.5,7.5,26.7,17.6,32.9,32.2c4.1,9.6,4.5,22.1-3,30.1
		c-8.2,8.4-21.5,11-32.6,7.4c-12.8-5.3-19-18.7-29.9-26.6c-13.6-11.2-31.9-14.2-49-13.9c-12.5,0.5-26,3.4-35,12.6
		c-8.5,9-11.6,24.5-3.3,34.5c7.7,9,19.7,12.3,30.8,15.4c20.9,5.2,42.2,9.5,63.2,14.5c21.9,5,44,14.6,58.5,32.4
		c25,32.3,19.3,83.5-11.7,110c-24.9,21.9-59.3,28.1-91.5,28.3c-34.3-0.5-71-7.5-97.3-31c-13.2-12-24.4-29.9-20.3-48.3
		c4.3-18.3,29.5-25.3,43.8-14c10.9,8.8,16.8,22,27.3,31.2c12.6,11.5,30.1,16.1,46.8,15.7c16.4,0.4,33.8-4.6,45.1-17.1
		c7.6-8.5,11.7-21.2,6.7-32.1c-4.1-10.2-14.6-15.7-24.6-18.4c-18.5-4.8-37.1-9.3-55.6-14.1c-20.3-4.9-41.4-9.5-58.9-21.6
		c-13.6-9.1-24-23.1-27.3-39.3c-5.5-25.3-1.6-54.3,16.8-73.7C175.2,122.5,200.1,113.9,224.4,110.1z"/>
</g>
</svg>
