<?xml version="1.0" encoding="utf-8"?>
<!-- Generator: Adobe Illustrator 19.2.0, SVG Export Plug-In . SVG Version: 6.00 Build 0)  -->
<svg version="1.1" id="icon" xmlns="http://www.w3.org/2000/svg" xmlns:xlink="http://www.w3.org/1999/xlink" x="0px" y="0px"
	 viewBox="0 0 512 512" style="enable-background:new 0 0 512 512;" xml:space="preserve">
<style type="text/css">
	.st0{opacity:0.1;fill:#FFFFFF;}
	.st1{fill:#FFFFFF;}
</style>
<g>
	<path id="path8_1_" class="st0" d="M85.7,55.5c26.6-17.9,61.5-22.3,91.8-12c10.8,3.4,20.5,9.4,30.2,14.9c38-8.3,78.4-7.1,115.1,6.1
		c58.6,20.2,106.4,68.8,125.6,127.7c12.2,35.9,13,75,5,111.9c9.5,15.5,17.7,32.3,19.6,50.7c4.7,34.5-9.4,70.7-35.8,93.3
		c-25.8,22.8-63.1,31.4-96.3,22.3c-13.3-3.2-25.1-10.1-36.8-16.9c-40,8.8-82.7,6.8-121-8.2C126.7,423.8,81.1,375.7,62.9,318
		c-11.7-35.5-12.3-73.9-4.4-110.2c-12.2-19.1-20.9-41-20.4-63.9C37.7,108.9,56.4,74.6,85.7,55.5z"/>
	<path class="st1" d="M491.7,297.5c6.9-39.7,3.8-81.2-9.4-119.3C463.2,121.9,422,73.5,369.6,45.4c-46.9-25.6-102.6-34.2-155.2-25.1
		C167.8-6.8,105.9-4.1,62,27.5c-29,20.3-50,51.8-57.2,86.4c-7.3,33.9-1.8,70.4,15.5,100.5c-7.1,41.9-3.4,85.7,11.6,125.5
		C52.6,395.7,95,442.9,148.1,469.6c45.7,23.3,98.9,30.8,149.4,22.2c45.3,26.2,105.1,24.6,148.7-4.7c31.4-20.5,54.2-54,61.4-90.8
		C514.4,362.8,508.6,327.1,491.7,297.5z M437.3,448.1c-25.8,22.8-63.1,31.4-96.3,22.3c-13.3-3.2-25.1-10.1-36.8-16.9
		c-40,8.8-82.7,6.8-121-8.2C126.7,423.8,81.1,375.7,62.9,318c-11.7-35.5-12.3-73.9-4.4-110.2c-12.2-19.1-20.9-41-20.4-63.9
		c-0.3-35,18.4-69.3,47.7-88.3c26.6-17.9,61.5-22.3,91.8-12c10.8,3.4,20.5,9.4,30.2,14.9c38-8.3,78.4-7.1,115.1,6.1
		c58.6,20.2,106.4,68.8,125.6,127.7c12.2,35.9,13,75,5,111.9c9.5,15.5,17.7,32.3,19.6,50.7C477.8,389.3,463.7,425.5,437.3,448.1z"/>
	<path id="path10" class="st1" d="M224.6,111.1c34.5-5.2,70.8,0.1,101.5,16.7c13.4,7.5,26.5,17.5,32.7,32c4.1,9.5,4.5,22-3,29.9
		c-8.1,8.3-21.4,10.9-32.4,7.4c-12.7-5.3-18.9-18.6-29.7-26.4c-13.5-11.1-31.7-14.1-48.7-13.8c-12.4,0.5-25.8,3.4-34.8,12.5
		c-8.4,8.9-11.5,24.3-3.3,34.3c7.7,8.9,19.6,12.2,30.6,15.3c20.8,5.2,41.9,9.4,62.8,14.4c21.8,5,43.7,14.5,58.1,32.2
		c24.8,32.1,19.2,83-11.6,109.3c-24.7,21.8-58.9,27.9-90.9,28.1c-34.1-0.5-70.5-7.5-96.7-30.8c-13.1-11.9-24.2-29.7-20.2-48
		c4.3-18.2,29.3-25.1,43.5-13.9c10.8,8.7,16.7,21.9,27.1,31c12.5,11.4,29.9,16,46.5,15.6c16.3,0.4,33.6-4.6,44.8-17
		c7.6-8.4,11.6-21.1,6.7-31.9c-4.1-10.1-14.5-15.6-24.4-18.3c-18.4-4.8-36.9-9.2-55.2-14c-20.2-4.9-41.1-9.4-58.5-21.5
		c-13.5-9-23.8-23-27.1-39c-5.5-25.1-1.6-54,16.7-73.2C175.7,123.4,200.5,114.8,224.6,111.1z"/>
</g>
</svg>
