<?xml version="1.0" encoding="utf-8"?>
<!-- Generator: Adobe Illustrator 22.1.0, SVG Export Plug-In . SVG Version: 6.00 Build 0)  -->
<svg version="1.1" id="Layer_1" xmlns="http://www.w3.org/2000/svg" xmlns:xlink="http://www.w3.org/1999/xlink" x="0px" y="0px"
	 viewBox="0 0 512 512" style="enable-background:new 0 0 512 512;" xml:space="preserve">
<style type="text/css">
	.st0{opacity:0.1;fill:#FFFFFF;enable-background:new    ;}
	.st1{fill:#FFFFFF;}
</style>
<g id="icon">
	<g>
		<path id="path4148_1_" class="st0" d="M382.7,218.6L291.1,24.2c0,0-1-1-2.1-1.1c0,0-0.8,1.7-0.9,3.4c-1,10,0.2,10.7-2.7,15
			c-1.6,2.3-4.1,5.8-4.1,6.4c0,1.9,1,1.7,2.9-0.1c0.9-0.9,2.8-1.6,3.8-2c1.6-0.6,2.6,0,3.6,0.7c0.9,0.6,1.2,2,1.6,2.9
			c0.4,0.9,5.8,22.3,12.5,47.9c10.8,41.2,12.2,44.1,11.8,47.4c0,0,0.5,5.3-0.5,7.2c-1.6,3.2-7.7,8.3-7.7,8.3
			c-7.6,7.3-7.6,6.1-7.1,8.3c0.5,1.9,0.5,1.7,2.4,1.6c1.2-0.1,3-0.2,3.7-0.9c2-1.9,6.8-4.6,9.5-4.3c5.7,0.7,5.2,1.5,11.6,26
			c2.7,10.7,4,16.9,4.9,20.7c1.2,5,0.3,6.7-3,10.3c-4.9,5-13.3,7.5-22.2,6c-5-0.8-8.3-3.4-8.9-5.2c-0.6-1.8-0.7-5,0.2-7.2
			c1.5-3.6,4.8-6.7,8.3-8.4c2-1,3.8-1.7,3.7-2.1c-0.4-1.5-14.3,2.8-19.4,7.1c-3.9,3.6-7.2,7.2-9.8,11.8l0.3-3.7
			c0.2-3.6,0.1-3.7,2-6.7c0.5-0.8,2.1-2.1,1.9-2.3c-0.3-0.4-2.5-0.5-4.4,0.4c-6.2,3.2-7.1,8.2-10.7,12.8c-0.2,0-1-1.7-1.8-3.8
			c-2.2-5.7-5.8-10.5-14.7-19.8c-8.5-9-10.1-11.9-10.1-17c0-2.6,2.1-7.3,4.6-10.1c3.1-3.4,5.3-3.8,11.9-6.9
			c15.4-7.4,20.8-12.2,23.9-20.3c1.7-4.6,1.6-8.2,0.4-14.3c-2.2-11.2-12.7-19.6-27-21.7l-3-0.4c1.3-2.7,3.5-4.7,5.5-6.4
			c0.9-0.8,3.6-2.3,6-3.5c9.7-4.8,9.8-5,10.8-9.9c0.3-1.4,0.7-2.1,0.2-2.2c-0.5,0-1.8,0.9-2.7,2.4c-1.4,2.2-2.1,2.6-6.9,3.9
			c-7.8,2.2-14.1,3.4-22,3.8c-1.2,0-1.6-0.3-1.6-1.3c0-0.7-1.3-4.9-2.9-9.4c-3.7-10.1-4.1-13.3-2.5-17.6c1.4-3.7,2.1-4,1.1-4
			c-1.5,0-6,4.9-6.8,8.4c-0.6,2.7-0.6,5,0.2,13l1,9.7l-3.9,6.9c-3.7,6.6-3.9,7-3.5,10.2c0.3,2.9,0.2,3.6-2.2,7.9
			c-2.5,4.5-2.6,4.8-2.2,9.2c0.4,5.5,0.7,6.2,2.9,7.5c1.4,0.8,2.3,1.5,2.8,1.3c0.4-0.2,0.4-1,0.4-1.9c0-3.1,2.4-6.9,7.6-12
			c3.3-3.2,6.5-5.7,8.9-6.7c2-0.9,3.7-1.9,3.9-2.3c9.7-1.6,23.4,6.5,27.6,14.4c3,6.1,1.6,12.5-5.2,18.6c-4.6,4.1-8.4,5.9-19.9,9.9
			c-15.4,5.1-24.9,15.1-25.4,27.3c-0.3,7.1-0.4,7,7,27.5c0.9,2.4,1.6,5.2,1.6,6.2c0,0.7-0.2,1-0.2,1s-0.9-0.9-2.2-2.9
			c-1.3-2-3.5-3.9-4.7-5c-2.4-2.1-6-4.4-6.6-3.7c-0.6,0.6,1.7,2.9,2.4,3.8c1.9,2.5,1.5,5.5,1.5,7.9c0,1.1-0.2,1.7-0.2,1.7
			c-3-4-5.7-9.3-9.9-12.7c-4.4-3.5-14-6-17.9-6.1c-2.6,0-1,1,2.8,2.8c6.2,3,10.2,11,8.1,15.5c-1.1,2-3.6,3.2-9,4.1
			c-10.9,1.8-21.7-3.3-24.4-10.9c-0.9-2.5-0.7-3.2,4.6-25.4c3-12.5,5.7-23.3,6-24.1c0.7-2,4-2.5,8.4-1.1c2.7,0.9,4.4,2,8.3,5.7
			c2.6,2.6,5.1,5,5.4,5c0,0,0.5-2-0.5-6.6c-0.9-4-1.2-3.4-8.9-10.7c-3-2.8-4.6-4.4-5.7-5.6c-1.7-1.9-2.2-2.4-2.2-4.2
			c0-1,0.2-4.1,0.4-5.1c6.7-31.1,13.9-63.4,24.4-96.6c0.6-1.1,2.3-2,3.2-1.9c2.7,0.4,7.3,8.5,8.3,8.4c0.6-5.5-4.5-12.8-6.9-16.3
			c0,0,0.9-18.3-1.9-19.6l-92.2,201.8c27.9,64.6,66.4,134.6,91.4,194.9c0.3,0.9,1,1.6,1.6,1.6c0.8,0,1-4.3,1-37.4v-37.4l-3.8-1.1
			c-5.6-1.5-7.9-2.8-15.7-11.9c-6.7-7.9-6.9-8.9-7.3-12.4c-0.3-2.5,0-6.4,1-12.2c1.9-11.8,2.6-22.1,1.7-27.1
			c-0.4-2.2-0.3-4.3-0.3-4.3c0.5-0.3,8.4,2.7,10.8,4.3c6.7,3.5,9.6,9.4,12.2,15.4c1,2.2,3.1,6.3,3.1,6.3c-0.4-7.7,1.2-20-4.5-25.1
			l3.1,1.3c12.6,7.1,30.7,23.4,34.1,37.9c1.7,7.2,4.1,22,4.1,24.8c0,1.8,0.3,3.7-0.4,5.8c-1.2,3.3-4.3,8.7-10.5,19.6
			c-7.8,14-10.1,17.3-10.4,19.8c-0.3,2.9,0,3.9,4.4,13.9c2.6,5.9,4.8,11.6,4.8,12.5c0,1.7-6,11.3-11.5,18c-3.6,4.5-5.2,8.3-4.6,10.8
			c0.4,1.8,3.8,10.3,5.4,13.3c0,0,10.2,23.4,16.4,36.9c1,2.1,2.4,5.4,3.4,5.5c1.4,0,2.4-3.7,3.4-5.9c3.3-8.1,11.8-26.3,16.7-36.7
			c1.5-3.2,1.9-4.1,1.4-5.4c-0.9-2.5-2.6-2.4-6.3,0.8c-4,3.4-12.6,9.2-16.2,10.5c-3.8,1.3-5.5,0.7-8.9-1.7c-3-2.2-6.5-7.8-9.2-14.9
			c-1-2.7-1-3.1,0-5.3c1.2-3,3-5.4,4.8-7.7c1.3-1.2,4-5,5.9-7.5c1.7-2.2,4.6-6,4.9-6.7c1.1-2.2,0.6-5.7-2.1-16.5
			c-2.9-11.6-2.4-13.1-1.9-15.7c3.4-8.1,9.1-14.4,14.1-22.2l7.7-12.1c3.1-4.3,3.4-8.9,1-26.5c-4.3-15.1,5.7-38.4,17.1-42.3
			c1,4.5-2.4,18.5-0.1,20.4c6.5-12.3,8.2-20.2,21.9-24.8c4.1-1,7.6-3.6,11.2-5.2c-16.8,14.3-1.7,46-3.6,48.2
			c-3.9,8.3-10.4,18.8-17.5,22c-3.5,1.7-6.5,2.1-10.3,3.1l-0.1,17.3c-0.1,9.6,0.3,17.8,0.5,18.2c0.3,0.8,2.1,1.5,3,1.2l7.7-2.5
			c3.6-0.8,5.3-0.6,8.5-0.2c1.5,0.1,1.5-0.7,2.2-1.7L382.7,218.6z"/>
		<path class="st1" d="M303.8,0h-95.5L106.7,219.6L243.3,512h25.4l136.7-292.4L303.8,0z M310,375.5c-3.1-0.4-4.8-0.5-8.5,0.2
			l-7.7,2.5c-0.9,0.3-2.7-0.4-3-1.2c-0.2-0.5-0.5-8.7-0.5-18.2l0.1-17.3c3.7-1,6.7-1.4,10.3-3.1c7.1-3.2,13.6-13.8,17.5-22
			c1.9-2.3-13.1-34,3.6-48.2c-3.5,1.5-7,4.1-11.2,5.2c-13.8,4.5-15.5,12.5-21.9,24.8c-2.3-1.9,1.2-15.9,0.1-20.4
			c-11.5,3.8-21.4,27.1-17.1,42.3c2.4,17.6,2.1,22.1-1,26.5l-7.7,12.1c-5,7.8-10.6,14.2-14.1,22.2c-0.5,2.6-1,4.1,1.9,15.7
			c2.7,10.8,3.2,14.3,2.1,16.5c-0.4,0.7-3.3,4.5-4.9,6.7c-1.9,2.5-4.7,6.3-5.9,7.5c-1.8,2.3-3.5,4.7-4.8,7.7c-1,2.3-1,2.6,0,5.3
			c2.6,7,6,12.7,9.2,14.9c3.3,2.4,5,3.1,8.9,1.7c3.6-1.3,12.2-7,16.2-10.5c3.7-3.2,5.4-3.3,6.3-0.8c0.5,1.3,0.1,2.3-1.4,5.4
			c-4.9,10.5-13.3,28.7-16.7,36.7c-0.9,2.2-2,5.9-3.4,5.9c-1-0.1-2.4-3.4-3.4-5.5c-6.2-13.5-16.4-36.9-16.4-36.9
			c-1.6-3-5-11.5-5.4-13.3c-0.5-2.5,1-6.2,4.6-10.8c5.3-6.7,11.5-16.3,11.5-18c0-0.9-2.2-6.5-4.8-12.5c-4.5-10.1-4.8-11-4.4-13.9
			c0.3-2.5,2.5-5.8,10.4-19.8c6.1-11,9.3-16.3,10.5-19.6c0.8-2.1,0.4-4,0.4-5.8c0-2.8-2.4-17.6-4.1-24.8
			c-3.5-14.5-21.6-30.7-34.1-37.9l-3.1-1.3c5.7,5,4.1,17.3,4.5,25.1c0,0-2.1-4-3.1-6.3c-2.6-5.9-5.4-11.9-12.2-15.4
			c-2.4-1.6-10.3-4.6-10.8-4.3c0,0-0.1,2.1,0.3,4.3c0.8,4.9,0.1,15.3-1.7,27.1c-0.9,5.7-1.2,9.8-1,12.2c0.4,3.5,0.5,4.4,7.3,12.4
			c7.7,9.1,10.2,10.3,15.7,11.9l3.8,1.1V379c0,33.2-0.1,37.4-1,37.4c-0.5,0-1.2-0.7-1.6-1.6c-25-60.3-63.5-130.3-91.4-194.9
			l92.3-201.6c2.8,1.2,1.9,19.6,1.9,19.6c2.3,3.5,7.5,10.8,6.9,16.3c-1,0.2-5.6-7.9-8.3-8.4c-0.9-0.1-2.6,0.8-3.2,1.9
			c-10.5,33.3-17.6,65.5-24.4,96.6c-0.2,1-0.4,4-0.4,5.1c0,1.9,0.5,2.3,2.2,4.2c1.1,1.3,2.8,2.8,5.7,5.6c7.5,7.1,7.8,6.5,8.9,10.7
			c1.1,4.7,0.5,6.6,0.5,6.6c-0.3,0-2.8-2.4-5.4-5c-3.8-3.7-5.4-4.9-8.3-5.7c-4.3-1.3-7.7-0.9-8.4,1.1c-0.3,0.8-2.9,11.6-6,24.1
			c-5.4,22-5.5,22.7-4.6,25.4c2.6,7.5,13.4,12.8,24.4,10.9c5.3-0.9,7.8-2.1,9-4.1c2.1-4.6-1.8-12.5-8.1-15.5
			c-3.8-1.8-5.3-2.8-2.8-2.8c3.9,0,13.5,2.6,17.9,6.1c4,3.4,6.8,8.7,9.9,12.7c0,0,0.2-0.7,0.2-1.7c0-2.4,0.4-5.4-1.5-7.9
			c-0.7-0.9-3-3.3-2.4-3.8c0.6-0.6,4.3,1.6,6.6,3.7c1.2,1.1,3.3,2.9,4.7,5c1.3,2.1,2.2,2.9,2.2,2.9s0.2-0.4,0.2-1
			c0-1-0.7-3.8-1.6-6.2c-7.4-20.4-7.3-20.3-7-27.5c0.4-12.1,10-22.1,25.4-27.3c11.6-3.9,15.3-5.7,19.9-9.9
			c6.8-6.1,8.3-12.5,5.2-18.6c-4.1-7.8-17.9-16-27.6-14.4c-0.2,0.3-2,1.4-3.9,2.3c-2.3,1.1-5.5,3.5-8.9,6.7c-5.2,5.1-7.6,8.9-7.6,12
			c0,0.8-0.1,1.7-0.4,1.9c-0.5,0.2-1.4-0.5-2.8-1.3c-2.2-1.3-2.5-1.9-2.9-7.5c-0.3-4.3-0.3-4.6,2.2-9.2c2.4-4.3,2.5-5,2.2-7.9
			c-0.4-3.1-0.2-3.5,3.5-10.2l3.9-6.9l-1-9.7c-0.8-7.9-0.8-10.3-0.2-13c0.8-3.4,5.3-8.3,6.8-8.4c1,0,0.3,0.3-1.1,4
			c-1.6,4.3-1.2,7.5,2.5,17.6c1.6,4.4,2.9,8.7,2.9,9.4c0,0.9,0.4,1.3,1.6,1.3c8.1-0.4,14.3-1.6,22-3.8c4.8-1.4,5.5-1.7,6.9-3.9
			c1-1.5,2.2-2.5,2.7-2.4c0.5,0,0.1,0.8-0.2,2.2c-1,4.8-1.1,5-10.8,9.9c-2.4,1.2-5,2.7-6,3.5c-2.1,1.7-4.3,3.7-5.5,6.4l3,0.4
			c14.3,2.1,24.8,10.6,27,21.7c1.2,6.2,1.4,9.8-0.4,14.3c-3.1,8.2-8.5,12.9-23.9,20.3c-6.5,3.1-8.9,3.5-11.9,6.9
			c-2.5,2.7-4.6,7.4-4.6,10.1c0,5.1,1.6,8.1,10.1,17c8.9,9.4,12.4,14.1,14.7,19.8c0.8,2.1,1.6,3.8,1.8,3.8
			c3.5-4.6,4.3-9.5,10.7-12.8c1.9-0.9,4.1-0.8,4.4-0.4c0.2,0.3-1.4,1.5-1.9,2.3c-1.9,3-1.8,3.1-2,6.7l-0.3,3.7
			c2.6-4.5,5.8-8.2,9.8-11.8c5.1-4.2,18.9-8.7,19.4-7.1c0.1,0.4-1.7,1.1-3.7,2.1c-3.4,1.6-6.7,4.7-8.3,8.4c-0.9,2.2-0.8,5.4-0.2,7.2
			s3.8,4.4,8.9,5.2c9,1.4,17.3-1,22.2-6c3.4-3.5,4.2-5.2,3-10.3c-0.9-3.8-2.2-10.1-4.9-20.7c-6.3-24.5-5.8-25.3-11.6-26
			c-2.6-0.3-7.5,2.4-9.5,4.3c-0.7,0.7-2.5,0.8-3.7,0.9c-1.9,0.2-1.9,0.3-2.4-1.6c-0.6-2.1-0.5-0.9,7.1-8.3c0,0,6.1-5.1,7.7-8.3
			c1-2,0.5-7.2,0.5-7.2c0.4-3.3-1.1-6.2-11.8-47.4c-7-25.8-12.6-47.3-12.9-48.2s-0.7-2.2-1.6-2.9c-1-0.7-1.9-1.3-3.6-0.7
			c-1,0.4-2.9,1.1-3.8,2c-1.8,1.7-2.9,1.9-2.9,0.1c0-0.6,2.5-4.1,4.1-6.4c2.9-4.3,1.7-5,2.7-15c0.2-1.7,0.9-3.4,0.9-3.4
			c1.1,0.1,2.1,1.1,2.1,1.1l91.6,194.4l-70.5,155.3C311.5,374.8,311.5,375.6,310,375.5z"/>
	</g>
</g>
<g id="Guides">
</g>
</svg>
