<?xml version="1.0" encoding="utf-8"?>
<!-- Generator: Adobe Illustrator 19.2.0, SVG Export Plug-In . SVG Version: 6.00 Build 0)  -->
<svg version="1.1" id="icon" xmlns="http://www.w3.org/2000/svg" xmlns:xlink="http://www.w3.org/1999/xlink" x="0px" y="0px"
	 viewBox="0 0 512 512" style="enable-background:new 0 0 512 512;" xml:space="preserve">
<style type="text/css">
	.st0{opacity:0.1;fill:#FFFFFF;}
	.st1{fill:#FFFFFF;}
</style>
<g>
	<path id="solid-background" class="st0" d="M359,24.7H40.5c-21.3,0-38.8,17.5-38.8,38.8v351.3c0,21.3,17.5,38.8,38.8,38.8h209.8
		C247.9,349.2,283.5,146.6,359,24.7z"/>
	<path id="feather" class="st1" d="M433.3,13.2C411.5-6.2,385.1,1.6,359,24.7c-3.9,3.4-7.7,7.3-11.6,11.3
		c-44.6,47.3-86,134.9-98.8,201.9c5,10.2,8.9,23.1,11.5,33c0.7,2.5,1.3,4.9,1.7,7c1.1,4.8,1.7,7.9,1.7,7.9s-0.4-1.5-2-6.3
		c-0.3-0.9-0.7-1.9-1.1-3.1c-0.2-0.5-0.4-1.1-0.7-1.7c-2.9-6.8-11-21-14.5-27.2c-3,8.9-5.7,17.3-7.9,24.9
		c10.2,18.7,16.5,50.8,16.5,50.8s-0.5-2.1-3.1-9.3c-2.3-6.4-13.6-26.3-16.3-31c-4.6,17-6.4,28.5-4.8,31.3c3.2,5.4,6.3,14.8,8.9,25.1
		c6.1,23.3,10.3,51.6,10.3,51.6s0.1,1.9,0.4,4.8c-0.8,19.5-0.3,39.8,1.2,58.1c2,24.2,5.8,45.1,10.6,56.2l3.3-1.8
		c-7.1-22-9.9-50.7-8.7-83.9c1.9-50.7,13.6-111.9,35.1-175.6C327,152.2,377.6,75,423.8,38.1c-42.2,38.1-99.2,161.4-116.3,207
		c-19.1,51.1-32.7,99.1-40.9,145.1c14.1-43.1,59.7-61.6,59.7-61.6s22.4-27.6,48.5-67c-15.6,3.6-41.3,9.7-50,13.3
		c-12.7,5.3-16.1,7.1-16.1,7.1s41.1-25,76.4-36.4C433.7,169.3,486.5,60.7,433.3,13.2"/>
</g>
</svg>
