<svg version="1.1" xmlns="http://www.w3.org/2000/svg" x="0" y="0" viewBox="0 0 512 512" xml:space="preserve"><g fill="#fff"><path d="M511.3 239.9c.2-.3.3-.6.5-.9C503.1 105.5 392.1 0 256.4 0h-.6C120.1 0 9.1 105.5.3 239c.2.3.3.6.5.9-.3 5.3-.5 10.7-.5 16.1 0 25.2 3.6 49.6 10.5 72.6-.1.3-.2.7-.3 1C42.1 435.1 139.9 512 255.7 512h.6c115.8 0 213.7-76.9 245.2-182.4-.1-.3-.2-.7-.3-1 6.8-23 10.5-47.4 10.5-72.6.2-5.4 0-10.8-.4-16.1z" opacity=".1"/><path d="M242.6 191.9v1.3L180 284.1c-10.2-.5-20.3 1.3-30 5.3-4.2 1.7-8.2 3.8-12 6.3L.5 239.1s-3.2 52.4 10.1 91.4l97.3 40.1c4.9 21.8 19.8 40.9 41.9 50.2 36.1 15.1 77.8-2.1 92.8-38.2 3.9-9.5 5.7-19.3 5.4-29.3l89.6-64.1h2.2c53.6 0 97.3-43.8 97.3-97.5s-43.6-97.4-97.3-97.4c-53.5.2-97.2 43.9-97.2 97.6zm-14.9 184.4c-11.7 28-43.8 41.1-71.6 29.6-12.9-5.3-22.6-15.2-28.2-26.9l31.7 13.1c20.6 8.6 44.2-1.2 52.7-21.7 8.6-20.6-1.1-44.3-21.7-52.8L157.8 304c12.7-4.8 27-4.9 40.4.6 13.5 5.6 24 16.2 29.6 29.8 5.5 13.4 5.5 28.4-.1 41.9m112.2-119.5c-35.7 0-64.8-29.1-64.8-64.9s29.1-64.9 64.8-64.9 64.8 29.2 64.8 64.9-29.1 64.9-64.8 64.9m-48.6-65c0-27 21.8-48.8 48.7-48.8s48.7 21.8 48.7 48.8-21.8 48.8-48.7 48.8c-26.8-.1-48.7-21.9-48.7-48.8z"/></g></svg>