<svg version="1.1" id="icon" xmlns="http://www.w3.org/2000/svg" x="0" y="0" viewBox="0 0 512 512" xml:space="preserve"><style type="text/css">.st0,.st1{fill:#fff}.st1{opacity:.1}</style><path class="st0" d="M286.7 19h66.2v139.9h-66.2z"/><path class="st0" d="M483.9 1.4H7.7L1.6 7.5V504l6.1 6.1h43.7V209l409-.1v301.2h43.7l6.1-6.1V27.9L483.9 1.4zm-87 167.4H123.2V1.9h273.7v166.9z"/><path id="path3197_2_" class="st1" d="M51.5 510.1V209l409-.1v301.2h-409z"/><path class="st0" d="M69.8 265.9h372.3v6.2H69.8zM69.8 326.9h372.3v6.2H69.8zM69.8 388h372.3v6.2H69.8z"/><path class="st1" d="M123.2 1.9v166.9h273.7V1.9H123.2zm229.7 157h-66.2V19h66.2v139.9z"/><path id="rect21704_1_" class="st0" d="M13.3 470.9h27.6v27.6H13.3z"/><path id="rect23666_1_" class="st0" d="M471.1 470.9h27.6v27.6h-27.6z"/><path id="path6175_1_" class="st0" d="M33.2 44.2L23 68.6h4.1v11.2l3.1 3.1h6.1l3.1-3.1V68.6h4.1L33.2 44.2z"/><path id="rect12988" class="st0" d="M53.5 446.3h404.3v64.3H53.5z"/></svg>