<?xml version="1.0" encoding="utf-8"?>
<!-- Generator: Adobe Illustrator 19.2.0, SVG Export Plug-In . SVG Version: 6.00 Build 0)  -->
<svg version="1.1" id="icon" xmlns="http://www.w3.org/2000/svg" xmlns:xlink="http://www.w3.org/1999/xlink" x="0px" y="0px"
	 viewBox="0 0 512 512" style="enable-background:new 0 0 512 512;" xml:space="preserve">
<style type="text/css">
	.st0{fill:#FFFFFF;}
	.st1{opacity:0.1;fill:#FFFFFF;}
</style>
<g>
	<rect x="286.7" y="19" class="st0" width="66.2" height="139.9"/>
	<path class="st0" d="M483.9,1.4H7.7L1.6,7.5V504l6.1,6.1h43.7V209l409-0.1v301.2h43.7l6.1-6.1V27.9L483.9,1.4z M396.9,168.8H123.2
		V1.9h273.7V168.8z"/>
	<path id="path3197_2_" sodipodi:nodetypes="ccccc" class="st1" d="M51.5,510.1V209l409-0.1v301.2H51.5z"/>
	<rect x="69.8" y="265.9" class="st0" width="372.3" height="6.2"/>
	<rect x="69.8" y="326.9" class="st0" width="372.3" height="6.2"/>
	<rect x="69.8" y="388" class="st0" width="372.3" height="6.2"/>
	<path class="st1" d="M123.2,1.9v166.9h273.7V1.9H123.2z M352.9,158.9h-66.2V19h66.2V158.9z"/>
	<rect id="rect21704_1_" x="13.3" y="470.9" class="st0" width="27.6" height="27.6"/>
	<rect id="rect23666_1_" x="471.1" y="470.9" class="st0" width="27.6" height="27.6"/>
	<path id="path6175_1_" class="st0" d="M33.2,44.2L23,68.6h4.1v11.2l3.1,3.1h6.1l3.1-3.1V68.6h4.1L33.2,44.2z"/>
	<rect id="rect12988" x="53.5" y="446.3" class="st0" width="404.3" height="64.3"/>
</g>
</svg>
