<?xml version="1.0" encoding="utf-8"?>
<!-- Generator: Adobe Illustrator 22.1.0, SVG Export Plug-In . SVG Version: 6.00 Build 0)  -->
<svg version="1.1" id="icon" xmlns="http://www.w3.org/2000/svg" xmlns:xlink="http://www.w3.org/1999/xlink" x="0px" y="0px"
	 viewBox="0 0 512 512" style="enable-background:new 0 0 512 512;" xml:space="preserve">
<style type="text/css">
	.st0{opacity:0.1;fill:#FFFFFF;enable-background:new    ;}
	.st1{fill:#FFFFFF;}
</style>
<g>
	<circle class="st0" cx="256" cy="256" r="256"/>
	<path class="st1" d="M506.7,293c-9.2-8.2-19-15.1-26.6-23.9c-26.5-31.1-43-68.1-60.2-104.7c-10.2-21.5-20.2-43.1-30-64.8
		c-3.3-7.4-7.1-9.8-15.9-8.1c-22.9,4.6-46.2,7.6-69.2,11.2c-11.1,1.7-12.3,3.2-7.5,13.1c13.7,28.7,28,57.1,41.5,85.7
		c10.6,22.5,19.5,45.6,21.8,70.7c3.8,41.7-23.6,62.2-52,70.8c-29.8,9.1-51.7-5.4-70.4-25.9c-28.4-31-46.3-68.4-62.5-106.7
		c-9.9-23.1-19-46.6-28.3-70c-2.7-6.8-5.9-9.2-14-7.3c-28.5,6.4-57.4,11.7-86,17.4c-11,2.2-12,4.3-7.4,15.9
		c17.8,45.6,35.7,91.2,53.5,136.8c25,64,50,128,75.5,193.3c27.3,9.9,56.7,15.3,87.2,15.3c14.5,0,28.6-1.2,42.4-3.5
		c-3.1-0.9-5.5-3.3-7.7-7.5c-14.7-27.8-29.9-55.1-44.9-82.7c-0.9-1.7-1.4-3.6-2.4-6.3c33.9,3.1,65.7,3.2,97-6.2
		c32.9-10,54.9-30.5,63.4-64.4c0.4-1.7,1-3.3,1.7-4.8c0.2-0.6,0.8-1,1.7-2c20.7,22.3,46.5,33.3,78.9,34c11.2-22.7,19-47.4,22.9-73.4
		L506.7,293z"/>
</g>
</svg>
