<?xml version="1.0" encoding="utf-8"?>
<!-- Generator: Adobe Illustrator 19.2.0, SVG Export Plug-In . SVG Version: 6.00 Build 0)  -->
<svg version="1.1" id="icon" xmlns="http://www.w3.org/2000/svg" xmlns:xlink="http://www.w3.org/1999/xlink" x="0px" y="0px"
	 viewBox="0 0 512 512" style="enable-background:new 0 0 512 512;" xml:space="preserve">
<style type="text/css">
	.st0{opacity:0.1;fill:#FFFFFF;}
	.st1{fill:#FFFFFF;}
</style>
<g>
	<circle class="st0" cx="256" cy="256" r="254.4"/>
	<path class="st1" d="M505.1,292.8c-9.1-8.1-18.9-15-26.4-23.8c-26.3-30.9-42.7-67.7-59.8-104c-10.1-21.4-20.1-42.8-29.8-64.4
		c-3.3-7.4-7.1-9.7-15.8-8c-22.8,4.6-45.9,7.6-68.8,11.1c-11,1.7-12.2,3.2-7.5,13c13.6,28.5,27.8,56.7,41.2,85.2
		c10.5,22.4,19.4,45.3,21.7,70.3c3.8,41.4-23.5,61.8-51.7,70.4c-29.6,9-51.4-5.4-70-25.7c-28.2-30.8-46-68-62.1-106
		c-9.8-23-18.9-46.3-28.1-69.6c-2.7-6.8-5.9-9.1-13.9-7.3c-28.3,6.4-57,11.6-85.5,17.3c-10.9,2.2-11.9,4.3-7.4,15.8
		c17.7,45.3,35.5,90.6,53.2,135.9c24.8,63.6,49.7,127.2,75,192.1c27.1,9.8,56.3,15.2,86.7,15.2c14.4,0,28.4-1.2,42.1-3.5
		c-3.1-0.9-5.5-3.3-7.7-7.5c-14.6-27.6-29.7-54.8-44.6-82.2c-0.9-1.7-1.4-3.6-2.4-6.3c33.7,3.1,65.3,3.2,96.4-6.2
		c32.7-9.9,54.6-30.3,63-64c0.4-1.7,1-3.3,1.7-4.8c0.2-0.6,0.8-1,1.7-2c20.6,22.2,46.2,33.1,78.4,33.8
		c11.1-22.6,18.9-47.1,22.8-72.9L505.1,292.8z"/>
</g>
</svg>
