<?xml version="1.0" encoding="utf-8"?>
<!-- Generator: Adobe Illustrator 22.1.0, SVG Export Plug-In . SVG Version: 6.00 Build 0)  -->
<svg version="1.1" id="icon" xmlns="http://www.w3.org/2000/svg" xmlns:xlink="http://www.w3.org/1999/xlink" x="0px" y="0px"
	 viewBox="0 0 512 512" style="enable-background:new 0 0 512 512;" xml:space="preserve">
<style type="text/css">
	.st0{opacity:0.1;fill:#FFFFFF;enable-background:new    ;}
	.st1{fill:#FFFFFF;}
</style>
<g>
	<path id="path3000" class="st0" d="M366.1,173.5l-110,82.3l110.1,82.9L366.1,173.5z"/>
	<path id="path3002_1_" class="st0" d="M80,206.7l0.1,98.9l54.9-49.8L80,206.7z"/>
	<path class="st1" d="M381,473.4l89.8-35.8V74.6l-89.9-36L186.2,228.3l-119-90.6l-25.7,13v210.8L67,374.2l118.9-90.5L381,473.4z
		 M366.1,173.5v165.1l-110-82.8L366.1,173.5z M80,305.6l-0.1-98.9l55,49.1L80,305.6z"/>
	<path class="st1" d="M373.4,512L183.1,327.4L70.6,413.1L8.4,381.9V130.4l62.3-31.3l112.6,85.8L373.1,0l130.5,52.3v407.6L373.4,512z
		 M185.7,283.9L381,473.4l89.8-35.8V74.6l-89.9-36L186.2,228.3l-119-90.6l-25.7,13v210.8L67,374.2L185.7,283.9z"/>
</g>
</svg>
