<svg version="1.1" id="icon" xmlns="http://www.w3.org/2000/svg" x="0" y="0" viewBox="0 0 512 512" xml:space="preserve"><style type="text/css">.st0{fill:#fff}</style><path class="st0" d="M256 0C114.6 0 0 114.6 0 256s114.6 256 256 256 256-114.6 256-256S397.4 0 256 0zm0 456.7c-110.8 0-200.7-89.9-200.7-200.7S145.2 55.3 256 55.3 456.7 145.2 456.7 256 366.8 456.7 256 456.7z"/><circle cx="256" cy="256" r="200.7" opacity=".1" fill="#fff"/><path class="st0" d="M281.7 296.7h-83l57.3-99.2 51.7 89.7 34 58.9h56.5L256 99.2 113.4 346.1h196.7z"/></svg>