<svg version="1.1" id="icon" xmlns="http://www.w3.org/2000/svg" x="0" y="0" viewBox="0 0 512 512" xml:space="preserve"><style type="text/css">.st0{opacity:.1;fill:#fff}</style><path class="st0" d="M337.7 372.4v-79.7h-46.1v79.7h23.1zm66.1-155.2l24.1-24.1L452 169l-23-23.1c-12.7-12.7-24-23.1-25.2-23.1s-12.5 10.4-25.2 23.1l-23 23.1 24.1 24.1 24.1 24.1z"/><path class="st0" d="M316.3 177.3h-24.7v96.4h30.3c36.2 0 34.7-1.2 34.7 28.2V322h37.8v-91.2L367.7 204 341 177.3h-24.7z"/><path class="st0" d="M495.1 426.9V80.8H291.6v77.6h51l28.6-28.3c17-16.8 30.2-28.3 32.7-28.3 4.9 0 68.1 62.3 68.1 67.1 0 1.8-13.2 16.4-29.4 32.5l-29.4 29.3v52.6c0 38.1-.7 53.3-2.5 55.1-1.7 1.7-11 2.5-28.3 2.5h-25.8v23c0 20.6-.4 23.2-4.1 25.2-2.2 1.2-16.9 2.2-32.5 2.2h-28.5v35.6h203.6zM91.5 259l20.4 77.5 11.7.7c6.4.4 14.1.9 17 1.1 5.2.4 5.6-1 27.9-79.8 12.5-44.1 23.2-82.4 23.8-85 1.2-4.6.7-4.7-13.2-4.7-7.9 0-15.5.8-16.9 1.6-1.8 1.2-31.2 115.9-32.2 126.1-.1.7-6.7-26-14.7-59.4s-15.2-61.3-16.1-62c-.9-.7-8-.9-15.9-.5-11.2.6-14.1 1.4-13.2 3.7.6 1.8 10.2 38 21.4 80.7z"/><path d="M143.2 472.4L0 446.9V65l142.1-25c78.2-13.7 143.8-25.4 145.8-25.9 3.3-.9 3.7 1.3 3.7 24.5V64h102.7c70.8 0 104.3.7 107.8 2.3 2.8 1.3 6.2 4.6 7.4 7.4 3.3 7.2 3.3 352.9 0 360.2-1.3 2.8-4.6 6.2-7.4 7.4-3.5 1.6-37 2.3-107.8 2.3H291.6V471c0 20.5-.6 27.2-2.6 27.1-1.5-.2-67.1-11.7-145.8-25.7zm351.9-218.5V80.8H291.6v77.6h51l28.6-28.3c17-16.8 30.2-28.3 32.7-28.3 4.9 0 68.1 62.3 68.1 67.1 0 1.8-13.2 16.4-29.4 32.5l-29.4 29.3v52.6c0 38.1-.7 53.3-2.5 55.1-1.7 1.7-11 2.5-28.3 2.5h-25.8v23c0 20.6-.4 23.2-4.1 25.2-2.2 1.2-16.9 2.2-32.5 2.2h-28.5v35.6h203.4l.2-173zm-157.4 78.6v-39.9h-46.2v79.8h46.2v-39.9zm-169.3-73.9c12.5-44.1 23.2-82.4 23.8-85 1.2-4.6.7-4.7-13.2-4.7-7.9 0-15.5.8-16.9 1.6-1.8 1.2-31.2 115.9-32.2 126.1-.1.7-6.7-26-14.7-59.4s-15.2-61.3-16.1-62c-.9-.7-8-.9-15.9-.5-11.2.6-14.1 1.4-13.2 3.7.6 1.6 10.3 37.8 21.5 80.5l20.4 77.5 11.7.7c6.4.4 14.1.9 17 1.1 5.1.6 5.6-.8 27.8-79.6zm226 17.8v-45.6L367.7 204 341 177.3h-49.4v96.4h30.3c36.2 0 34.7-1.2 34.7 28.2V322h37.8v-45.6zM429 145.8c-12.7-12.7-24-23.1-25.2-23.1s-12.5 10.4-25.2 23.1l-23 23.1 24.1 24.1 24.1 24.1 24.1-24.1 24.1-24.1-23-23.1z" fill="#fff"/></svg>