<svg version="1.1" xmlns="http://www.w3.org/2000/svg" x="0" y="0" viewBox="0 0 512 512" xml:space="preserve"><path fill="#fff" d="M23.3 81.5h465.5v349.1H23.3z"/><path d="M325.8 209.5v34.9H384V256h-11.6v23.3h-11.6v11.6h-11.6v23.3h-11.6v11.6H326v46.5h104.7v-34.9h-58.2v-11.6H384v-11.6h11.6v-23.3h11.6v-11.6h11.6V256h11.6v-46.5H325.8zm-197.8-35v34.9h81.5V221h-11.6v11.6h-11.6v11.6h-11.6V256h-11.6v81.5h46.5V256h11.6v-11.6h11.6v-11.6h11.6v-11.6H256v-46.5H128zm-46.5-34.9H291v232.7H81.5V139.6zM0 58.2v395.6h512V58.2H0zm34.9 34.9h442.2v325.8H34.9V93.1z"/></svg>