<svg version="1.1" xmlns="http://www.w3.org/2000/svg" x="0" y="0" viewBox="0 0 512 512" xml:space="preserve"><path d="M421.2 505.6H90.6c-50.2 0-90.7-40.5-90.7-90.7V97.1c0-50.2 40.5-90.7 90.7-90.7h330.7c50.1 0 90.7 40.5 90.7 90.7V415c0 50.1-40.5 90.6-90.8 90.6z" fill="#3cf2a6"/><path d="M413.1 484.3H98.7c-42.7 0-77.4-34.8-77.4-77.4V105.2c0-42.7 34.8-77.4 77.4-77.4h314.2c42.9 0 77.4 34.8 77.4 77.4v301.4c.3 42.9-34.5 77.7-77.2 77.7z" fill="#00261a"/><path d="M88.5 123.9c0-1.7.4-2.6 2.6-2.8 8.1-.4 31.4-1.1 55.3-1.1 71.5 0 107.1 46.1 107.1 113.7 0 94.1-61.7 122.5-109.2 122.5-17.9 0-43.9-.4-53.5-.6-1.5 0-2.1-1.1-2.1-2.8-.4-.2-.4-228.9-.2-228.9zm38.4 197.8c6 .4 11.3.6 17.9.6 39.5 0 68.7-27.7 68.9-87.7.4-58.5-29.9-81.1-67.6-81.1-7.5 0-13.4.4-19.4.6v167.5l.2.1zm165.5-103.9c0-2.1 0-9.6-1.1-22 0-1.5.4-1.7 1.9-2.6 17.9-6.6 41.4-14.1 65.7-14.1 30.1 0 62.9 11.7 62.9 63.1v110.9c0 2.1-.6 2.8-2.6 2.8h-32c-2.1 0-2.8-1.1-2.8-2.8V245.3c0-20.5-7.3-31.8-28.4-31.8-9.2 0-17.9 1.7-24.1 3.8v136.3c0 1.5-.6 2.6-2.1 2.6H295c-1.7 0-2.6-.6-2.6-2.6V217.8z" fill="#d4fcef"/></svg>