<svg version="1.1" id="icon" xmlns="http://www.w3.org/2000/svg" x="0" y="0" viewBox="0 0 512 512" xml:space="preserve"><style type="text/css">.st2{fill:#d4fcef}</style><path d="M20.4 28.3h472.3v458.5H20.4V28.3z" fill="#0e4734"/><path d="M0 5.9v500.2h512V5.9H0zm471.3 460.6H41.8V46.6h429.6v419.9h-.1z" fill="#6edba9"/><path class="st2" d="M92.9 149.7c15.4-2.8 34.9-4.4 55.8-4.4 35.8 0 60.6 8.2 78.2 24.5 18.5 16.6 29.9 41.8 29.9 77.9 0 37.6-11.7 65.9-29.9 84.1-19 19.1-49.4 28.9-86.7 28.9-20.4 0-35.8-1.2-47.2-2.8l-.1-208.2zM127.8 329c4.8.9 12.2.9 19.3.9 45.5.3 72.5-27.3 72.5-81 .3-46.8-24.2-73.5-67.9-73.5-11.1 0-19 .9-23.9 2.2V329zM278.7 251.2c0-18.6-.6-34-1.3-46.8H312l1.9 23.8h.6c6.7-11.3 22.1-27.3 50-27.3 28.6 0 54.6 17 54.6 68v91.8h-39.5v-85.2c0-26-8.4-42.7-29.2-42.7-15.7 0-26 11.2-30.2 21.1-1.3 3.5-2.2 7.8-2.2 12.2v94.3h-39.5V251.1l.2.1z"/></svg>