<svg version="1.1" id="icon" xmlns="http://www.w3.org/2000/svg" x="0" y="0" viewBox="0 0 512 512" xml:space="preserve"><style type="text/css">.st0{fill:#fff}.st1{fill:#d24625}</style><g id="g3607" transform="translate(-223.016)"><path id="path74_1_" class="st0" d="M316.4 159.5c31.6 1.5 69.9-12.5 96 11.2 25.1 30.4 18.4 86.4-18.7 104.6-13.2 6.7-28.3 5.8-42.7 5.3-.1 22.8-.1 45.5-.1 68.3-11.5-1-23.1-2-34.6-2.9-.5-62.1-.6-124.3.1-186.5z"/><path id="path54_1_" class="st0" d="M525.5 75.7h192v354.9h-192v-46.5h139.6v-23.3H525.5v-29.1h139.6v-23.3H525.6c-.1-11.4-.1-22.9-.1-34.2 23.1 7.1 49.2 6.9 69.9-6.8 22.3-13.2 33.9-38.4 35.8-63.5-25.6-.2-51-.1-76.6-.1-.1-25.3.3-50.6-.5-75.9-9.6 1.8-19.1 3.8-28.6 5.8v-58z"/><path id="path60" class="st1" d="M566.3 115.7c40.5 1.8 74.4 35.9 76.6 76.2-25.6.3-51 .2-76.6.2-.1-25.6-.1-51.1 0-76.4z"/><path class="st1" d="M734.6 81c1.3-13.4-9.2-23.8-22.6-22.6-62.1-.9-124.4.1-186.6-.3V5.7h-33C402.5 21 312.8 36.8 223 52.4c0 135.7-.1 271.4 0 407.1 88.7 15.6 177.6 30.4 266.2 46.5h36.1v-58.2c58.2 0 116.4-.1 174.6.2 10-.5 21 .3 29.5-5.8 6.7-10.4 5-23.5 5.5-35.2-.6-108.6.6-217.3-.3-326zM393.7 275.3c-13.2 6.7-28.3 5.8-42.7 5.3-.1 22.8-.1 45.5-.1 68.3-11.5-1-23.1-2-34.6-2.9-.5-62.1-.6-124.3.1-186.5 31.6 1.5 69.9-12.5 96 11.2 25.1 30.4 18.5 86.4-18.7 104.6zm323.8 155.3h-192v-46.5h139.6v-23.3H525.5v-29.1h139.6v-23.3H525.6c-.1-11.4-.1-22.9-.1-34.2 23.1 7.1 49.2 6.9 69.9-6.8 22.3-13.2 33.9-38.4 35.8-63.5-25.6-.2-51-.1-76.6-.1-.1-25.3.3-50.6-.5-75.9-9.6 1.8-19.1 3.8-28.6 5.8v-58h192v354.9z"/><path id="path94" class="st1" d="M350.9 191c11.5-.5 25.7-2.6 33.4 8.2 6.6 11.4 6.2 26.4.8 38.2-6.6 12-21.6 10.8-33.2 12.2-1.3-19.6-1.2-39-1-58.6z"/></g></svg>