<svg version="1.1" id="icon" xmlns="http://www.w3.org/2000/svg" x="0" y="0" viewBox="0 0 512 512" xml:space="preserve"><style type="text/css">.st0{fill:#fff}.st1{fill:#a33639}</style><path id="path50_1_" class="st0" d="M302.5 74.2c51.9-7.1 106.1-6.9 156.6 8.5 13.9 5.1 32.5 11.4 35.6 28-2.3 13.6-16.5 19.6-27.7 24.6-52.7 17.8-109.9 19.5-164.6 11.3.1-24.2.1-48.3.1-72.4z"/><path id="path66_1_" class="st0" d="M421.7 164.7c25.6-3.8 52.3-9.4 73.1-26-1.3 25.1 2 50.3-1.7 75.1-10.4 12.4-27 16.8-41.9 21-48.6 11.5-99.2 11.8-148.6 5.4v-75.4c39.4 5.2 79.5 5.2 119.1-.1z"/><path id="path78_1_" class="st0" d="M118.8 158.8c13.6-1 27.1-1.9 40.7-2.9 19.5 65.2 38 130.7 57.3 195.9-13.5-.9-26.9-1.9-40.3-3.1-3.5-14.6-7.3-29.1-11.2-43.6-17.8-.1-35.7-.6-53.5-1.5-3.4 13.8-6.9 27.5-10.5 41.3-11.4-.9-22.7-1.7-34.1-2.4 17-61.4 34.7-122.4 51.6-183.7z"/><path id="path110_1_" class="st0" d="M422 257.8c25.6-3.8 52-9.4 72.7-25.9-1.2 25 1.8 50.1-1.6 75-10.2 12.5-26.7 16.9-41.6 21.1-48.7 11.6-99.5 11.9-149 5.6v-75.5c39.6 5 79.8 4.9 119.5-.3z"/><path id="path118_1_" class="st0" d="M421.8 350.9c25.6-3.7 52.2-9.4 72.9-25.9-1.2 25 1.9 50.3-1.7 75.1-16.5 17.9-42.6 21.2-65.2 25.9-41.5 6.3-83.9 6.4-125.5.5.4-25.1.2-50.1.2-75.2 39.6 4.9 79.7 4.8 119.3-.4z"/><path class="st1" d="M511.9 115.9c2-24.3-20.1-40.1-40.5-47-53.9-19.1-112.7-19.6-168.9-12.5V5.7h-34.8C178.5 21.7 89.3 36.9 0 52.5v407.2c88.8 15.6 177.6 30.4 266.2 46.6h36.2v-62.7c56.1 8 114.1 5.8 168.2-12.1 20.5-6.8 43.3-22.5 41.2-47.1.3-89.6.3-179 .1-268.5zM176.5 348.6c-3.5-14.6-7.3-29.1-11.2-43.6-17.8-.1-35.7-.6-53.5-1.5-3.4 13.8-6.9 27.5-10.5 41.3-11.4-.9-22.7-1.7-34.1-2.4 17-61.3 34.7-122.3 51.5-183.6 13.6-1 27.1-1.9 40.7-2.9 19.5 65.2 38 130.7 57.3 195.9-13.4-1-26.9-1.9-40.2-3.2zm126-274.4c51.9-7.1 106.1-6.9 156.6 8.5 13.9 5.1 32.5 11.4 35.6 28-2.3 13.6-16.5 19.6-27.7 24.6-52.7 17.8-109.9 19.5-164.6 11.3.1-24.2.1-48.3.1-72.4zm0 183.9c39.7 5 79.9 4.9 119.6-.3 25.6-3.8 52-9.4 72.7-25.9-1.2 25 1.8 50.1-1.6 75-10.2 12.5-26.7 16.9-41.6 21.1-48.7 11.6-99.5 11.9-149 5.6-.1-25.3-.1-50.3-.1-75.5zm190.4 142c-16.5 17.9-42.6 21.2-65.2 25.9-41.5 6.3-83.9 6.4-125.5.5.4-25.1.2-50.1.2-75.2 39.6 5 79.7 4.9 119.3-.3 25.6-3.7 52.2-9.4 72.9-25.9-1.2 24.9 2 50.2-1.7 75zm0-186.2c-10.4 12.4-27 16.8-41.9 21-48.6 11.5-99.2 11.8-148.6 5.4v-75.4c39.6 5 79.6 4.9 119.2-.2 25.6-3.8 52.3-9.4 73.1-26-1.3 25.1 2 50.5-1.8 75.2z"/><path id="path98" class="st1" d="M119.1 272.1c5.8-27.3 14.6-53.8 18.5-81.4 5.2 27.6 13.3 54.4 19.9 81.7l-38.4-.3z"/></svg>