<svg version="1.1" id="icon" xmlns="http://www.w3.org/2000/svg" x="0" y="0" viewBox="0 0 512 512" xml:space="preserve"><style type="text/css">.st0{fill:#fff}.st1{fill:#207245}</style><path id="path72" class="st0" d="M172.3 159.2c13.2-.9 26.4-1.7 39.5-2.4-15.5 31.8-31.1 63.6-46.9 95.3 16 32.6 32.3 64.9 48.4 97.5-14-.8-28-1.7-42-2.7-9.9-24.2-21.9-47.7-29-73.1-7.9 23.6-19.2 45.9-28.3 69-12.8-.2-25.5-.7-38.2-1.2 15-29.3 29.4-58.8 44.8-87.8-13.1-30-27.5-59.4-41-89.2 12.8-.8 25.6-1.5 38.4-2.2 8.7 22.7 18.1 45.2 25.3 68.5 7.6-24.6 19.1-47.8 29-71.7z"/><path class="st0" d="M302.3 69.8v34.9h46.5v40.8h-46.5v23.2h46.5v40.8h-46.5v23.2h46.5v40.8h-46.5v23.2h46.5v40.8h-46.5v23.2h46.5v40.8h-46.5v34.9h192V69.9c-64-.1-128-.1-192-.1zm151.2 331.5h-81.4v-40.8h81.4v40.8zm0-63.9h-81.4v-40.8h81.4v40.8zm0-64h-81.4v-40.8h81.4v40.8zm0-64h-81.4v-40.8h81.4v40.8zm0-64h-81.4v-40.8h81.4v40.8z"/><path class="st1" d="M511.8 390c-.1-100.9-.2-201.8.1-302.8-.4-9.9.3-20.8-5.7-29.4-8.6-5.8-19.3-5.1-29.2-5.5-58.3.3-116.4.2-174.7.2V6h-34.5C178.5 21.6 89.3 36.9 0 52.4v407.1C88.7 475 177.6 489.9 266.2 506h36v-52.3c60.3-.1 120.6.2 180.9 0 9.8-.4 24.2-.7 26.6-12.8 3.7-16.7 1.8-34 2.1-50.9zm-340.5-43.1c-9.9-24.2-21.9-47.7-29-73.1-7.9 23.6-19.2 45.9-28.3 69-12.8-.2-25.5-.7-38.2-1.2 15-29.3 29.4-58.8 44.8-87.8-13.1-30-27.5-59.4-41-89.2 12.8-.8 25.6-1.5 38.4-2.2 8.7 22.7 18.1 45.2 25.3 68.5 7.6-24.8 19.1-48 29-71.8 13.2-.9 26.4-1.7 39.5-2.4-15.5 31.8-31.1 63.6-46.9 95.3 16 32.6 32.3 64.9 48.4 97.5-14.1-.7-28.1-1.6-42-2.6zm323 89.4h-192v-34.9h46.5v-40.8h-46.5v-23.2h46.5v-40.8h-46.5v-23.2h46.5v-40.8h-46.5v-23.2h46.5v-40.8h-46.5v-23.2h46.5v-40.8h-46.5V69.7h192v366.6z"/><path id="path58" class="st1" d="M372.1 104.7h81.4v40.8h-81.4v-40.8z"/><path id="path90" class="st1" d="M372.1 168.7h81.4v40.8h-81.4v-40.8z"/><path id="path108" class="st1" d="M372.1 232.6h81.4v40.8h-81.4v-40.8z"/><path id="path114" class="st1" d="M372.1 296.6h81.4v40.8h-81.4v-40.8z"/><path id="path120" class="st1" d="M372.1 360.6h81.4v40.8h-81.4v-40.8z"/></svg>