<svg version="1.1" id="icon" xmlns="http://www.w3.org/2000/svg" x="0" y="0" viewBox="0 0 512 512" xml:space="preserve"><style type="text/css">.st0{fill:#fff}.st1{fill:#221e1f}.st2{fill:#98cd70}</style><ellipse transform="rotate(-53.843 401.993 145.265)" class="st0" cx="402" cy="145.3" rx="74.6" ry="52.3"/><path class="st1" d="M382.1 215.8c-9.6 0-18.4-2.7-25.7-8.1-24.6-17.9-24.1-60.5 1.1-95 25.2-34.4 65.6-47.9 90.1-29.9 12.1 8.8 18.5 23.6 18.1 41.8-.3 17.8-7.1 36.6-19.2 53.2-12.1 16.5-28 28.8-44.8 34.5-6.8 2.3-13.4 3.5-19.6 3.5zm-20-99.7c-23.3 31.9-24.4 71-2.3 87.1 10.6 7.6 24.9 9.1 40.3 3.8 15.7-5.3 30.7-16.9 42.2-32.5 11.5-15.6 17.9-33.4 18.2-50 .3-16.3-5.3-29.5-15.8-37.1-22.5-16.2-59.4-3.3-82.6 28.7z"/><path class="st2" d="M181.6 265.2s2.1 10.1 0 14.8c-2.1 4.8-16.7 18.4-16.7 18.4l30.7 4.2s3.8-10.4 4.8-17.1c.9-6.7 0-14.7 0-14.7"/><path class="st1" d="M197.5 305.8l-38.7-5.2 4.3-4c5.4-5.1 14.7-14.4 16-17.5 1.3-2.9.6-9.6-.2-13.1l5.4-1.1c.2 1.1 2.2 11.1-.2 16.5-1.6 3.6-8.5 10.7-13.2 15.3l22.7 3.1c1.1-3.3 3.2-9.9 3.9-14.5.9-6.2 0-14 0-14l5.5-.6c0 .3 1 8.5 0 15.5-1 6.9-4.7 17.3-4.9 17.7l-.6 1.9z"/><path class="st2" d="M320.7 162.6c-18-4.9-62.6-44-125.9-48.4S96.2 190.5 86.3 222.7 72 281 76.3 322.5c4.3 41.6 29.2 84 43.7 99.5s33.8 35 61.1 35c36.6 0 49.7-27.1 52.7-39.9 4.2-22.2-17-65.1-45.9-66.6s-37.2 16.7-37.2 29.2 14.6 26.1 25.8 26.7 23.2-6.8 22-17.4c-1.2-10.6-9.3-5.5-9.3-5.5s1.8 9.3-6.2 10c-8.1.6-15.5-6.2-14.3-13.7 1.2-7.4 9.3-14.3 22.9-12.4 13.7 1.8 29.2 29.8 26.7 43.4-2.5 13.6-8.1 34.7-37.8 28.5-38.4-8.1-85.5-78.1-83.7-129 1.8-50.8 39.6-78.1 39.6-78.1s31 43.4 91.2 41c60.2-2.5 102.3-16.1 102.3-16.1s15.5 6.4 38.4 4.3c33.5-6.8 64.6-32.9 64.6-32.9s-20.5-37.8-39.7-49c-19.2-11.4-54.5-12.1-72.5-16.9z"/><path class="st1" d="M181.2 459.8c-29.4 0-49.7-21.6-63.1-35.9-15.4-16.4-40.2-59.8-44.5-101.1-4.4-42.7.3-69.3 10.1-100.9 3.6-11.9 37.7-115.5 111.4-110.5 45.4 3.1 81 23.7 104.7 37.3 9.5 5.4 16.8 9.8 21.7 11.1 6 1.6 14.3 2.8 22.9 4.1 17.4 2.5 37.1 5.3 50.2 13 19.6 11.5 39.9 48.5 40.9 50l1.1 2-1.7 1.5c-1.3 1.1-32 26.6-65.8 33.4h-.3c-20.3 1.8-34.9-2.8-38.7-4.1-6.6 2-47.2 13.7-102.1 16-52.8 2.2-84.1-30.7-91.7-39.7-7.7 6.5-34.9 32.3-36.4 74.3-1.9 48.4 43.1 118 81.4 126 9.6 2 17.2 1.1 22.6-2.5 7.5-5.1 10.3-14.9 11.9-23.7 1.2-6.8-3-19.2-10-28.8-4.8-6.6-10.1-10.8-14.3-11.4-11.7-1.6-18.8 3.9-19.8 10.1-.4 2.4.4 4.7 2.2 6.8 2.3 2.5 5.7 3.8 9.1 3.6 1.3-.1 2.3-.5 2.8-1.3 1.2-1.6 1-4.3.8-5.3l-.4-1.9 1.6-1c.5-.3 4.7-2.8 8.7-.9 2.7 1.3 4.3 4.1 4.8 8.5.5 4.6-1 9.1-4.4 12.8-4.7 5-12.8 8.1-20.4 7.6-12.4-.7-28.4-15.1-28.4-29.5 0-4.1.9-14.6 9.6-22.7 7.2-6.8 17.5-10 30.6-9.3 11.5.6 23 7.5 32.4 19.5 12 15.2 18.7 36.4 16.1 50.4-4.6 19.8-22 42.5-55.6 42.5zm8.7-343c-66.1 0-97.4 95.6-100.8 106.7-9.6 30.9-14.2 57-9.9 98.7 4.2 40.1 28.1 82.1 43 97.9 12.8 13.6 32.1 34.1 59.1 34.1 39.9 0 49.1-33.9 50-37.8 2.3-12.3-4.1-32-15-45.9-8.4-10.7-18.4-16.8-28.3-17.4-11.5-.6-20.4 2-26.5 7.6-7 6.6-7.8 15.3-7.8 18.6 0 10.9 13.6 23.3 23 23.8 6 .3 12.4-2 16.1-5.9 1.6-1.7 3.4-4.5 3-8.4-.3-2.2-.9-3.7-1.7-4.1-.5-.2-1.2-.2-1.8 0 .1 2-.2 5-2.1 7.4-1.1 1.4-3.1 3.2-6.9 3.5-5 .4-10.2-1.6-13.6-5.4-3-3.2-4.3-7.4-3.6-11.5 1.5-8.9 10.9-16.8 26.1-14.7 5.9.8 12.3 5.6 18.1 13.6 6.5 9 12.8 23.1 11 33.1-1.8 10.1-4.9 21.1-14.2 27.4-6.7 4.5-15.8 5.7-26.9 3.4-18.9-4-41-22.5-58.8-49.6-17.9-27.3-28.1-58-27.2-82.1 1.9-51.6 39.2-79.1 40.9-80.3l2.3-1.6 1.6 2.3c.3.4 30.9 42.2 88.8 39.7 59.1-2.4 101.1-15.9 101.5-16l1-.3.9.4c.1.1 15.2 6.1 36.9 4.1 27.9-5.7 54.3-25.3 61.4-30.8-4.5-7.9-21.7-36.7-37.6-45.9-12.2-7-31.3-9.9-48.2-12.3-8.9-1.3-17.3-2.5-23.6-4.2-5.6-1.5-13.3-5.9-23-11.7-23.1-13.4-58.2-33.6-102.2-36.6-1.8.3-3.4.2-5 .2z"/><ellipse transform="rotate(-9.119 311.349 131.987)" class="st0" cx="311.4" cy="132" rx="54.8" ry="77.6"/><path class="st1" d="M317.4 211.9c-29.1 0-56.6-30.1-63-70.7-7-43.8 12.8-83.4 44.2-88.5s62.7 26.5 69.6 70.2c7 43.8-12.8 83.4-44.2 88.5-2.2.3-4.4.5-6.6.5zM305.3 57.6c-1.9 0-3.9.2-5.8.5-28.4 4.5-46.1 41.4-39.5 82.1 6.5 40.8 34.9 70.1 63.3 65.6s46.1-41.4 39.5-82.1c-6.2-37.9-31.2-66.1-57.5-66.1z"/><circle class="st1" cx="295.4" cy="144.9" r="12.8"/><circle class="st1" cx="433.1" cy="132" r="12.8"/><path d="M44.2 293.7H6.9s-4.2 8.7-4.2 17.2c0 8.6 4.2 17.2 4.2 17.2h37.2v-34.4z" fill="#d07b84"/><path class="st1" d="M47 330.8H5.2l-.8-1.6c-.2-.4-4.4-9.4-4.4-18.4s4.3-18 4.4-18.4l.8-1.6H47v40zm-38.1-5.5h32.6v-28.9H8.9c-1.1 2.7-3.2 8.7-3.2 14.4-.1 5.8 2 11.8 3.2 14.5z"/><path class="st0" d="M74 293.7H36.7s-4.2 8.7-4.2 17.2c0 8.6 4.2 17.2 4.2 17.2H74v-34.4z"/><path class="st1" d="M76.8 330.8H35l-.8-1.6c-.2-.4-4.4-9.4-4.4-18.4s4.3-18 4.4-18.4l.8-1.6h41.8v40zm-38.2-5.5h32.6v-28.9H38.6c-1.1 2.7-3.2 8.7-3.2 14.4 0 5.8 2.1 11.8 3.2 14.5z"/><path class="st0" d="M87 293.7H49.8s-4.2 8.7-4.2 17.2c0 8.6 4.2 17.2 4.2 17.2H87v-34.4z"/><path class="st1" d="M89.8 330.8H48l-.8-1.6c-.2-.4-4.4-9.4-4.4-18.4s4.3-18 4.4-18.4l.8-1.6h41.8v40zm-38.2-5.5h32.6v-28.9H51.6c-1.1 2.7-3.2 8.7-3.2 14.4 0 5.8 2.1 11.8 3.2 14.5z"/><path d="M411.9 293.7H62.8s-4.2 8.7-4.2 17.2c0 8.6 4.2 17.2 4.2 17.2h349.1l85.8-17.2-85.8-17.2z" fill="#dcc576"/><path class="st0" d="M411.9 293.7s-5.2 6-5.2 17.2 5.2 17.2 5.2 17.2l85.8-17.2-85.8-17.2z"/><path class="st1" d="M412.2 330.8H61.1l-.8-1.6c-.2-.4-4.4-9.4-4.4-18.4s4.3-18 4.4-18.4l.8-1.6 351.4.1 99.5 19.9-99.8 20zm-347.6-5.5h347l71.9-14.4-71.9-14.4h-347c-1.1 2.7-3.2 8.7-3.2 14.4 0 5.7 2.1 11.7 3.2 14.4z"/><path class="st1" d="M455.9 302.5s-2.2 3.9-2.2 8.4 2.2 8.4 2.2 8.4l41.9-8.4-41.9-8.4z"/><g><path fill="none" d="M406.7 310.9h-348"/><path class="st1" d="M58.7 308.1h348.1v5.5H58.7z"/></g><g><path class="st0" d="M411.9 293.7s-5.2 6-5.2 17.2 5.2 17.2 5.2 17.2"/><path class="st1" d="M409.8 329.9c-.2-.3-5.8-6.9-5.8-19s5.6-18.7 5.8-19l4.2 3.6-2.1-1.8 2.1 1.8c0 .1-4.5 5.5-4.5 15.4s4.5 15.4 4.5 15.4l-4.2 3.6z"/></g><g><path class="st2" d="M330.4 328.1c0 2.5 11.3 19.3 31.3 17.3 20.6-2 31.3-17.3 31.3-17.3h-20.4s-5.7 3.2-13.5 3.2c-7.7 0-12.3-1.1-14.7-3.2-2.4-2.1-1.9-4.8-7.8-4.8-4.4 0-6.2 2.3-6.2 4.8z"/><path class="st1" d="M358.4 348.3c-11.5 0-19.5-5.6-23.4-9.3-3.6-3.2-7.4-8.3-7.4-11 0-3.8 2.8-7.5 9-7.5 5.2 0 7 1.9 8.6 4.1.4.5.7 1 1.1 1.4 1.9 1.7 6 2.5 12.8 2.5 6.9 0 12.1-2.8 12.1-2.9l.6-.4h26.6l-3 4.4c-.5.7-11.7 16.4-33.3 18.5-1.3.2-2.6.2-3.7.2zm-25.2-20.4c.8 2.2 10.3 16.5 28.3 14.7 12.2-1.2 20.7-7.3 25.3-11.8h-13.5c-1.9.9-7.2 3.2-14.2 3.2-8.5 0-13.5-1.2-16.5-3.9-.9-.8-1.5-1.7-2-2.3-.9-1.3-1.2-1.7-4-1.7-1.3 0-3.3.2-3.4 1.8z"/></g><g><path class="st2" d="M139.8 229.4s-7.4 14.6-8.2 27.6c-.7 13 5.3 31.2 5.3 31.2s-10 11.5-11.6 19.8c-.8 4.1-.5 8.9 4.6 15.5 5.3 6.9 10.4 10.3 12.7 10.9 4.6 1.2 7.7-.9 10.8-2.5 3-1.6 7.1-2.8 4.5-3.7-7.9-.7-17.2-16.1-14.9-19.8 2.3-3.7 8.8-14.6 8.8-14.6h15.6s-17.4-20.5-17.2-26.4c.2-5.8 12.1-27.6 12.1-27.6"/><path class="st1" d="M145.4 337.5c-1 0-2.1-.1-3.3-.4-3.7-.9-9.4-5.6-14.2-11.9-6.1-7.8-5.9-13.6-5.2-17.7 1.4-7.4 8.5-16.6 11.2-19.9-1.4-4.7-5.6-19.3-5-30.7.7-13.5 8.1-28.1 8.5-28.7l4.9 2.5c-.1.1-7.1 14.2-7.8 26.5-.7 12.4 5.1 30 5.2 30.1l.5 1.5-1 1.2c-2.6 3-9.7 12.3-11 18.5-.6 3.3-.6 7.2 4.1 13.3 5 6.4 9.5 9.5 11.2 9.9 3.1.8 5.2-.4 7.8-1.8l.8-.5c.2-.1.3-.2.5-.3-4.4-2.6-8.4-7.6-10.7-12.4-1.5-3-2.9-7.2-1.2-10 2.3-3.6 8.7-14.4 8.8-14.5l.8-1.4h11.3c-5.7-7.1-14.3-18.6-14.1-23.6.2-6.1 10.4-25.1 12.5-28.8l4.9 2.7c-4.4 8.2-11.6 22.6-11.8 26.4-.1 2.8 8.5 14.9 16.5 24.5l3.9 4.6h-20c-1.8 3-6 10.2-7.9 13.2-.2.9.8 4.3 3.8 8.6 2.9 4.1 6.4 6.9 8.9 7.1l.7.1c2.2.8 2.6 2.3 2.7 3.1.1 2.4-2.1 3.4-4.6 4.6-.7.3-1.5.7-2.2 1.1l-.8.4c-2.4 1.2-5.1 2.7-8.7 2.7z"/></g><g><path class="st2" d="M247.8 239.8s-6.9 14.9-4.6 27c2.3 12.1 18.3 27 18.3 27s-1.4 12.1 0 19.2 5.7 22.8 16.7 25.3c11 2.4 19.7-10.1 19.7-10.1h-14.7s-7.6-9.9-6.5-17.2c1.1-7.3 14.9-17.2 14.9-17.2h13.2s-8.7-9.2-16.4-9c-7.7.2-15.8 7-15.8 7s-4.9-9-6.2-10.7c-1.4-1.7-7-18.7-5.6-25 1.4-6.2 9-16.4 9-16.4"/><path class="st1" d="M281.2 341.3c-1.1 0-2.3-.1-3.5-.4-12.2-2.7-17-18.4-18.8-27.5-1.2-6-.5-15.2-.2-18.7-3.6-3.6-16-16.4-18.1-27.5-2.5-12.9 4.5-28.1 4.8-28.7l5 2.4c-.1.1-6.5 14.2-4.4 25.3 2.1 11.1 17.3 25.4 17.4 25.5l1 1-.2 1.4c0 .1-1.3 11.8 0 18.4 1.2 6.2 5 20.9 14.5 23 5 1.1 9.7-1.8 12.8-4.5h-9.8l-.8-1.1c-.9-1.1-8.4-11.1-7-19.3s14.5-18 16-19l.7-.5h6.4c-2.7-1.8-5.9-3.4-8.7-3.3-6.6.2-14 6.3-14.1 6.4l-2.6 2.2-1.6-3c-2-3.6-5.1-9.3-5.9-10.3-1.9-2.3-7.8-20.3-6.2-27.4 1.5-6.7 9.2-17 9.5-17.5l4.5 3.3c-2 2.7-7.4 10.8-8.6 15.4-1.1 4.9 3.8 20.6 5.1 22.6 1 1.2 3.3 5.3 4.9 8.3 3.2-2.2 9.1-5.5 14.9-5.7 8.8-.3 17.5 8.8 18.5 9.8l4.4 4.7h-18.7c-4.9 3.7-12.4 10.6-13.1 14.8-.7 4.4 3 10.9 5.1 14H303l-3 4.4c-.2.4-8 11.5-18.8 11.5z"/></g><g><path class="st2" d="M304.8 263.2l29.4 30.5s-.7 1.7-3.5 7.4-3.7 8.6-1.2 9.8c2.5 1.2 9.6-5.8 12.7-9.8s5.9-7.4 5.9-7.4h43.6s-15.2-10.2-25.9-10.7-21-1.1-21-1.1l-14.6-25.2"/><path class="st1" d="M330 313.7c-.6 0-1.2-.1-1.8-.4-5.3-2.6-2.4-8.7 0-13.5 1.3-2.7 2.1-4.5 2.7-5.6l-28.1-29.1 4-3.8 30.6 31.8-.7 1.7c0 .1-.8 1.8-3.5 7.6-.5 1.1-2 4-2.3 5.5 2-1.1 6-4.7 9.1-8.6l6.7-8.5h34.4c-4.8-2.4-10.8-4.8-15.6-5.1l-22.5-1.2-15.3-26.5 4.8-2.8 13.8 23.8 19.5 1c11.4.6 26.7 10.8 27.3 11.2l7.6 5.1h-51.4l-5 6.3c-1 1.5-8.8 11.1-14.3 11.1z"/></g><path class="st1" d="M276.8 271.1l-.8-5.5c32.4-4.7 52.9-11.4 53.1-11.5l1-.3.9.4c.1 0 12.3 4.9 30.5 4.5l.1 5.5c-16.6.4-28.4-3.3-31.8-4.5-4.3 1.4-24.1 7.1-53 11.4z"/></svg>