<svg version="1.1" id="icon" xmlns="http://www.w3.org/2000/svg" x="0" y="0" viewBox="0 0 512 512" xml:space="preserve"><style type="text/css">.st0{fill:#fff}.st1{fill:#221e1f}.st2{fill:#98cd70}</style><ellipse transform="rotate(-53.843 402.043 145.314)" class="st0" cx="402" cy="145.3" rx="74.6" ry="52.3"/><path class="st1" d="M382.1 215.8c-9.6 0-18.4-2.7-25.7-8-24.5-17.9-24-60.5 1.1-95 25.2-34.4 65.6-47.9 90.1-29.9 12 8.8 18.5 23.6 18.1 41.8-.3 17.8-7.2 36.7-19.3 53.2-12.1 16.5-28 28.8-44.8 34.5-6.7 2.3-13.3 3.4-19.5 3.4zM362 116.1c-23.3 32-24.4 71.1-2.3 87.2 10.5 7.7 24.8 9 40.2 3.8 15.7-5.4 30.7-16.9 42.1-32.5s17.9-33.4 18.2-50c.3-16.3-5.3-29.5-15.8-37.2-22.1-16.1-59-3.3-82.4 28.7z"/><path class="st2" d="M181.6 265.2s2.1 10 0 14.8c-2.1 4.8-16.7 18.4-16.7 18.4l30.7 4.2s3.9-10.4 4.8-17.1 0-14.7 0-14.7"/><path class="st1" d="M197.5 305.8l-38.7-5.3 4.3-4c5.5-5.1 14.7-14.4 16-17.5 1.3-2.9.6-9.6-.2-13.1l5.5-1.2c.2 1.1 2.2 11.1-.2 16.5-1.6 3.6-8.4 10.7-13.2 15.3l22.7 3.1c1.1-3.3 3.3-9.9 3.9-14.5.9-6.3 0-13.9 0-14l5.5-.7c0 .3 1 8.4 0 15.5-1 7-4.8 17.3-4.9 17.7l-.7 2.2z"/><path class="st2" d="M320.8 162.6c-18-4.9-62.6-44-125.9-48.4S96.3 190.5 86.4 222.7s-14.3 58.3-9.9 99.8c4.3 41.5 29.1 84 43.7 99.5s33.8 35 61.1 35c36.6 0 49.7-27.1 52.7-40 4.2-22.2-17.1-65.1-45.9-66.7s-37.2 16.7-37.2 29.1c0 12.4 14.6 26 25.7 26.7s23.3-6.8 22-17.4-9.3-5.6-9.3-5.6 1.9 9.3-6.2 9.9c-8.1.6-15.5-6.2-14.3-13.6 1.2-7.4 9.3-14.3 22.9-12.4 13.6 1.9 29.1 29.8 26.7 43.4-2.5 13.6-8.1 34.7-37.8 28.5-38.4-8.1-85.6-78.1-83.7-129s39.7-78.1 39.7-78.1 31 43.4 91.2 40.9 102.3-16.1 102.3-16.1 15.5 6.4 38.4 4.3c33.5-6.8 64.6-32.9 64.6-32.9s-20.6-37.8-39.8-49c-19.2-10.9-54.6-11.6-72.5-16.4z"/><path d="M44.2 293.7H7s-4.2 8.7-4.2 17.2S7 328.1 7 328.1h37.2v-34.4z" fill="#d07b84"/><path class="st1" d="M47 330.9H5.2l-.8-1.6C4.3 329 0 320 0 310.9s4.3-18 4.5-18.4l.8-1.6H47v40zm-38.2-5.6h32.6v-28.8H8.8c-1.1 2.8-3.2 8.7-3.2 14.4 0 5.7 2.1 11.7 3.2 14.4z"/><path class="st0" d="M73.9 293.7H36.7s-4.2 8.7-4.2 17.2 4.2 17.2 4.2 17.2h37.2v-34.4z"/><path class="st1" d="M76.7 330.9H35l-.8-1.6c-.2-.4-4.5-9.4-4.5-18.4s4.3-18 4.5-18.4l.8-1.6h41.7v40zm-38.1-5.6h32.6v-28.8H38.6c-1.1 2.8-3.2 8.7-3.2 14.4-.1 5.7 2.1 11.7 3.2 14.4z"/><path class="st0" d="M87 293.7H49.8s-4.2 8.7-4.2 17.2 4.2 17.2 4.2 17.2H87v-34.4z"/><path class="st1" d="M89.8 330.9H48l-.8-1.6c-.2-.4-4.5-9.4-4.5-18.4s4.3-18 4.5-18.4l.8-1.6h41.7v40zm-38.2-5.6h32.6v-28.8H51.6c-1.1 2.8-3.2 8.7-3.2 14.4 0 5.7 2.1 11.7 3.2 14.4z"/><path d="M411.9 293.7H62.8s-4.2 8.7-4.2 17.2 4.2 17.2 4.2 17.2h349.1l85.9-17.2-85.9-17.2z" fill="#dcc576"/><path class="st0" d="M411.9 293.7s-5.2 6-5.2 17.2 5.2 17.2 5.2 17.2l85.9-17.2-85.9-17.2z"/><path class="st1" d="M412.2 330.9H61l-.8-1.6c-.2-.4-4.5-9.4-4.5-18.4s4.3-18 4.5-18.4l.8-1.6 351.4.1 99.5 19.9-99.7 20zm-347.6-5.6h347l72-14.4-72-14.4h-347c-1.1 2.8-3.2 8.7-3.2 14.4 0 5.7 2.1 11.7 3.2 14.4z"/><path class="st1" d="M455.9 302.5s-2.2 3.9-2.2 8.4 2.2 8.4 2.2 8.4l41.9-8.4-41.9-8.4z"/><g><path class="st2" d="M406.7 310.9H58.6"/><path class="st1" d="M58.6 308.1h348.1v5.6H58.6z"/></g><g><path class="st0" d="M411.9 293.7s-5.2 6-5.2 17.2 5.2 17.2 5.2 17.2"/><path class="st1" d="M409.8 329.9c-.2-.3-5.9-7-5.9-19 0-12.1 5.6-18.7 5.9-19l4.2 3.6-2.1-1.8 2.1 1.8c0 .1-4.5 5.5-4.5 15.4s4.5 15.3 4.5 15.4l-4.2 3.6z"/></g><g><path class="st2" d="M330.4 328.1c0 2.5 11.3 19.3 31.3 17.3 20.6-2 31.3-17.3 31.3-17.3h-20.5s-5.7 3.2-13.5 3.2-12.3-1.1-14.7-3.2c-2.4-2.2-1.9-4.8-7.8-4.8-4.3 0-6.1 2.3-6.1 4.8z"/><path class="st1" d="M358.5 348.4c-11.5 0-19.5-5.7-23.5-9.3-3.6-3.3-7.4-8.2-7.4-11 0-3.8 2.8-7.6 9-7.6 5.3 0 7 1.9 8.6 4.1.4.5.7 1 1.1 1.4 1.9 1.7 6.1 2.5 12.8 2.5 6.9 0 12-2.8 12.1-2.9l.6-.4h26.6l-3.1 4.4c-.5.7-11.7 16.4-33.3 18.5-1.2.2-2.4.3-3.5.3zm-25.3-20.5c.8 2.2 10.3 16.5 28.2 14.7 12.2-1.2 20.7-7.4 25.3-11.8h-13.5c-1.9.9-7.3 3.2-14.1 3.2-8.4 0-13.5-1.2-16.5-4-.9-.8-1.5-1.7-2-2.3-.9-1.3-1.2-1.7-4-1.7-1.3.1-3.3.4-3.4 1.9z"/></g><g><path class="st2" d="M304.8 263.2l29.4 30.5s-.7 1.7-3.5 7.4-3.7 8.5-1.2 9.8c2.5 1.2 9.6-5.8 12.7-9.8s5.9-7.4 5.9-7.4h43.6s-15.2-10.1-25.9-10.7c-10.7-.6-21.1-1.1-21.1-1.1l-14.6-25.1"/><path class="st1" d="M330 313.8c-.6 0-1.2-.1-1.8-.4-5.3-2.6-2.4-8.7 0-13.5 1.3-2.7 2.2-4.5 2.7-5.6l-28.1-29.1 4-3.9 30.6 31.8-.7 1.7c0 .1-.8 1.9-3.6 7.6-.5 1.1-2 4-2.3 5.6 2-1.1 6.1-4.7 9.1-8.5l6.7-8.5H381c-4.8-2.4-10.8-4.9-15.6-5.1l-22.6-1.2-15.3-26.4 4.8-2.8 13.8 23.8 19.6 1c11.3.6 26.6 10.7 27.3 11.2l7.7 5.1h-51.4l-5.1 6.4c-.8 1.1-8.7 10.8-14.2 10.8z"/></g><g><path class="st1" d="M188.2 347.7c-13.1-.7-23.4 2.4-30.6 9.2-8.6 8.2-9.5 18.6-9.5 22.7 0 14.4 16 28.8 28.4 29.5 7.6.4 15.7-2.6 20.5-7.7 3.5-3.7 5-8.1 4.5-12.8-.5-4.3-2.1-7.2-4.8-8.5-4-1.9-8.2.6-8.7.9l-1.6 1 .4 1.9c.2.9.4 3.7-.8 5.3-.6.8-1.5 1.2-2.9 1.3-3.3.3-6.8-1.1-9-3.6-1.8-2-2.6-4.4-2.3-6.8 1-6.2 8.2-11.7 19.8-10.1 4.3.6 9.5 4.7 14.3 11.3 6.9 9.5 11.2 21.9 10 28.8-1.6 8.9-4.3 18.7-11.9 23.8-5.5 3.7-13.1 4.5-22.7 2.5-33.1-7-71.2-59.9-79.8-105.5h-5.6c3.5 19.7 12.5 41.4 25.5 61.3 17.8 27.1 39.8 45.7 58.7 49.6 11.1 2.3 20.2 1.2 26.9-3.4 9.3-6.3 12.4-17.4 14.2-27.4 1.8-9.9-4.4-24.1-10.9-33.1-5.8-8-12.2-12.8-18.1-13.6-15.2-2.1-24.6 5.8-26.1 14.7-.7 4 .7 8.2 3.6 11.5 3.5 3.8 8.5 5.8 13.6 5.4 3.7-.3 5.8-2.1 6.9-3.5 1.8-2.4 2.1-5.4 2.1-7.4.6-.2 1.3-.2 1.8 0 .8.4 1.5 1.9 1.7 4.1.4 3.8-1.4 6.6-3 8.3-3.7 3.9-10 6.3-16.1 5.9-9.5-.5-23.1-13-23.1-23.9 0-3.4.8-12 7.8-18.7 6-5.7 14.9-8.3 26.5-7.7 9.9.5 20 6.7 28.3 17.4 10.9 13.8 17.3 33.6 15 45.9-.9 3.9-10 37.8-50 37.8-26.9 0-46.3-20.6-59-34.2-13.8-14.7-35.4-51.9-41.8-89.2h-5.7c6.4 38.8 29 77.8 43.4 93.1 13.4 14.3 33.8 35.9 63.1 35.9 33.6 0 50.9-22.7 55.5-42.3 2.6-14-4.1-35.3-16.1-50.5-9.4-11.7-20.9-18.6-32.4-19.2zM435.6 227c-.9-1.6-21.2-38.6-40.9-50.1-13.1-7.6-32.8-10.4-50.2-12.9-8.7-1.3-17-2.4-23-4.1-4.9-1.3-12.3-5.6-21.8-11.1-23.6-13.6-59.3-34.3-104.7-37.4-73.7-5-107.7 98.6-111.4 110.5-7.1 22.9-11.5 43.3-11.7 69h5.6c.2-25.1 4.6-45 11.4-67.4 3.4-11.1 34.8-106.7 100.9-106.7 1.6 0 3.2.1 4.8.2 44.1 3 79.1 23.3 102.2 36.6 9.8 5.6 17.5 10.1 23.1 11.6 6.3 1.7 14.8 2.9 23.7 4.2 16.9 2.4 36.1 5.2 48.2 12.2 15.8 9.2 33.1 38 37.6 45.9-7 5.5-33.6 25.1-61.4 30.8-13.9 1.2-25.1-.8-31.3-2.4-3.6-.9-5.6-1.7-5.6-1.7l-.2-.1-.8-.3-1 .3h-.1c-.1 0-.2 0-.3.1-.1 0-.1 0-.2.1-.1 0-.2 0-.2.1-6.3 1.9-46.3 13.5-100.7 15.7-57.9 2.4-88.5-39.3-88.8-39.8l-1.6-2.3-2.3 1.6c-1.4 1-29.7 21.9-38.4 61.2h5.8c7.3-30.6 27.3-49.5 33.8-55 7.6 9.1 38.9 42 91.7 39.8 30.5-1.3 56.6-5.4 74.9-9.2 14.6-3 24.2-5.8 27.2-6.7 3.8 1.4 18.4 6 38.8 4.2h.3c33.8-6.9 64.6-32.4 65.8-33.5l1.8-1.5-1-1.9z"/></g><g><path class="st2" d="M139.7 229.4s-7.4 14.5-8.1 27.6c-.7 13 5.3 31.2 5.3 31.2s-9.9 11.5-11.5 19.8c-.8 4.1-.5 8.8 4.7 15.5 5.4 6.9 10.3 10.3 12.7 10.9 4.7 1.2 7.7-.9 10.7-2.5 3-1.6 7.1-2.8 4.5-3.7-7.9-.7-17.2-16.1-14.9-19.8 2.3-3.7 8.8-14.6 8.8-14.6h15.6s-17.4-20.5-17.2-26.4 12.1-27.6 12.1-27.6"/><path class="st1" d="M145.4 337.5c-1 0-2.2-.1-3.4-.4-3.7-.9-9.3-5.6-14.2-11.9-6.1-7.9-6-13.6-5.2-17.7 1.4-7.4 8.5-16.6 11.2-19.9-1.4-4.7-5.6-19.4-5-30.7.7-13.5 8.1-28.1 8.4-28.7l5 2.5c-.1.1-7.2 14.2-7.8 26.5-.7 12.3 5.2 30 5.2 30.1l.5 1.5-1 1.2c-2.6 3-9.7 12.3-10.9 18.5-.6 3.3-.6 7.2 4.1 13.3 5 6.4 9.5 9.5 11.2 9.9 3.2.8 5.2-.4 7.9-1.8l.8-.5c.2-.1.3-.2.5-.3-4.4-2.6-8.4-7.7-10.7-12.3-1.5-3-3-7.3-1.2-10 2.3-3.6 8.7-14.4 8.7-14.5l.8-1.4h11.2c-5.7-7.1-14.3-18.6-14.1-23.7.2-6.2 10.4-25.1 12.4-28.8l4.9 2.7c-4.5 8.2-11.6 22.6-11.8 26.4-.1 2.8 8.5 14.9 16.5 24.4l3.9 4.6h-20c-1.8 3-6 10.1-7.9 13.2-.2.9.8 4.3 3.8 8.5 2.9 4.1 6.4 6.9 8.9 7.1l.7.1c2.3.8 2.7 2.3 2.7 3.1.1 2.4-2.1 3.4-4.6 4.6-.7.3-1.5.7-2.2 1.1l-.8.4c-2.2 1.4-4.9 2.9-8.5 2.9zm.1-27.9"/></g><g><path class="st2" d="M247.9 239.8s-7 14.9-4.7 27 18.3 27 18.3 27-1.4 12.1 0 19.2 5.7 22.8 16.7 25.3 19.7-10.1 19.7-10.1h-14.7s-7.6-9.9-6.5-17.2 14.9-17.2 14.9-17.2h13.2s-8.7-9.2-16.4-8.9-15.8 7.1-15.8 7.1-4.9-9-6.3-10.7c-1.4-1.7-7.1-18.8-5.7-25 1.4-6.2 9-16.4 9-16.4"/><path class="st1" d="M281.1 341.3c-1.1 0-2.3-.1-3.5-.4-12.2-2.7-17-18.4-18.8-27.5-1.2-6.1-.5-15.2-.2-18.7-3.7-3.6-16-16.4-18.1-27.5-2.5-12.8 4.6-28 4.9-28.7l5.1 2.4c-.1.1-6.6 14.2-4.4 25.3 2.1 11 17.3 25.3 17.5 25.5l1 1-.2 1.4c0 .1-1.3 11.8 0 18.4 1.2 6.2 5.1 21 14.5 23.1 5.1 1.1 9.7-1.8 12.8-4.6H282l-.8-1.1c-.9-1.1-8.3-11.1-7.1-19.3 1.3-8.2 14.5-18 16-19.1l.7-.5h6.4c-2.7-1.9-5.9-3.4-8.7-3.4-6.7.2-14 6.4-14.1 6.4l-2.6 2.2-1.6-3c-2-3.6-5.1-9.2-6-10.3-1.9-2.3-7.8-20.3-6.2-27.3 1.5-6.7 9.1-17 9.5-17.5l4.5 3.3c-2 2.7-7.5 10.8-8.5 15.4-1.1 4.9 3.8 20.6 5.2 22.7 1 1.2 3.3 5.3 5 8.2 3.3-2.2 9-5.5 14.9-5.7 8.7-.3 17.5 8.8 18.5 9.8l4.5 4.7h-18.7c-5 3.7-12.4 10.6-13 14.8-.7 4.4 3 10.8 5.2 14h18.6l-3 4.4c-.9.5-8.7 11.6-19.6 11.6z"/></g><g><ellipse transform="rotate(-9.119 311.24 131.982)" class="st0" cx="311.3" cy="132" rx="54.9" ry="77.6"/><path class="st1" d="M317.4 211.9c-29.1 0-56.5-30.1-63-70.8-7-43.8 12.8-83.5 44.2-88.5 31.4-5 62.7 26.5 69.7 70.2 7 43.8-12.8 83.5-44.2 88.5-2.3.4-4.5.6-6.7.6zM305.3 57.7c-1.9 0-3.9.2-5.8.5-28.4 4.6-46.1 41.4-39.6 82.1s34.9 70.2 63.3 65.6c28.4-4.6 46.1-41.4 39.6-82.1-6.1-38-31.2-66.1-57.5-66.1z"/></g><circle class="st1" cx="295.4" cy="144.8" r="12.8"/><circle class="st1" cx="433.1" cy="132" r="12.8"/></svg>