<svg version="1.1" id="icon" xmlns="http://www.w3.org/2000/svg" x="0" y="0" viewBox="0 0 512 512" xml:space="preserve"><style type="text/css">.st1{fill:#d7d7d7}.st2{fill:#dee8eb}.st16{fill:#4b4c4c}.st18{fill:#7d828d}</style><path fill="#f2f2f2" d="M40 504V8h276.7L408 99.3V504z"/><path class="st1" d="M313.4 16l86.6 86.6V496H48V16h265.4M320 0H32v512h384V96L320 0z"/><path class="st1" d="M416 96h-96V0h-16v112h112z"/><path class="st2" d="M48 64h256v31H48zM48 128h352v32H48z"/><path fill="#accfa7" d="M48 472h352v24H48z"/><path fill="#1c881b" d="M48 448h352v24H48z"/><path fill="#43a72d" d="M48 424h352v24H48z"/><path fill="#5bb734" d="M48 400h352v24H48z"/><path fill="#6ac239" d="M48 376h352v24H48z"/><path fill="#7dcb3d" d="M48 352h352v24H48z"/><path fill="#93d543" d="M48 328h352v24H48z"/><path fill="#ace04a" d="M48 304h352v24H48z"/><path fill="#c0e94f" d="M48 280h352v24H48z"/><path fill="#c6ec50" d="M48 256h352v24H48z"/><path fill="#d4f255" d="M48 232h352v24H48z"/><path fill="#ddf581" d="M48 208h352v24H48z"/><path fill="#e1f594" d="M48 184h352v24H48z"/><g><path class="st16" d="M128 320h-16V159l.2-1c2.8-11.1 12.7-30 31.8-30s29 18.9 31.8 30.1l.2 1v129h-16v-127c-1.1-3.5-6-17.1-16-17.1s-14.9 13.6-16 17.1V320zM208 208h48v16h-48z"/><path transform="rotate(-90 232 216)" class="st16" d="M208 208h48v16h-48z"/><g><path class="st16" d="M272 208h48v16h-48z"/><path transform="rotate(-90 296 216)" class="st16" d="M272 208h48v16h-48z"/></g></g><g><path transform="rotate(-65.001 363.577 245.162)" fill="#e1ab07" d="M203.6 221.2h320v48h-320z"/><path transform="rotate(-65.001 437.96 85.653)" class="st18" d="M422 61.6h32v48h-32z"/><path transform="rotate(-65.001 451.484 56.652)" fill="#d07b84" d="M435.5 32.6h32v48h-32z"/><path class="st18" d="M317.7 400.3l-42 33.4-1.5-53.7z"/></g></svg>