<svg version="1.1" id="icon" xmlns="http://www.w3.org/2000/svg" x="0" y="0" viewBox="0 0 512 512" xml:space="preserve"><style type="text/css">.st0{fill:#094ab1}.st1{fill:#fff}</style><path class="st0" d="M173 393.9c-28.6-7.2-44.5-29.8-44.5-63.6 0-10.8.8-15.9 3.4-22.9 6.5-17 24.1-29.8 47-34.5 11.4-2.3 14.9-4.8 14.9-10.7 0-1.8 1.3-7.3 3-12.1 7.6-22 21.6-40.2 36.5-47.7 15.6-7.9 23.6-9.6 42.4-9.5 26.9.1 40.3 5.9 59 25.7l10.3 10.8 9.3-3.2c44.7-15.5 89.2 10.9 92.8 54.9l1 12 8.8 3.1c25.1 9 37 27.9 34.8 55.7-1.4 18.1-9.9 32.6-23.4 39.9l-6.3 3.4-140.6.3c-108.1.4-142.4 0-148.4-1.6z"/><path class="st0" d="M67.7 374.5c-16.7-3.9-34.3-18.7-42.6-35.6-4.7-9.6-4.9-11-4.9-27.9 0-16.1.4-18.6 4.1-26.6 7.9-16.8 23-29 42-33.7 4-1 7.8-2.6 8.4-3.5.6-1 1.2-6.1 1.5-11.6 1.3-33.6 23.4-63.4 54.3-72.8 16.6-5.1 37.6-3.9 55.7 3.3 5.7 2.3 5.1 2.8 17.2-13.1 7.2-9.5 21.8-21.2 33.6-27.1 12.8-6.4 26.2-9.4 42.1-9.4 44.6.1 83 28 97.3 70.6 4.5 13.6 4.3 17.4-1 17.5-2.3 0-9.1 1.3-14.9 2.8l-10.7 2.8-9.7-9.7c-27.4-27.4-72-33.2-110-14.6-15.2 7.5-27.4 18.2-36.6 32.2-6.5 10-14.9 28.6-14.9 33.1 0 3.3-2.6 4.9-14 8.7-35.1 11.5-55.5 38.1-55.5 72 0 12.4 3.2 27.5 7.7 36.2 1.7 3.2 2.6 6.3 2.1 7-1.6 1.3-45.3.8-51.2-.6z"/><path class="st1" d="M274.4 193h1.5c26.9.1 40.3 5.9 59 25.7l10.3 10.8 9.3-3.2c8.8-3 17.5-4.4 26-4.4 34.6 0 64 24 66.9 59.3l1 12 8.8 3.1c25.1 9 37 27.9 34.8 55.7-1.4 18.1-9.9 32.6-23.4 39.9l-6.3 3.4-140.6.3c-17.7 0-33.5.1-47.4.1-71.1 0-95.9-.5-100.9-1.7-28.6-7.2-44.5-29.8-44.5-63.6 0-10.8.8-15.9 3.4-22.9 6.5-17 24.1-29.8 47-34.5 11.4-2.3 14.9-4.8 14.9-10.7 0-1.8 1.3-7.3 3-12.1 7.6-22 21.6-40.2 36.5-47.7 14.9-7.6 22.9-9.5 40.7-9.5m0-20.1c-20.7 0-32 2.6-50.1 11.7-19.7 9.9-37.2 32-46.5 59.2-.8 2.4-1.9 5.9-2.8 9.6h-.1c-14.1 2.9-27.1 8.5-37.6 16.1-11.3 8.3-19.6 18.9-24.3 30.8-4 10.5-4.8 18.7-4.8 30.2 0 21 5.1 38.9 15.2 53.3 10.4 14.8 25.8 25.1 44.6 29.8 6.4 1.6 18.4 2.3 105.8 2.3 13.7 0 29.2 0 47.5-.1l140.6-.3h5l4.4-2.4 6.3-3.4c19.6-10.5 32-31 33.9-56.2 1.4-18.2-2-34.1-10.2-47.1-7.8-12.4-19.3-21.7-34.4-27.8-2-21.9-12.1-41.6-28.4-55.7-15.9-13.8-36.7-21.4-58.5-21.4-9.9 0-19.7 1.5-29.5 4.5l-1.4-1.4c-22.6-23.7-41.1-31.7-73.5-31.9-.2.2-.7.2-1.2.2z"/><path class="st1" d="M278.6 116.4h.3c44.6.1 83 28 97.3 70.6 4.5 13.6 4.3 17.4-1 17.5-2.3 0-9.1 1.3-14.9 2.8l-10.7 2.8-9.7-9.7c-16.7-16.7-39.8-25.4-64-25.4-15.4 0-31.2 3.5-46 10.9-15.2 7.5-27.4 18.2-36.6 32.2-6.5 10-14.9 28.6-14.9 33.1 0 3.3-2.6 4.9-14 8.7-35.1 11.5-55.5 38.1-55.5 72 0 12.4 3.2 27.5 7.7 36.2 1.7 3.2 2.6 6.3 2.1 7-.6.6-8.4.8-17.7.8-13.3 0-29.8-.5-33.3-1.3-16.7-3.8-34.4-18.6-42.6-35.5-4.7-9.6-4.9-11-4.9-27.9 0-16.1.4-18.6 4.1-26.6 7.9-16.8 23-29 42-33.7 4-1 7.8-2.6 8.4-3.5.6-1 1.2-6.1 1.5-11.6 1.3-33.6 23.4-63.4 54.3-72.8 6.7-2.1 14.3-3.1 22-3.1 11.3 0 23 2.2 33.7 6.4 1.7.7 2.8 1.2 3.8 1.2 2.6 0 4.7-3 13.4-14.3 7.2-9.5 21.8-21.2 33.6-27.1 12.6-6.7 25.8-9.7 41.6-9.7m0-20.2c-19 0-35.3 3.6-50.9 11.5-14.5 7.4-31.6 21.2-40.6 32.9l-1.2 1.6c-.5.6-.9 1.2-1.4 1.9-10.5-3.1-21.5-4.8-32.2-4.8-9.9 0-19.3 1.3-27.9 4-19.2 5.9-36.1 17.9-48.4 34.6-11.9 15.9-18.7 34.9-19.9 54.6-22.3 7.2-40.3 22.7-50 43.3-5.4 11.7-6 17.4-6 35.3 0 18.8.6 23.7 7.1 36.8 11 22.4 33.5 40.9 56.1 46.2 7.2 1.7 28.9 1.9 38 1.9 3.6 0 8.8 0 13-.2 5.8-.2 13-.5 19-6.5 3.3-3.3 8.4-10.7 4.8-22.6-.7-2.5-1.8-5.2-3.2-7.9-2.6-5.1-5.4-16.8-5.4-27 0-25.3 14.8-44 41.6-52.8 6.6-2.2 11.6-4 15.5-6.4 9.5-5.8 11.9-14 12.3-19.3 1.2-4.2 6.7-16.6 11.7-24.1 7.3-11 16.6-19.2 28.6-25.2 11.6-5.7 24.5-8.8 37.1-8.8 19.4 0 37.1 7 49.7 19.4l9.7 9.7 8.2 8.2 11.2-2.9 10.7-2.8c4.7-1.2 9.2-2 10.7-2.2 10.9-.4 16.7-6.3 19.2-10 7.9-11.1 3.4-24.5.1-34.1-8.4-24.9-23.7-46-44.5-61.1-20.9-15.1-45.7-23.2-71.8-23.3l-.9.1z"/></svg>