<svg version="1.1" id="icon" xmlns="http://www.w3.org/2000/svg" x="0" y="0" viewBox="0 0 512 512" xml:space="preserve"><style type="text/css">.st0{fill:#0078d4}</style><path class="st0" d="M.1 0h512v512H.1z"/><path d="M109.2 83.1c23-15.4 53-19.2 79.2-10.4 9.3 2.9 17.6 8.1 26 12.9 32.7-7.2 67.6-6.1 99.2 5.2 50.5 17.4 91.8 59.3 108.3 110.1 10.5 30.9 11.2 64.7 4.3 96.5 8.2 13.4 15.2 27.8 16.9 43.7 4 29.7-8.1 61-30.8 80.4-22.3 19.6-54.4 27.1-83 19.2-11.5-2.7-21.7-8.7-31.7-14.6-34.5 7.6-71.3 5.8-104.3-7.1-48.7-18.5-88-60-103.7-109.7-10.1-30.6-10.6-63.7-3.8-95-10.5-16.4-18-35.4-17.6-55.1-.4-30.1 15.7-59.6 41-76.1z" fill="#fff"/><path class="st0" d="M228.9 131c29.7-4.5 61.1.1 87.6 14.4 11.6 6.4 22.9 15.1 28.2 27.6 3.5 8.2 3.9 18.9-2.6 25.8-7 7.2-18.4 9.4-27.9 6.3-11-4.5-16.3-16-25.6-22.8-11.7-9.6-27.3-12.2-42-11.9-10.7.4-22.3 2.9-30 10.8-7.3 7.7-9.9 21-2.8 29.6 6.6 7.7 16.9 10.5 26.4 13.2 17.9 4.5 36.2 8.1 54.1 12.4 18.8 4.3 37.7 12.5 50.1 27.8 21.4 27.7 16.5 71.5-10 94.2-21.3 18.8-50.8 24.1-78.4 24.2-29.4-.4-60.8-6.4-83.4-26.6-11.3-10.3-20.9-25.6-17.4-41.4 3.7-15.7 25.3-21.7 37.5-12 9.3 7.5 14.4 18.8 23.4 26.7 10.8 9.9 25.8 13.8 40.1 13.5 14.1.3 29-3.9 38.6-14.6 6.5-7.3 10-18.2 5.7-27.5-3.5-8.7-12.5-13.5-21.1-15.8-15.8-4.1-31.8-8-47.6-12.1-17.4-4.2-35.5-8.1-50.5-18.5-11.7-7.8-20.6-19.8-23.4-33.7-4.7-21.7-1.4-46.5 14.4-63.1 14.5-15.9 35.8-23.2 56.6-26.5z"/></svg>