<svg version="1.1" id="icon" xmlns="http://www.w3.org/2000/svg" x="0" y="0" viewBox="0 0 512 512" xml:space="preserve"><style type="text/css">.st1{fill:#fff}</style><path opacity=".1" fill="#fff" d="M20.4 28.3h472.3v458.5H20.4z"/><path class="st1" d="M0 5.9v500.2h512V5.9H0zm471.3 460.6H41.8V46.6h429.6v419.9z"/><path class="st1" d="M76.5 147.9c15.4-2.8 34.9-4.4 55.8-4.4 35.8 0 60.6 8.2 78.2 24.5 18.5 16.6 29.9 41.8 29.9 77.9 0 37.6-11.7 65.9-29.9 84.1-19 19.1-49.4 28.9-86.7 28.9-20.4 0-35.8-1.2-47.2-2.8V147.9h-.1zm34.9 179.3c4.8.9 12.2.9 19.3.9 45.5.3 72.5-27.3 72.5-81 .3-46.8-24.2-73.5-67.9-73.5-11.1 0-19 .9-23.9 2.2v151.4zm167.4-123.4l14.1 69.4c3 16.3 6 33 8.6 49.6h.6c2.7-16.6 7.1-33.6 11-49.3l17.3-69.7H358l16.8 67.8c4.1 17.9 7.7 34.5 10.8 51.2h.5c2.2-16.6 5.2-33.3 8.9-51.2l14.9-67.8h33.3L401 356.7h-31.4l-16-62.2c-4.1-16-7.1-30.5-10.2-49h-.6c-2.7 18.8-6.3 33.9-10.2 49l-17.1 62.2h-31.7l-39.7-152.9h34.7z"/></svg>