<svg version="1.1" xmlns="http://www.w3.org/2000/svg" x="0" y="0" viewBox="0 0 512 512" xml:space="preserve"><path d="M21.3 27.7h469.3v456.5H21.3V27.7z" opacity=".1" fill="#fff"/><path d="M0 6.4v499.2h512V6.4H0zm21.3 21.3h469.3v456.5H21.3V27.7zm111.5 95.6c0-1.4.4-2.5 2.1-2.5 13.7-.7 33.8-1.1 54.9-1.1 59.1 0 84.8 32.4 84.8 73.9 0 54.2-39.2 77.4-87.4 77.4-8.1 0-10.9-.3-16.5-.3v82c0 1.8-.7 2.5-2.5 2.5h-32.9c-1.8 0-2.5-.7-2.5-2.5V123.3zm37.9 113.3c4.9.4 8.8.4 17.2.4 25 0 48.4-8.8 48.4-42.6 0-27.1-16.7-40.8-45.2-40.8-8.4 0-16.5.4-20.4.7v82.3zm136.5-19.4c0-2.5 0-8.8-1.1-20.8 0-1.8.2-2.1 1.7-2.8 13-5.3 43.5-14.8 78-14.8 1.8 0 2.5.3 2.5 2.1v31c0 1.8-.6 2.1-2.3 2.1-13.4-.7-32.9 1.1-40.3 4.2v134.4c0 1.8-.7 2.5-2.5 2.5h-33.5c-1.8 0-2.5-.7-2.5-2.5V217.2z" fill="#fff"/></svg>