<svg version="1.1" id="icon" xmlns="http://www.w3.org/2000/svg" x="0" y="0" viewBox="0 0 512 512" xml:space="preserve"><style type="text/css">.st1{fill:#fff;enable-background:new}</style><path d="M511.3 239.9c.2-.3.3-.6.5-.9C503.1 105.5 392.1 0 256.4 0h-.6C120.1 0 9.1 105.5.3 239c.2.3.3.6.5.9-.3 5.3-.5 10.7-.5 16.1 0 25.2 3.6 49.6 10.5 72.6-.1.3-.2.7-.3 1C42.1 435.1 139.9 512 255.7 512h.6c115.8 0 213.7-76.9 245.2-182.4-.1-.3-.2-.7-.3-1 6.8-23 10.5-47.4 10.5-72.6.2-5.4 0-10.8-.4-16.1z" opacity=".1" fill="#fff"/><path class="st1" d="M511.3 239.9c.2-.3.3-.6.5-.9C503.1 105.5 392.1 0 256.4 0h-.6C120.1 0 9.1 105.5.3 239c.1.1.1.2.2.3v-.2L138 295.7c3.8-2.5 7.8-4.6 12-6.3 9.7-4 19.8-5.8 30-5.3l62.6-90.9v-1.3c0-53.7 43.7-97.4 97.2-97.6 53.7 0 97.3 43.7 97.3 97.4s-43.7 97.5-97.3 97.5h-2.2L248 353.3c.3 10-1.5 19.8-5.4 29.3-15 36.1-56.7 53.3-92.8 38.2-22.1-9.3-37-28.4-41.9-50.2l-97.1-40C42.7 435.6 140.3 512 255.7 512h.6c115.8 0 213.7-76.9 245.2-182.4-.1-.3-.2-.7-.3-1 6.8-23 10.5-47.4 10.5-72.6.2-5.4 0-10.8-.4-16.1z"/><path class="st1" d="M159.6 392.1L127.9 379c5.6 11.7 15.3 21.6 28.2 26.9 27.8 11.5 59.9-1.6 71.6-29.6 5.6-13.5 5.6-28.5.1-41.9-5.6-13.6-16.1-24.2-29.6-29.8-13.4-5.5-27.7-5.4-40.4-.6l32.8 13.6c20.6 8.5 30.3 32.2 21.7 52.8-8.5 20.5-32.1 30.3-52.7 21.7zm245.1-200.2c0-35.7-29.1-64.9-64.8-64.9-35.7 0-64.8 29.1-64.8 64.9s29.1 64.9 64.8 64.9 64.8-29.2 64.8-64.9zm-113.4-.1c0-27 21.8-48.8 48.7-48.8s48.7 21.8 48.7 48.8-21.8 48.8-48.7 48.8c-26.8-.1-48.7-21.9-48.7-48.8z"/></svg>