<svg version="1.1" id="icon" xmlns="http://www.w3.org/2000/svg" x="0" y="0" viewBox="0 0 512 512" xml:space="preserve"><style type="text/css">.st0{fill:#fff}</style><path class="st0" d="M251.3 183.9l-59.4 44.7 59.4 44.8zM113 197.5v62.2l31.5-31.1z"/><path class="st0" d="M0 0v512h512V0H0zm91.7 176.3l21.4-7.2 51.9 39.2 86.3-85.4 51.7 22v167.3l-51.7 22-86.3-85.3-51.9 39.2-21.4-7.2V176.3zm352.1 228.5l-93.9 39-281.7-94.9 281.7 41.9V68.2l93.9 39v297.6z"/><path d="M349.9 68.2v322.6L68.2 348.9l281.7 94.9 93.9-39V107.2l-93.9-39zM165 248.9l86.3 85.3 51.7-22V144.9l-51.7-22-86.3 85.4-51.9-39.2-21.4 7.2v104.6l21.4 7.2 51.9-39.2zm86.3-65v89.5l-59.4-44.8 59.4-44.7zM113 197.5l31.5 31.1-31.5 31.1v-62.2z" opacity=".1" fill="#fff"/></svg>