<svg version="1.1" id="icon" xmlns="http://www.w3.org/2000/svg" x="0" y="0" viewBox="0 0 512 512" xml:space="preserve"><style type="text/css">.st1{fill:#fff}</style><path opacity=".1" fill="#fff" d="M20.4 28.3h472.3v458.5H20.4z"/><path class="st1" d="M0 5.9v500.2h512V5.9H0zm471.3 460.6H41.8V46.6h429.6v419.9z"/><path class="st1" d="M134.7 149c13.8-2.5 33-4.4 59.1-4.4 28.3 0 49 5.9 62.5 17.3 12.6 10.4 20.7 27 20.7 46.8 0 20.1-6.2 36.7-18.2 48-15.4 15.4-39.6 22.6-66.9 22.6-7.2 0-13.8-.3-18.8-1.2v79.7h-38.3V149zm38.2 98.6c4.7 1.2 11 1.6 18.8 1.6 28.9 0 46.5-14.1 46.5-39 0-23.6-16.3-36.1-43-36.1-10.7 0-18.2.9-22.2 1.9v71.6h-.1zm115.9 74.7c8.8 5.3 25.5 11 39.3 11 16.9 0 24.5-6.9 24.5-16.9 0-10.4-6.2-15.7-25.2-22.3-29.8-10.4-42.4-26.7-42.1-44.6 0-27 22.3-48 57.8-48 16.9 0 31.7 4.4 40.5 9.1l-7.5 27.3c-6.6-3.7-18.8-8.8-32.3-8.8-13.8 0-21.3 6.6-21.3 16 0 9.8 7.2 14.5 26.7 21.3 27.7 10.1 40.5 24.2 40.9 46.8 0 27.7-21.6 48-62.2 48-18.5 0-35.1-4.7-46.5-11l7.4-27.9z"/></svg>