<svg version="1.1" id="icon" xmlns="http://www.w3.org/2000/svg" x="0" y="0" viewBox="0 0 512 512" xml:space="preserve"><style type="text/css">.st0{fill:#fff}</style><path class="st0" d="M165.9 405.5c-31-7.8-48.3-32.3-48.3-69 0-11.7.9-17.3 3.7-24.8 7.1-18.4 26.1-32.3 51-37.4 12.4-2.5 16.2-5.2 16.2-11.6 0-2 1.4-7.9 3.3-13.1 8.2-23.9 23.4-43.6 39.6-51.8 16.9-8.6 25.6-10.4 46-10.3 29.2.1 43.7 6.4 64 27.9l11.2 11.7 10.1-3.5c48.5-16.8 96.8 11.8 100.7 59.6l1.1 13 9.5 3.4c27.2 9.8 40.1 30.3 37.8 60.4-1.5 19.6-10.7 35.4-25.4 43.3l-6.8 3.7-152.5.3c-117.5.4-154.7 0-161.2-1.8z"/><path class="st0" d="M51.6 384.5c-18.1-4.2-37.2-20.3-46.2-38.6C.3 335.5.1 334 .1 315.6c0-17.5.4-20.2 4.4-28.9 8.6-18.2 25-31.5 45.6-36.6 4.3-1.1 8.5-2.8 9.1-3.8.7-1.1 1.3-6.6 1.6-12.6 1.4-36.5 25.4-68.8 58.9-79 18-5.5 40.8-4.2 60.4 3.6 6.2 2.5 5.5 3 18.7-14.2 7.8-10.3 23.7-23 36.5-29.4 13.9-6.9 28.4-10.2 45.7-10.2 48.4.1 90.1 30.4 105.6 76.6 4.9 14.8 4.7 18.9-1.1 19-2.5 0-9.9 1.4-16.2 3l-11.6 3-10.5-10.5c-29.7-29.7-78.1-36-119.3-15.8-16.5 8.1-29.7 19.7-39.7 34.9-7.1 10.8-16.2 31-16.2 35.9 0 3.6-2.8 5.3-15.2 9.4-38.1 12.5-60.2 41.3-60.2 78.1 0 13.5 3.5 29.8 8.4 39.3 1.8 3.5 2.8 6.8 2.3 7.6-1.9 1.6-49.3 1-55.7-.5z"/></svg>