<svg version="1.1" xmlns="http://www.w3.org/2000/svg" x="0" y="0" viewBox="0 0 512 512" xml:space="preserve"><path d="M224.4 110.1c34.7-5.2 71.3.1 102.2 16.8 13.5 7.6 26.7 17.6 32.9 32.2 4.1 9.6 4.5 22.1-3 30.1-8.2 8.4-21.5 11-32.6 7.4-12.8-5.3-19-18.7-29.9-26.6-13.6-11.2-31.9-14.2-49-13.9-12.5.5-26 3.4-35 12.6-8.5 9-11.6 24.5-3.3 34.5 7.8 9 19.7 12.3 30.8 15.4 20.9 5.2 42.2 9.5 63.2 14.5 21.9 5 44 14.6 58.5 32.4 25 32.3 19.3 83.6-11.7 110-24.9 21.9-59.3 28.1-91.5 28.3-34.3-.5-71-7.6-97.3-31-13.2-12-24.4-29.9-20.3-48.3 4.3-18.3 29.5-25.3 43.8-14 10.9 8.8 16.8 22 27.3 31.2 12.6 11.5 30.1 16.1 46.8 15.7 16.4.4 33.8-4.6 45.1-17.1 7.7-8.5 11.7-21.2 6.7-32.1-4.1-10.2-14.6-15.7-24.6-18.4-18.5-4.8-37.1-9.3-55.6-14.1-20.3-4.9-41.4-9.5-58.9-21.6-13.6-9.1-24-23.2-27.3-39.3-5.5-25.3-1.6-54.4 16.8-73.7 16.6-18.6 41.6-27.3 65.9-31z" opacity=".1" fill="#fff"/><path d="M493.2 297.7c6.9-40 3.8-81.7-9.5-120.1C464.5 121 423 72.3 370.3 44.1 323.1 18.3 267.1 9.6 214.1 18.8 167.2-8.5 104.9-5.8 60.8 26 31.6 46.4 10.5 78.1 3.2 113c-7.3 34.1-1.8 70.9 15.6 101.2-7.1 42.2-3.4 86.3 11.7 126.3C51.3 396.6 94 444 147.4 470.9c46 23.5 99.6 31 150.4 22.3 45.6 26.4 105.8 24.8 149.7-4.7 31.6-20.6 54.6-54.4 61.8-91.4 6.7-33.6.9-69.6-16.1-99.4zm-145.7 78.1c-24.9 21.9-59.3 28.1-91.5 28.3-34.3-.5-71-7.6-97.3-31-13.2-12-24.4-29.9-20.3-48.3 4.3-18.3 29.5-25.3 43.8-14 10.9 8.8 16.8 22 27.3 31.2 12.6 11.5 30.1 16.1 46.8 15.7 16.4.4 33.8-4.6 45.1-17.1 7.7-8.5 11.7-21.2 6.7-32.1-4.1-10.2-14.6-15.7-24.6-18.4-18.5-4.8-37.1-9.3-55.6-14.1-20.3-4.9-41.4-9.5-58.9-21.6-13.6-9.1-24-23.2-27.3-39.3-5.5-25.3-1.6-54.4 16.8-73.7 16.8-18.7 41.7-27.4 65.9-31.1 34.7-5.2 71.3.1 102.2 16.8 13.5 7.6 26.7 17.6 32.9 32.2 4.1 9.6 4.5 22.1-3 30.1-8.2 8.4-21.5 11-32.6 7.4-12.8-5.3-19-18.7-29.9-26.6-13.6-11.2-31.9-14.2-49-13.9-12.5.5-26 3.4-35 12.6-8.5 9-11.6 24.5-3.3 34.5 7.8 9 19.7 12.3 30.8 15.4 20.9 5.2 42.2 9.5 63.2 14.5 21.9 5 44 14.6 58.5 32.4 24.9 32.2 19.3 83.6-11.7 110.1z" fill="#fff"/></svg>