<svg version="1.1" id="icon" xmlns="http://www.w3.org/2000/svg" x="0" y="0" viewBox="0 0 512 512" xml:space="preserve"><style type="text/css">.st1{fill:#fff}</style><path d="M512 472c0 22-18 40-40 40H40c-22 0-40-18-40-40V40C0 18 18 0 40 0h432c22 0 40 18 40 40v432z" opacity=".15" fill="#fff"/><path class="st1" d="M472 20c11 0 20 9 20 20v432c0 11-9 20-20 20H40c-11 0-20-9-20-20V40c0-11 9-20 20-20h432m0-20H40C18 0 0 18 0 40v432c0 22 18 40 40 40h432c22 0 40-18 40-40V40c0-22-18-40-40-40z"/><path class="st1" d="M402 162.3V72.4c0-4.4-3.3-7-7.3-5.7l-277.3 87.9c-2.6.8-4.9 3.1-6.2 5.8-.8 1-1.2 2.4-1.2 4v89.9c0 .7.1 1.3.2 2 0 .2.1.3.1.5.1.2.1.4.2.6 1.1 3.3 3.7 6.3 6.8 7.3L235 302l-117.6 37.3c-4 1.3-7.3 5.9-7.3 10.4v89.9c0 4.4 3.3 7 7.3 5.7l277.3-87.9c4-1.3 7.3-5.9 7.3-10.4v-90c0-4.4-3.3-9.1-7.3-10.4l-116.6-36.9 116.6-37c4-1.3 7.3-5.9 7.3-10.4z"/></svg>