<svg version="1.1" id="icon" xmlns="http://www.w3.org/2000/svg" x="0" y="0" viewBox="0 0 512 512" xml:space="preserve"><style type="text/css">.st0{fill:#fff}</style><path class="st0" d="M0 6.4v499.2h512V6.4H0zm490.6 477.8H21.3V27.7h469.3v456.5z"/><path d="M21.3 27.7h469.3v456.5H21.3V27.7z" opacity=".1" fill="#fff"/><path class="st0" d="M145 288.9l-17 63.7c-.4 1.7-1.1 1.9-3.2 1.9H93.4c-2.1 0-2.6-.6-2.1-3.2l60.8-212.5c1.1-3.8 1.7-6.2 2.1-16.9 0-1.5.6-2.1 1.7-2.1h44.8c1.5 0 2.1.4 2.6 2.1l68.1 229.8c.4 1.7 0 2.8-1.7 2.8h-35.2c-1.7 0-2.8-.2-3.2-1.5l-17.7-64.2H145v.1zm59.6-35.2c-6-23.7-20.1-75.1-25.4-100.3h-.4c-4.5 25-15.8 67-24.7 100.3h50.5zm86.8-37.4c0-2.1 0-9.6-1.1-22 0-1.5.4-1.7 1.9-2.6 17.9-6.6 41.4-14.1 65.7-14.1 30.1 0 62.9 11.7 62.9 63.1v110.9c0 2.1-.6 2.8-2.6 2.8h-32c-2.1 0-2.8-1.1-2.8-2.8V243.8c0-20.5-7.3-31.8-28.4-31.8-9.2 0-17.9 1.7-24.1 3.8v136.3c0 1.5-.6 2.6-2.1 2.6H294c-1.7 0-2.6-.6-2.6-2.6V216.3z"/></svg>