<svg version="1.1" id="icon" xmlns="http://www.w3.org/2000/svg" x="0" y="0" viewBox="0 0 512 512" xml:space="preserve"><style type="text/css">.st1{fill:#fff}</style><path d="M21.3 27.7h469.3v456.5H21.3V27.7z" opacity=".1" fill="#fff"/><path class="st1" d="M0 6.4v499.2h512V6.4H0zm21.3 21.3h469.3v456.5H21.3V27.7z"/><path class="st1" d="M177.7 289.1l-16.9 64c-.4 1.7-1.1 2.1-3.2 2.1h-31.4c-2.1 0-2.6-.6-2.1-3.2l60.6-212.1c1.1-3.8 1.7-7.3 2.1-17.7 0-1.5.6-2.1 1.7-2.1h44.8c1.5 0 2.1.4 2.6 2.1l67.8 230.2c.4 1.7 0 2.8-1.7 2.8h-35.4c-1.7 0-2.8-.4-3.2-1.9l-17.7-64.2h-68zm59.3-34.6c-6-23.7-20.1-75.3-25.4-100.3h-.4c-4.5 25-15.8 67.2-24.7 100.3H237zm96-118.6c0-13.7 9.6-21.8 21.8-21.8 13 0 21.8 8.7 21.8 21.8 0 14.1-9.2 21.8-22.2 21.8-12.4 0-21.4-7.7-21.4-21.8zm2.6 48.4c0-1.7.6-2.6 2.6-2.6h33.5c1.7 0 2.6.6 2.6 2.6v168.3c0 1.7-.4 2.6-2.6 2.6h-33.1c-2.1 0-2.8-1.1-2.8-2.8V184.3h-.2z"/></svg>