<svg version="1.1" id="icon" xmlns="http://www.w3.org/2000/svg" x="0" y="0" viewBox="0 0 512 512" xml:space="preserve"><style type="text/css">.st0{fill:#fff}</style><path class="st0" d="M356.4 284.1c-4.4-17.5-7.2-34.7-12.9-50.9-18.5-52.8-51.8-93-104.2-115C177.8 92.3 108.8 107.7 60 157c-19.8 20-34.3 43.3-44.5 69.5-.6 1.5-1.2 3.1-1.9 4.6-.1.1-.3.2-1.4 1.1-2.3-7.6-5-14.7-6.7-22C-7 155.8 8.3 108.5 44.4 67.6c33.5-38 76.8-58.8 126.7-65.2C228.2-4.9 281 7 327.8 41.2c38.4 28.1 63.3 65.3 70.6 112.9 6.1 39.5-4.4 75.4-25.9 108.4-4.8 7.5-10.7 14.5-16.1 21.6z"/><path class="st0" d="M233.5 498.7c-23 8.8-45.4 13.9-68.8 11.2C91 501.2 42.5 458.7 16.6 391.7-13.5 313.6-3 239.3 50.1 173.5c31.3-38.8 72.8-60.7 123.3-61.9 41.9-1 78.1 15.1 109.4 42.5.5.5 1 1.1 1.5 1.7.1.1 0 .4 0-.1-14.9 3.4-29.8 5.8-44.1 10.3-50.7 16-90.8 45.9-115.6 93.7-33.3 64.2-20 139.4 32.9 191.9 20.1 19.9 43.6 34.6 70 44.7 1.7.5 3.3 1.3 6 2.4z"/><path class="st0" d="M278.7 12.4c34.6-13.8 68.4-15.9 102.6-4.7 55.2 18.1 92.9 55.9 113.5 109.1 30.6 79.2 21 154.1-32.8 220.8-31 38.4-72.3 60.3-122.2 61.8-42.5 1.2-79.2-15.1-110.9-43-.4-.3-.7-.8-1.3-1.7 9.4-1.7 18.6-2.9 27.6-5 54.9-13 99.3-41.5 128.3-90.8C421.9 193.7 410 114 354.6 59.3c-20-19.8-43.3-34.3-69.5-44.4-1.7-.6-3.4-1.3-6.4-2.5z"/><path class="st0" d="M156.1 227.3c3.8 16 6.4 32.1 11.5 47.3 17.5 52.4 49.6 93 100.7 116.2 60.6 27.6 130.3 14.6 179.5-32.5 22-21 38.1-45.9 49-74.3.5-1.4 1.1-2.7 1.7-4.1.1-.3.6-.4 1.3-.8 8.4 21.7 13.5 44 10.8 67.1-8.4 73.7-50.8 122.4-117.7 148.4-78.2 30.4-152.8 20.1-218.7-33.3-40.9-33.1-63.1-77-61.9-130.4.9-39.1 16.7-73 42.4-102.3.5-.5 1.1-1 1.7-1.5.1.1.3.2-.3.2z"/></svg>