<svg version="1.1" id="icon" xmlns="http://www.w3.org/2000/svg" x="0" y="0" viewBox="0 0 512 512" xml:space="preserve"><style type="text/css">.st1{fill:#fff}</style><circle cx="256" cy="256" r="256" opacity=".1" fill="#fff"/><path class="st1" d="M172.3 232.7c4.3-7.4 8.9-14.8 13.6-22.1 2.4-3.7 4.8-7.3 7.3-10.9-10.9.8-21.2 1.9-31 3.3 2.9 9.5 6.2 19.5 10.1 29.7z"/><path class="st1" d="M256 0C114.6 0 0 114.6 0 256s114.6 256 256 256 256-114.6 256-256S397.4 0 256 0zm160.4 329.7c-.9.3-1.9.5-2.8.5-3.3 0-6.3-2-7.6-5.2-1.6-4.2.5-9 4.6-10.6 27.2-10.6 42.6-23.9 43.3-37.8.8-16.2-18.3-33.8-52.5-48.4-37.3-15.9-87.6-26.2-141.8-29-10.9-.6-21.3-.8-31-.8-5 0-10 .1-14.8.3-4.8 6.7-9.5 13.6-14.1 20.6-7.1 10.9-13.6 21.8-19.7 32.7 4.8 11.3 10.2 22.9 16.2 34.7 24.6 48.3 54.5 90.1 84.2 117.7 27.3 25.4 51.2 35.7 65.6 28.4 27.1-13.8 23.6-95.7-24.5-195.6-1.9-4.1-.2-9 3.8-11 4.1-2 9-.2 11 3.8 23.1 48 38 96.2 42.1 135.6 4.3 42.3-4.5 71.3-25 81.7-5.3 2.6-11.2 3.9-17.5 3.9-18.9 0-41.9-12-66.7-35-31.1-28.9-62.2-72.4-87.6-122.3-4-7.8-7.8-15.7-11.3-23.5-14.3 28.4-24.8 55.9-30.5 80.6-8.4 36.3-5.3 62.2 8.3 70.9 12.8 8.3 35.9 1.8 63.6-17.9 3.7-2.6 8.8-1.8 11.5 1.9 2.6 3.7 1.8 8.8-1.9 11.5-23.2 16.5-43.4 24.8-60 24.8-8.4 0-15.8-2.1-22.2-6.2-20-13-25.4-44.4-15.3-88.4 6.9-29.6 20.1-62.8 38.1-96.6-6.3-15.4-11.7-30.6-16-45.4-55 10.4-86.8 30.6-87.8 50.2-.7 13.9 13.1 28.8 38.9 42.2 4 2.1 5.6 7 3.5 11.1-2.1 4-7 5.6-11.1 3.5-32.4-16.7-48.9-36.5-47.8-57.5 1.5-29.9 39.9-53.7 100-65.3-3.4-13.5-5.9-26.5-7.4-38.7-5.4-44.9 3.2-75.6 24.5-86.3 4.3-2.2 9.2-3.5 14.4-3.9 16.9-1.3 37.7 7.8 60.1 26.5 3.5 2.9 3.9 8.1 1.1 11.6-2.9 3.5-8.1 3.9-11.6 1.1-18.8-15.6-36-23.6-48.4-22.7-3 .2-5.7.9-8.2 2.2-18.6 9.4-22.7 50.8-8.3 107.5 14.8-2.2 30.7-3.7 47.4-4.4C254.5 115.7 310 71.4 348.7 70c9.2-.4 17.3 1.7 24.2 6.1 19 12.4 24.9 40.4 16.9 81-.9 4.4-5.2 7.3-9.7 6.4-4.4-.9-7.3-5.1-6.4-9.7 6.4-32.6 2.8-55.9-9.8-64.1-3.9-2.5-8.9-3.7-14.6-3.5-31 1.2-79.5 39.8-123.2 95.9h2.3c10.1 0 20.7.2 31.9.8 55.9 2.9 108.3 13.7 147.3 30.3 41.6 17.7 63.8 40.6 62.5 64.3-1.1 20.9-19.7 39-53.7 52.2zM280.6 256c0 13.6-11 24.6-24.6 24.6-13.6 0-24.6-11-24.6-24.6 0-13.6 11-24.6 24.6-24.6 13.6 0 24.6 11 24.6 24.6z"/></svg>