<svg version="1.1" id="icon" xmlns="http://www.w3.org/2000/svg" x="0" y="0" viewBox="0 0 512 512" xml:space="preserve"><style type="text/css">.st0{fill:#fff}</style><path class="st0" d="M50.7 461.3V136.8L0 138v374h98.7l23.9-50.7zM206.8 0v50.7h254.5v293.1H512V0z"/><path class="st0" d="M461.3 235.4v225.9H228.8L139.2 512H512V183.3z"/><path class="st0" d="M50.7 461.3V339L0 511.8v.2h206.3l156.5-50.7zm0-410.6h278L280.7 0H0v193.9l50.7 1.4z"/><path opacity=".1" fill="#fff" d="M50.7 50.7h410.6v410.6H50.7z"/><path class="st0" d="M161.3 131.4v-28.2H90.9v28.2h14.5v123.3H90.9v28.2h70.4v-28.2h-14.5V131.4zM90.9 378.5h151v28.2h-151zm179-275.3v124.5c0 7-6.5 18.8-23.9 19.4s-32.7-16.4-32.7-16.4l-24.4 26.5s15.5 25.7 58.4 25.7c46 0 64.1-29.9 64.1-50.7v-129h-41.5z"/></svg>