<svg version="1.1" id="icon" xmlns="http://www.w3.org/2000/svg" x="0" y="0" viewBox="0 0 512 512" xml:space="preserve"><style type="text/css">.st1{fill:#fff}</style><circle cx="256" cy="256" r="248" opacity=".1" fill="#fff"/><path class="st1" d="M256 512c-34.6 0-68.1-6.8-99.6-20.1C125.9 479 98.5 460.5 75 437s-42-50.9-54.9-81.4C6.8 324.1 0 290.6 0 256s6.8-68.1 20.1-99.6C33 125.9 51.5 98.5 75 75s50.9-42 81.4-54.9C187.9 6.8 221.4 0 256 0s68.1 6.8 99.6 20.1C386.1 33 413.5 51.5 437 75s42 50.9 54.9 81.4C505.3 188 512 221.5 512 256s-6.8 68.1-20.1 99.6C479 386.1 460.5 413.5 437 437s-50.9 42-81.4 54.9c-31.5 13.3-65 20.1-99.6 20.1zm0-496C123.7 16 16 123.7 16 256s107.7 240 240 240 240-107.7 240-240S388.3 16 256 16z"/><path class="st1" d="M356.4 166.2c22.2 0 39.4 7.6 51.7 22.8 12.3 15.1 18.5 36.6 18.5 64.3 0 27.8-6.2 49.4-18.7 64.8-12.3 15.3-29.5 23-51.5 23-11 0-21.1-2-30.2-6-9.1-4.1-16.7-10.4-22.8-18.8h-1.9l-5.4 21.8h-18.4V98h25.6v58.3c0 13.1-.4 24.8-1.2 35.2h1.2c12-16.9 29.7-25.3 53.1-25.3zm-3.7 21.4c-17.5 0-30.1 5-37.8 15.1-7.7 10-11.6 26.8-11.6 50.6s4 40.8 11.9 51.1c7.9 10.2 20.6 15.3 38.1 15.3 15.7 0 27.5-5.7 35.2-17.1 7.7-11.5 11.6-28 11.6-49.5 0-22-3.9-38.4-11.6-49.2-7.7-10.9-19.6-16.3-35.8-16.3zM158.6 319.7c17.1 0 29.5-4.6 37.3-13.7 7.8-9.2 12-24.6 12.5-46.3V254c0-23.7-4-40.7-12-51.1-8-10.4-20.7-15.6-38.1-15.6-15 0-26.5 5.9-34.6 17.6-7.9 11.6-11.9 28.1-11.9 49.4s3.9 37.5 11.7 48.8c8 11.1 19.7 16.6 35.1 16.6zm-3.8 21.5c-21.8 0-38.8-7.7-51.1-23-12.2-15.3-18.4-36.7-18.4-64.2 0-27.7 6.2-49.3 18.5-64.8s29.5-23.3 51.5-23.3c23.1 0 40.9 8.7 53.4 26.2h1.4l3.7-23.1H234v245h-25.6v-72.4c0-10.3.6-19 1.7-26.2h-2c-11.8 17.2-29.6 25.8-53.3 25.8z"/></svg>