<svg version="1.1" id="icon" xmlns="http://www.w3.org/2000/svg" x="0" y="0" viewBox="0 0 512 512" xml:space="preserve"><style type="text/css">.st1{fill:#fff}</style><path d="M84.6 54.2c26.8-18 61.9-22.4 92.4-12.1 10.9 3.4 20.6 9.5 30.4 15 38.2-8.4 78.9-7.1 115.8 6.1 59 20.3 107.1 69.2 126.4 128.5 12.3 36.1 13.1 75.5 5 112.6 9.6 15.6 17.8 32.5 19.7 51 4.7 34.7-9.5 71.2-36 93.9-26 22.9-63.5 31.6-96.9 22.4-13.4-3.2-25.3-10.2-37-17-40.3 8.9-83.2 6.8-121.8-8.3-56.8-21.6-102.7-70-121-128.1-11.8-35.7-12.4-74.4-4.4-110.9-12.3-19.2-21-41.3-20.5-64.3-.4-35.1 18.4-69.6 47.9-88.8z" opacity=".1" fill="#fff"/><path class="st1" d="M493.2 297.7c6.9-40 3.8-81.7-9.5-120.1C464.5 121 423 72.3 370.3 44 323.1 18.3 267.1 9.6 214.1 18.8 167.2-8.5 104.9-5.8 60.7 26 31.5 46.4 10.4 78.1 3.2 113c-7.3 34.1-1.8 70.9 15.6 101.1-7.1 42.2-3.4 86.3 11.7 126.3C51.3 396.6 94 444.1 147.4 470.9c46 23.4 99.5 31 150.4 22.3 45.6 26.4 105.8 24.8 149.7-4.7 31.6-20.6 54.5-54.3 61.8-91.4 6.7-33.6.9-69.6-16.1-99.4zm-54.8 151.6c-26 22.9-63.5 31.6-96.9 22.4-13.4-3.2-25.3-10.2-37-17-40.3 8.9-83.2 6.8-121.8-8.3-56.9-21.6-102.8-70-121.1-128.1-11.8-35.7-12.4-74.4-4.4-110.9-12.3-19.2-21-41.3-20.5-64.3-.3-35.2 18.5-69.7 48-88.9 26.8-18 61.9-22.4 92.4-12.1 10.9 3.4 20.6 9.5 30.4 15 38.2-8.4 78.9-7.1 115.8 6.1 59 20.3 107.1 69.2 126.4 128.5 12.3 36.1 13.1 75.5 5 112.6 9.6 15.6 17.8 32.5 19.7 51 4.8 34.8-9.4 71.3-36 94z"/><path class="st1" d="M224.4 110.1c34.7-5.2 71.3.1 102.2 16.8 13.5 7.5 26.7 17.6 32.9 32.2 4.1 9.6 4.5 22.1-3 30.1-8.2 8.4-21.5 11-32.6 7.4-12.8-5.3-19-18.7-29.9-26.6-13.6-11.2-31.9-14.2-49-13.9-12.5.5-26 3.4-35 12.6-8.5 9-11.6 24.5-3.3 34.5 7.7 9 19.7 12.3 30.8 15.4 20.9 5.2 42.2 9.5 63.2 14.5 21.9 5 44 14.6 58.5 32.4 25 32.3 19.3 83.5-11.7 110-24.9 21.9-59.3 28.1-91.5 28.3-34.3-.5-71-7.5-97.3-31-13.2-12-24.4-29.9-20.3-48.3 4.3-18.3 29.5-25.3 43.8-14 10.9 8.8 16.8 22 27.3 31.2 12.6 11.5 30.1 16.1 46.8 15.7 16.4.4 33.8-4.6 45.1-17.1 7.6-8.5 11.7-21.2 6.7-32.1-4.1-10.2-14.6-15.7-24.6-18.4-18.5-4.8-37.1-9.3-55.6-14.1-20.3-4.9-41.4-9.5-58.9-21.6-13.6-9.1-24-23.1-27.3-39.3-5.5-25.3-1.6-54.3 16.8-73.7 16.7-18.6 41.6-27.2 65.9-31z"/></svg>