<svg version="1.1" id="icon" xmlns="http://www.w3.org/2000/svg" x="0" y="0" viewBox="0 0 512 512" xml:space="preserve"><style type="text/css">.st0,.st1{fill:#fff}.st1{opacity:.1}</style><path class="st0" d="M251.3 184L192 228.8l59.3 44.6z"/><path class="st0" d="M0 0v512h512V0H0zm91.7 176.5l21.4-7.1 51.9 39.1 86.3-85.4 51.6 22v167.2l-51.6 21.9L165 249l-51.9 39.1-21.4-7.2 52.8-52.2-52.8-52.2zm352.1 228.3l-93.9 39-281.7-94.9 281.7 41.9V68.2l93.9 39.1v297.5z"/><path class="st1" d="M349.9 68.2v322.6L68.2 348.9l281.7 94.9 93.9-39V107.3l-93.9-39.1z"/><path class="st1" d="M251.3 123.1L165 208.5l-51.9-39.1-21.4 7.1 52.8 52.2-52.8 52.2 21.4 7.2L165 249l86.3 85.2 51.6-21.9V145.1l-51.6-22zm0 60.9v89.4L192 228.8l59.3-44.8z"/></svg>