<svg version="1.1" xmlns="http://www.w3.org/2000/svg" x="0" y="0" viewBox="0 0 512 512" xml:space="preserve"><path d="M276.7 396.7c-.2-2.9-.4-4.8-.4-4.8s-8.8-59.6-19.4-77.3c-1.7-2.8.2-14.4 4.8-31.5 2.7 4.7 14.2 24.8 16.5 31.2 2.6 7.3 3.1 9.4 3.1 9.4s-6.3-32.3-16.6-51.2c2.3-7.6 5-16.1 8-25.1 3.9 6.9 13.3 23.4 15.3 29.2.4 1.2.8 2.2 1.1 3.1.1-.6.2-1.1.3-1.7-2.4-10-7-27.4-13.3-40.3 14.1-73.3 62.1-171.3 111.4-215H66.3c-21.5 0-39.1 17.6-39.1 39.2v354.3c0 21.5 17.6 39.1 39.1 39.1h211.6c-1.6-18.5-2.1-38.9-1.2-58.6" fill="#55aee1"/><path d="M66.3 443.3c-15 0-27.1-12.2-27.1-27.1V61.9c0-15 12.2-27.2 27.1-27.2h309.1c.2-.2.4-.4.5-.6 3.9-4.1 7.8-8 11.7-11.4H66.3c-21.5 0-39.1 17.6-39.1 39.2v354.3c0 21.5 17.6 39.1 39.1 39.1h211.6c-.3-3.9-.6-7.9-.8-12H66.3z" fill="#0f80cc"/><path d="M462.5 11.1c-22-19.6-48.6-11.7-74.9 11.6-3.9 3.5-7.8 7.3-11.7 11.4-45 47.7-86.7 136.1-99.7 203.6 5.1 10.2 9 23.3 11.6 33.3.7 2.6 1.3 5 1.7 7 1.1 4.8 1.8 8 1.8 8s-.4-1.5-2.1-6.3c-.3-.9-.7-1.9-1.1-3.1-.2-.5-.4-1.1-.7-1.7-2.9-6.8-11-21.2-14.6-27.5-3.1 9-5.8 17.4-8 25.1 10.3 18.9 16.6 51.2 16.6 51.2s-.5-2.1-3.1-9.4c-2.3-6.5-13.8-26.5-16.5-31.2-4.6 17.1-6.5 28.7-4.8 31.5 3.2 5.5 6.3 14.9 9 25.3 6.1 23.5 10.3 52 10.3 52s.1 1.9.4 4.8c-.8 19.7-.3 40.1 1.2 58.6 2 24.4 5.8 45.4 10.7 56.7l3.3-1.8c-7.1-22.1-10-51.2-8.7-84.6 1.9-51.2 13.7-112.9 35.4-177.2C355.3 151.3 406.3 73.5 453 36.3 410.4 74.7 352.8 199 335.6 245.1c-19.3 51.6-33 99.9-41.2 146.3 14.2-43.5 60.2-62.1 60.2-62.1s22.5-27.8 48.9-67.5c-15.8 3.6-41.7 9.8-50.4 13.4-12.8 5.4-16.3 7.2-16.3 7.2s41.5-25.3 77.1-36.7C462.8 168.5 516.1 59 462.5 11.1" fill="#003b57"/></svg>