<svg version="1.1" id="icon" xmlns="http://www.w3.org/2000/svg" x="0" y="0" viewBox="0 0 512 512" xml:space="preserve"><style type="text/css">.st1{fill:#ff9800}</style><path d="M512 472c0 22-18 40-40 40H40c-22 0-40-18-40-40V40C0 18 18 0 40 0h432c22 0 40 18 40 40v432z" fill="#4c4c4c"/><path class="st1" d="M402 257.1c0-4.4-3.3-7-7.3-5.7l-277.3 87.9c-4 1.3-7.3 5.9-7.3 10.4v89.9c0 4.4 3.3 7 7.3 5.7l277.3-87.9c4-1.3 7.3-5.9 7.3-10.4v-89.9z"/><path class="st1" d="M110 254.3c0 4.4 3.3 9.1 7.3 10.4l277.4 87.9c4 1.3 7.3-1.3 7.3-5.7V257c0-4.4-3.3-9.1-7.3-10.4l-277.4-87.9c-4-1.3-7.3 1.3-7.3 5.7v89.9z"/><path class="st1" d="M402 72.4c0-4.4-3.3-7-7.3-5.7l-277.3 87.9c-4 1.3-7.3 5.9-7.3 10.4v89.9c0 4.4 3.3 7 7.3 5.7l277.3-87.9c4-1.3 7.3-5.9 7.3-10.4V72.4z"/></svg>