<svg version="1.1" xmlns="http://www.w3.org/2000/svg" x="0" y="0" viewBox="0 0 512 512" xml:space="preserve"><path d="M11.1 255.4v212c0 18.4 15 33.4 33.4 33.4h423c18.4 0 33.4-15 33.4-33.4v-212H11.1z" fill="#4f4f51"/><path d="M11.1 451.3v16.1c0 18.4 15 33.4 33.4 33.4h423c18.4 0 33.4-15 33.4-33.4v-16.1H11.1z"/><path d="M467.5 11.1h-423c-18.4 0-33.4 15-33.4 33.4v210.9h489.7V44.5c.1-18.3-15-33.4-33.3-33.4z" fill="#7d7d7f"/><path d="M467.5 512h-423C20 512 0 492 0 467.5v-423C0 20 20 0 44.5 0h423C492 0 512 20 512 44.5v423c0 24.5-20 44.5-44.5 44.5zM44.5 22.3c-12.3 0-22.3 10-22.3 22.3v423c0 12.3 10 22.3 22.3 22.3h423c12.3 0 22.3-10 22.3-22.3v-423c0-12.3-10-22.3-22.3-22.3h-423z" fill="#e4e4e4"/><path d="M350.6 303.8c0 14.5-3.7 27.4-11.1 39-7.4 11.5-18.3 20.5-32.6 27.1s-31.2 9.8-50.8 9.8c-23.5 0-42.9-4.5-58.1-13.4-10.8-6.4-19.6-15-26.4-25.7-6.8-10.7-10.2-21.1-10.2-31.2 0-5.9 2-10.9 6.1-15.1s9.2-6.3 15.5-6.3c5.1 0 9.4 1.6 12.9 4.9s6.5 8.1 9 14.5c3 7.6 6.3 14 9.8 19.1s8.5 9.3 14.9 12.6c6.4 3.3 14.8 5 25.2 5 14.3 0 25.9-3.3 34.8-10s13.4-15 13.4-25c0-7.9-2.4-14.4-7.2-19.3-4.8-4.9-11-8.7-18.7-11.3-7.6-2.6-17.8-5.4-30.6-8.3-17.1-4-31.4-8.7-43-14.1-11.5-5.4-20.7-12.7-27.4-22-6.8-9.3-10.2-20.8-10.2-34.6 0-13.1 3.6-24.8 10.7-35s17.5-18.1 31-23.6 29.5-8.2 47.8-8.2c14.6 0 27.3 1.8 37.9 5.5 10.7 3.6 19.5 8.5 26.6 14.5 7 6 12.2 12.4 15.4 19 3.2 6.6 4.9 13.1 4.9 19.4 0 5.8-2 10.9-6.1 15.6-4.1 4.6-9.1 6.9-15.2 6.9-5.5 0-9.7-1.4-12.6-4.2s-6-7.3-9.3-13.6c-4.3-9-9.5-16.1-15.6-21.1-6.1-5.1-15.8-7.6-29.2-7.6-12.5 0-22.5 2.7-30.1 8.2s-11.5 12.1-11.5 19.8c0 4.8 1.3 8.9 3.9 12.4 2.6 3.5 6.2 6.5 10.7 9s9.1 4.5 13.8 5.9 12.3 3.5 23.1 6.2c13.4 3.2 25.6 6.6 36.5 10.4 10.9 3.8 20.1 8.4 27.8 13.9 7.6 5.4 13.6 12.3 17.9 20.6 4.2 8 6.3 18.2 6.3 30.3z" fill="#f89832"/></svg>