<svg version="1.1" xmlns="http://www.w3.org/2000/svg" x="0" y="0" viewBox="0 0 512 512" xml:space="preserve"><path d="M154.6 313c.1.1.2.3.2.4-9.6-16.9-15.1-36.4-15.1-57.4 0-64.3 52.1-116.3 116.3-116.3h228C441.7 56.8 355.4 0 256 0 165.6 0 86.2 46.8 40.7 117.5v.1L154.6 313z" fill="#db4437"/><path d="M356.8 314.2C336.7 349 299 372.4 256 372.4c-43.6 0-81.5-23.9-101.4-59.4L40.7 117.6C15 157.5 0 205 0 256c0 137.3 108.1 249.4 243.8 255.7l113-197.5z" fill="#0f9d58"/><path d="M484 139.7H256c64.3 0 116.3 52.1 116.3 116.3 0 21.2-5.6 41.1-15.6 58.2L243.8 511.7c4 .2 8.1.3 12.2.3 141.4 0 256-114.6 256-256 0-41.9-10.1-81.4-28-116.3z" fill="#ffcd40"/><circle cx="256" cy="256" r="116.3" fill="#f1f1f1"/><circle cx="256" cy="256" r="93.1" fill="#4285f4"/></svg>