<svg version="1.1" id="icon" xmlns="http://www.w3.org/2000/svg" x="0" y="0" viewBox="0 0 512 512" xml:space="preserve"><style type="text/css">.st2{fill:#b53937}</style><path d="M0 6.1L6.1 0h479.3L512 26.6v479.3l-6.1 6.1H6.1L0 505.9V6.1z" fill="#215093"/><path d="M50.2 512V208.9l411.6-.1V512H50.2z" fill="#fff"/><path class="st2" d="M73.3 261.3h365.3v6.2H73.3v-6.2zm0 61.3h365.3v6.2H73.3v-6.2zm0 61.5h365.3v6.2H73.3v-6.2z"/><path d="M123.4.5v168h275.5V.5H123.4zm230.2 158.1H287V17.7h66.7v140.9z" fill="#f2f3f3"/><path d="M11.8 472.6h27.8v27.8H11.8v-27.8zm460.8 0h27.8v27.8h-27.8v-27.8z" fill="#222f35"/><path class="st2" d="M50.2 447.7h411.6V512H50.2v-64.3z"/><path fill="#0c2f93" d="M41.8 43L31.5 67.7h4.1v14.4h12.3V67.7H52z"/></svg>