<svg version="1.1" id="icon" xmlns="http://www.w3.org/2000/svg" x="0" y="0" viewBox="0 0 512 512" xml:space="preserve"><style type="text/css">.st1{fill:#fff}</style><path opacity=".1" fill="#fff" d="M20.4 28.4h472.3v458.5H20.4z"/><path class="st1" d="M0 5.9v500.2h512V5.9H0zm471.3 460.6H41.8V46.6h429.5v419.9z"/><path class="st1" d="M132 299.2l-18.6 61.3H72.7L142 144.3h50.3l70.3 216.2h-42.4l-19.5-61.3H132zm61.8-29.9l-17-53.2c-4.1-13.2-7.6-27.9-10.9-40.5h-.6c-3.2 12.5-6.4 27.6-10.3 40.5l-16.7 53.2h55.5zM426.4 313.6c0 18.6.6 34 1.3 46.8h-34.6l-1.9-23.8h-.6c-6.7 11.3-22.1 27.3-50 27.3-28.6 0-54.6-17-54.6-68v-91.8h39.5v85.1c0 26 8.4 42.7 29.2 42.7 15.7 0 26-11.2 30.2-21.1 1.3-3.5 2.2-7.7 2.2-12.2v-94.3h39.5v109.3h-.2z"/></svg>