<svg version="1.1" xmlns="http://www.w3.org/2000/svg" x="0" y="0" viewBox="0 0 512 512" xml:space="preserve"><g fill="#fff"><path d="M437.8 115.4c-13.7-16.5-22-71.7-41.2-85.2-27.5-19.2-55.6-14.9-82.5 0-49.5 27.5-60.5 162.2-60.5 162.2s-44-109.9-60.5-129.2-44-30.2-74.2-30.2C88.7 33 64 68.7 61.2 85.1c-2.7 16.5-2.7 60.5-8.2 82.5s-59.9 47.5-52.2 88c11 57.7 46.4 63.2 85.2 63.2 23.9 0 62.3-14.6 92.5-27.9-24.2 18-58.5 44.5-70.5 58.1-19.2 22-88 99-88 99l22 16.5s49.5-71.5 79.7-107.2c30.2-35.7 101.7-88 101.7-88s-57.7 71.5-68.7 112.7-8.2 71.5 2.7 85.2c11 13.7 22 27.5 60.5 27.5s52.2-30.2 66-33c16.5 0 55 13.7 82.5 13.7s46.7-16.5 55-30.2c8.2-13.7 11-47.6 0-77-16.5-44-93.5-99-93.5-99s101.7 8.2 126.4 2.7 57.7-35.7 57.7-68.7c0-54.8-60.5-71.3-74.2-87.8zM325 203.3c-21.6 17.7-41.9 41.1-51.6 52.9 17.7 46.3 13.2 164.2 13.2 164.2s-11-140.2-33-164.9-153.9-68.7-153.9-68.7 131.1 25.3 163.4 53.2c14.9-11.4 44.2-33.8 62-47.7 24.7-19.2 82.4-55 82.4-55s-52.3 41.3-82.5 66z"/><path d="M325.1 192.3c-17.8 13.9-47.1 36.3-62 47.7-32.3-27.9-163.4-53.2-163.4-53.2s131.9 44 153.9 68.7 33 164.9 33 164.9 4.5-117.9-13.2-164.2c9.7-11.8 30-35.2 51.6-52.9 30.2-24.7 82.5-66 82.5-66s-57.7 35.8-82.4 55z" opacity=".1"/></g></svg>