<svg version="1.1" id="icon" xmlns="http://www.w3.org/2000/svg" x="0" y="0" viewBox="0 0 512 512" xml:space="preserve"><style type="text/css">.st1{opacity:.1;fill:#fff}</style><path d="M512 129.8L349.6 23.7 256 101.8l-93.5-78.1L0 129.8 95.1 206 0 282.1l105.2 68.6.3 47.1 150.7 90.5L407 397.8l.1-47.3 104.8-68.3-95.1-76.2 95.2-76.2zM26.1 280.3l93.5-74.8L256 289.7l-94.7 79-135.2-88.4zm124-74.8L256 140l105.9 65.4L256 270.8l-105.9-65.3zm241.6 183l-135.5 81.3-135.5-81.3v-29.7l40.7 26.6 94.9-78.8 94.7 78.8 40.7-26.6v29.7zm94.2-108.3l-135.2 88.4-94.7-79 136.3-84.3L256 121.2l-136.4 84.2-93.5-74.9 135.2-88.3 94.7 79 94.7-79 135.2 88.3-93.4 74.8 93.4 74.9z" fill="#fff"/><path class="st1" d="M161.3 42.2L26.1 130.5l93.5 74.9L256 121.2l-94.7-79zM26.1 280.3l135.2 88.4 94.7-79-136.4-84.2-93.5 74.8zm229.9 9.3l94.7 79 135.2-88.4-93.5-74.9L256 289.6z"/><path class="st1" d="M485.9 130.5L350.7 42.2l-94.7 79 136.4 84.2 93.5-74.9zM256.3 306.6l-94.9 78.8-40.7-26.6v29.7l135.5 81.3 135.5-81.3v-29.7L351 385.4l-94.7-78.8zM150.1 205.5L256 140l105.9 65.4L256 270.8z"/></svg>