<svg version="1.1" id="icon" xmlns="http://www.w3.org/2000/svg" x="0" y="0" viewBox="0 0 512 512" xml:space="preserve"><style type="text/css">.st1{fill:#fff}</style><path d="M459.5 511.9H79.4c-27.8 0-51.1-23.3-51.1-51.1v-354c0-27.8 23.3-51.1 51.1-51.1h380.1c27.8 0 51.1 23.3 51.1 51.1v355c0 27.7-23.3 50.1-51.1 50.1z" opacity=".1" fill="#fff"/><path class="st1" d="M459.5 75.6c8.1 0 15.8 3.3 21.8 9.3 6 6 9.3 13.7 9.3 21.8v355c0 7.9-3.2 15.5-9.1 21.2-5.9 5.8-13.7 9-22 9H79.4c-8.1 0-15.8-3.3-21.8-9.3-6-6-9.3-13.7-9.3-21.8V106.7c0-8.1 3.3-15.8 9.3-21.8 6-6 13.7-9.3 21.8-9.3h380.1m0-20H79.4c-27.8 0-51.1 23.3-51.1 51.1v354.1c0 27.8 23.3 51.1 51.1 51.1h380.1c27.8 0 51.1-22.4 51.1-50.2v-355c0-27.8-23.3-51.1-51.1-51.1z"/><path class="st1" d="M1.4 343.3s40.3-122.8 101.3-199S293.6 0 293.6 0s-83.4 127.3-114.7 206.2-31.3 186.5-31.3 186.5S99.1 373 65 363.1 1.4 343.3 1.4 343.3z"/><path class="st1" d="M107.2 69.1s91.5 98.6 112.1 188.3 33.1 231.3 33.1 231.3 73.5-39.4 110.3-55.6 91.5-40.3 91.5-40.3-80.7-156.9-152.4-222.3S107.2 69.1 107.2 69.1z"/></svg>