<?xml version="1.0" encoding="utf-8"?>
<!-- Generator: Adobe Illustrator 22.1.0, SVG Export Plug-In . SVG Version: 6.00 Build 0)  -->
<svg version="1.1" id="icon" xmlns="http://www.w3.org/2000/svg" xmlns:xlink="http://www.w3.org/1999/xlink" x="0px" y="0px"
	 viewBox="0 0 512 512" style="enable-background:new 0 0 512 512;" xml:space="preserve">
<style type="text/css">
	.st0{fill:#FFFFFF;}
	.st1{opacity:0.1;fill:#FFFFFF;enable-background:new    ;}
</style>
<path class="st0" d="M256,512C114.8,512,0,397.2,0,256S114.8,0,256,0s256,114.8,256,256S397.2,512,256,512z M256,17
	C124.2,17,17,124.2,17,256s107.2,239,239,239s239-107.2,239-239S387.8,17,256,17z"/>
<path id="path3795" class="st1" d="M461.9,256c0,113.7-92.1,206-205.8,206s-206-92.1-206-205.8V256c0-113.7,92.1-206,205.8-206
	s206,92.1,206,205.8L461.9,256L461.9,256z"/>
<g id="g3853" transform="translate(-145.998 29.128)">
	<path id="rect3801" class="st0" d="M275.2,328.7h253.6v32.5H275.2V328.7z"/>
	<path id="rect3803" class="st0" d="M275.2,288.2v32.4h107.5v-32.5H275.2V288.2z M421.2,288.2v32.4h107.6v-32.5H421.2V288.2z"/>
	<path id="rect3807" class="st0" d="M275.2,247.6v32.5h107.5v-32.5H275.2z M421.2,247.6v32.5h107.6v-32.5H421.2z"/>
	<path id="rect3809" class="st0" d="M275.2,207h253.6v32.5H275.2V207z"/>
	<path id="path3832" class="st0" d="M402,52c-23.7,0-43.9,11.2-58.2,25.8c-14.3,14.6-24.2,32.5-31.4,49.9
		c-14.5,34.7-18.8,68.6-18.8,68.6l-0.3,2.5h38.8c0.9-6,5.2-31,15.8-56.5c6-14.5,14.1-28.4,23.2-37.7c9.2-9.4,18.3-14.2,30.7-14.2
		s21.6,4.9,30.8,14.2c9.2,9.4,17.2,23.2,23.2,37.7c10.6,25.5,14.9,50.3,15.8,56.5h38.9l-0.3-2.5c0,0-4.3-33.9-18.7-68.6
		c-7.2-17.4-17-35.3-31.4-49.9S425.7,52,402,52z"/>
</g>
</svg>
