<svg version="1.1" id="icon" xmlns="http://www.w3.org/2000/svg" x="0" y="0" viewBox="0 0 512 512" xml:space="preserve"><style type="text/css">.st0{opacity:.1;fill:#fff;enable-background:new}.st1{fill:none;stroke:#fff;stroke-width:5;stroke-miterlimit:10}.st2{fill:#fff}</style><path class="st0" d="M458.4 79.4c-23.1-16.9-61-5-86.1 26.5 1.2 4.2 2.2 8.6 2.9 13.1 4.8 29.9-2.7 57.8-17.8 74.1 2.6 4.2 6 7.9 10.2 11 24.2 17.6 64.1 4 89.2-30.3 24.9-34.7 25.7-76.8 1.6-94.4z"/><path class="st1" d="M458.4 79.4c-23.1-16.9-61-5-86.1 26.5 1.2 4.2 2.2 8.6 2.9 13.1 4.8 29.9-2.7 57.8-17.8 74.1 2.6 4.2 6 7.9 10.2 11 24.2 17.6 64.1 4 89.2-30.3 24.9-34.7 25.7-76.8 1.6-94.4z"/><path class="st2" d="M185 265.6s2.2 10.4 0 15.3-17.3 19.1-17.3 19.1l31.7 4.3s4-10.8 4.9-17.7c1-6.9 0-15.2 0-15.2"/><path class="st2" d="M403.9 176.8c-8.5-4.9-20-7.8-31.9-10.1-6.9 21.6-21.4 37.3-40.3 40.4-31 4.9-61.8-26.5-68.7-70.2-.6-3.9-1-7.8-1.3-11.8-18.2-7.6-39.4-14.1-63.1-15.7-65.4-4.5-101.9 78.9-112.2 112.2s-14.8 60.3-10.3 103.2c4.5 43 30.2 86.9 45.2 102.9 15.1 16 34.9 36.2 63.2 36.2 37.8 0 51.4-28 54.5-41.4 4.3-23-17.6-67.3-47.5-68.9-29.8-1.6-38.4 17.3-38.4 30.2 0 12.8 15.1 27 26.6 27.6 11.6.6 24.1-7 22.7-17.9-1.3-10.9-9.7-5.7-9.7-5.7s1.9 9.7-6.4 10.3c-8.4.6-16-6.4-14.8-14.1 1.3-7.6 9.7-14.8 23.7-12.8 14.1 1.9 30.2 30.8 27.6 44.9-2.5 14.1-8.4 35.9-39.1 29.5-39.7-8.4-88.6-80.8-86.5-133.4 1.9-52.6 41.1-80.8 41.1-80.8s32.1 44.9 94.3 42.4c62.2-2.5 105.9-16.7 105.9-16.7s16.1 6.6 39.7 4.5c34.6-7 66.8-34 66.8-34s-21.3-39.4-41.1-50.8z"/><ellipse transform="rotate(-9.119 319.103 127.845)" class="st0" cx="319.1" cy="127.9" rx="56.8" ry="80.3"/><ellipse transform="rotate(-9.119 319.103 127.845)" class="st1" cx="319.1" cy="127.9" rx="56.8" ry="80.3"/><circle class="st2" cx="302.7" cy="141.1" r="13.3"/><circle class="st2" cx="445.1" cy="127.9" r="13.3"/><path class="st2" d="M42.9 295.1H4.3s-4.3 9-4.3 17.8c0 8.9 4.3 17.8 4.3 17.8h38.4v-35.6h.2z"/><path class="st2" d="M73.7 295.1H35.1s-4.3 9-4.3 17.8c0 8.9 4.3 17.8 4.3 17.8h38.4v-35.6h.2z"/><path class="st2" d="M423.1 295.1h-361s-4.3 9-4.3 17.8c0 8.9 4.3 17.8 4.3 17.8h361.1l88.9-17.8-89-17.8z"/><path class="st2" d="M423.1 295.1s-5.3 6.2-5.3 17.8 5.3 17.8 5.3 17.8l88.9-17.8-88.9-17.8z"/><path class="st2" d="M468.7 304.2s-2.2 4-2.2 8.7 2.2 8.7 2.2 8.7l43.3-8.7-43.3-8.7zM338.8 330.6c0 2.5 11.7 19.9 32.4 17.9 21.3-2.1 32.4-17.9 32.4-17.9h-21.1s-5.9 3.3-13.9 3.3c-8.1 0-12.7-1.1-15.2-3.3-2.5-2.2-2-4.9-8.1-4.9-4.6 0-6.5 2.4-6.5 4.9zM141.7 228.6s-7.6 15.1-8.4 28.5c-.7 13.5 5.5 32.2 5.5 32.2s-10.3 11.9-12 20.5c-.8 4.2-.6 9.2 4.8 16 5.5 7.1 10.7 10.7 13.1 11.3 4.8 1.2 7.9-.9 11.1-2.6s7.3-2.9 4.6-3.8c-8.2-.7-17.8-16.7-15.4-20.5s9.1-15.1 9.1-15.1h16.1s-18-21.2-17.8-27.3c.2-6 12.5-28.6 12.5-28.6M253.5 239.3s-7.2 15.4-4.8 27.9c2.4 12.5 18.9 27.9 18.9 27.9s-1.4 12.5 0 19.9c1.4 7.3 5.8 23.5 17.2 26.2 11.4 2.5 20.3-10.5 20.3-10.5h-15.2s-7.8-10.3-6.7-17.8c1.2-7.5 15.4-17.8 15.4-17.8h13.8s-9-9.5-17-9.3c-8.1.2-16.4 7.3-16.4 7.3s-5-9.3-6.5-11.1-7.2-19.4-5.8-25.9c1.4-6.4 9.3-17 9.3-17M312.4 263.5l30.4 31.5s-.7 1.8-3.6 7.6c-2.9 5.9-3.8 8.9-1.3 10.1 2.5 1.3 10-6 13.2-10.1 3.2-4 6.1-7.6 6.1-7.6h45.1s-15.7-10.5-26.8-11.1c-11.1-.6-21.8-1.1-21.8-1.1l-15.1-26"/></svg>