<svg version="1.1" id="icon" xmlns="http://www.w3.org/2000/svg" x="0" y="0" viewBox="0 0 512 512" xml:space="preserve"><style type="text/css">.st1{fill:#fff}</style><path d="M40 504V8h276.7L408 99.3V504H40z" opacity=".1" fill="#fff"/><path class="st1" d="M313.4 16l86.6 86.6V496H48V16h265.4M320 0H32v512h384V96L320 0z"/><path class="st1" d="M416 96h-96V0h-16v112h112V96zm-272 32c-19.1 0-29 18.9-31.8 30l-.2 1v161h16V161.1c1.1-3.5 6-17.1 16-17.1s14.9 13.6 16 17.1v127h16v-129l-.2-1C173 146.9 163.1 128 144 128zm96 64h-16v16h-16v16h16v16h16v-16h16v-16h-16zm80 16h-16v-16h-16v16h-16v16h16v16h16v-16h16z"/><path class="st1" d="M274.3 380h-.1l1.5 53.7 42-33.4-42.2-19.7 42.3 19.7 135.2-290L409.5 90z"/><path class="st1" d="M480 52.3L436.5 32l-13.6 29-13.5 29 43.5 20.2 13.5-28.9z"/></svg>