<svg version="1.1" id="icon" xmlns="http://www.w3.org/2000/svg" x="0" y="0" viewBox="0 0 512 512" xml:space="preserve"><style type="text/css">.st0{fill:#fff}</style><ellipse transform="rotate(-67.5 302.678 140.98)" class="st0" cx="302.7" cy="141" rx="13.3" ry="13.3"/><circle class="st0" cx="445.1" cy="127.8" r="13.3"/><g opacity=".1"><path class="st0" d="M379.1 138.1v1.5c0 1 0 2-.1 3 0 .4-.1.9-.1 1.3-.1.8-.1 1.6-.2 2.4 0 .3-.1.7-.1 1-.1 1.1-.3 2.2-.4 3.3 0 .2-.1.4-.1.6-.7 5.5-1.9 10.9-3.5 15.9 11 2.1 21.5 5 29.4 9.6 7.6 4.4 15.5 13 22.3 21.8 10.6-6.4 20.3-15.5 28.4-26.5 24.2-33.2 25.3-73.9 2.3-90.7-21.7-15.9-57.5-4.9-82.1 25 .3 1 .6 2 .8 3l.6 2.4.3 1.5c.2.5.3 1.1.4 1.7.2 1.2.4 2.3.6 3.5.2 1.2.3 2.5.5 3.7 0 .4.1.7.1 1 .2 1.2.3 2.3.4 3.5.1.3.1.6.1.9.1.9.1 1.8.2 2.7.1.4.1.9.1 1.3 0 1 .1 2.1.1 3.1v3.5zM265.5 136.2c6.3 39.5 32.4 68.7 59.8 68.7 2 0 4.1-.2 6.1-.5 9.1-1.4 17-6 23.6-12.9l.5-.5c.9-1 1.8-2 2.7-3.1l.1-.1c1.2-1.5 2.3-3.1 3.4-4.8.1-.2.3-.4.4-.6l.9-1.5c.2-.2.3-.5.5-.8.5-.7.9-1.5 1.3-2.3l.6-1.2c.2-.4.4-.9.6-1.3.2-.5.4-.9.6-1.4.3-.6.5-1.2.8-1.8.3-.5.5-1.1.7-1.6s.3-.9.5-1.4.3-.9.5-1.4l.6-1.8c.2-.6.4-1.2.6-1.9.2-.5.3-1.1.5-1.6.1-.4.2-.7.3-1.1.6-2 1-4 1.4-6.1 0-.3.1-.5.1-.8.4-2.1.8-4.4 1-6.6.1-.2.1-.4.1-.6.1-.7.1-1.4.2-2.2v-.3c.1-1.4.1-2.8.2-4.2v-7.1c-.1-.6-.1-1.2-.1-1.8 0-.5-.1-1-.1-1.5-.1-.9-.1-1.7-.2-2.6 0-.3-.1-.7-.1-1l-.3-3c0-.3-.1-.7-.1-1-.2-1.2-.3-2.3-.5-3.5-.2-1.1-.4-2.3-.6-3.4-.2-.7-.3-1.5-.5-2.2-.1-.3-.1-.7-.2-1-.2-1-.5-1.9-.7-2.9v-.1c-.2-1-.5-2.1-.8-3.1l-.4-1.2c-4.4-14.9-11.8-28.1-21.5-38-10.7-10.8-22.9-16.6-35.1-16.6-2 0-4.1.2-6.1.5-29.5 4.7-48.1 43-41.3 85.2z"/></g><path class="st0" d="M467.6 303.9l-44.4-8.9h-21s-15.7-10.5-26.8-11.1c-11.1-.6-21.8-1.1-21.8-1.1l-15.1-26s16.1 6.6 39.8 4.5c34.7-7.1 66.8-34 66.8-34s-6.6-12.1-15.9-24.8c11-6.8 21.1-16.2 29.4-27.6 25.9-35.4 26.5-79.3 1.3-97.7-23.2-16.9-60.5-6.6-86.6 23.3-4.7-14.4-12.2-27.2-21.8-36.9C338 49.7 321.8 43.5 306 46c-29.1 4.7-48.5 38.3-46.7 77.9-17.7-7.2-38-13.1-60.6-14.6-65.4-4.5-102 78.9-112.2 112.2-7.7 24.9-12.1 46.3-12 73.4H4.3s-4.3 9-4.3 17.8 4.3 17.8 4.3 17.8h72.5c6 41.1 30.1 81.9 44.5 97.2 15.1 16 35 36.2 63.2 36.2 37.8 0 51.4-28 54.5-41.4 4.3-23-17.6-67.3-47.5-69-29.8-1.6-38.5 17.3-38.5 30.1s15.1 26.9 26.6 27.6c11.5.6 24.1-7.1 22.8-18s-9.6-5.8-9.6-5.8 1.9 9.6-6.4 10.3c-8.3.6-16-6.4-14.8-14.1 1.3-7.7 9.6-14.8 23.7-12.8 14.1 1.9 30.1 30.8 27.6 44.9-2.6 14.1-8.3 35.9-39.1 29.5-35.2-7.4-77.5-65.2-85.4-114.8h37.3c3.8 3.9 7.1 6 8.9 6.4 4.8 1.2 8-.9 11.1-2.6s7.3-2.9 4.7-3.8H273c2.7 4.9 6.5 9.2 11.9 10.4 11.4 2.6 20.4-10.4 20.4-10.4h33.6c0 2.6 11.6 19.9 32.4 17.9 21.3-2.1 32.4-17.9 32.4-17.9h19.6l44.4-8.9 1.1-.2 16.9-3.4 26.4-5.3-44.5-8.7zm-328.8-14.7s-2.1 2.4-4.5 5.8h-35c8.3-41.7 39.1-63.8 39.1-63.8s.4.6 1.3 1.6c-2.3 5.4-5.9 15.2-6.4 24.2-.8 13.5 5.5 32.2 5.5 32.2zm46.2-8.3c-1.3 3.1-7.5 9.5-12.1 14.1h-2.6s-18-21.2-17.8-27.3c.1-3 3.3-10.3 6.5-16.8 7 5.2 15.7 10.5 26.2 14.6.6 4.8 1.2 12.1-.2 15.4zM457 81.3c23 16.8 21.9 57.5-2.3 90.7-8.1 11-17.8 20.1-28.4 26.5-6.8-8.8-14.7-17.4-22.3-21.8-7.9-4.6-18.4-7.5-29.4-9.6 1.6-5 2.8-10.4 3.5-15.9 0-.2.1-.4.1-.6.1-1.1.3-2.2.4-3.3 0-.3.1-.7.1-1 .1-.8.1-1.6.2-2.4 0-.4.1-.9.1-1.3.1-1 .1-2 .1-3v-5c0-1-.1-2.1-.1-3.1 0-.4 0-.9-.1-1.3-.1-.9-.1-1.8-.2-2.7 0-.3 0-.6-.1-.9-.1-1.2-.2-2.3-.4-3.5 0-.3-.1-.6-.1-1-.2-1.2-.3-2.5-.5-3.7s-.4-2.3-.6-3.5c-.1-.6-.2-1.2-.4-1.7l-.3-1.5-.6-2.4c-.2-1-.5-2-.8-3 24.6-29.9 60.4-40.9 82.1-25zM306.8 51c2-.3 4.1-.5 6.1-.5 12.2 0 24.4 5.8 35.1 16.6 9.7 9.9 17.1 23.1 21.5 38l.4 1.2c.3 1 .6 2.1.8 3.1v.1c.2 1 .5 1.9.7 2.9.1.3.1.7.2 1 .2.7.3 1.5.5 2.2.2 1.1.4 2.3.6 3.4.2 1.2.3 2.3.5 3.5 0 .3.1.7.1 1l.3 3c0 .3.1.7.1 1 .1.9.1 1.7.2 2.6 0 .5.1 1 .1 1.5 0 .6 0 1.2.1 1.8v7.1c-.1 1.4-.1 2.8-.2 4.2v.3c-.1.8-.1 1.5-.2 2.2 0 .2 0 .4-.1.6-.2 2.2-.6 4.5-1 6.6 0 .3-.1.5-.1.8-.4 2.1-.8 4.1-1.4 6.1-.1.4-.2.7-.3 1.1-.2.5-.3 1.1-.5 1.6-.2.7-.4 1.3-.6 1.9l-.6 1.8c-.2.5-.3.9-.5 1.4s-.3.9-.5 1.4-.4 1.1-.7 1.6c-.3.6-.5 1.2-.8 1.8-.2.5-.4.9-.6 1.4-.2.4-.4.9-.6 1.3l-.6 1.2c-.4.8-.8 1.6-1.3 2.3-.2.3-.3.6-.5.8l-.9 1.5c-.1.2-.3.4-.4.6-1.1 1.7-2.2 3.3-3.4 4.8l-.1.1c-.9 1.1-1.8 2.1-2.7 3.1l-.5.5c-6.6 6.9-14.5 11.5-23.6 12.9-2 .3-4.1.5-6.1.5-27.4 0-53.5-29.2-59.8-68.7-6.8-42.2 11.8-80.5 41.3-85.2zM202.5 295c.8-2.8 1.6-5.9 1.9-8.4.6-4.2.2-10.8-.1-15.3 8.6 1.8 18.1 2.6 28.4 2.2 6.1-.3 12.1-.6 17.8-1.1 4.9 11.2 17.2 22.6 17.2 22.6h-65.2zm109.9 0s-9-9.5-17-9.2c-8 .2-16.4 7.3-16.4 7.3s-5.1-9.3-6.5-11.1c-.7-.9-2.6-5.8-4.1-11.3 17.4-2 32.4-4.7 43.9-7.2l30.4 31.5h-30.3zm56.1 39c-8 0-12.7-1.1-15.2-3.3h29.1c0-.1-5.9 3.3-13.9 3.3z"/></svg>