<svg version="1.1" id="icon" xmlns="http://www.w3.org/2000/svg" x="0" y="0" viewBox="0 0 512 512" xml:space="preserve"><style type="text/css">.st0{opacity:.1;enable-background:new}.st0,.st1{fill:#fff}</style><path class="st0" d="M335.9 346c6.8 8.5 19.5 12.6 37.8 12.6 7.6 0 18.3-1.5 33.2-4.2l-1.5-28.3-26.8 1.1c-8.1 0-13-2.3-14.9-6.5-1.9-4.6-3-13.4-3-26.4v-71.5h44.7v-30.2h-44.7v-47h-35.1v47h-24.9v30.2h24.9v75.5c0 23.2 3.4 39.3 10.3 47.7zM272.9 312c5.7-16 8.5-37 8.5-63 0-39.4-6.8-68.7-20.2-87.5-13.4-18.7-36.6-28.3-70-28.3-33.2 0-57 9.6-70.4 28.7s-20.2 48.1-20.2 87.5c0 39 6.5 67.6 19.8 86 13 17.9 36.6 27.2 70.4 27.2 9.2 0 15.7-.8 19.8-1.9l28.7 47.4 33.2-15.7-26.8-43.6c12.7-8.6 21.8-20.7 27.2-36.8zm-40.2.8c-7.2 12.6-21.4 18.7-42.1 18.7s-34.7-6.5-42.1-19.1c-7.2-12.6-11.1-33.6-11.1-63s3.8-50.8 11.5-64.2c7.2-13.4 21.4-20.2 41.7-20.2s34 6.8 41.7 19.8c7.2 13.4 11.1 35.1 11.1 64.6.1 29.7-3.8 50.7-10.7 63.4z"/><path class="st1" d="M190.7 164.9c-20.2 0-34.4 6.8-41.7 20.2-7.6 13.4-11.5 34.7-11.5 64.2 0 29.4 3.8 50.4 11.1 63s21.4 19.1 42.1 19.1 34.7-6.1 42.1-18.7c6.8-12.6 10.7-33.6 10.7-63.4 0-29.4-3.8-51.2-11.1-64.6-7.7-12.9-21.4-19.8-41.7-19.8z"/><path class="st1" d="M462.4 67.4H71.2L0 138.5v306h440.9l71.1-71.1v-306h-49.6zM272.5 392.2l-33.2 15.7-28.7-47.4c-4.2 1.1-10.7 1.9-19.8 1.9-33.6 0-57.3-9.2-70.4-27.2-13.4-18.3-19.8-47-19.8-86 0-39.4 6.8-68.4 20.2-87.5s37-28.7 70.4-28.7 56.6 9.6 70 28.3c13.4 18.7 20.2 48.1 20.2 87.5 0 26-2.7 47-8.5 63-5.3 16-14.5 28.3-27.2 36.6l26.8 43.8zm101.2-33.6c-18.3 0-31-4.2-37.8-12.6-6.8-8.5-10.4-24.5-10.4-47.8v-75.3h-24.9v-30.2h24.9v-47h35.2v47h44.7v30.2h-44.7v71.5c0 13 1.1 21.7 3 26.4 1.9 4.2 6.8 6.5 14.9 6.5l26.8-1.1 1.5 28.3c-14.8 2.6-25.5 4.1-33.2 4.1z"/></svg>