<svg version="1.1" id="Layer_1" xmlns="http://www.w3.org/2000/svg" x="0" y="0" viewBox="0 0 512 512" xml:space="preserve"><style type="text/css">.st1{fill:#fff}</style><path d="M256 32.4c-51.6 82.5-152 256-152 317.4 0 77.5 68.2 140.5 152 140.5s152-63 152-140.5c0-61.5-100.4-234.9-152-317.4z" opacity=".1" fill="#fff"/><path class="st1" d="M256 510.2c-96.3 0-174.6-73.3-174.6-163.4 0-85.8 156.2-329.6 162.9-340 5.1-8 18.3-8 23.4 0 6.6 10.3 162.9 254.2 162.9 340 0 90.1-78.3 163.4-174.6 163.4zm0-469.9C206.2 120 109.3 287.4 109.3 346.7c0 74.8 65.8 135.6 146.7 135.6s146.7-60.8 146.7-135.6c0-59.3-96.9-226.7-146.7-306.4z"/><path class="st1" d="M255.1 331.9c-78.9-58.5-107.7 0-107.7 0-.9 4.6-1.9 8.4-1.9 12.1 0 56.6 49.2 103.1 110.5 103.1S366.5 400.7 366.5 344c0-3.7-.9-7.4-.9-12.1 0 0-43.7 49.2-110.5 0z"/></svg>