<svg version="1.1" id="Layer_1" xmlns="http://www.w3.org/2000/svg" x="0" y="0" viewBox="0 0 512 512" xml:space="preserve"><style type="text/css">.st0{fill:#fff;enable-background:new}</style><path class="st0" d="M.1 0v512h512V0H.1zm412.2 421.5c-22.3 19.6-54.4 27.1-83 19.2-11.5-2.7-21.7-8.7-31.7-14.6-34.5 7.6-71.3 5.8-104.3-7.1-48.7-18.5-88-60-103.7-109.7-10.1-30.6-10.6-63.7-3.8-95-10.5-16.4-18-35.4-17.6-55.1-.4-30.1 15.7-59.6 41-76.1 23-15.4 53-19.2 79.2-10.4 9.3 2.9 17.6 8.1 26 12.9 32.7-7.2 67.6-6.1 99.2 5.2 50.5 17.4 91.8 59.3 108.3 110.1 10.5 30.9 11.2 64.7 4.3 96.5 8.2 13.4 15.2 27.8 16.9 43.7 4 29.7-8.1 61-30.8 80.4z"/><path class="st0" d="M294.3 236.4c-17.9-4.3-36.2-7.9-54.1-12.4-9.5-2.7-19.8-5.5-26.4-13.2-7.1-8.6-4.5-21.9 2.8-29.6 7.7-7.9 19.3-10.4 30-10.8 14.7-.3 30.3 2.3 42 11.9 9.3 6.8 14.6 18.3 25.6 22.8 9.5 3.1 20.9.9 27.9-6.3 6.5-6.9 6.1-17.6 2.6-25.8-5.3-12.5-16.6-21.2-28.2-27.6-26.5-14.3-57.9-18.9-87.6-14.4-20.8 3.3-42.1 10.6-56.6 26.5-15.8 16.6-19.1 41.4-14.4 63.1 2.8 13.9 11.7 25.9 23.4 33.7 15 10.4 33.1 14.3 50.5 18.5 15.8 4.1 31.8 8 47.6 12.1 8.6 2.3 17.6 7.1 21.1 15.8 4.3 9.3.8 20.2-5.7 27.5-9.6 10.7-24.5 14.9-38.6 14.6-14.3.3-29.3-3.6-40.1-13.5-9-7.9-14.1-19.2-23.4-26.7-12.2-9.7-33.8-3.7-37.5 12-3.5 15.8 6.1 31.1 17.4 41.4 22.6 20.2 54 26.2 83.4 26.6 27.6-.1 57.1-5.4 78.4-24.2 26.5-22.7 31.4-66.5 10-94.2-12.4-15.3-31.3-23.5-50.1-27.8z"/><path d="M443.1 341.1c-1.7-15.9-8.7-30.3-16.9-43.7 6.9-31.8 6.2-65.6-4.3-96.5-16.5-50.8-57.8-92.7-108.3-110.1-31.6-11.3-66.5-12.4-99.2-5.2-8.4-4.8-16.7-10-26-12.9-26.2-8.8-56.2-5-79.2 10.4-25.3 16.5-41.4 46-41 76.1-.4 19.7 7.1 38.7 17.6 55.1-6.8 31.3-6.3 64.4 3.8 95 15.7 49.7 55 91.2 103.7 109.7 33 12.9 69.8 14.7 104.3 7.1 10 5.9 20.2 11.9 31.7 14.6 28.6 7.9 60.7.4 83-19.2 22.7-19.4 34.8-50.7 30.8-80.4zm-108.7 17.3c-21.3 18.8-50.8 24.1-78.4 24.2-29.4-.4-60.8-6.4-83.4-26.6-11.3-10.3-20.9-25.6-17.4-41.4 3.7-15.7 25.3-21.7 37.5-12 9.3 7.5 14.4 18.8 23.4 26.7 10.8 9.9 25.8 13.8 40.1 13.5 14.1.3 29-3.9 38.6-14.6 6.5-7.3 10-18.2 5.7-27.5-3.5-8.7-12.5-13.5-21.1-15.8-15.8-4.1-31.8-8-47.6-12.1-17.4-4.2-35.5-8.1-50.5-18.5-11.7-7.8-20.6-19.8-23.4-33.7-4.7-21.7-1.4-46.5 14.4-63.1 14.5-15.9 35.8-23.2 56.6-26.5 29.7-4.5 61.1.1 87.6 14.4 11.6 6.4 22.9 15.1 28.2 27.6 3.5 8.2 3.9 18.9-2.6 25.8-7 7.2-18.4 9.4-27.9 6.3-11-4.5-16.3-16-25.6-22.8-11.7-9.6-27.3-12.2-42-11.9-10.7.4-22.3 2.9-30 10.8-7.3 7.7-9.9 21-2.8 29.6 6.6 7.7 16.9 10.5 26.4 13.2 17.9 4.5 36.2 8.1 54.1 12.4 18.8 4.3 37.7 12.5 50.1 27.8 21.4 27.7 16.5 71.5-10 94.2z" opacity=".1" fill="#fff"/></svg>