<?xml version="1.0" encoding="utf-8"?>
<!-- Generator: Adobe Illustrator 22.1.0, SVG Export Plug-In . SVG Version: 6.00 Build 0)  -->
<svg version="1.1" id="Layer_1" xmlns="http://www.w3.org/2000/svg" xmlns:xlink="http://www.w3.org/1999/xlink" x="0px" y="0px"
	 viewBox="0 0 512 512" style="enable-background:new 0 0 512 512;" xml:space="preserve">
<style type="text/css">
	.st0{fill:#FFFFFF;enable-background:new    ;}
	.st1{opacity:0.1;fill:#FFFFFF;}
</style>
<g>
	<path class="st0" d="M0.1,0v512h512V0H0.1z M412.3,421.5c-22.3,19.6-54.4,27.1-83,19.2c-11.5-2.7-21.7-8.7-31.7-14.6
		c-34.5,7.6-71.3,5.8-104.3-7.1c-48.7-18.5-88-60-103.7-109.7c-10.1-30.6-10.6-63.7-3.8-95c-10.5-16.4-18-35.4-17.6-55.1
		c-0.4-30.1,15.7-59.6,41-76.1c23-15.4,53-19.2,79.2-10.4c9.3,2.9,17.6,8.1,26,12.9c32.7-7.2,67.6-6.1,99.2,5.2
		c50.5,17.4,91.8,59.3,108.3,110.1c10.5,30.9,11.2,64.7,4.3,96.5c8.2,13.4,15.2,27.8,16.9,43.7C447.1,370.8,435,402.1,412.3,421.5z"
		/>
	<path class="st0" d="M294.3,236.4c-17.9-4.3-36.2-7.9-54.1-12.4c-9.5-2.7-19.8-5.5-26.4-13.2c-7.1-8.6-4.5-21.9,2.8-29.6
		c7.7-7.9,19.3-10.4,30-10.8c14.7-0.3,30.3,2.3,42,11.9c9.3,6.8,14.6,18.3,25.6,22.8c9.5,3.1,20.9,0.9,27.9-6.3
		c6.5-6.9,6.1-17.6,2.6-25.8c-5.3-12.5-16.6-21.2-28.2-27.6c-26.5-14.3-57.9-18.9-87.6-14.4c-20.8,3.3-42.1,10.6-56.6,26.5
		c-15.8,16.6-19.1,41.4-14.4,63.1c2.8,13.9,11.7,25.9,23.4,33.7c15,10.4,33.1,14.3,50.5,18.5c15.8,4.1,31.8,8,47.6,12.1
		c8.6,2.3,17.6,7.1,21.1,15.8c4.3,9.3,0.8,20.2-5.7,27.5c-9.6,10.7-24.5,14.9-38.6,14.6c-14.3,0.3-29.3-3.6-40.1-13.5
		c-9-7.9-14.1-19.2-23.4-26.7c-12.2-9.7-33.8-3.7-37.5,12c-3.5,15.8,6.1,31.1,17.4,41.4c22.6,20.2,54,26.2,83.4,26.6
		c27.6-0.1,57.1-5.4,78.4-24.2l0,0c26.5-22.7,31.4-66.5,10-94.2C332,248.9,313.1,240.7,294.3,236.4z"/>
</g>
<path class="st1" d="M443.1,341.1c-1.7-15.9-8.7-30.3-16.9-43.7c6.9-31.8,6.2-65.6-4.3-96.5c-16.5-50.8-57.8-92.7-108.3-110.1
	c-31.6-11.3-66.5-12.4-99.2-5.2c-8.4-4.8-16.7-10-26-12.9c-26.2-8.8-56.2-5-79.2,10.4c-25.3,16.5-41.4,46-41,76.1
	c-0.4,19.7,7.1,38.7,17.6,55.1c-6.8,31.3-6.3,64.4,3.8,95c15.7,49.7,55,91.2,103.7,109.7c33,12.9,69.8,14.7,104.3,7.1
	c10,5.9,20.2,11.9,31.7,14.6c28.6,7.9,60.7,0.4,83-19.2C435,402.1,447.1,370.8,443.1,341.1L443.1,341.1z M334.4,358.4
	c-21.3,18.8-50.8,24.1-78.4,24.2c-29.4-0.4-60.8-6.4-83.4-26.6c-11.3-10.3-20.9-25.6-17.4-41.4c3.7-15.7,25.3-21.7,37.5-12
	c9.3,7.5,14.4,18.8,23.4,26.7c10.8,9.9,25.8,13.8,40.1,13.5c14.1,0.3,29-3.9,38.6-14.6c6.5-7.3,10-18.2,5.7-27.5
	c-3.5-8.7-12.5-13.5-21.1-15.8c-15.8-4.1-31.8-8-47.6-12.1c-17.4-4.2-35.5-8.1-50.5-18.5c-11.7-7.8-20.6-19.8-23.4-33.7
	c-4.7-21.7-1.4-46.5,14.4-63.1c14.5-15.9,35.8-23.2,56.6-26.5c29.7-4.5,61.1,0.1,87.6,14.4c11.6,6.4,22.9,15.1,28.2,27.6
	c3.5,8.2,3.9,18.9-2.6,25.8c-7,7.2-18.4,9.4-27.9,6.3c-11-4.5-16.3-16-25.6-22.8c-11.7-9.6-27.3-12.2-42-11.9
	c-10.7,0.4-22.3,2.9-30,10.8c-7.3,7.7-9.9,21-2.8,29.6c6.6,7.7,16.9,10.5,26.4,13.2c17.9,4.5,36.2,8.1,54.1,12.4
	c18.8,4.3,37.7,12.5,50.1,27.8C365.8,291.9,360.9,335.7,334.4,358.4L334.4,358.4z"/>
</svg>
