<?xml version="1.0" encoding="utf-8"?>
<!-- Generator: Adobe Illustrator 22.1.0, SVG Export Plug-In . SVG Version: 6.00 Build 0)  -->
<svg version="1.1" id="icon" xmlns="http://www.w3.org/2000/svg" xmlns:xlink="http://www.w3.org/1999/xlink" x="0px" y="0px"
	 viewBox="0 0 512 512" style="enable-background:new 0 0 512 512;" xml:space="preserve">
<style type="text/css">
	.st0{opacity:0.1;fill:#FFFFFF;enable-background:new    ;}
	.st1{fill:#FFFFFF;enable-background:new    ;}
</style>
<g>
	<path class="st0" d="M511.3,239.9c0.2-0.3,0.3-0.6,0.5-0.9C503.1,105.5,392.1,0,256.4,0h-0.6C120.1,0,9.1,105.5,0.3,239
		c0.2,0.3,0.3,0.6,0.5,0.9c-0.3,5.3-0.5,10.7-0.5,16.1c0,25.2,3.6,49.6,10.5,72.6c-0.1,0.3-0.2,0.7-0.3,1
		C42.1,435.1,139.9,512,255.7,512h0.6c115.8,0,213.7-76.9,245.2-182.4c-0.1-0.3-0.2-0.7-0.3-1c6.8-23,10.5-47.4,10.5-72.6
		C511.9,250.6,511.7,245.2,511.3,239.9L511.3,239.9z"/>
	<g>
		<path class="st1" d="M511.3,239.9c0.2-0.3,0.3-0.6,0.5-0.9C503.1,105.5,392.1,0,256.4,0h-0.6C120.1,0,9.1,105.5,0.3,239
			c0.1,0.1,0.1,0.2,0.2,0.3c0-0.2,0-0.2,0-0.2L138,295.7c3.8-2.5,7.8-4.6,12-6.3c9.7-4,19.8-5.8,30-5.3l62.6-90.9v-1.3
			c0-53.7,43.7-97.4,97.2-97.6c53.7,0,97.3,43.7,97.3,97.4s-43.7,97.5-97.3,97.5h-2.2L248,353.3c0.3,10-1.5,19.8-5.4,29.3
			c-15,36.1-56.7,53.3-92.8,38.2c-22.1-9.3-37-28.4-41.9-50.2l-97.1-40C42.7,435.6,140.3,512,255.7,512h0.6
			c115.8,0,213.7-76.9,245.2-182.4c-0.1-0.3-0.2-0.7-0.3-1c6.8-23,10.5-47.4,10.5-72.6C511.9,250.6,511.7,245.2,511.3,239.9
			L511.3,239.9z"/>
		<path class="st1" d="M159.6,392.1L127.9,379c5.6,11.7,15.3,21.6,28.2,26.9c27.8,11.5,59.9-1.6,71.6-29.6
			c5.6-13.5,5.6-28.5,0.1-41.9c-5.6-13.6-16.1-24.2-29.6-29.8c-13.4-5.5-27.7-5.4-40.4-0.6l32.8,13.6c20.6,8.5,30.3,32.2,21.7,52.8
			C203.8,390.9,180.2,400.7,159.6,392.1z"/>
		<path class="st1" d="M404.7,191.9c0-35.7-29.1-64.9-64.8-64.9c-35.7,0-64.8,29.1-64.8,64.9s29.1,64.9,64.8,64.9
			S404.7,227.6,404.7,191.9z M291.3,191.8c0-27,21.8-48.8,48.7-48.8s48.7,21.8,48.7,48.8s-21.8,48.8-48.7,48.8
			C313.2,240.5,291.3,218.7,291.3,191.8z"/>
	</g>
</g>
</svg>
