<?xml version="1.0" encoding="utf-8"?>
<!-- Generator: Adobe Illustrator 22.1.0, SVG Export Plug-In . SVG Version: 6.00 Build 0)  -->
<svg version="1.1" id="icon" xmlns="http://www.w3.org/2000/svg" xmlns:xlink="http://www.w3.org/1999/xlink" x="0px" y="0px"
	 viewBox="0 0 512 512" style="enable-background:new 0 0 512 512;" xml:space="preserve">
<style type="text/css">
	.st0{fill:#FFFFFF;}
	.st1{opacity:0.1;fill:#FFFFFF;}
</style>
<rect x="73.3" y="322.6" class="st0" width="365.3" height="6.2"/>
<rect x="73.3" y="261.3" class="st0" width="365.3" height="6.2"/>
<rect x="73.3" y="384.1" class="st0" width="365.3" height="6.2"/>
<polygon class="st0" points="287,158.6 353.6,158.6 353.7,158.6 353.7,17.7 287,17.7 "/>
<path class="st0" d="M485.4,0H6.1L0,6.1v499.8l6.1,6.1h499.8l6.1-6.1V26.6L485.4,0z M123.4,0.5h275.5v168H123.4V0.5z M39.6,500.4
	H11.8v-27.8h27.8V500.4z M47.9,82.1H35.6V67.7h-4.1L41.8,43L52,67.7h-4.1V82.1z M461.8,447.7H50.2V208.9l411.6-0.1V447.7z
	 M500.4,500.4h-27.8v-27.8h27.8V500.4z"/>
<path class="st1" d="M50.2,208.9v238.8h411.6V208.8L50.2,208.9z M438.6,390.3H73.3v-6.2h365.3V390.3z M438.6,328.8H73.3v-6.2h365.3
	V328.8z M438.6,267.5H73.3v-6.2h365.3V267.5z"/>
<path class="st1" d="M123.4,0.5v168h275.5V0.5H123.4z M353.6,158.6H287V17.7h66.7v140.9L353.6,158.6z"/>
<path class="st1" d="M11.8,472.6h27.8v27.8H11.8V472.6z M472.6,472.6h27.8v27.8h-27.8V472.6z"/>
<path class="st1" d="M41.8,43L31.5,67.7h4.1v14.4h12.3V67.7H52L41.8,43z"/>
</svg>
