<svg version="1.1" id="icon" xmlns="http://www.w3.org/2000/svg" x="0" y="0" viewBox="0 0 512 512" xml:space="preserve"><style type="text/css">.st0,.st1{fill:#fff}.st1{opacity:.1}</style><path class="st0" d="M73.3 322.6h365.3v6.2H73.3zM73.3 261.3h365.3v6.2H73.3zM73.3 384.1h365.3v6.2H73.3zM287 158.6H353.7V17.7H287z"/><path class="st0" d="M485.4 0H6.1L0 6.1v499.8l6.1 6.1h499.8l6.1-6.1V26.6L485.4 0zm-362 .5h275.5v168H123.4V.5zM39.6 500.4H11.8v-27.8h27.8v27.8zm8.3-418.3H35.6V67.7h-4.1L41.8 43 52 67.7h-4.1v14.4zm413.9 365.6H50.2V208.9l411.6-.1v238.9zm38.6 52.7h-27.8v-27.8h27.8v27.8z"/><path class="st1" d="M50.2 208.9v238.8h411.6V208.8l-411.6.1zm388.4 181.4H73.3v-6.2h365.3v6.2zm0-61.5H73.3v-6.2h365.3v6.2zm0-61.3H73.3v-6.2h365.3v6.2zM123.4.5v168h275.5V.5H123.4zm230.2 158.1H287V17.7h66.7v140.9h-.1zM11.8 472.6h27.8v27.8H11.8v-27.8zm460.8 0h27.8v27.8h-27.8v-27.8zM41.8 43L31.5 67.7h4.1v14.4h12.3V67.7H52L41.8 43z"/></svg>