<svg version="1.1" xmlns="http://www.w3.org/2000/svg" x="0" y="0" viewBox="0 0 512 512" xml:space="preserve"><g fill="#fff"><circle cx="256" cy="256" r="256" opacity=".1"/><path d="M506.7 293c-9.2-8.2-19-15.1-26.6-23.9-26.5-31.1-43-68.1-60.2-104.7-10.2-21.5-20.2-43.1-30-64.8-3.3-7.4-7.1-9.8-15.9-8.1-22.9 4.6-46.2 7.6-69.2 11.2-11.1 1.7-12.3 3.2-7.5 13.1 13.7 28.7 28 57.1 41.5 85.7 10.6 22.5 19.5 45.6 21.8 70.7 3.8 41.7-23.6 62.2-52 70.8-29.8 9.1-51.7-5.4-70.4-25.9-28.4-31-46.3-68.4-62.5-106.7-9.9-23.1-19-46.6-28.3-70-2.7-6.8-5.9-9.2-14-7.3-28.5 6.4-57.4 11.7-86 17.4-11 2.2-12 4.3-7.4 15.9 17.8 45.6 35.7 91.2 53.5 136.8 25 64 50 128 75.5 193.3 27.3 9.9 56.7 15.3 87.2 15.3 14.5 0 28.6-1.2 42.4-3.5-3.1-.9-5.5-3.3-7.7-7.5-14.7-27.8-29.9-55.1-44.9-82.7-.9-1.7-1.4-3.6-2.4-6.3 33.9 3.1 65.7 3.2 97-6.2 32.9-10 54.9-30.5 63.4-64.4.4-1.7 1-3.3 1.7-4.8.2-.6.8-1 1.7-2 20.7 22.3 46.5 33.3 78.9 34 11.2-22.7 19-47.4 22.9-73.4l-2.5-2z"/></g></svg>