<svg version="1.1" id="icon" xmlns="http://www.w3.org/2000/svg" x="0" y="0" viewBox="0 0 512 512" xml:space="preserve"><style type="text/css">.st1{fill:#a3c9d5}</style><path fill="#2f3044" d="M20.4 28.3h472.3v458.5H20.4z"/><path class="st1" d="M0 5.9v500.2h512V5.9H0zm471.3 460.6H41.8V46.6h429.6v419.9z"/><path class="st1" d="M144.1 142.7h39.5v183.2h88.9v33H144.1V142.7zM300.7 253c0-21.1-.3-36.2-1.3-50.3h34.3l1.3 29.8h1.3c7.7-22.1 26-33.4 42.7-33.4 3.8 0 6.1.3 9.3 1v37.2c-3.2-.6-6.7-1.3-11.6-1.3-18.9 0-31.8 12.2-35.3 29.8-.6 3.5-1.3 7.7-1.3 12.2v80.9h-39.5V253h.1z"/></svg>