<svg version="1.1" id="icon" xmlns="http://www.w3.org/2000/svg" x="0" y="0" viewBox="0 0 512 512" xml:space="preserve"><style type="text/css">.st0{fill:#76b83f}</style><path class="st0" d="M168.3 496.5l-23-59c-17.6-44.9-35-89.6-52.4-134.2-9.2-23.5-18.3-47-27.6-70.5-8.6-22-17.2-44.2-25.9-66.2-2.2-5.7-3.2-9.5-1.9-11.9 1.2-2.2 4.5-3.3 9.6-4.3 8.3-1.6 16.5-3.2 24.6-4.8 20.2-3.9 41.1-8 61.5-12.6 7.8-1.9 11.4.1 14.3 7.4l.4 1.1c8.9 22.7 18.1 46.1 27.8 68.9 14.7 34.7 32.8 74.3 62.4 106.6 15.8 17.1 37.9 35.7 70.2 25.8 21.1-6.5 56-24.2 51.8-70.6-2.4-26.5-12.3-50.6-21.8-70.6-7.7-16.4-15.9-33.1-23.7-49.2-5.8-11.9-11.9-24.3-17.7-36.5-2.2-4.7-3.3-7.7-2.2-9.7 1.1-2 4.3-2.8 10-3.7 6-.9 12.1-1.8 18-2.7 16.9-2.6 34.3-5.1 51.3-8.5 8.6-1.7 12.7.4 16.2 8.2 8.5 18.8 17.7 38.7 30 64.8 1.2 2.5 2.3 5 3.5 7.5 15.7 33.5 32 68.1 56.6 97.1 5.1 6 11.3 11.1 17.7 16.4 3 2.4 6 4.9 8.9 7.5l2.2 1.8C511 282 512 269.1 512 256 512 114.6 397.4 0 256 0S0 114.6 0 256c0 110.6 70.1 204.8 168.3 240.5z"/><path class="st0" d="M486.1 368.3h-.2c-32.4-.7-58.3-11.8-78.9-33.9l-.7.7c-.4.4-.7.7-.8 1-.6 1.5-1.3 3.2-1.7 4.8-4.2 16.6-11.7 30.6-22.6 41.4-10.5 10.3-24.3 18.2-41.1 23.2-33.8 10.1-67.8 8.8-96.7 6.2.3.8.6 1.5.8 2.2.5 1.5.9 2.7 1.5 3.8 4.7 8.7 9.6 17.4 14.2 26 10.2 18.7 20.6 37.8 30.7 56.8 2.2 4.2 4.6 6.5 7.6 7.4l1 .3.3.1c82.3-14.1 151.1-67.4 186.6-140z"/><path d="M506.9 292.8c-2.9-2.6-5.9-5.1-8.9-7.5-6.4-5.3-12.6-10.4-17.7-16.4-24.6-29-40.9-63.6-56.6-97.1-1.2-2.5-2.3-5-3.5-7.5-12.3-26.1-21.5-46-30-64.8-3.5-7.8-7.6-9.9-16.2-8.2-17 3.4-34.4 5.9-51.3 8.5-5.9.9-12 1.8-18 2.7-5.7.9-8.9 1.7-10 3.7s0 5 2.2 9.7c5.8 12.2 11.9 24.6 17.7 36.5 7.8 16.1 16 32.8 23.7 49.2 9.5 20 19.4 44.1 21.8 70.6 4.2 46.4-30.7 64.1-51.8 70.6-32.3 9.9-54.4-8.7-70.2-25.8-29.6-32.3-47.7-71.9-62.4-106.6-9.7-22.8-18.9-46.2-27.8-68.9l-.4-1.1c-2.9-7.3-6.5-9.3-14.3-7.4-20.4 4.6-41.3 8.7-61.5 12.6-8.1 1.6-16.3 3.2-24.6 4.8-5.1 1-8.4 2.1-9.6 4.3-1.3 2.4-.3 6.2 1.9 11.9 8.7 22 17.3 44.2 25.9 66.2 9.3 23.5 18.4 47 27.6 70.5 17.4 44.6 34.8 89.3 52.4 134.2l23 59v.1h.1c28 10.2 57.4 15.3 87.3 15.3 14.2 0 28.5-1.1 42.5-3.4l1.3-.2-1.3-.4c-3-.9-5.4-3.2-7.6-7.4-10.1-19-20.5-38.1-30.7-56.8-4.6-8.6-9.5-17.3-14.2-26-.6-1.1-1-2.3-1.5-3.8-.2-.7-.5-1.4-.8-2.2 28.9 2.6 62.9 3.9 96.7-6.2 16.8-5 30.6-12.9 41.1-23.2 10.9-10.8 18.4-24.8 22.6-41.4.4-1.6 1.1-3.3 1.7-4.8.1-.3.4-.6.8-1l.7-.7c20.6 22.1 46.5 33.2 78.9 33.9h.2l.1-.1c11.4-23.1 19-47.9 22.9-73.5v-.1l-2.2-1.8z" fill="#fff"/></svg>