<svg version="1.1" id="icon" xmlns="http://www.w3.org/2000/svg" x="0" y="0" viewBox="0 0 512 512" xml:space="preserve"><style type="text/css">.st1{fill:#c581ff}</style><path fill="#2e2a5e" d="M20.4 28.3h472.3v458.5H20.4z"/><path class="st1" d="M0 5.9v500.2h512V5.9H0zm471.3 460.6H41.8V46.6h429.6v419.9z"/><path class="st1" d="M139.3 298.1l-18.6 61.3H79.9l69.2-216.2h50.3l70.3 216.2h-42.4l-19.5-61.3h-68.5zm61.9-29.8l-17-53.2c-4.1-13.2-7.6-27.9-10.9-40.5h-.6c-3.2 12.5-6.4 27.6-10.3 40.5l-16.7 53.2h55.5zM322.2 292.3c1 28.3 23 40.5 48.1 40.5 18.3 0 31.4-2.5 43.3-7l5.7 27.3c-13.5 5.4-32.1 10-54.6 10-50.7 0-80.5-31.4-80.5-79.2 0-43.3 26.3-84 76.4-84 51 0 67.3 41.7 67.3 76 0 7.3-.6 13.2-1.3 16.7H322.2v-.3zm68.6-27.5c.3-14.4-6.1-38.1-32.4-38.1-24.4 0-34.6 22.1-36.2 38.1h68.6z"/></svg>