<?xml version="1.0" encoding="utf-8"?>
<!-- Generator: Adobe Illustrator 19.2.0, SVG Export Plug-In . SVG Version: 6.00 Build 0)  -->
<svg version="1.1" id="icon" xmlns="http://www.w3.org/2000/svg" xmlns:xlink="http://www.w3.org/1999/xlink" x="0px" y="0px"
	 viewBox="0 0 512 512" style="enable-background:new 0 0 512 512;" xml:space="preserve">
<style type="text/css">
	.st0{fill:#492536;}
	.st1{fill:#E43C99;}
</style>
<g>
	<rect x="21.9" y="29.8" class="st0" width="469.3" height="455.5"/>
	<g>
		<g>
			<path class="st1" d="M1.6,7.5v497h508.7V7.5H1.6z M469.9,465.1H43.1V47.9h426.8V465.1z"/>
		</g>
	</g>
	<path class="st1" d="M190.5,146.8v210.3h-38.4V146.8H190.5z"/>
	<path class="st1" d="M357.7,135.6v178.8c0,15.6,0.6,32.4,1.1,42.7h-31.4l-1.4-24h-0.6c-8.3,16.8-25.1,27.5-45.4,27.5
		c-33.1,0-59.4-30.9-59.4-77.7c-0.3-50.9,28.8-81.1,62.3-81.1c19.1,0,32.8,8.7,39.1,20h0.6v-86.1H357.7z M322.5,268.5
		c0-3.1-0.3-6.9-0.8-10c-3.1-15-14.3-27.1-30.3-27.1c-22.6,0-35.1,21.8-35.1,50.2c0,27.8,12.6,48,34.9,48
		c14.3,0,26.8-10.6,30.3-27.1c0.9-3.4,1.1-7.2,1.1-11.2V268.5z"/>
</g>
</svg>
