<svg version="1.1" id="icon" xmlns="http://www.w3.org/2000/svg" x="0" y="0" viewBox="0 0 512 512" xml:space="preserve"><style type="text/css">.st1{fill:#a7a0ea}</style><path d="M20.4 28.3h472.3v458.5H20.4V28.3z" fill="#282666"/><path class="st1" d="M0 5.9v500.2h512V5.9H0zm471.3 460.6H41.8V46.6h429.6v419.9h-.1z"/><path class="st1" d="M171.4 115.2h28.2v28.2h-28.2zM199.6 143.4h28.2v28.2h-28.2zM227.8 171.5H256v28.2h-28.2zM255.9 199.7h28.2v28.2h-28.2z"/><path class="st1" d="M255.9 143.4h28.2v28.2h-28.2zM340.4 284.1h28.2v28.2h-28.2zM368.6 312.3h28.2v28.2h-28.2zM368.6 256h28.2v28.2h-28.2zM312.2 199.7h28.2v28.2h-28.2zM368.6 199.7h28.2v28.2h-28.2zM312.2 143.4h28.2v28.2h-28.2z"/><path class="st1" d="M340.4 312.3h-28.2v-28.1h-28.1V256h28.1v28.1h28.2V256h-28.2v-28.1h-28.1V256h-28.2v-28.1h-28.1v-28.2h-28.2v-28.2h-28.2v-28.1h-28.1v-28.2h-28.2v281.6h281.6v-28.2h-28.1v-28.1h-28.2z"/></svg>