<svg version="1.1" xmlns="http://www.w3.org/2000/svg" x="0" y="0" viewBox="0 0 512 512" xml:space="preserve"><path d="M20.4 28.4h472.3v458.5H20.4V28.4z" fill="#4f0e3c"/><path d="M0 5.9v500.2h512V5.9H0zm471.3 460.6H41.8V46.6h429.6v419.9h-.1z" fill="#f93ec9"/><path d="M210.2 251.9l55.3 106.4c1 1.6.4 3.2-1.2 3.2h-34.4c-2.1 0-3.2-.6-4.2-2.6-12.7-26.1-25.5-52.2-38.7-80.3h-.4c-11.9 26.5-24.9 54.4-37.5 80.4-1 1.6-1.9 2.1-3.5 2.1h-32.7c-1.9 0-2.1-1.6-1.2-2.8l54.2-103.2-52.5-104.3c-1.2-1.6 0-2.8 1.2-2.8h34c1.9 0 2.8.4 3.5 2.1 12.4 26.1 25.1 53 37 79.2h.4c11.5-26.1 24.1-53.2 36.4-79.1 1-1.6 1.6-2.6 3.5-2.6h31.8c1.6 0 2.1 1.2 1.2 2.8l-52.2 101.5zm65 32.2c0-46.1 30.7-82 79.2-82 4.2 0 6.3 0 10.3.4v-52.4c0-1.2 1-1.9 1.9-1.9h31.2c1.6 0 1.9.6 1.9 1.6v181.5c0 5.4 0 12 1 19.4 0 1.2-.4 1.6-1.6 2.1-16.6 7.9-34 11.5-50.6 11.5-42.6.1-73.3-26.4-73.3-80.2zm89.6-50.6c-2.8-1.2-6.8-1.9-11.5-1.9-24.9 0-42.4 19.2-42.4 51 0 36.4 17.8 51 40.1 51 4.7 0 9.9-.6 13.6-2.1l.2-98z" fill="#ffd9f2"/></svg>