<?xml version="1.0" encoding="utf-8"?>
<!-- Generator: Adobe Illustrator 19.2.0, SVG Export Plug-In . SVG Version: 6.00 Build 0)  -->
<svg version="1.1" id="icon" xmlns="http://www.w3.org/2000/svg" xmlns:xlink="http://www.w3.org/1999/xlink" x="0px" y="0px"
	 viewBox="0 0 512 512" style="enable-background:new 0 0 512 512;" xml:space="preserve">
<style type="text/css">
	.st0{fill:#3B347E;}
	.st1{fill:#9BC5E9;}
</style>
<g>
	<rect x="21.9" y="30.6" class="st0" width="469.3" height="455.5"/>
	<g>
		<g>
			<path class="st1" d="M1.6,8.3v497h508.7V8.3H1.6z M469.9,465.9H43.1V48.7h426.8V465.9z"/>
		</g>
	</g>
	<path class="st1" d="M135.4,150.5c13.7-2.5,32.8-4.4,58.7-4.4c28.1,0,48.7,5.9,62.1,17.2c12.5,10.3,20.6,26.8,20.6,46.5
		c0,20-6.2,36.5-18.1,47.7c-15.3,15.3-39.3,22.5-66.5,22.5c-7.2,0-13.7-0.3-18.7-1.2V358h-38.1V150.5z M173.4,248.5
		c4.7,1.2,10.9,1.6,18.7,1.6c28.7,0,46.2-14,46.2-38.7c0-23.4-16.2-35.9-42.7-35.9c-10.6,0-18.1,0.9-22.1,1.9V248.5z"/>
	<path class="st1" d="M288.5,322.7c8.7,5.3,25.3,10.9,39,10.9c16.8,0,24.3-6.9,24.3-16.8c0-10.3-6.2-15.6-25-22.2
		c-29.6-10.3-42.1-26.5-41.8-44.3c0-26.8,22.2-47.7,57.4-47.7c16.8,0,31.5,4.4,40.2,9l-7.5,27.1c-6.6-3.7-18.7-8.7-32.1-8.7
		c-13.7,0-21.2,6.6-21.2,15.9c0,9.7,7.2,14.4,26.5,21.2c27.5,10,40.2,24,40.6,46.5c0,27.5-21.5,47.7-61.8,47.7
		c-18.4,0-34.9-4.7-46.2-10.9L288.5,322.7z"/>
</g>
</svg>
