<?xml version="1.0" encoding="utf-8"?>
<!-- Generator: Adobe Illustrator 22.1.0, SVG Export Plug-In . SVG Version: 6.00 Build 0)  -->
<svg version="1.1" id="icon" xmlns="http://www.w3.org/2000/svg" xmlns:xlink="http://www.w3.org/1999/xlink" x="0px" y="0px"
	 viewBox="0 0 512 512" style="enable-background:new 0 0 512 512;" xml:space="preserve">
<style type="text/css">
	.st0{fill:#2F3044;}
	.st1{fill:#A3C9D5;}
</style>
<g>
	<rect x="20.4" y="28.3" class="st0" width="472.3" height="458.5"/>
	<g>
		<g>
			<path class="st1" d="M0,5.9v500.2h512V5.9H0z M471.3,466.5H41.8V46.6h429.6V466.5z"/>
		</g>
	</g>
	<path class="st1" d="M144.1,142.7h39.5v183.2h88.9v33H144.1V142.7z"/>
	<path class="st1" d="M300.7,253c0-21.1-0.3-36.2-1.3-50.3h34.3l1.3,29.8h1.3c7.7-22.1,26-33.4,42.7-33.4c3.8,0,6.1,0.3,9.3,1v37.2
		c-3.2-0.6-6.7-1.3-11.6-1.3c-18.9,0-31.8,12.2-35.3,29.8c-0.6,3.5-1.3,7.7-1.3,12.2v80.9h-39.5V253H300.7z"/>
</g>
</svg>
