<svg version="1.1" id="icon" xmlns="http://www.w3.org/2000/svg" x="0" y="0" viewBox="0 0 512 512" xml:space="preserve"><style type="text/css">.st0{fill:#fbb500}</style><path class="st0" d="M0 6.4h512v499.2H0z"/><path fill="#261c00" d="M21.3 27.7h469.3v456.5H21.3z"/><path class="st0" d="M136.5 131.4c0-1.7.4-2.3 1.7-2.8 9.6-.4 36.3-1.1 57.2-1.1 63.6 0 74.9 37.1 74.9 59.5 0 25.4-12.4 39.9-21.3 47.1 12.8 6.2 31.6 22 31.6 54.6 0 43.3-34.8 69.8-87.7 69.3-22.6 0-43.1-.4-54-.6-1.7-.4-2.3-1.3-2.3-2.8-.1 0-.1-223.2-.1-223.2zm36.3 90.5h20.9c10 0 22.2-.6 27.1.4 7.3-6.2 13-15.4 13-30.3 0-21.3-15.1-32-39.5-32-8.3 0-16.2.4-21.5.6v61.3zm0 103.6c6.2.4 11.9 0 19.6 0 27.1 0 49.7-10.2 49.7-36.5 0-16.2-8.3-27.5-25.2-32.6-5.8-1.7-12.8-2.8-20.3-2.8h-23.9v71.9zm140.8-102.8c0-2.3 0-8.5-1.1-20.3 0-1.7.6-2.1 1.9-2.8 12.8-5.1 41.8-14.5 75.5-14.5 1.7 0 2.3.4 2.3 2.1v30.3c0 1.7 0 2.1-1.7 2.1-13-.6-31.6 1.1-38.8 4.1V356c0 1.7-.6 2.3-2.3 2.3h-33.5c-1.7 0-2.3-.6-2.3-2.3V222.7z"/></svg>