<svg version="1.1" id="icon" xmlns="http://www.w3.org/2000/svg" x="0" y="0" viewBox="0 0 512 512" xml:space="preserve"><style type="text/css">.st1{fill:#f476f4}</style><path d="M20.4 28.3h472.3v458.5H20.4V28.3z" fill="#600d5e"/><path class="st1" d="M0 5.9v500.2h512V5.9H0zm471.3 460.6H41.8V46.6h429.6v419.9h-.1z"/><path class="st1" d="M190.1 146.1v211.7h-38.6V146.1h38.6zM306.5 331c-25 0-46.9-12.1-48.1-40.2v-.3s-.6-5-.6-10.8.6-10.8.6-10.8v-.3c1.1-28.1 23.1-40.2 48.1-40.2 18.3 0 31.4 2.5 43.3 7l5.7-27.3c-13.5-5.4-32.1-10-54.6-10-50.7 0-80.5 31.4-80.5 79.2v4.8c0 47.8 29.8 79.2 80.5 79.2 22.5 0 41.1-4.6 54.6-10l-5.7-27.3c-11.9 4.5-25 7-43.3 7z"/></svg>