<?xml version="1.0" encoding="utf-8"?>
<!-- Generator: Adobe Illustrator 22.1.0, SVG Export Plug-In . SVG Version: 6.00 Build 0)  -->
<svg version="1.1" id="icon" xmlns="http://www.w3.org/2000/svg" xmlns:xlink="http://www.w3.org/1999/xlink" x="0px" y="0px"
	 viewBox="0 0 512 512" style="enable-background:new 0 0 512 512;" xml:space="preserve">
<style type="text/css">
	.st0{fill:#3B347E;}
	.st1{fill:#9BC5E9;}
</style>
<g>
	<rect x="20.4" y="28.3" class="st0" width="472.3" height="458.5"/>
	<path class="st1" d="M0,5.9v500.2h512V5.9H0z M471.3,466.5H41.8V46.6h429.6V466.5z"/>
	<path class="st1" d="M134.7,149c13.8-2.5,33-4.4,59.1-4.4c28.3,0,49,5.9,62.5,17.3c12.6,10.4,20.7,27,20.7,46.8
		c0,20.1-6.2,36.7-18.2,48c-15.4,15.4-39.6,22.6-66.9,22.6c-7.2,0-13.8-0.3-18.8-1.2v79.7h-38.3V149z M172.9,247.6
		c4.7,1.2,11,1.6,18.8,1.6c28.9,0,46.5-14.1,46.5-39c0-23.6-16.3-36.1-43-36.1c-10.7,0-18.2,0.9-22.2,1.9L172.9,247.6L172.9,247.6z"
		/>
	<path class="st1" d="M288.8,322.3c8.8,5.3,25.5,11,39.3,11c16.9,0,24.5-6.9,24.5-16.9c0-10.4-6.2-15.7-25.2-22.3
		c-29.8-10.4-42.4-26.7-42.1-44.6c0-27,22.3-48,57.8-48c16.9,0,31.7,4.4,40.5,9.1l-7.5,27.3c-6.6-3.7-18.8-8.8-32.3-8.8
		c-13.8,0-21.3,6.6-21.3,16c0,9.8,7.2,14.5,26.7,21.3c27.7,10.1,40.5,24.2,40.9,46.8c0,27.7-21.6,48-62.2,48
		c-18.5,0-35.1-4.7-46.5-11L288.8,322.3z"/>
</g>
</svg>
