<svg version="1.1" id="icon" xmlns="http://www.w3.org/2000/svg" x="0" y="0" viewBox="0 0 512 512" xml:space="preserve"><style type="text/css">.st1{fill:#e43c99}</style><path fill="#492536" d="M20.4 28.3h472.3v458.5H20.4z"/><path class="st1" d="M0 5.9v500.2h512V5.9H0zm471.3 460.6H41.8V46.6h429.6v419.9z"/><path class="st1" d="M190.1 146.1v211.7h-38.6V146.1h38.6zM358.4 134.8v180c0 15.7.6 32.6 1.1 43h-31.6l-1.4-24.2h-.6c-8.4 16.9-25.3 27.7-45.7 27.7-33.3 0-59.8-31.1-59.8-78.2-.3-51.2 29-81.6 62.7-81.6 19.2 0 33 8.8 39.4 20.1h.6v-86.7h35.3v-.1zM323 268.6c0-3.1-.3-6.9-.8-10.1-3.1-15.1-14.4-27.3-30.5-27.3-22.7 0-35.3 21.9-35.3 50.5 0 28 12.7 48.3 35.1 48.3 14.4 0 27-10.7 30.5-27.3.9-3.4 1.1-7.2 1.1-11.3v-22.9h-.1z"/></svg>