<svg version="1.1" xmlns="http://www.w3.org/2000/svg" x="0" y="0" viewBox="0 0 512 512" xml:space="preserve"><path d="M21.3 27.7h469.3v456.5H21.3V27.7z" fill="#1f0040"/><path d="M0 6.4v499.2h512V6.4H0zm21.3 21.3h469.3v456.5H21.3V27.7zm123.3 261.4l-16.9 63.8c-.4 1.7-1.1 2.3-3.2 2.3H93.2c-2.1 0-2.6-.6-2.1-3.2l60.6-211.8c1.1-3.8 1.7-6.8 2.1-17.5 0-1.5.6-2.1 1.7-2.1h44.8c1.5 0 2.1.4 2.6 2.1l67.8 229.8c.4 1.7 0 2.8-1.7 2.8h-35.2c-1.7 0-2.8-.6-3.2-2.1l-17.7-64h-68.3v-.1zm60-34.6c-6-23.7-20.5-75.3-25.8-100.3h-.4c-4.5 25-16.2 67.2-25 100.3h51.2zm114.3 21.8c.4 28.8 14.1 48.2 46.5 48.2 12.6 0 23.5-1.7 34.8-6.6 1.5-.6 2.6-.4 2.6 1.5V346c0 2.1-.6 3.2-2.1 4.3-11.3 5.5-25.4 8.1-42.9 8.1-56.3 0-77.4-41.6-77.4-88.1 0-50.3 26-91.5 71.9-91.5 46.5 0 62.7 39 62.7 70.8 0 10.2-.6 18.6-1.7 22.6-.4 1.7-1.1 2.3-2.8 2.8-4.3.6-16.9 1.5-35.6 1.5l-56-.2zm43.3-29.5c10.9 0 14.7 0 15.8-.4 0-1.5.4-2.6.4-3.6 0-11.5-5.5-32.9-27.7-32.9-20.5 0-29.2 17.9-31.4 36.9h42.9z" fill="#d291ff"/></svg>