<svg version="1.1" xmlns="http://www.w3.org/2000/svg" x="0" y="0" viewBox="0 0 512 512" xml:space="preserve"><path d="M21.3 27.7h469.3v456.5H21.3V27.7z" fill="#001d26"/><path d="M0 6.4v499.2h512V6.4H0zm21.3 21.3h469.3v456.5H21.3V27.7zm102.4 95.6c0-1.5 3-2.6 4.7-2.6 13.7-.6 33.9-1.1 55-1.1 59.1 0 82.1 32.4 82.1 74 0 54.2-39.3 77.4-87.5 77.4-8.1 0-10.9-.4-16.6-.4v81.9c0 1.7-.6 2.6-2.6 2.6h-32.6c-1.7 0-2.6-.6-2.6-2.6V123.3h.1zm38 113.3c4.9.4 8.7.4 17.3.4 25 0 48.4-8.7 48.4-42.7 0-27.1-16.9-40.7-45.2-40.7-8.5 0-16.6.4-20.5.6v82.4zm183.5-25.4c-16.9 0-22.6 8.5-22.6 15.6 0 7.7 3.8 13 26.5 24.7 33.5 16.2 43.9 31.8 43.9 54.6 0 34.1-26 52.5-61.2 52.5-18.6 0-34.6-3.8-43.7-9.2-1.5-.6-1.7-1.7-1.7-3.4v-31.4c0-2.1 1.1-2.8 2.6-1.7 13.4 8.7 28.8 12.6 42.9 12.6 16.9 0 23.9-7 23.9-16.6 0-7.7-4.9-14.5-26.5-25.6-30.3-14.5-42.9-29.2-42.9-53.8 0-27.5 21.5-50.3 58.9-50.3 18.3 0 31.1 2.8 38.2 6 1.7 1.1 2.1 2.8 2.1 4.3v29.2c0 1.7-1.1 2.8-3.2 2.1-9.5-6-23.4-9.6-37.2-9.6z" fill="#00c8ff"/></svg>