<?xml version="1.0" encoding="utf-8"?>
<!-- Generator: Adobe Illustrator 22.1.0, SVG Export Plug-In . SVG Version: 6.00 Build 0)  -->
<svg version="1.1" id="icon" xmlns="http://www.w3.org/2000/svg" xmlns:xlink="http://www.w3.org/1999/xlink" x="0px" y="0px"
	 viewBox="0 0 512 512" style="enable-background:new 0 0 512 512;" xml:space="preserve">
<style type="text/css">
	.st0{fill:#30415D;}
	.st1{fill:#3DEDE0;}
</style>
<g>
	<rect x="20.4" y="28.4" class="st0" width="472.4" height="458.5"/>
	<g>
		<g>
			<path class="st1" d="M0,5.9v500.2h512V5.9H0z M471.3,466.5H41.8v-420h429.5v419.9l0,0V466.5z"/>
		</g>
	</g>
	<path class="st1" d="M131.9,299.2l-18.6,61.3H72.7L142,144.3h50.3l70.3,216.2h-42.4l-19.5-61.3H131.9z M193.8,269.3l-17-53.2
		c-4.1-13.2-7.6-27.9-10.9-40.5h-0.6c-3.2,12.5-6.4,27.6-10.3,40.5l-16.7,53.2H193.8z"/>
	<path class="st1" d="M426.5,313.6c0,18.6,0.6,34,1.3,46.8h-34.6l-1.9-23.8h-0.6c-6.7,11.3-22.1,27.3-50,27.3
		c-28.6,0-54.6-17-54.6-68v-91.8h39.5v85.2c0,26,8.4,42.7,29.2,42.7c15.7,0,26-11.2,30.2-21.1c1.3-3.5,2.2-7.8,2.2-12.2v-94.3h39.5
		v109.3L426.5,313.6L426.5,313.6z"/>
</g>
</svg>
