<?xml version="1.0" encoding="utf-8"?>
<!-- Generator: Adobe Illustrator 22.1.0, SVG Export Plug-In . SVG Version: 6.00 Build 0)  -->
<svg version="1.1" id="icon" xmlns="http://www.w3.org/2000/svg" xmlns:xlink="http://www.w3.org/1999/xlink" x="0px" y="0px"
	 viewBox="0 0 512 512" style="enable-background:new 0 0 512 512;" xml:space="preserve">
<style type="text/css">
	.st0{fill:#432D4E;}
	.st1{fill:#D34FFA;}
</style>
<g>
	<rect x="20.4" y="28.4" class="st0" width="472.3" height="458.5"/>
	<g>
		<g>
			<path class="st1" d="M0,5.9v500.2h512V5.9H0z M471.3,466.5H41.8V46.6h429.6V466.5z"/>
		</g>
	</g>
	<path class="st1" d="M134.4,148.2c14.1-2.5,33.7-4.5,60.3-4.5c28.9,0,50,6.1,63.8,17.6c12.9,10.6,21.1,27.6,21.1,47.8
		c0,20.5-6.4,37.5-18.6,49.1c-15.7,15.7-40.5,23-68.3,23c-7.3,0-14.1-0.3-19.2-1.3v81.5h-39.2V148.2H134.4z M173.4,248.9
		c4.8,1.3,11.3,1.6,19.2,1.6c29.5,0,47.5-14.4,47.5-39.8c0-24.1-16.7-36.9-44-36.9c-10.9,0-18.6,1-22.7,1.9V248.9z"/>
	<path class="st1" d="M308.2,255.6c0-21.1-0.3-36.2-1.3-50.3h34.3l1.3,29.8h1.3c7.7-22.1,26-33.4,42.7-33.4c3.8,0,6.1,0.3,9.3,1
		v37.2c-3.2-0.6-6.7-1.3-11.6-1.3c-18.9,0-31.7,12.2-35.3,29.8c-0.6,3.5-1.3,7.6-1.3,12.2v80.8h-39.5V255.6H308.2z"/>
</g>
</svg>
