<svg version="1.1" id="icon" xmlns="http://www.w3.org/2000/svg" x="0" y="0" viewBox="0 0 512 512" xml:space="preserve"><style type="text/css">.st1{fill:#d10d03}</style><path d="M20.4 28.3h472.3v458.5H20.4V28.3z" fill="#4a1d26"/><path class="st1" d="M0 5.9v500.2h512V5.9H0zm471.3 460.6H41.8V46.6h429.6v419.9h-.1z"/><path class="st1" d="M137.6 302.8L119 364.1H78.5l69.3-216.2h50.3l70.3 216.2H226l-19.5-61.3h-68.9zm61.9-29.9l-17-53.2c-4.1-13.2-7.6-27.9-10.9-40.5h-.6c-3.2 12.5-6.4 27.6-10.3 40.5L144 272.9h55.5zm93.6-18.3c0-18.6-.6-34-1.3-46.8h34.6l1.9 23.8h.6c6.7-11.3 22.1-27.3 50-27.3 28.6 0 54.6 17 54.6 68v91.8H394v-85.2c0-26-8.4-42.7-29.2-42.7-15.7 0-26 11.2-30.2 21.1-1.3 3.5-2.2 7.8-2.2 12.2v94.3h-39.5V254.5l.2.1z"/></svg>