<svg version="1.1" id="icon" xmlns="http://www.w3.org/2000/svg" x="0" y="0" viewBox="0 0 512 512" xml:space="preserve"><style type="text/css">.st0{fill:#00e4bb}</style><path class="st0" d="M0 6.4h512v499.2H0z"/><path fill="#002620" d="M21.3 27.7h469.3v456.5H21.3z"/><path class="st0" d="M145.7 304l-16.4 61c-.4 1.7-1.1 3-3.2 3H95.6c-2.1 0-2.3-.6-2.1-3l59.1-205.7c1.1-3.8 1.7-7 2.1-17.5 0-1.5.6-2.1 1.7-2.1h43.5c1.3 0 2.1.4 2.3 2.1l66.3 223.4c.4 1.7 0 2.8-1.7 2.8h-34.3c-1.7 0-2.8-1.3-3-2.6l-17-61.4h-66.8zm58.1-34.1c-5.8-23-19.6-73.2-24.7-97.5h-.4c-4.3 24.3-15.4 65.3-23.9 97.5h49zm213.7 64.6c0 2.3.4 9.6 1.1 21.3 0 1.3-.2 2.1-1.5 2.3-18.1 6.8-38.8 14.1-64.2 14.1-31.1 0-61.2-11.9-61.2-60.2V202.2c0-1.7.6-2.8 2.3-2.8h33.5c1.7 0 2.3 1.1 2.3 2.8v105.4c0 20.3 8.7 31.1 30.1 31.1 8.5 0 15.8-1.7 21.1-3.8V202.2c0-1.7.6-2.8 2.3-2.8h31.4c2.1 0 2.3 1.1 2.3 2.8l.5 132.3z"/></svg>