<svg version="1.1" id="icon" xmlns="http://www.w3.org/2000/svg" x="0" y="0" viewBox="0 0 512 512" xml:space="preserve"><style type="text/css">.st1{fill:#9e8eff}</style><path d="M21.3 27.7h469.3v456.5H21.3V27.7z" fill="#0c004c"/><path class="st1" d="M0 6.4v499.2h512V6.4H0zm21.3 21.3h469.3v456.5H21.3V27.7z"/><path class="st1" d="M171.5 115.2h28.2v28.2h-28.2zM199.7 143.4h28.2v28.2h-28.2z"/><path class="st1" d="M227.8 171.5H256v28.2h-28.2zM256 199.7h28.2v28.2H256zM256 143.4h28.2v28.2H256zM340.5 284.1h28.2v28.2h-28.2zM368.7 312.3h28.2v28.2h-28.2zM368.7 256h28.2v28.2h-28.2zM312.3 199.7h28.2v28.2h-28.2zM368.7 199.7h28.2v28.2h-28.2zM312.3 143.4h28.2v28.2h-28.2z"/><path class="st1" d="M340.5 312.3h-28.2v-28.1h-28.1V256h28.1v28.1h28.2V256h-28.2v-28.1h-28.1V256H256v-28.1h-28.2v-28.2h-28.1v-28.2h-28.2v-28.1h-28.2v-28.2h-28.1v281.6h281.6v-28.2h-28.1v-28.1h-28.2z"/></svg>