<?xml version="1.0" encoding="utf-8"?>
<!-- Generator: Adobe Illustrator 22.1.0, SVG Export Plug-In . SVG Version: 6.00 Build 0)  -->
<svg version="1.1" id="icon" xmlns="http://www.w3.org/2000/svg" xmlns:xlink="http://www.w3.org/1999/xlink" x="0px" y="0px"
	 viewBox="0 0 512 512" style="enable-background:new 0 0 512 512;" xml:space="preserve">
<style type="text/css">
	.st0{fill:#2E2A5E;}
	.st1{fill:#C581FF;}
</style>
<g>
	<rect x="20.4" y="28.3" class="st0" width="472.3" height="458.5"/>
	<g>
		<g>
			<path class="st1" d="M0,5.9v500.2h512V5.9H0z M471.3,466.5H41.8V46.6h429.6V466.5z"/>
		</g>
	</g>
	<path class="st1" d="M139.3,298.1l-18.6,61.3H79.9l69.2-216.2h50.3l70.3,216.2h-42.4l-19.5-61.3H139.3z M201.2,268.3l-17-53.2
		c-4.1-13.2-7.6-27.9-10.9-40.5h-0.6c-3.2,12.5-6.4,27.6-10.3,40.5l-16.7,53.2H201.2z"/>
	<path class="st1" d="M322.2,292.3c1,28.3,23,40.5,48.1,40.5c18.3,0,31.4-2.5,43.3-7l5.7,27.3c-13.5,5.4-32.1,10-54.6,10
		c-50.7,0-80.5-31.4-80.5-79.2c0-43.3,26.3-84,76.4-84c51,0,67.3,41.7,67.3,76c0,7.3-0.6,13.2-1.3,16.7H322.2V292.3z M390.8,264.8
		c0.3-14.4-6.1-38.1-32.4-38.1c-24.4,0-34.6,22.1-36.2,38.1H390.8z"/>
</g>
</svg>
