<svg version="1.1" xmlns="http://www.w3.org/2000/svg" x="0" y="0" viewBox="0 0 512 512" xml:space="preserve"><path d="M21.6 27.7h469.3v456.5H21.6V27.7z" fill="#26000f"/><path d="M0 6.4v499.2h512V6.4H0zm21.3 21.3h469.3v456.5H21.3V27.7zm165.9 324.7c0 2.1-.4 2.8-2.8 2.8h-32.8c-2.1 0-2.8-1.1-2.8-2.8v-229c0-2.1 1.1-2.8 2.8-2.8h33.1c1.8 0 2.5.7 2.5 2.5v229.3zm37.7-82.6c0-51 33.7-90.8 87.5-90.8 4.6 0 7 0 11.3.3v-56.7c0-1.4 1.1-2.1 2.1-2.1h34.7c1.8 0 2.1.7 2.1 1.8v199.6c0 6 0 13.4 1.1 21.5 0 1.4-.4 1.8-1.9 2.5-18.3 8.8-37.7 12.7-56 12.7-47.1-.1-80.9-29.3-80.9-88.8zm98.8-56c-3.2-1.4-7.4-2.1-12.7-2.1-27.5 0-46.7 21.1-46.7 56.3 0 40.1 19.6 56.3 44.2 56.3 5.3 0 10.9-.7 15.1-2.5l.1-108z" fill="#ff408c"/></svg>