<svg version="1.1" xmlns="http://www.w3.org/2000/svg" x="0" y="0" viewBox="0 0 512 512" xml:space="preserve"><path d="M21.4 27.8h469.1v456.4H21.4V27.8z" fill="#0c2531"/><path d="M.1 6.5v499h511.8V6.5H.1zm21.3 21.3h469.1v456.4H21.4V27.8zm120.5 326.7c-2.6 0-3.2-1.1-3.2-3.2v-229c0-1.7.6-2.8 2.6-2.8H175c1.7 0 2.1.6 2.1 2.6v197.5H265c1.7 0 2.3.6 1.9 2.6l-5.3 30.3c-.4 1.7-1.5 2.6-3.2 2.6H141.9v-.6zm157.8-138c0-2.6 0-8.7-1.1-20.7 0-1.7.4-2.1 1.7-2.8 13-5.3 43.9-14.7 78.5-14.7 1.7 0 2.6.4 2.6 2.1v30.7c0 1.7-.6 2.1-2.6 2.1-13.4-.6-33.3 1.1-40.7 4.3v134.6c0 1.7-.6 2.6-2.6 2.6H302c-1.7 0-2.6-.6-2.6-2.6V216.5h.3z" fill="#aacee8"/></svg>