<?xml version="1.0" encoding="utf-8"?>
<!-- Generator: Adobe Illustrator 22.1.0, SVG Export Plug-In . SVG Version: 6.00 Build 0)  -->
<svg version="1.1" id="icon" xmlns="http://www.w3.org/2000/svg" xmlns:xlink="http://www.w3.org/1999/xlink" x="0px" y="0px"
	 viewBox="0 0 512 512" style="enable-background:new 0 0 512 512;" xml:space="preserve">
<style type="text/css">
	.st0{fill:#443725;}
	.st1{fill:#DFB502;}
</style>
<g>
	<rect x="20.4" y="28.3" class="st0" width="472.3" height="458.5"/>
	<g>
		<g>
			<path class="st1" d="M0,5.9v500.2h512V5.9H0z M471.3,466.5H41.8V46.6h429.6v419.9H471.3z"/>
		</g>
	</g>
	<path class="st1" d="M130,145.2c12.5-2.5,35.3-4.5,57.5-4.5c29.2,0,47.2,3.5,61.9,13.8c13.5,8.1,22.4,22.1,22.4,40.5
		c0,19.9-12.5,38.1-35.9,46.8v0.6c22.7,5.7,43.7,23.8,43.7,53.5c0,19.2-8.4,34.3-20.8,44.6c-15.4,13.5-40.8,20.2-80.2,20.2
		c-21.8,0-38.4-1.6-48.4-2.9V145.2H130z M169.2,230.5h20.2c27.3,0,42.7-12.9,42.7-31.1c0-20.2-15.4-29.5-40.5-29.5
		c-11.6,0-18.3,0.6-22.4,1.6V230.5L169.2,230.5z M169.2,330c5.1,1,11.9,1,20.8,1c25.4,0,47.8-9.7,47.8-36.2
		c0-25.1-21.8-35.3-49.1-35.3h-19.5L169.2,330L169.2,330z"/>
	<path class="st1" d="M313.3,252.7c0-21.1-0.3-36.2-1.3-50.3h34.3l1.3,29.8h1.3c7.7-22.1,26-33.3,42.7-33.3c3.8,0,6.1,0.3,9.3,1
		v37.2c-3.2-0.6-6.7-1.3-11.6-1.3c-18.9,0-31.8,12.2-35.3,29.8c-0.6,3.5-1.3,7.7-1.3,12.2v80.8h-39.5V252.7H313.3z"/>
</g>
</svg>
