<?xml version="1.0" encoding="utf-8"?>
<!-- Generator: Adobe Illustrator 19.2.0, SVG Export Plug-In . SVG Version: 6.00 Build 0)  -->
<svg version="1.1" id="icon" xmlns="http://www.w3.org/2000/svg" xmlns:xlink="http://www.w3.org/1999/xlink" x="0px" y="0px"
	 viewBox="0 0 512 512" style="enable-background:new 0 0 512 512;" xml:space="preserve">
<style type="text/css">
	.st0{fill:#3F3507;}
	.st1{fill:#FC9E10;}
</style>
<g>
	<rect x="21.9" y="30.6" class="st0" width="469.3" height="455.5"/>
	<g>
		<g>
			<path class="st1" d="M1.6,8.3v497h508.7V8.3H1.6z M469.9,465.9H43.1V48.7h426.8V465.9z"/>
		</g>
	</g>
	<path class="st1" d="M187,298.9l-18.1,59.6h-39.6l67.4-210.3h49L314,358.5h-41.2l-19-59.6H187z M247.2,269.9l-16.5-51.8
		c-4.1-12.8-7.5-27.1-10.6-39.3h-0.6c-3.1,12.2-6.2,26.8-10,39.3l-16.2,51.8H247.2z"/>
	<path class="st1" d="M369.8,164.2c0,11.5-8.4,20.6-21.8,20.6c-12.8,0-21.2-9-21.2-20.6c0-11.9,8.7-20.9,21.5-20.9
		C361.4,143.3,369.5,152.3,369.8,164.2z M328.9,358.5V206.6h38.7v151.9H328.9z"/>
</g>
</svg>
