<?xml version="1.0" encoding="utf-8"?>
<!-- Generator: Adobe Illustrator 19.2.0, SVG Export Plug-In . SVG Version: 6.00 Build 0)  -->
<svg version="1.1" id="icon" xmlns="http://www.w3.org/2000/svg" xmlns:xlink="http://www.w3.org/1999/xlink" x="0px" y="0px"
	 viewBox="0 0 512 512" style="enable-background:new 0 0 512 512;" xml:space="preserve">
<style type="text/css">
	.st0{fill:#0D0D0D;}
	.st1{fill:#F99614;}
</style>
<g>
	<path class="st0" d="M256,1.6C115.5,1.6,1.6,115.5,1.6,256S115.5,510.4,256,510.4S510.4,396.5,510.4,256S396.5,1.6,256,1.6z
		 M256,455.4c-110.1,0-199.4-89.3-199.4-199.4S145.9,56.6,256,56.6S455.4,145.9,455.4,256S366.1,455.4,256,455.4z"/>
	<circle class="st1" cx="256" cy="256" r="199.4"/>
	<polygon class="st0" points="281.5,296.4 199.1,296.4 256,197.9 307.4,287 307.4,287 341.2,345.5 397.3,345.5 256,100.2 
		114.3,345.5 309.8,345.5 	"/>
</g>
</svg>
