<?xml version="1.0" encoding="utf-8"?>
<!-- Generator: Adobe Illustrator 22.1.0, SVG Export Plug-In . SVG Version: 6.00 Build 0)  -->
<svg version="1.1" id="icon" xmlns="http://www.w3.org/2000/svg" xmlns:xlink="http://www.w3.org/1999/xlink" x="0px" y="0px"
	 viewBox="0 0 512 512" style="enable-background:new 0 0 512 512;" xml:space="preserve">
<style type="text/css">
	.st0{fill:#0D0D0D;}
	.st1{fill:#F99614;}
</style>
<g>
	<path class="st0" d="M256,0C114.6,0,0,114.6,0,256s114.6,256,256,256s256-114.6,256-256S397.4,0,256,0z M256,456.7
		c-110.8,0-200.7-89.9-200.7-200.7S145.2,55.3,256,55.3S456.7,145.2,456.7,256S366.8,456.7,256,456.7z"/>
	<circle class="st1" cx="256" cy="256" r="200.7"/>
	<polygon class="st0" points="281.7,296.7 198.7,296.7 256,197.5 307.7,287.2 307.7,287.2 341.7,346.1 398.2,346.1 256,99.2 
		113.4,346.1 310.1,346.1 	"/>
</g>
</svg>
