<?xml version="1.0" encoding="utf-8"?>
<!-- Generator: Adobe Illustrator 19.2.0, SVG Export Plug-In . SVG Version: 6.00 Build 0)  -->
<svg version="1.1" id="icon" xmlns="http://www.w3.org/2000/svg" xmlns:xlink="http://www.w3.org/1999/xlink" x="0px" y="0px"
	 viewBox="0 0 512 512" style="enable-background:new 0 0 512 512;" xml:space="preserve">
<style type="text/css">
	.st0{fill:#44B67E;}
	.st1{fill:#FFFFFF;}
</style>
<g>
	<circle class="st0" cx="256" cy="256" r="254.4"/>
	<path class="st1" d="M161.9,441c-8.3,0-15.7-2.1-22.1-6.2c-19.9-12.9-25.2-44.1-15.2-87.8c9.5-41.1,31.4-89.4,61.7-136.1
		c53.2-81.9,118.2-138.1,161.8-139.7c9.1-0.4,17.2,1.7,24,6.1c18.9,12.3,24.7,40.1,16.8,80.5c-0.9,4.4-5.2,7.3-9.6,6.4
		c-4.4-0.9-7.3-5.1-6.4-9.6c6.4-32.4,2.8-55.6-9.7-63.7c-3.9-2.5-8.8-3.7-14.5-3.5c-37.3,1.4-99.9,57.1-148.7,132.3
		c-29.3,45.2-50.5,91.7-59.5,130.9c-8.3,36.1-5.3,61.8,8.2,70.5c12.7,8.2,35.7,1.8,63.2-17.8c3.7-2.6,8.7-1.8,11.4,1.9
		c2.6,3.7,1.8,8.7-1.9,11.4C198.5,432.8,178.4,441,161.9,441z"/>
	<path class="st1" d="M412.6,329.7c-3.3,0-6.3-2-7.6-5.2c-1.6-4.2,0.5-8.9,4.6-10.5c27-10.5,42.3-23.8,43-37.6
		c0.8-16.1-18.2-33.6-52.2-48.1c-37.1-15.8-87.1-26-140.9-28.8c-10.8-0.6-21.2-0.8-30.8-0.8c-104.2,0.4-168,29.3-169.4,57.1
		c-0.7,13.7,13,28.5,38.7,41.8c4,2.1,5.6,7,3.5,11c-2.1,4-7,5.6-11,3.5c-32.2-16.6-48.6-36.3-47.5-57.1
		c2.2-42.3,78.6-72.2,185.6-72.5c10,0,20.6,0.2,31.7,0.8c55.6,2.9,107.6,13.6,146.4,30.1c41.3,17.6,63.4,40.3,62.1,63.9
		c-1.1,20.8-19.6,38.8-53.4,51.9C414.5,329.5,413.5,329.7,412.6,329.7z"/>
	<path class="st1" d="M335.4,450c-18.8,0-41.6-11.9-66.3-34.8c-30.9-28.7-61.8-71.9-87.1-121.5c-25.3-49.6-42-100-47.1-141.9
		c-5.4-44.6,3.2-75.1,24.3-85.8c4.3-2.2,9.1-3.5,14.3-3.9c16.8-1.3,37.5,7.8,59.7,26.3c3.5,2.9,3.9,8,1.1,11.5
		c-2.9,3.5-8,3.9-11.5,1.1c-18.7-15.5-35.8-23.5-48.1-22.6c-3,0.2-5.7,0.9-8.1,2.2c-28.2,14.3-22.8,102.4,29.9,205.8
		c24.4,48,54.2,89.5,83.7,117c27.1,25.2,50.9,35.5,65.2,28.2c26.9-13.7,23.5-95.1-24.3-194.4c-1.9-4.1-0.2-8.9,3.8-10.9
		c4.1-2,8.9-0.2,10.9,3.8c23,47.7,37.8,95.6,41.8,134.8c4.3,42-4.5,70.9-24.8,81.2C347.5,448.7,341.7,450,335.4,450z"/>
	<path class="st1" d="M280.4,256c0,13.5-10.9,24.4-24.4,24.4c-13.5,0-24.4-10.9-24.4-24.4l0,0c0-13.5,10.9-24.4,24.4-24.4
		C269.5,231.6,280.4,242.5,280.4,256z"/>
</g>
</svg>
