<svg version="1.1" id="icon" xmlns="http://www.w3.org/2000/svg" x="0" y="0" viewBox="0 0 512 512" xml:space="preserve"><style type="text/css">.st1{fill:#fff}</style><circle cx="256" cy="256" r="256" fill="#44b67e"/><path class="st1" d="M161.3 442.2c-8.4 0-15.8-2.1-22.2-6.2-20-13-25.4-44.4-15.3-88.4 9.6-41.4 31.6-90 62.1-137 53.5-82.4 118.9-139 162.8-140.6 9.2-.4 17.3 1.7 24.2 6.1 19 12.4 24.9 40.4 16.9 81-.9 4.4-5.2 7.3-9.7 6.4-4.4-.9-7.3-5.1-6.4-9.7 6.4-32.6 2.8-55.9-9.8-64.1-3.9-2.5-8.9-3.7-14.6-3.5-37.5 1.4-100.5 57.5-149.6 133.1-29.5 45.5-50.8 92.3-59.9 131.7-8.4 36.3-5.3 62.2 8.3 70.9 12.8 8.3 35.9 1.8 63.6-17.9 3.7-2.6 8.8-1.8 11.5 1.9 2.6 3.7 1.8 8.8-1.9 11.5-23.2 16.5-43.4 24.8-60 24.8z"/><path class="st1" d="M413.6 330.2c-3.3 0-6.3-2-7.6-5.2-1.6-4.2.5-9 4.6-10.6 27.2-10.6 42.6-23.9 43.3-37.8.8-16.2-18.3-33.8-52.5-48.4-37.3-15.9-87.6-26.2-141.8-29-10.9-.6-21.3-.8-31-.8-104.9.4-169.1 29.5-170.5 57.5-.7 13.8 13.1 28.7 38.9 42.1 4 2.1 5.6 7 3.5 11.1-2.1 4-7 5.6-11.1 3.5-32.4-16.7-48.9-36.5-47.8-57.5 2.2-42.6 79.1-72.7 186.8-73 10.1 0 20.7.2 31.9.8 55.9 2.9 108.3 13.7 147.3 30.3 41.6 17.7 63.8 40.6 62.5 64.3-1.1 20.9-19.7 39-53.7 52.2-.9.3-1.9.5-2.8.5z"/><path class="st1" d="M335.9 451.2c-18.9 0-41.9-12-66.7-35-31.1-28.9-62.2-72.4-87.6-122.3s-42.3-100.6-47.4-142.8c-5.4-44.9 3.2-75.6 24.5-86.3 4.3-2.2 9.2-3.5 14.4-3.9 16.9-1.3 37.7 7.8 60.1 26.5 3.5 2.9 3.9 8.1 1.1 11.6-2.9 3.5-8.1 3.9-11.6 1.1-18.8-15.6-36-23.6-48.4-22.7-3 .2-5.7.9-8.2 2.2-28.4 14.4-22.9 103 30.1 207.1 24.6 48.3 54.5 90.1 84.2 117.7 27.3 25.4 51.2 35.7 65.6 28.4 27.1-13.8 23.6-95.7-24.5-195.6-1.9-4.1-.2-9 3.8-11 4.1-2 9-.2 11 3.8 23.1 48 38 96.2 42.1 135.6 4.3 42.3-4.5 71.3-25 81.7-5.3 2.6-11.2 3.9-17.5 3.9z"/><path class="st1" d="M280.6 256c0 13.6-11 24.6-24.6 24.6s-24.6-11-24.6-24.6c0-13.6 11-24.6 24.6-24.6s24.6 11 24.6 24.6z"/></svg>