<svg version="1.1" id="icon" xmlns="http://www.w3.org/2000/svg" x="0" y="0" viewBox="0 0 512 512" xml:space="preserve"><style type="text/css">.st0{fill:#007ee5}</style><path class="st0" d="M150.5 17.9L0 116.3l104.1 83.4L256 105.9l-105.5-88zM0 283.1l150.5 98.4 105.5-88-151.9-93.8c0 .1-104.1 83.4-104.1 83.4zm256 10.3l105.5 88L512 282.9l-104.1-83.4L256 293.4z"/><path class="st0" d="M512 116.3L361.5 17.9l-105.5 88 151.9 93.8L512 116.3zm-255.7 196L150.6 400l-45.3-29.6v33.1L256.2 494l150.9-90.5v-33.1L361.8 400l-105.5-87.7z"/></svg>