<?xml version="1.0" encoding="utf-8"?>
<!-- Generator: Adobe Illustrator 19.2.0, SVG Export Plug-In . SVG Version: 6.00 Build 0)  -->
<svg version="1.1" id="icon" xmlns="http://www.w3.org/2000/svg" xmlns:xlink="http://www.w3.org/1999/xlink" x="0px" y="0px"
	 viewBox="0 0 512 512" style="enable-background:new 0 0 512 512;" xml:space="preserve">
<style type="text/css">
	.st0{fill:#FFFFFF;}
	.st1{fill:#007EE5;}
</style>
<g>
	<path class="st0" d="M510.4,130.6L349,25.2l-93,77.6l-92.9-77.6L1.6,130.6l94.5,75.7L1.6,281.9l104.5,68.2l0.3,46.8l149.8,89.9
		l149.9-89.9l0.1-47l104.1-67.9l-94.5-75.7L510.4,130.6z M256,122.6L256,122.6L256,122.6L256,122.6L256,122.6z"/>
	<path id="path2997" class="st1" d="M161.9,43.5L27.5,131.3l92.9,74.4L256,122L161.9,43.5z"/>
	<path id="path3001" class="st1" d="M27.5,280.1l134.4,87.8l94.1-78.5l-135.5-83.7L27.5,280.1z"/>
	<path id="path3005" class="st1" d="M256,289.4l94.1,78.5l134.4-87.8l-92.9-74.4L256,289.4z"/>
	<path id="path3009" class="st1" d="M484.5,131.3L350.1,43.5L256,122l135.5,83.7L484.5,131.3z"/>
	<path id="path3013" class="st1" d="M256.3,306.3l-94.3,78.3l-40.4-26.4v29.5l134.7,80.8L391,387.7v-29.5l-40.4,26.4L256.3,306.3z"
		/>
</g>
</svg>
