<?xml version="1.0" encoding="utf-8"?>
<!-- Generator: Adobe Illustrator 22.1.0, SVG Export Plug-In . SVG Version: 6.00 Build 0)  -->
<svg version="1.1" id="icon" xmlns="http://www.w3.org/2000/svg" xmlns:xlink="http://www.w3.org/1999/xlink" x="0px" y="0px"
	 viewBox="0 0 512 512" style="enable-background:new 0 0 512 512;" xml:space="preserve">
<style type="text/css">
	.st0{fill:#FFFFFF;}
	.st1{fill:#007EE5;}
</style>
<g>
	<path class="st0" d="M512,129.8L349.6,23.7L256,101.8l-93.5-78.1L0,129.8L95.1,206L0,282.1l105.2,68.6l0.3,47.1l150.7,90.5
		L407,397.8l0.1-47.3l104.8-68.3L416.8,206L512,129.8z M256,121.8L256,121.8L256,121.8L256,121.8L256,121.8z"/>
	<path id="path2997" class="st1" d="M161.3,42.2L26.1,130.5l93.5,74.9L256,121.2L161.3,42.2z"/>
	<path id="path3001" class="st1" d="M26.1,280.3l135.2,88.4l94.7-79l-136.4-84.2L26.1,280.3z"/>
	<path id="path3005" class="st1" d="M256,289.6l94.7,79l135.2-88.4l-93.5-74.9L256,289.6z"/>
	<path id="path3009" class="st1" d="M485.9,130.5L350.7,42.2l-94.7,79l136.4,84.2L485.9,130.5z"/>
	<path id="path3013" class="st1" d="M256.3,306.6l-94.9,78.8l-40.7-26.6v29.7l135.5,81.3l135.5-81.3v-29.7l-40.7,26.6L256.3,306.6z"
		/>
</g>
</svg>
