<svg version="1.1" id="icon" xmlns="http://www.w3.org/2000/svg" x="0" y="0" viewBox="0 0 512 512" xml:space="preserve"><style type="text/css">.st1{fill:#007ee5}</style><path d="M512 129.8L349.6 23.7 256 101.8l-93.5-78.1L0 129.8 95.1 206 0 282.1l105.2 68.6.3 47.1 150.7 90.5L407 397.8l.1-47.3 104.8-68.3-95.1-76.2 95.2-76.2zm-256-8z" fill="#fff"/><path id="path2997" class="st1" d="M161.3 42.2L26.1 130.5l93.5 74.9L256 121.2l-94.7-79z"/><path id="path3001" class="st1" d="M26.1 280.3l135.2 88.4 94.7-79-136.4-84.2-93.5 74.8z"/><path id="path3005" class="st1" d="M256 289.6l94.7 79 135.2-88.4-93.5-74.9L256 289.6z"/><path id="path3009" class="st1" d="M485.9 130.5L350.7 42.2l-94.7 79 136.4 84.2 93.5-74.9z"/><path id="path3013" class="st1" d="M256.3 306.6l-94.9 78.8-40.7-26.6v29.7l135.5 81.3 135.5-81.3v-29.7L351 385.4l-94.7-78.8z"/></svg>