<?xml version="1.0" encoding="utf-8"?>
<!-- Generator: Adobe Illustrator 22.1.0, SVG Export Plug-In . SVG Version: 6.00 Build 0)  -->
<svg version="1.1" id="icon" xmlns="http://www.w3.org/2000/svg" xmlns:xlink="http://www.w3.org/1999/xlink" x="0px" y="0px"
	 viewBox="0 0 512 512" style="enable-background:new 0 0 512 512;" xml:space="preserve">
<style type="text/css">
	.st0{fill:#F4F4F4;}
	.st1{fill:#1A8E44;}
	.st2{fill:#C82027;}
</style>
<g>
	<path class="st0" d="M459.5,512H79.4c-27.8,0-51.2-23.3-51.2-51.2V106.7c0-27.8,23.3-51.2,51.2-51.2h380.1
		c27.8,0,51.2,23.3,51.2,51.2v355.1C510.7,489.6,487.4,512,459.5,512z"/>
	<path class="st1" d="M1.3,343.4c0,0,40.3-122.8,101.3-199S293.6,0,293.6,0s-83.4,127.3-114.7,206.2s-31.3,186.5-31.3,186.5
		S99.1,373,65,363.1C30.8,353.2,1.3,343.4,1.3,343.4z"/>
	<path class="st2" d="M107.1,69.1c0,0,91.5,98.6,112.1,188.3s33.1,231.4,33.1,231.4s73.5-39.4,110.3-55.6s91.5-40.3,91.5-40.3
		S373.5,236,301.8,170.5S107.1,69.1,107.1,69.1z"/>
</g>
</svg>
