<svg version="1.1" xmlns="http://www.w3.org/2000/svg" x="0" y="0" viewBox="0 0 512 512" xml:space="preserve"><path d="M459.5 512H79.4c-27.8 0-51.2-23.3-51.2-51.2V106.7c0-27.8 23.3-51.2 51.2-51.2h380.1c27.8 0 51.2 23.3 51.2 51.2v355.1c0 27.8-23.3 50.2-51.2 50.2z" fill="#f4f4f4"/><path d="M1.3 343.4s40.3-122.8 101.3-199S293.6 0 293.6 0s-83.4 127.3-114.7 206.2-31.3 186.5-31.3 186.5S99.1 373 65 363.1c-34.2-9.9-63.7-19.7-63.7-19.7z" fill="#1a8e44"/><path d="M107.1 69.1s91.5 98.6 112.1 188.3 33.1 231.4 33.1 231.4 73.5-39.4 110.3-55.6 91.5-40.3 91.5-40.3S373.5 236 301.8 170.5 107.1 69.1 107.1 69.1z" fill="#c82027"/></svg>