<?xml version="1.0" encoding="utf-8"?>
<!-- Generator: Adobe Illustrator 19.2.0, SVG Export Plug-In . SVG Version: 6.00 Build 0)  -->
<svg version="1.1" id="icon" xmlns="http://www.w3.org/2000/svg" xmlns:xlink="http://www.w3.org/1999/xlink" x="0px" y="0px"
	 viewBox="0 0 512 512" style="enable-background:new 0 0 512 512;" xml:space="preserve">
<style type="text/css">
	.st0{fill:#FFFFFF;}
	.st1{fill:#5B297E;}
</style>
<g>
	<circle class="st0" cx="256" cy="256" r="254.4"/>
	<path class="st1" d="M389.4,112.8c0,0-21.3-6.8-69.7,26c-20.3-5.6-42-8.4-63.5-8.5c-21.6,0.1-43.3,2.9-63.5,8.5
		c-48.5-32.8-69.8-26-69.8-26c-13.8,34.9-5.1,60.7-2.5,67.1c-16.2,17.8-26.1,40.4-26.1,68.1c0,97.2,59.2,118.9,115.6,125.4
		c-7.3,6.3-13.8,17.5-16.1,33.9c-14.5,6.5-51.2,17.7-73.8-21.1c0,0-13.4-24.3-38.9-26.1c0,0-24.7-0.3-1.7,15.4
		c0,0,16.6,7.8,28.2,37.1c0,0,14.9,45.3,85.5,29.9c0.1,21.2,0.3,41.2,0.3,47.2c0,4.2-1.8,8.9-6.4,11.2c22,6.2,45.1,9.5,69,9.5
		c24,0,47.2-3.3,69.2-9.5c-4.4-2.3-6.1-6.9-6.1-11.1c0-8.4,0.3-35.7,0.3-69.6c0-23.7-8.1-39.1-17.2-47
		C358.7,366.9,418,345.4,418,248c0-27.7-9.8-50.3-26.1-68.1C394.5,173.5,403.2,147.7,389.4,112.8z M97.5,368.9
		c-0.6,1.3-2.5,1.6-4.3,0.8c-1.8-0.8-2.9-2.5-2.3-3.8c0.5-1.3,2.5-1.7,4.4-0.8C97.1,365.9,98.2,367.6,97.5,368.9z M110,380
		c-1.2,1.1-3.6,0.6-5.2-1.2c-1.7-1.8-2-4.1-0.7-5.3c1.2-1.1,3.5-0.6,5.2,1.2C111,376.6,111.3,378.9,110,380z M118.6,394.3
		c-1.6,1.1-4.1,0.1-5.7-2.2c-1.6-2.3-1.6-5,0-6c1.6-1.1,4.1-0.1,5.7,2.1C120.2,390.5,120.2,393.2,118.6,394.3z M133.1,410.8
		c-1.4,1.5-4.4,1.1-6.5-1c-2.2-2-2.8-4.9-1.4-6.5c1.4-1.5,4.4-1.1,6.6,1C133.9,406.3,134.5,409.3,133.1,410.8z M151.8,416.3
		c-0.6,2-3.5,2.9-6.3,2c-2.9-0.9-4.7-3.2-4.2-5.2c0.6-2,3.5-2.9,6.4-2C150.5,412,152.4,414.3,151.8,416.3z M167.7,422.6
		c-3,0.1-5.5-1.6-5.5-3.7c0-2.1,2.4-3.8,5.4-3.9c3-0.1,5.5,1.6,5.5,3.7C173.1,420.8,170.7,422.5,167.7,422.6z M189.2,422.6
		c-2.9,0.5-5.7-0.7-6-2.7c-0.4-2.1,1.8-4.2,4.7-4.7c3-0.5,5.7,0.7,6.1,2.8C194.3,419.9,192.2,422,189.2,422.6z"/>
</g>
</svg>
