<?xml version="1.0" encoding="utf-8"?>
<!-- Generator: Adobe Illustrator 21.0.2, SVG Export Plug-In . SVG Version: 6.00 Build 0)  -->
<svg version="1.1" id="icon" xmlns="http://www.w3.org/2000/svg" xmlns:xlink="http://www.w3.org/1999/xlink" x="0px" y="0px"
	 viewBox="0 0 512 512" style="enable-background:new 0 0 512 512;" xml:space="preserve">
<style type="text/css">
	.st0{fill:#FFFFFF;}
	.st1{fill:#5B297E;}
</style>
<circle class="st0" cx="256" cy="256" r="254.4"/>
<path class="st1" d="M256,24.3C128,24.3,24.3,128,24.3,256c0,104.5,69.2,192.8,164.2,221.7c8.2-1.6,11.3-12.8,11.3-18
	c0-5.4-0.2-19.7-0.3-38.7c-63.2,13.7-76.6-30.5-76.6-30.5c-10.3-26.3-25.2-33.3-25.2-33.3c-20.6-14.1,1.6-13.8,1.6-13.8
	C122,345.1,134,367,134,367c20.3,34.7,53.2,24.7,66.2,18.9c2.1-14.7,7.9-24.7,14.4-30.4c-50.5-5.7-103.6-25.2-103.6-112.4
	c0-24.8,8.9-45.1,23.4-61c-2.3-5.8-10.1-28.9,2.2-60.2c0,0,19.1-6.1,62.5,23.3c18.1-5,37.6-7.6,56.9-7.7c19.3,0.1,38.8,2.6,56.9,7.7
	c43.4-29.4,62.5-23.3,62.5-23.3c12.4,31.3,4.6,54.4,2.3,60.2c14.6,15.9,23.4,36.2,23.4,61c0,87.4-53.2,106.6-103.8,112.2
	c8.2,7,15.4,20.9,15.4,42.1c0,30.4-0.3,61.9-0.3,69.4c0,4.9,2.7,10.6,9.9,11.3c95.6-28.6,165.3-117.2,165.3-222
	C487.7,128,384,24.3,256,24.3z"/>
</svg>
