<?xml version="1.0" encoding="utf-8"?>
<!-- Generator: Adobe Illustrator 19.2.0, SVG Export Plug-In . SVG Version: 6.00 Build 0)  -->
<svg version="1.1" id="icon" xmlns="http://www.w3.org/2000/svg" xmlns:xlink="http://www.w3.org/1999/xlink" x="0px" y="0px"
	 viewBox="0 0 512 512" style="enable-background:new 0 0 512 512;" xml:space="preserve">
<style type="text/css">
	.st0{fill:#DB4437;}
	.st1{fill:#0F9D58;}
	.st2{fill:#FFCD40;}
	.st3{fill:#F1F1F1;}
	.st4{fill:#4285F4;}
</style>
<g>
	<path class="st0" d="M155.2,312.6c0.1,0.1,0.2,0.3,0.2,0.4c-9.5-16.8-15-36.2-15-57c0-63.9,51.8-115.6,115.6-115.6h226.6
		C440.5,58,354.8,1.6,256,1.6c-89.8,0-168.7,46.5-214,116.8v0.1L155.2,312.6z"/>
	<path class="st1" d="M356.2,313.8L356.2,313.8c-20,34.6-57.4,57.8-100.2,57.8c-43.3,0-81-23.8-100.8-59L42,118.5
		C16.5,158.1,1.6,205.3,1.6,256c0,136.4,107.4,247.8,242.3,254.1L356.2,313.8z"/>
	<path class="st2" d="M482.6,140.4H256c63.9,0,115.6,51.8,115.6,115.6c0,21.1-5.6,40.8-15.5,57.8l0,0L243.9,510.1
		c4,0.2,8,0.3,12.1,0.3c140.5,0,254.4-113.9,254.4-254.4C510.4,214.4,500.4,175.1,482.6,140.4z"/>
	<circle class="st3" cx="256" cy="256" r="115.6"/>
	<circle class="st4" cx="256" cy="256" r="92.5"/>
</g>
</svg>
