<?xml version="1.0" encoding="utf-8"?>
<!-- Generator: Adobe Illustrator 22.1.0, SVG Export Plug-In . SVG Version: 6.00 Build 0)  -->
<svg version="1.1" id="icon" xmlns="http://www.w3.org/2000/svg" xmlns:xlink="http://www.w3.org/1999/xlink" x="0px" y="0px"
	 viewBox="0 0 512 512" style="enable-background:new 0 0 512 512;" xml:space="preserve">
<style type="text/css">
	.st0{fill:#DB4437;}
	.st1{fill:#0F9D58;}
	.st2{fill:#FFCD40;}
	.st3{fill:#F1F1F1;}
	.st4{fill:#4285F4;}
</style>
<g>
	<path class="st0" d="M154.6,313c0.1,0.1,0.2,0.3,0.2,0.4c-9.6-16.9-15.1-36.4-15.1-57.4c0-64.3,52.1-116.3,116.3-116.3h228
		C441.7,56.8,355.4,0,256,0C165.6,0,86.2,46.8,40.7,117.5v0.1L154.6,313z"/>
	<path class="st1" d="M356.8,314.2L356.8,314.2c-20.1,34.8-57.8,58.2-100.8,58.2c-43.6,0-81.5-23.9-101.4-59.4L40.7,117.6
		C15,157.5,0,205,0,256c0,137.3,108.1,249.4,243.8,255.7L356.8,314.2z"/>
	<path class="st2" d="M484,139.7H256c64.3,0,116.3,52.1,116.3,116.3c0,21.2-5.6,41.1-15.6,58.2l0,0L243.8,511.7
		c4,0.2,8.1,0.3,12.2,0.3c141.4,0,256-114.6,256-256C512,214.1,501.9,174.6,484,139.7z"/>
	<circle class="st3" cx="256" cy="256" r="116.3"/>
	<circle class="st4" cx="256" cy="256" r="93.1"/>
</g>
</svg>
