<?xml version="1.0" encoding="utf-8"?>
<!-- Generator: Adobe Illustrator 22.1.0, SVG Export Plug-In . SVG Version: 6.00 Build 0)  -->
<svg version="1.1" id="icon" xmlns="http://www.w3.org/2000/svg" xmlns:xlink="http://www.w3.org/1999/xlink" x="0px" y="0px"
	 viewBox="0 0 512 512" style="enable-background:new 0 0 512 512;" xml:space="preserve">
<style type="text/css">
	.st0{fill:#D99148;}
	.st1{fill:#5D72D4;}
	.st2{fill:#1A82F0;}
	.st3{fill:#AB589D;}
	.st4{fill:#FE4274;}
	.st5{fill:#222222;}
	.st6{fill:#FFFFFF;}
</style>
<g>
	<g>
		<polygon class="st0" points="50.7,461.3 50.7,136.8 0,138 0,512 98.7,512 122.6,461.3 		"/>
		<polygon class="st1" points="206.8,0 206.8,50.7 461.3,50.7 461.3,343.8 512,343.8 512,0 		"/>
		<polygon class="st2" points="461.3,235.4 461.3,461.3 228.8,461.3 139.2,512 512,512 512,183.3 		"/>
		<polygon class="st3" points="50.7,461.3 50.7,339 0,511.8 0,512 206.3,512 362.8,461.3 		"/>
		<polygon class="st4" points="50.7,50.7 328.7,50.7 280.7,0 0,0 0,193.9 50.7,195.3 		"/>
	</g>
	<rect x="50.7" y="50.7" class="st5" width="410.6" height="410.6"/>
	<polygon class="st6" points="161.3,131.4 161.3,103.2 146.8,103.2 105.4,103.2 90.9,103.2 90.9,131.4 105.4,131.4 105.4,254.7 
		90.9,254.7 90.9,282.9 105.4,282.9 146.8,282.9 161.3,282.9 161.3,254.7 146.8,254.7 146.8,131.4 	"/>
	<rect x="90.9" y="378.5" class="st6" width="151" height="28.2"/>
	<path class="st6" d="M269.9,103.2v103.1c0,0,0,14.4,0,21.4s-6.5,18.8-23.9,19.4c-17.4,0.6-32.7-16.4-32.7-16.4l-24.4,26.5
		c0,0,15.5,25.7,58.4,25.7c46,0,64.1-29.9,64.1-50.7c0-17.2,0-25.8,0-25.8V103.2H269.9z"/>
</g>
</svg>
