<svg version="1.1" xmlns="http://www.w3.org/2000/svg" x="0" y="0" viewBox="0 0 512 512" xml:space="preserve"><path d="M499.4 256c0 134.4-109 243.4-243.4 243.4S12.6 390.4 12.6 256 121.6 12.6 256 12.6s243.4 109 243.4 243.4z" fill="#dde6ff"/><path d="M256 512C114.8 512 0 397.2 0 256S114.8 0 256 0s256 114.8 256 256-114.8 256-256 256zm0-486.9C128.7 25.1 25.1 128.7 25.1 256S128.7 486.9 256 486.9 486.9 383.3 486.9 256 383.3 25.1 256 25.1z"/><path d="M458.5 256c0 111.9-90.6 202.6-202.4 202.6-111.9 0-202.6-90.6-202.6-202.4v-.2c0-111.9 90.6-202.6 202.4-202.6 111.9 0 202.6 90.6 202.6 202.4v.2z" fill="#8da3e0"/><path d="M131.302 356.128h249.4v31.9h-249.4zM131.302 316.228v31.9h105.7v-31.9h-105.7zm143.6 0v31.9h105.8v-31.9h-105.8zM131.302 276.328v31.9h105.7v-31.9h-105.7zm143.6 0v31.9h105.8v-31.9h-105.8zM131.302 236.428h249.4v31.9h-249.4zM256.002 84.028c-23.4 0-43.1 11-57.2 25.3s-23.7 32-30.8 49.1c-14.2 34.2-18.5 67.5-18.5 67.5l-.3 2.5h38.2c.9-6 5.2-30.5 15.6-55.5 5.9-14.3 13.9-27.9 22.9-37.1s18-14 30.2-14 21.2 4.8 30.2 14 16.9 22.8 22.8 37.1c10.4 25 14.7 49.5 15.6 55.5h38.2l-.3-2.5s-4.2-33.3-18.5-67.5c-7.1-17.1-16.7-34.8-30.9-49.1s-33.9-25.3-57.2-25.3z"/></svg>