<?xml version="1.0" encoding="utf-8"?>
<!-- Generator: Adobe Illustrator 22.1.0, SVG Export Plug-In . SVG Version: 6.00 Build 0)  -->
<svg version="1.1" id="icon" xmlns="http://www.w3.org/2000/svg" xmlns:xlink="http://www.w3.org/1999/xlink" x="0px" y="0px"
	 viewBox="0 0 512 512" style="enable-background:new 0 0 512 512;" xml:space="preserve">
<style type="text/css">
	.st0{fill:#FFFFFF;}
	.st1{fill:#733781;}
</style>
<g>
	<path id="path52_1_" class="st0" d="M302.1,69.9c50.4,0,100.8-0.1,151.3,0c-0.1,7.7-0.1,15.4,0,23.1c13.4,0.1,26.8,0.3,40.2,0.9
		c0.8,30.6,1,61.2-0.2,91.8c-13.3,0.5-26.7,0.7-40,0.8c0,85.2,0.1,170.5,0,255.7c-50.4,0.1-100.8,0-151.3,0c0-15.5,0-31.1,0-46.6
		c36.8-0.1,73.6,0,110.5,0c-0.1-7.7-0.1-15.4,0-23.1c-36.8,0-73.7,0.1-110.5,0c0-9.7,0-19.5,0-29.2c36.8-0.1,73.6,0,110.5,0
		c-0.1-7.7-0.1-15.4,0-23.1c-36.8,0-73.7,0.1-110.5,0c0-9.7,0-19.5,0-29.2c36.8-0.1,73.6,0,110.5,0c-0.1-7.7-0.1-15.4,0-23.1
		c-36.8,0-73.7,0.1-110.5,0c0-9.7,0-19.5,0-29.2c36.8-0.1,73.6,0,110.4,0c0-7.7,0-15.4,0.1-23.1c-36.8,0-73.7,0.1-110.5,0
		c0-9.7,0-19.5,0-29.2c36.8-0.1,73.6,0,110.5,0c-0.1-7.7-0.1-15.4,0-23.1c-36.8,0-73.7,0.1-110.5,0c0-9.7,0-19.5,0-29.2
		c36.8-0.1,73.6,0,110.5,0c-0.1-7.7-0.1-15.4,0-23.1c-36.8,0-73.7,0.1-110.5,0C302.1,97.1,302.1,83.6,302.1,69.9L302.1,69.9z"/>
	<path id="path80_1_" class="st0" d="M179.7,158.5c11.6-0.6,23.2-1.3,34.9-1.8c0,64.2,0,128.4,0,192.6c-12.6-0.5-25-1.2-37.4-1.9
		c-23.1-44.5-48.2-88-70.5-132.8c1.3,43.1,0.5,86.1,0.6,129.1c-10.6-0.7-21-1.3-31.6-2c0.2-59.1,0.1-118.2,0-177.2
		c12-0.6,23.9-1.3,35.9-1.9c22.7,41.7,45.8,83.1,67.9,125.1C179.9,244.6,179.4,201.5,179.7,158.5z"/>
	<path id="path102_1_" class="st0" d="M470.7,203.4c7.5,0.3,15.1,0.6,22.7,1c1,30.6,1.2,61.1-0.2,91.6c-7.5,0.3-15.1,0.7-22.5,1
		C470.7,265.8,470.7,234.6,470.7,203.4z"/>
	<path id="path116_1_" class="st0" d="M470.7,313.8c7.5,0.3,15.2,0.8,22.8,1.2c0.9,30.4,0.8,60.8,0,91.2c-7.6,0.5-15.3,0.9-22.8,1.4
		C470.7,376.3,470.7,345.1,470.7,313.8z"/>
	<path class="st1" d="M507.7,305.6c6.3-36,4.2-72.8,1-109c2.2-34.1,5.3-68.5,0.9-102.5c-2.1-18.6-24.3-16.9-37.9-19.3
		c-2-6.1-4-12.2-6-18.4c-54-8.2-109.1-1.6-163.5-3.7C302,37.1,302,21.5,302,6h-34.7C178.3,21.9,89.2,37.2,0,52.7
		c0,135.7,0,271.2,0.1,406.9C88.7,475,177.3,489.8,265.8,506h36.4c0-15.5,0-31.1,0.1-46.6c42.6,0,85.1-0.2,127.8,0.2
		c11.7-0.5,24.7,1,35.1-5.5c5.1-8.5,4.9-18.8,6.9-28.3c13.6-2.5,35-1.3,37.5-19.3C513,373.1,513,338.9,507.7,305.6z M214.6,349.3
		c-12.6-0.5-25-1.2-37.4-1.9c-23.1-44.5-48.2-88-70.5-132.8c1.3,43.1,0.5,86.1,0.6,129.1c-10.6-0.7-21-1.3-31.6-2
		c0.2-59.1,0.1-118.2,0-177.2c12-0.6,23.9-1.3,35.9-1.9c22.7,41.7,45.8,83.1,67.9,125.1c0.5-43.1,0-86.1,0.2-129.1
		c11.6-0.6,23.2-1.3,34.9-1.8C214.6,220.9,214.6,285.1,214.6,349.3z M453.4,442.1c-50.4,0.1-100.8,0-151.3,0c0-15.5,0-31.1,0-46.6
		c36.8-0.1,73.6,0,110.5,0c-0.1-7.7-0.1-15.4,0-23.1c-36.8,0-73.7,0.1-110.5,0c0-9.7,0-19.5,0-29.2c36.8-0.1,73.6,0,110.5,0
		c-0.1-7.7-0.1-15.4,0-23.1c-36.8,0-73.7,0.1-110.5,0c0-9.7,0-19.5,0-29.2c36.8-0.1,73.6,0,110.5,0c-0.1-7.7-0.1-15.4,0-23.1
		c-36.8,0-73.7,0.1-110.5,0c0-9.7,0-19.5,0-29.2c36.8-0.1,73.6,0,110.4,0c0-7.7,0-15.4,0.1-23.1c-36.8,0-73.7,0.1-110.5,0
		c0-9.7,0-19.5,0-29.2c36.8-0.1,73.6,0,110.5,0c-0.1-7.7-0.1-15.4,0-23.1c-36.8,0-73.7,0.1-110.5,0c0-9.7,0-19.5,0-29.2
		c36.8-0.1,73.6,0,110.5,0c-0.1-7.7-0.1-15.4,0-23.1c-36.8,0-73.7,0.1-110.5,0c0-13.6,0-27.2,0-40.9c50.4,0,100.8-0.1,151.3,0
		c-0.1,7.7-0.1,15.4,0,23.1c13.4,0.1,26.8,0.3,40.2,0.9c0.8,30.6,1,61.2-0.2,91.8c-13.3,0.5-26.7,0.7-40,0.8
		C453.4,271.6,453.5,356.9,453.4,442.1z M493.5,406.2c-7.6,0.5-15.3,0.9-22.8,1.4c-0.1-31.3-0.1-62.5,0-93.8
		c7.5,0.3,15.2,0.8,22.8,1.2C494.4,345.4,494.3,375.8,493.5,406.2z M493.2,296c-7.5,0.3-15.1,0.7-22.5,1c-0.1-31.2-0.1-62.4,0-93.6
		c7.5,0.3,15.1,0.6,22.7,1C494.4,235,494.6,265.5,493.2,296z"/>
</g>
</svg>
