<?xml version="1.0" encoding="utf-8"?>
<!-- Generator: Adobe Illustrator 19.2.0, SVG Export Plug-In . SVG Version: 6.00 Build 0)  -->
<svg version="1.1" id="icon" xmlns="http://www.w3.org/2000/svg" xmlns:xlink="http://www.w3.org/1999/xlink" x="0px" y="0px"
	 viewBox="0 0 512 512" style="enable-background:new 0 0 512 512;" xml:space="preserve">
<style type="text/css">
	.st0{fill:#FFFFFF;}
	.st1{fill:#3753A0;}
</style>
<g>
	<path class="st0" d="M115.6,168.6l12.8,75.3c2.4,15.2,4.8,30.4,7.2,47.3h0.7c2.1-17.3,4.1-31.4,6.6-47.3l13.1-75.3h44.5
		l-45.2,168.8h-41.8L67.6,168.6H115.6z"/>
	
		<rect x="375.8" y="142.2" transform="matrix(0.7071 -0.7071 0.7071 0.7071 -2.2676 335.7975)" class="st0" width="56.8" height="56.8"/>
	<polygon class="st0" points="289.7,180.5 289.7,274.8 357.4,274.8 357.4,319.3 394.3,319.3 394.3,228.9 345.9,180.5 	"/>
	<rect x="289.7" y="294.6" class="st0" width="48" height="76.2"/>
	<polygon class="st0" points="289.7,420.3 490.6,420.3 490.6,81.8 289.7,81.8 289.7,160.7 345.9,160.7 404.2,102.5 472.4,170.6 
		414.1,228.9 414.1,339.1 357.4,339.1 357.4,390.6 289.7,390.6 	"/>
	<path class="st1" d="M289.7,62V16.5L1.6,71.9v370.2l288,53.4v-55.4h220.7V62H289.7z M155.3,337.5h-41.8L67.6,168.6h48l12.8,75.3
		c2.4,15.2,4.8,30.4,7.2,47.3h0.7c2.1-17.3,4.1-31.4,6.6-47.3l13.1-75.3h44.5L155.3,337.5z M289.7,180.5h56.3l48.4,48.4v90.4h-36.9
		v-44.5h-67.8V180.5z M364,170.6l40.2-40.2l40.2,40.2l-40.2,40.2L364,170.6z M289.7,294.6h48v76.2h-48V294.6z M490.6,420.3H289.7
		v-29.7h67.8v-51.5h56.7V228.9l58.3-58.3l-68.2-68.2l-58.3,58.3h-56.3V81.8h200.9V420.3z"/>
</g>
</svg>
