<?xml version="1.0" encoding="utf-8"?>
<!-- Generator: Adobe Illustrator 19.2.0, SVG Export Plug-In . SVG Version: 6.00 Build 0)  -->
<svg version="1.1" id="icon" xmlns="http://www.w3.org/2000/svg" xmlns:xlink="http://www.w3.org/1999/xlink" x="0px" y="0px"
	 viewBox="0 0 512 512" style="enable-background:new 0 0 512 512;" xml:space="preserve">
<style type="text/css">
	.st0{fill:#0072C6;}
	.st1{fill:#FFFFFF;}
</style>
<g>
	<path id="path3" class="st0" d="M318.3,111.8v98l34.2,21.6c0.9,0.3,2.9,0.3,3.8,0l147.4-99.3
		c0-11.8-11-20.2-17.2-20.2C486.5,111.8,318.3,111.8,318.3,111.8z"/>
	<path id="path5" class="st0" d="M318.3,246.3l31.2,21.5c4.4,3.2,9.7,0,9.7,0
		c-5.3,3.2,144.4-96.2,144.4-96.2v180.1c0,19.6-12.5,27.8-26.7,27.8H318.3L318.3,246.3L318.3,246.3z"/>
	<path class="st1" d="M155.2,342.8c19.8,0,35.9-8.1,48.2-24.3c12.3-16.2,18.5-37.6,18.5-64.1c0-25.8-5.9-46.6-17.8-62.3
		c-11.9-15.8-27.4-23.6-46.7-23.6c-20.4,0-36.7,8.2-49.1,24.7c-12.4,16.5-18.5,38-18.5,64.7c0,25.2,6.1,45.7,18.2,61.4
		C120.2,334.9,135.9,342.8,155.2,342.8z"/>
	<g id="g23" transform="matrix(3.9178712,0,0,3.9178712,-13.481395,-41.384474)">
		<path id="path25" class="st0" d="M43.4,61.9c-2.7,0-4.9,1.3-6.5,3.8c-1.6,2.5-2.4,5.9-2.4,10.1
			c0,4.3,0.8,7.6,2.4,10.1c1.6,2.5,3.7,3.7,6.3,3.7c2.7,0,4.8-1.2,6.4-3.6c1.6-2.4,2.4-5.8,2.4-10c0-4.5-0.8-7.9-2.3-10.4
			C48.1,63.1,46,61.9,43.4,61.9z"/>
		<path id="path27" class="st0" d="M5.6,26.4v97.8L80,139.8V12L5.6,26.4z M55.4,91.8
			c-3.1,4.1-7.2,6.2-12.3,6.2c-4.9,0-8.9-2-12.1-6c-3.1-4-4.7-9.2-4.7-15.7c0-6.8,1.6-12.3,4.7-16.5c3.2-4.2,7.3-6.3,12.5-6.3
			c4.9,0,8.9,2,11.9,6c3,4,4.6,9.3,4.6,15.9C60.1,82.2,58.5,87.7,55.4,91.8z"/>
	</g>
</g>
</svg>
