<?xml version="1.0" encoding="utf-8"?>
<!-- Generator: Adobe Illustrator 22.1.0, SVG Export Plug-In . SVG Version: 6.00 Build 0)  -->
<svg version="1.1" id="icon" xmlns="http://www.w3.org/2000/svg" xmlns:xlink="http://www.w3.org/1999/xlink" x="0px" y="0px"
	 viewBox="0 0 512 512" style="enable-background:new 0 0 512 512;" xml:space="preserve">
<style type="text/css">
	.st0{fill:#FFFFFF;}
	.st1{fill:#D24625;}
</style>
<g id="g3607" transform="translate(-223.01556,0)">
	<path id="path74_1_" class="st0" d="M316.4,159.5c31.6,1.5,69.9-12.5,96,11.2c25.1,30.4,18.4,86.4-18.7,104.6
		c-13.2,6.7-28.3,5.8-42.7,5.3c-0.1,22.8-0.1,45.5-0.1,68.3c-11.5-1-23.1-2-34.6-2.9C315.8,283.9,315.7,221.7,316.4,159.5z"/>
	<path id="path54_1_" class="st0" d="M525.5,75.7c64,0,128,0,192,0c0,118.3,0,236.6,0,354.9c-64,0-128,0-192,0c0-15.5,0-31,0-46.5
		c46.5,0,93.1,0,139.6,0c0-7.8,0-15.5,0-23.3c-46.5,0-93.1,0-139.6,0c0-9.8,0-19.3,0-29.1c46.5,0,93.1,0,139.6,0
		c0-7.8,0-15.5,0-23.3c-46.5,0-93.1,0-139.5,0c-0.1-11.4-0.1-22.9-0.1-34.2c23.1,7.1,49.2,6.9,69.9-6.8
		c22.3-13.2,33.9-38.4,35.8-63.5c-25.6-0.2-51-0.1-76.6-0.1c-0.1-25.3,0.3-50.6-0.5-75.9c-9.6,1.8-19.1,3.8-28.6,5.8
		C525.5,114.3,525.5,94.9,525.5,75.7z"/>
	<path id="path60" class="st1" d="M566.3,115.7c40.5,1.8,74.4,35.9,76.6,76.2c-25.6,0.3-51,0.2-76.6,0.2
		C566.2,166.5,566.2,141,566.3,115.7z"/>
	<path class="st1" d="M734.6,81c1.3-13.4-9.2-23.8-22.6-22.6c-62.1-0.9-124.4,0.1-186.6-0.3c0-17.4,0-34.9,0-52.4h-33
		c-89.9,15.3-179.6,31.1-269.4,46.7c0,135.7-0.1,271.4,0,407.1c88.7,15.6,177.6,30.4,266.2,46.5h36.1c0-19.3,0-38.8,0-58.2
		c58.2,0,116.4-0.1,174.6,0.2c10-0.5,21,0.3,29.5-5.8c6.7-10.4,5-23.5,5.5-35.2C734.3,298.4,735.5,189.7,734.6,81z M393.7,275.3
		c-13.2,6.7-28.3,5.8-42.7,5.3c-0.1,22.8-0.1,45.5-0.1,68.3c-11.5-1-23.1-2-34.6-2.9c-0.5-62.1-0.6-124.3,0.1-186.5
		c31.6,1.5,69.9-12.5,96,11.2C437.5,201.1,430.9,257.1,393.7,275.3z M717.5,430.6c-64,0-128,0-192,0c0-15.5,0-31,0-46.5
		c46.5,0,93.1,0,139.6,0c0-7.8,0-15.5,0-23.3c-46.5,0-93.1,0-139.6,0c0-9.8,0-19.3,0-29.1c46.5,0,93.1,0,139.6,0
		c0-7.8,0-15.5,0-23.3c-46.5,0-93.1,0-139.5,0c-0.1-11.4-0.1-22.9-0.1-34.2c23.1,7.1,49.2,6.9,69.9-6.8
		c22.3-13.2,33.9-38.4,35.8-63.5c-25.6-0.2-51-0.1-76.6-0.1c-0.1-25.3,0.3-50.6-0.5-75.9c-9.6,1.8-19.1,3.8-28.6,5.8
		c0-19.3,0-38.7,0-58c64,0,128,0,192,0C717.5,193.9,717.5,312.3,717.5,430.6z"/>
	<path id="path94" class="st1" d="M350.9,191c11.5-0.5,25.7-2.6,33.4,8.2c6.6,11.4,6.2,26.4,0.8,38.2c-6.6,12-21.6,10.8-33.2,12.2
		C350.6,230,350.7,210.6,350.9,191z"/>
</g>
</svg>
