<?xml version="1.0" encoding="utf-8"?>
<!-- Generator: Adobe Illustrator 22.1.0, SVG Export Plug-In . SVG Version: 6.00 Build 0)  -->
<svg version="1.1" id="icon" xmlns="http://www.w3.org/2000/svg" xmlns:xlink="http://www.w3.org/1999/xlink" x="0px" y="0px"
	 viewBox="0 0 512 512" style="enable-background:new 0 0 512 512;" xml:space="preserve">
<style type="text/css">
	.st0{fill:#FFFFFF;}
	.st1{fill:#2A5699;}
</style>
<g>
	<path id="path46_1_" class="st0" d="M302.4,69.9c64,0,127.9,0,191.9,0c0,124,0,248.1,0,372.2c-64,0-127.9,0-191.9,0
		c0-15.5,0-31,0-46.6c50.4,0,100.8,0,151.2,0c0-7.7,0-15.5,0-23.2c-50.4,0-100.8,0-151.2,0c0-9.8,0-19.4,0-29.1
		c50.4,0,100.8,0,151.2,0c0-7.7,0-15.5,0-23.2c-50.4,0-100.8,0-151.2,0c0-9.8,0-19.4,0-29.1c50.4,0,100.8,0,151.2,0
		c0-7.7,0-15.5,0-23.2c-50.4,0-100.8,0-151.2,0c0-9.8,0-19.4,0-29.1c50.4,0,100.8,0,151.2,0c0-7.7,0-15.5,0-23.2
		c-50.4,0-100.8,0-151.2,0c0-9.8,0-19.4,0-29.1c50.4,0,100.8,0,151.2,0c0-7.7,0-15.5,0-23.2c-50.4,0-100.8,0-151.2,0
		c0-9.8,0-19.4,0-29.1c50.4,0,100.8,0,151.2,0c0-7.7,0-15.5,0-23.2c-50.4,0-100.8,0-151.2,0C302.4,97,302.4,83.5,302.4,69.9z"/>
	<path id="path88_1_" class="st0" d="M120.2,172.7c11.1-0.6,22.1-1.1,33.2-1.7c7.7,39.2,15.7,78.5,24,117.6
		c6.5-40.3,13.9-80.6,20.9-120.9c11.7-0.4,23.2-1,34.8-1.7c-13.2,56.3-24.6,113.2-39,169.2c-9.8,5-24.2-0.2-35.8,0.6
		c-7.7-38.5-16.8-76.7-23.6-115.5c-6.8,37.6-15.7,74.8-23.4,112.1c-11.2-0.6-22.4-1.3-33.6-2C67.9,279.1,56.6,228.3,47.6,177
		c10-0.5,19.9-0.9,29.9-1.2c6,37,12.8,73.9,18,111C103.7,248.7,112.1,210.7,120.2,172.7z"/>
	<path class="st1" d="M511.4,75c1.2-13.3-9.2-23.5-22.4-22.2c-62.2-1-124.3,0-186.6-0.3c0-15.5,0-31,0-46.6h-34.8
		C178.5,21.8,89.3,37,0,52.6c0,135.6-0.1,271.3,0,406.9c88.7,15.6,177.5,30.4,266,46.6h36.3c0-15.5,0-31,0-46.6
		c58.2,0,116.4-0.1,174.6,0.2c9.9-0.5,20.9,0.3,29.4-5.7c6.8-10.5,5-23.4,5.6-35.2C511.2,304.2,512.4,189.6,511.4,75z M194.1,335.1
		c-9.8,5-24.2-0.2-35.8,0.6c-7.7-38.5-16.8-76.7-23.6-115.5c-6.8,37.6-15.7,74.8-23.4,112.1c-11.2-0.6-22.4-1.3-33.6-2
		c-9.7-51.3-21-102.1-30-153.4c10-0.5,19.9-0.9,29.9-1.2c6,37,12.8,73.9,18,111c8.2-38,16.6-76,24.7-114.1
		c11.1-0.6,22.1-1.1,33.2-1.7c7.7,39.2,15.7,78.5,24,117.6c6.5-40.3,13.9-80.6,20.9-120.9c11.7-0.4,23.2-1,34.8-1.7
		C220,222.3,208.4,279.1,194.1,335.1z M494.3,442.1c-64,0-127.9,0-191.9,0c0-15.5,0-31,0-46.6c50.4,0,100.8,0,151.2,0
		c0-7.7,0-15.5,0-23.2c-50.4,0-100.8,0-151.2,0c0-9.8,0-19.4,0-29.1c50.4,0,100.8,0,151.2,0c0-7.7,0-15.5,0-23.2
		c-50.4,0-100.8,0-151.2,0c0-9.8,0-19.4,0-29.1c50.4,0,100.8,0,151.2,0c0-7.7,0-15.5,0-23.2c-50.4,0-100.8,0-151.2,0
		c0-9.8,0-19.4,0-29.1c50.4,0,100.8,0,151.2,0c0-7.7,0-15.5,0-23.2c-50.4,0-100.8,0-151.2,0c0-9.8,0-19.4,0-29.1
		c50.4,0,100.8,0,151.2,0c0-7.7,0-15.5,0-23.2c-50.4,0-100.8,0-151.2,0c0-9.8,0-19.4,0-29.1c50.4,0,100.8,0,151.2,0
		c0-7.7,0-15.5,0-23.2c-50.4,0-100.8,0-151.2,0c0-13.6,0-27.2,0-40.7c64,0,127.9,0,191.9,0C494.3,194,494.3,318.1,494.3,442.1z"/>
</g>
</svg>
