<?xml version="1.0" encoding="utf-8"?>
<!-- Generator: Adobe Illustrator 19.2.0, SVG Export Plug-In . SVG Version: 6.00 Build 0)  -->
<svg version="1.1" id="icon" xmlns="http://www.w3.org/2000/svg" xmlns:xlink="http://www.w3.org/1999/xlink" x="0px" y="0px"
	 viewBox="0 0 512 512" style="enable-background:new 0 0 512 512;" xml:space="preserve">
<style type="text/css">
	.st0{opacity:0.1;fill:#FFFFFF;}
	.st1{fill:#733781;}
</style>
<g>
	<path id="path52_1_" class="st0" d="M301.7,71.1c50.1,0,100.2-0.1,150.3,0
		c-0.1,7.7-0.1,15.3,0,23c13.3,0.1,26.6,0.3,39.9,0.9c0.8,30.4,1,60.8-0.2,91.2c-13.2,0.5-26.5,0.7-39.7,0.8
		c0,84.7,0.1,169.4,0,254.1c-50.1,0.1-100.2,0-150.3,0c0-15.4,0-30.9,0-46.3c36.6-0.1,73.1,0,109.8,0c-0.1-7.7-0.1-15.3,0-23
		c-36.6,0-73.2,0.1-109.8,0c0-9.6,0-19.4,0-29c36.6-0.1,73.1,0,109.8,0c-0.1-7.7-0.1-15.3,0-23c-36.6,0-73.2,0.1-109.8,0
		c0-9.6,0-19.4,0-29c36.6-0.1,73.1,0,109.8,0c-0.1-7.7-0.1-15.3,0-23c-36.6,0-73.2,0.1-109.8,0c0-9.6,0-19.4,0-29
		c36.6-0.1,73.1,0,109.7,0c0-7.7,0-15.3,0.1-23c-36.6,0-73.2,0.1-109.8,0c0-9.6,0-19.4,0-29c36.6-0.1,73.1,0,109.8,0
		c-0.1-7.7-0.1-15.3,0-23c-36.6,0-73.2,0.1-109.8,0c0-9.6,0-19.4,0-29c36.6-0.1,73.1,0,109.8,0c-0.1-7.7-0.1-15.3,0-23
		c-36.6,0-73.2,0.1-109.8,0C301.7,98.1,301.7,84.6,301.7,71.1L301.7,71.1z"/>
	<path id="path80_1_" class="st0" d="M180,159.1c11.5-0.6,23.1-1.3,34.7-1.8
		c0,63.8,0,127.6,0,191.4c-12.5-0.5-24.8-1.2-37.2-1.9c-23-44.2-47.9-87.4-70.1-132c1.3,42.8,0.5,85.6,0.6,128.3
		c-10.5-0.7-20.9-1.3-31.4-2c0.2-58.7,0.1-117.5,0-176.1c11.9-0.6,23.7-1.3,35.7-1.9c22.6,41.4,45.5,82.6,67.5,124.3
		C180.3,244.7,179.8,201.9,180,159.1z"/>
	<path id="path102_1_" class="st0" d="M469.2,203.7c7.5,0.3,15,0.6,22.6,1c1,30.4,1.2,60.7-0.2,91
		c-7.5,0.3-15,0.7-22.4,1C469.1,265.7,469.1,234.7,469.2,203.7z"/>
	<path id="path116_1_" class="st0" d="M469.2,313.4c7.5,0.3,15.1,0.8,22.7,1.2
		c0.9,30.2,0.8,60.4,0,90.6c-7.6,0.5-15.2,0.9-22.7,1.4C469.1,375.5,469.1,344.5,469.2,313.4z"/>
	<path class="st1" d="M506,305.2c6.3-35.8,4.2-72.3,1-108.3c2.2-33.9,5.3-68.1,0.9-101.9c-2.1-18.5-24.1-16.8-37.7-19.2
		c-2-6.1-4-12.1-6-18.3c-53.7-8.1-108.4-1.6-162.5-3.7c-0.1-15.4-0.1-30.9-0.1-46.3h-34.5C178.6,23.3,90.1,38.5,1.5,53.9
		c0,134.8,0,269.5,0.1,404.3c88,15.4,176.1,30.1,264,46.2h36.2c0-15.4,0-30.9,0.1-46.3c42.3,0,84.6-0.2,127,0.2
		c11.6-0.5,24.5,1,34.9-5.5c5.1-8.4,4.9-18.7,6.9-28.1c13.5-2.5,34.8-1.3,37.3-19.2C511.3,372.3,511.2,338.3,506,305.2z
		 M214.7,348.7c-12.5-0.5-24.8-1.2-37.2-1.9c-23-44.2-47.9-87.4-70.1-132c1.3,42.8,0.5,85.6,0.6,128.3c-10.5-0.7-20.9-1.3-31.4-2
		c0.2-58.7,0.1-117.5,0-176.1c11.9-0.6,23.7-1.3,35.7-1.9c22.6,41.4,45.5,82.6,67.5,124.3c0.5-42.8,0-85.6,0.2-128.3
		c11.5-0.6,23.1-1.3,34.7-1.8C214.7,221.1,214.7,284.9,214.7,348.7z M452,440.9c-50.1,0.1-100.2,0-150.3,0c0-15.4,0-30.9,0-46.3
		c36.6-0.1,73.1,0,109.8,0c-0.1-7.7-0.1-15.3,0-23c-36.6,0-73.2,0.1-109.8,0c0-9.6,0-19.4,0-29c36.6-0.1,73.1,0,109.8,0
		c-0.1-7.7-0.1-15.3,0-23c-36.6,0-73.2,0.1-109.8,0c0-9.6,0-19.4,0-29c36.6-0.1,73.1,0,109.8,0c-0.1-7.7-0.1-15.3,0-23
		c-36.6,0-73.2,0.1-109.8,0c0-9.6,0-19.4,0-29c36.6-0.1,73.1,0,109.7,0c0-7.7,0-15.3,0.1-23c-36.6,0-73.2,0.1-109.8,0
		c0-9.6,0-19.4,0-29c36.6-0.1,73.1,0,109.8,0c-0.1-7.7-0.1-15.3,0-23c-36.6,0-73.2,0.1-109.8,0c0-9.6,0-19.4,0-29
		c36.6-0.1,73.1,0,109.8,0c-0.1-7.7-0.1-15.3,0-23c-36.6,0-73.2,0.1-109.8,0c0-13.5,0-27,0-40.6c50.1,0,100.2-0.1,150.3,0
		c-0.1,7.7-0.1,15.3,0,23c13.3,0.1,26.6,0.3,39.9,0.9c0.8,30.4,1,60.8-0.2,91.2c-13.2,0.5-26.5,0.7-39.7,0.8
		C452,271.5,452,356.2,452,440.9z M491.9,405.2c-7.6,0.5-15.2,0.9-22.7,1.4c-0.1-31.1-0.1-62.1,0-93.2c7.5,0.3,15.1,0.8,22.7,1.2
		C492.8,344.8,492.7,375,491.9,405.2z M491.6,295.7c-7.5,0.3-15,0.7-22.4,1c-0.1-31-0.1-62,0-93c7.5,0.3,15,0.6,22.6,1
		C492.8,235.1,492.9,265.4,491.6,295.7z"/>
</g>
</svg>
