<?xml version="1.0" encoding="utf-8"?>
<!-- Generator: Adobe Illustrator 22.1.0, SVG Export Plug-In . SVG Version: 6.00 Build 0)  -->
<svg version="1.1" id="icon" xmlns="http://www.w3.org/2000/svg" xmlns:xlink="http://www.w3.org/1999/xlink" x="0px" y="0px"
	 viewBox="0 0 512 512" style="enable-background:new 0 0 512 512;" xml:space="preserve">
<style type="text/css">
	.st0{fill:#FFFFFF;}
	.st1{fill:#207245;}
</style>
<g>
	<path id="path72" class="st0" d="M172.3,159.2c13.2-0.9,26.4-1.7,39.5-2.4c-15.5,31.8-31.1,63.6-46.9,95.3
		c16,32.6,32.3,64.9,48.4,97.5c-14-0.8-28-1.7-42-2.7c-9.9-24.2-21.9-47.7-29-73.1c-7.9,23.6-19.2,45.9-28.3,69
		c-12.8-0.2-25.5-0.7-38.2-1.2c15-29.3,29.4-58.8,44.8-87.8c-13.1-30-27.5-59.4-41-89.2c12.8-0.8,25.6-1.5,38.4-2.2
		c8.7,22.7,18.1,45.2,25.3,68.5C150.9,206.3,162.4,183.1,172.3,159.2z"/>
	<path class="st0" d="M302.3,69.8c0,11.7,0,23.2,0,34.9c15.5,0,31,0,46.5,0c0,13.6,0,27.2,0,40.8c-15.5,0-31,0-46.5,0
		c0,7.7,0,15.5,0,23.2c15.5,0,31,0,46.5,0c0,13.6,0,27.2,0,40.8c-15.5,0-31,0-46.5,0c0,7.7,0,15.5,0,23.2c15.5,0,31,0,46.5,0
		c0,13.6,0,27.2,0,40.8c-15.5,0-31,0-46.5,0c0,7.7,0,15.5,0,23.2c15.5,0,31,0,46.5,0c0,13.6,0,27.2,0,40.8c-15.5,0-31,0-46.5,0
		c0,7.7,0,15.5,0,23.2c15.5,0,31,0,46.5,0c0,13.6,0,27.2,0,40.8c-15.5,0-31,0-46.5,0c0,11.7,0,23.2,0,34.9c64,0,128,0,192,0
		c0-122.2,0-244.3,0-366.5C430.3,69.8,366.3,69.8,302.3,69.8z M453.5,401.3c-27.2,0-54.2,0-81.4,0c0-13.6,0-27.2,0-40.8
		c27.2,0,54.2,0,81.4,0C453.5,374.2,453.5,387.8,453.5,401.3z M453.5,337.4c-27.2,0-54.2,0-81.4,0c0-13.6,0-27.2,0-40.8
		c27.2,0,54.2,0,81.4,0C453.5,310.2,453.5,323.8,453.5,337.4z M453.5,273.4c-27.2,0-54.2,0-81.4,0c0-13.6,0-27.2,0-40.8
		c27.2,0,54.2,0,81.4,0C453.5,246.2,453.5,259.8,453.5,273.4z M453.5,209.4c-27.2,0-54.2,0-81.4,0c0-13.6,0-27.2,0-40.8
		c27.2,0,54.2,0,81.4,0C453.5,182.2,453.5,195.9,453.5,209.4z M453.5,145.4c-27.2,0-54.2,0-81.4,0c0-13.6,0-27.2,0-40.8
		c27.2,0,54.2,0,81.4,0C453.5,118.2,453.5,131.9,453.5,145.4z"/>
	<path class="st1" d="M511.8,390c-0.1-100.9-0.2-201.8,0.1-302.8c-0.4-9.9,0.3-20.8-5.7-29.4c-8.6-5.8-19.3-5.1-29.2-5.5
		c-58.3,0.3-116.4,0.2-174.7,0.2c0-15.5,0-31,0-46.5h-34.5C178.5,21.6,89.3,36.9,0,52.4c0,135.7,0,271.4,0,407.1
		C88.7,475,177.6,489.9,266.2,506h36c0-17.4,0-34.9,0-52.3c60.3-0.1,120.6,0.2,180.9,0c9.8-0.4,24.2-0.7,26.6-12.8
		C513.4,424.2,511.5,406.9,511.8,390z M171.3,346.9c-9.9-24.2-21.9-47.7-29-73.1c-7.9,23.6-19.2,45.9-28.3,69
		c-12.8-0.2-25.5-0.7-38.2-1.2c15-29.3,29.4-58.8,44.8-87.8c-13.1-30-27.5-59.4-41-89.2c12.8-0.8,25.6-1.5,38.4-2.2
		c8.7,22.7,18.1,45.2,25.3,68.5c7.6-24.8,19.1-48,29-71.8c13.2-0.9,26.4-1.7,39.5-2.4c-15.5,31.8-31.1,63.6-46.9,95.3
		c16,32.6,32.3,64.9,48.4,97.5C199.2,348.8,185.2,347.9,171.3,346.9z M494.3,436.3c-64,0-128,0-192,0c0-11.7,0-23.2,0-34.9
		c15.5,0,31,0,46.5,0c0-13.6,0-27.2,0-40.8c-15.5,0-31,0-46.5,0c0-7.7,0-15.5,0-23.2c15.5,0,31,0,46.5,0c0-13.6,0-27.2,0-40.8
		c-15.5,0-31,0-46.5,0c0-7.7,0-15.5,0-23.2c15.5,0,31,0,46.5,0c0-13.6,0-27.2,0-40.8c-15.5,0-31,0-46.5,0c0-7.7,0-15.5,0-23.2
		c15.5,0,31,0,46.5,0c0-13.6,0-27.2,0-40.8c-15.5,0-31,0-46.5,0c0-7.7,0-15.5,0-23.2c15.5,0,31,0,46.5,0c0-13.6,0-27.2,0-40.8
		c-15.5,0-31,0-46.5,0c0-11.7,0-23.2,0-34.9c64,0,128,0,192,0C494.3,192,494.3,314.1,494.3,436.3z"/>
	<path id="path58" class="st1" d="M372.1,104.7c27.2,0,54.2,0,81.4,0c0,13.6,0,27.2,0,40.8c-27.2,0-54.2,0-81.4,0
		C372.1,131.9,372.1,118.2,372.1,104.7z"/>
	<path id="path90" class="st1" d="M372.1,168.7c27.2,0,54.2,0,81.4,0c0,13.6,0,27.2,0,40.8c-27.2,0-54.2,0-81.4,0
		C372.1,195.9,372.1,182.2,372.1,168.7z"/>
	<path id="path108" class="st1" d="M372.1,232.6c27.2,0,54.2,0,81.4,0c0,13.6,0,27.2,0,40.8c-27.2,0-54.2,0-81.4,0
		C372.1,259.8,372.1,246.2,372.1,232.6z"/>
	<path id="path114" class="st1" d="M372.1,296.6c27.2,0,54.2,0,81.4,0c0,13.6,0,27.2,0,40.8c-27.2,0-54.2,0-81.4,0
		C372.1,323.8,372.1,310.2,372.1,296.6z"/>
	<path id="path120" class="st1" d="M372.1,360.6c27.2,0,54.2,0,81.4,0c0,13.6,0,27.2,0,40.8c-27.2,0-54.2,0-81.4,0
		C372.1,387.8,372.1,374.2,372.1,360.6z"/>
</g>
</svg>
