<?xml version="1.0" encoding="utf-8"?>
<!-- Generator: Adobe Illustrator 19.2.0, SVG Export Plug-In . SVG Version: 6.00 Build 0)  -->
<svg version="1.1" id="icon" xmlns="http://www.w3.org/2000/svg" xmlns:xlink="http://www.w3.org/1999/xlink" x="0px" y="0px"
	 viewBox="0 0 512 512" style="enable-background:new 0 0 512 512;" xml:space="preserve">
<style type="text/css">
	.st0{fill:#FFFFFF;}
	.st1{fill:#2A5699;}
</style>
<g>
	<path id="path46_1_" class="st0" d="M302.1,71.7c63.6,0,127.2,0,190.8,0c0,123.3,0,246.7,0,370.1
		c-63.6,0-127.2,0-190.8,0c0-15.4,0-30.8,0-46.3c50.1,0,100.2,0,150.3,0c0-7.7,0-15.4,0-23.1c-50.1,0-100.2,0-150.3,0
		c0-9.7,0-19.3,0-28.9c50.1,0,100.2,0,150.3,0c0-7.7,0-15.4,0-23.1c-50.1,0-100.2,0-150.3,0c0-9.7,0-19.3,0-28.9
		c50.1,0,100.2,0,150.3,0c0-7.7,0-15.4,0-23.1c-50.1,0-100.2,0-150.3,0c0-9.7,0-19.3,0-28.9c50.1,0,100.2,0,150.3,0
		c0-7.7,0-15.4,0-23.1c-50.1,0-100.2,0-150.3,0c0-9.7,0-19.3,0-28.9c50.1,0,100.2,0,150.3,0c0-7.7,0-15.4,0-23.1
		c-50.1,0-100.2,0-150.3,0c0-9.7,0-19.3,0-28.9c50.1,0,100.2,0,150.3,0c0-7.7,0-15.4,0-23.1c-50.1,0-100.2,0-150.3,0
		C302.1,98.7,302.1,85.2,302.1,71.7z"/>
	<path id="path88_1_" class="st0" d="M121,173.9c11-0.6,22-1.1,33-1.7c7.7,39,15.6,78,23.9,116.9
		c6.5-40.1,13.8-80.1,20.8-120.2c11.6-0.4,23.1-1,34.6-1.7c-13.1,56-24.5,112.5-38.8,168.2c-9.7,5-24.1-0.2-35.6,0.6
		c-7.7-38.3-16.7-76.3-23.5-114.8c-6.8,37.4-15.6,74.4-23.3,111.5c-11.1-0.6-22.3-1.3-33.4-2C69,279.7,57.7,229.2,48.8,178.2
		c9.9-0.5,19.8-0.9,29.7-1.2c6,36.8,12.7,73.5,17.9,110.4C104.6,249.5,112.9,211.7,121,173.9z"/>
	<path class="st1" d="M509.9,76.8c1.2-13.2-9.1-23.4-22.3-22.1c-61.8-1-123.6,0-185.5-0.3c0-15.4,0-30.8,0-46.3h-34.6
		C178.9,23.9,90.2,39,1.5,54.5c0,134.8-0.1,269.7,0,404.6C89.7,474.6,178,489.3,266,505.4h36.1c0-15.4,0-30.8,0-46.3
		c57.9,0,115.7-0.1,173.6,0.2c9.8-0.5,20.8,0.3,29.2-5.7c6.8-10.4,5-23.3,5.6-35C509.7,304.7,510.9,190.7,509.9,76.8z M194.4,335.4
		c-9.7,5-24.1-0.2-35.6,0.6c-7.7-38.3-16.7-76.3-23.5-114.8c-6.8,37.4-15.6,74.4-23.3,111.5c-11.1-0.6-22.3-1.3-33.4-2
		C69,279.7,57.7,229.2,48.8,178.2c9.9-0.5,19.8-0.9,29.7-1.2c6,36.8,12.7,73.5,17.9,110.4c8.2-37.8,16.5-75.6,24.6-113.4
		c11-0.6,22-1.1,33-1.7c7.7,39,15.6,78,23.9,116.9c6.5-40.1,13.8-80.1,20.8-120.2c11.6-0.4,23.1-1,34.6-1.7
		C220.2,223.2,208.7,279.7,194.4,335.4z M492.9,441.8c-63.6,0-127.2,0-190.8,0c0-15.4,0-30.8,0-46.3c50.1,0,100.2,0,150.3,0
		c0-7.7,0-15.4,0-23.1c-50.1,0-100.2,0-150.3,0c0-9.7,0-19.3,0-28.9c50.1,0,100.2,0,150.3,0c0-7.7,0-15.4,0-23.1
		c-50.1,0-100.2,0-150.3,0c0-9.7,0-19.3,0-28.9c50.1,0,100.2,0,150.3,0c0-7.7,0-15.4,0-23.1c-50.1,0-100.2,0-150.3,0
		c0-9.7,0-19.3,0-28.9c50.1,0,100.2,0,150.3,0c0-7.7,0-15.4,0-23.1c-50.1,0-100.2,0-150.3,0c0-9.7,0-19.3,0-28.9
		c50.1,0,100.2,0,150.3,0c0-7.7,0-15.4,0-23.1c-50.1,0-100.2,0-150.3,0c0-9.7,0-19.3,0-28.9c50.1,0,100.2,0,150.3,0
		c0-7.7,0-15.4,0-23.1c-50.1,0-100.2,0-150.3,0c0-13.5,0-27,0-40.5c63.6,0,127.2,0,190.8,0C492.9,195.1,492.9,318.5,492.9,441.8z"/>
</g>
</svg>
