<?xml version="1.0" encoding="utf-8"?>
<!-- Generator: Adobe Illustrator 22.1.0, SVG Export Plug-In . SVG Version: 6.00 Build 0)  -->
<svg version="1.1" id="icon" xmlns="http://www.w3.org/2000/svg" xmlns:xlink="http://www.w3.org/1999/xlink" x="0px" y="0px"
	 viewBox="0 0 512 512" style="enable-background:new 0 0 512 512;" xml:space="preserve">
<style type="text/css">
	.st0{fill:#0072C6;}
	.st1{fill:#FFFFFF;}
</style>
<g>
	<path id="path3" class="st0" d="M319.6,108.6v100.2l35,22.1c0.9,0.3,3,0.3,3.9,0l150.7-101.5c0-12.1-11.2-20.7-17.6-20.7
		C491.6,108.6,319.6,108.6,319.6,108.6z"/>
	<path id="path5" class="st0" d="M319.6,246.1l31.9,22c4.5,3.3,9.9,0,9.9,0c-5.4,3.3,147.7-98.4,147.7-98.4v184.2
		c0,20-12.8,28.4-27.3,28.4H319.6V246.1L319.6,246.1z"/>
	<path class="st1" d="M152.8,344.8c20.2,0,36.7-8.3,49.3-24.8c12.6-16.6,18.9-38.4,18.9-65.5c0-26.4-6-47.7-18.2-63.7
		c-12.2-16.2-28-24.1-47.8-24.1c-20.9,0-37.5,8.4-50.2,25.3S86,230.7,86,258c0,25.8,6.2,46.7,18.6,62.8
		C117.1,336.7,133.1,344.8,152.8,344.8z"/>
	<g id="g23" transform="matrix(3.9178712,0,0,3.9178712,-13.481395,-41.384474)">
		<path id="path25" class="st0" d="M42.8,61.6c-2.8,0-5,1.3-6.6,3.9c-1.6,2.6-2.5,6-2.5,10.3c0,4.4,0.8,7.8,2.5,10.3
			c1.6,2.6,3.8,3.8,6.4,3.8c2.8,0,4.9-1.2,6.5-3.7c1.6-2.5,2.5-5.9,2.5-10.2c0-4.6-0.8-8.1-2.4-10.6C47.6,62.8,45.5,61.6,42.8,61.6z
			"/>
		<path id="path27" class="st0" d="M4.2,25.3v100l76.1,16V10.6L4.2,25.3z M55.1,92.2c-3.2,4.2-7.4,6.3-12.6,6.3c-5,0-9.1-2-12.4-6.1
			c-3.2-4.1-4.8-9.4-4.8-16.1c0-7,1.6-12.6,4.8-16.9c3.3-4.3,7.5-6.4,12.8-6.4c5,0,9.1,2,12.2,6.1c3.1,4.1,4.7,9.5,4.7,16.3
			C59.9,82.3,58.2,88,55.1,92.2z"/>
	</g>
</g>
</svg>
