<svg version="1.1" id="icon" xmlns="http://www.w3.org/2000/svg" x="0" y="0" viewBox="0 0 512 512" xml:space="preserve"><style type="text/css">.st0{fill:#fff}</style><path class="st0" d="M114.7 168l12.9 75.8c2.4 15.3 4.8 30.6 7.2 47.6h.7c2.1-17.4 4.1-31.6 6.6-47.6l13.2-75.8h44.8l-45.5 169.9h-42.1L66.4 168h48.3z"/><path transform="rotate(-45.001 405.186 170.04)" class="st0" d="M376.6 141.5h57.2v57.2h-57.2z"/><path class="st0" d="M290 180v94.9h68.1v44.8h37.1v-91L346.5 180z"/><path class="st0" d="M290 294.9h48.3v76.7H290z"/><path class="st0" d="M290 421.4h202.2V80.7H290v79.4h56.5l58.7-58.6 68.7 68.5-58.7 58.7v110.9h-57.1v51.9H290z"/><path d="M290 60.7V14.9L0 70.7v372.6L289.9 497v-55.8H512V60.7H290zM154.7 338h-42.1L66.4 168h48.3l12.9 75.8c2.4 15.3 4.8 30.6 7.2 47.6h.7c2.1-17.4 4.1-31.6 6.6-47.6l13.2-75.8h44.8l-45.4 170zM290 180h56.7l48.7 48.7v91h-37.1v-44.8H290V180zm74.8-10l40.5-40.5 40.5 40.5-40.5 40.5-40.5-40.5zM290 294.9h48.3v76.7H290v-76.7zm202.2 126.5H290v-29.9h68.2v-51.8h57.1v-111L474 170l-68.6-68.6-58.7 58.7H290V80.7h202.2v340.7z" fill="#3753a0"/></svg>