<?xml version="1.0" encoding="utf-8"?>
<!-- Generator: Adobe Illustrator 19.2.0, SVG Export Plug-In . SVG Version: 6.00 Build 0)  -->
<svg version="1.1" id="icon" xmlns="http://www.w3.org/2000/svg" xmlns:xlink="http://www.w3.org/1999/xlink" x="0px" y="0px"
	 viewBox="0 0 512 512" style="enable-background:new 0 0 512 512;" xml:space="preserve">
<style type="text/css">
	.st0{fill:#FFFFFF;}
	.st1{fill:#221E1F;}
	.st2{fill:#98CD70;}
	.st3{fill:#D07B84;}
	.st4{fill:#DCC576;}
</style>
<g>
	<g>
		<ellipse transform="matrix(0.59 -0.8074 0.8074 0.59 46.5539 383.723)" class="st0" cx="401.1" cy="146" rx="74.1" ry="52"/>
		<path class="st1" d="M381.3,216.1c-9.5,0-18.3-2.7-25.5-8c-24.4-17.8-23.9-60.1,1.1-94.4l0,0c25-34.2,65.2-47.6,89.5-29.7
			c12,8.7,18.4,23.5,18,41.5c-0.3,17.7-7.1,36.4-19.1,52.9c-12,16.4-27.8,28.6-44.5,34.3C394,214.9,387.5,216.1,381.3,216.1z
			 M361.4,117c-23.2,31.7-24.2,70.6-2.3,86.6c10.5,7.6,24.7,9,40,3.8c15.6-5.3,30.5-16.8,41.9-32.3s17.8-33.2,18.1-49.7
			c0.3-16.2-5.3-29.3-15.7-36.9C421.2,72.4,384.5,85.2,361.4,117L361.4,117z"/>
	</g>
	<g>
		<path class="st2" d="M182.1,265.2c0,0,2.1,10,0,14.7c-2.1,4.8-16.6,18.3-16.6,18.3l30.5,4.2c0,0,3.8-10.3,4.8-17
			c0.9-6.7,0-14.6,0-14.6"/>
		<path class="st1" d="M197.9,305.5l-38.5-5.2l4.3-4c5.4-5.1,14.6-14.3,15.9-17.4c1.3-2.9,0.6-9.5-0.2-13l5.4-1.1
			c0.2,1.1,2.2,11-0.2,16.4c-1.6,3.6-8.4,10.6-13.1,15.2l22.6,3.1c1.1-3.3,3.2-9.8,3.9-14.4c0.9-6.2,0-13.9,0-13.9l5.5-0.6
			c0,0.3,1,8.4,0,15.4c-1,6.9-4.7,17.2-4.9,17.6L197.9,305.5z"/>
	</g>
	<g>
		<path class="st2" d="M320.3,163.2c-17.9-4.9-62.2-43.7-125.1-48.1s-98,75.8-107.8,107.8s-14.2,57.9-9.9,99.2s29,83.5,43.4,98.9
			s33.6,34.8,60.7,34.8c36.4,0,49.4-26.9,52.4-39.7c4.2-22.1-16.9-64.7-45.6-66.2s-37,16.6-37,29s14.5,25.9,25.6,26.5
			c11.1,0.6,23.1-6.8,21.9-17.3c-1.2-10.5-9.2-5.5-9.2-5.5s1.8,9.2-6.2,9.9c-8,0.6-15.4-6.2-14.2-13.6c1.2-7.4,9.2-14.2,22.8-12.3
			c13.6,1.8,29,29.6,26.5,43.1s-8,34.5-37.6,28.3c-38.2-8-85-77.6-83.2-128.2c1.8-50.5,39.4-77.6,39.4-77.6s30.8,43.1,90.6,40.7
			c59.8-2.5,101.7-16,101.7-16s15.4,6.4,38.2,4.3c33.3-6.8,64.2-32.7,64.2-32.7s-20.4-37.6-39.5-48.7
			C373.3,168.7,338.2,168,320.3,163.2z"/>
		<path class="st1" d="M181.7,458.6c-29.2,0-49.4-21.5-62.7-35.7c-15.3-16.3-39.9-59.4-44.2-100.5c-4.4-42.4,0.3-68.9,10-100.3
			c3.6-11.8,37.5-114.8,110.7-109.8c45.1,3.1,80.5,23.6,104,37.1c9.4,5.4,16.7,9.7,21.6,11c6,1.6,14.2,2.8,22.8,4.1
			c17.3,2.5,36.9,5.3,49.9,12.9c19.5,11.4,39.7,48.2,40.6,49.7l1.1,2l-1.7,1.5c-1.3,1.1-31.8,26.4-65.4,33.2l-0.3,0
			c-20.2,1.8-34.7-2.8-38.5-4.1c-6.6,2-46.9,13.6-101.5,15.9c-52.5,2.2-83.6-30.5-91.1-39.5c-7.7,6.5-34.7,32.1-36.2,73.8
			c-1.8,48.2,42.9,117.4,81,125.3c9.5,2,17.1,1.1,22.5-2.5c7.5-5.1,10.2-14.8,11.8-23.6c1.2-6.8-3-19.1-9.9-28.6
			c-4.8-6.6-10-10.7-14.2-11.3c-11.6-1.6-18.7,3.9-19.7,10c-0.4,2.4,0.4,4.7,2.2,6.8c2.3,2.5,5.7,3.8,9,3.6c1.3-0.1,2.3-0.5,2.8-1.3
			c1.2-1.6,1-4.3,0.8-5.3l-0.4-1.9l1.6-1c0.5-0.3,4.7-2.8,8.6-0.9c2.7,1.3,4.3,4.1,4.8,8.4c0.5,4.6-1,9-4.4,12.7
			c-4.7,5-12.7,8-20.3,7.6c-12.3-0.7-28.2-15-28.2-29.3c0-4.1,0.9-14.5,9.5-22.6c7.2-6.8,17.4-9.9,30.4-9.2
			c11.4,0.6,22.9,7.5,32.2,19.4c11.9,15.1,18.6,36.2,16,50.1C232.3,436,215.1,458.6,181.7,458.6z M190.3,117.7
			c-65.7,0-96.8,95-100.2,106c-9.5,30.7-14.1,56.6-9.8,98.1c4.2,39.8,27.9,81.6,42.7,97.3c12.7,13.5,31.9,33.9,58.7,33.9
			c39.7,0,48.8-33.7,49.7-37.6c2.3-12.2-4.1-31.8-14.9-45.6c-8.3-10.6-18.3-16.7-28.1-17.3c-11.4-0.6-20.3,2-26.3,7.6
			c-7,6.6-7.8,15.2-7.8,18.5c0,10.8,13.5,23.2,22.9,23.7c6,0.3,12.3-2,16-5.9c1.6-1.7,3.4-4.5,3-8.3c-0.3-2.2-0.9-3.7-1.7-4.1
			c-0.5-0.2-1.2-0.2-1.8,0c0.1,2-0.2,5-2.1,7.4c-1.1,1.4-3.1,3.2-6.9,3.5c-5,0.4-10.1-1.6-13.5-5.4c-3-3.2-4.3-7.4-3.6-11.4
			c1.5-8.8,10.8-16.7,25.9-14.6c5.9,0.8,12.2,5.6,18,13.5c6.5,8.9,12.7,23,10.9,32.9c-1.8,10-4.9,21-14.1,27.2
			c-6.7,4.5-15.7,5.7-26.7,3.4c-18.8-4-40.7-22.4-58.4-49.3c-17.8-27.1-27.9-57.6-27-81.6c1.9-51.3,39-78.6,40.6-79.8l2.3-1.6
			l1.6,2.3c0.3,0.4,30.7,41.9,88.2,39.5c58.7-2.4,100.5-15.8,100.9-15.9l1-0.3l0.9,0.4c0.1,0.1,15.1,6.1,36.7,4.1
			c27.7-5.7,54-25.1,61-30.6c-4.5-7.9-21.6-36.5-37.4-45.6c-12.1-7-31.1-9.8-47.9-12.2c-8.8-1.3-17.2-2.5-23.5-4.2
			c-5.6-1.5-13.2-5.9-22.9-11.6c-23-13.3-57.8-33.4-101.6-36.4C193.5,117.8,191.9,117.7,190.3,117.7z"/>
	</g>
	<g>
		
			<ellipse transform="matrix(0.9874 -0.1585 0.1585 0.9874 -17.1154 50.9537)" class="st0" cx="311" cy="132.8" rx="54.5" ry="77.1"/>
		<path class="st1" d="M317,212.2c-28.9,0-56.2-29.9-62.6-70.3c-7-43.5,12.7-82.9,43.9-87.9c31.2-5,62.3,26.3,69.2,69.8l0,0
			c7,43.5-12.7,82.9-43.9,87.9C321.4,212,319.2,212.2,317,212.2z M305,58.9c-1.9,0-3.9,0.2-5.8,0.5c-28.2,4.5-45.8,41.1-39.3,81.6
			c6.5,40.5,34.7,69.7,62.9,65.2c28.2-4.5,45.8-41.1,39.3-81.6C356,86.9,331.1,58.9,305,58.9z"/>
	</g>
	<circle class="st1" cx="295.2" cy="145.6" r="12.7"/>
	<circle class="st1" cx="432" cy="132.8" r="12.7"/>
	<g>
		<g>
			<path class="st3" d="M45.5,293.5h-37c0,0-4.2,8.6-4.2,17.1c0,8.5,4.2,17.1,4.2,17.1h37V293.5z"/>
			<path class="st1" d="M48.3,330.4H6.8l-0.8-1.6c-0.2-0.4-4.4-9.3-4.4-18.3c0-9,4.3-17.9,4.4-18.3l0.8-1.6h41.5V330.4z M10.4,324.9
				h32.4v-28.7H10.4c-1.1,2.7-3.2,8.6-3.2,14.3C7.2,316.3,9.3,322.2,10.4,324.9z"/>
		</g>
		<g>
			<path class="st0" d="M75.1,293.5h-37c0,0-4.2,8.6-4.2,17.1c0,8.5,4.2,17.1,4.2,17.1h37V293.5z"/>
			<path class="st1" d="M77.9,330.4H36.4l-0.8-1.6c-0.2-0.4-4.4-9.3-4.4-18.3c0-9,4.3-17.9,4.4-18.3l0.8-1.6h41.5V330.4z M40,324.9
				h32.4v-28.7H40c-1.1,2.7-3.2,8.6-3.2,14.3C36.8,316.3,38.9,322.2,40,324.9z"/>
		</g>
		<g>
			<path class="st0" d="M88.1,293.5h-37c0,0-4.2,8.6-4.2,17.1c0,8.5,4.2,17.1,4.2,17.1h37V293.5z"/>
			<path class="st1" d="M90.8,330.4H49.3l-0.8-1.6c-0.2-0.4-4.4-9.3-4.4-18.3c0-9,4.3-17.9,4.4-18.3l0.8-1.6h41.5V330.4z
				 M52.9,324.9h32.4v-28.7H52.9c-1.1,2.7-3.2,8.6-3.2,14.3C49.7,316.3,51.8,322.2,52.9,324.9z"/>
		</g>
		<path class="st4" d="M410.9,293.5H64c0,0-4.2,8.6-4.2,17.1c0,8.5,4.2,17.1,4.2,17.1h346.9l85.3-17.1L410.9,293.5z"/>
		<path class="st0" d="M410.9,293.5c0,0-5.2,6-5.2,17.1c0,11.1,5.2,17.1,5.2,17.1l85.3-17.1L410.9,293.5z"/>
		<path class="st1" d="M411.2,330.4H62.3l-0.8-1.6c-0.2-0.4-4.4-9.3-4.4-18.3c0-9,4.3-17.9,4.4-18.3l0.8-1.6l349.2,0.1l98.9,19.8
			L411.2,330.4z M65.8,324.9h344.8l71.5-14.3l-71.5-14.3H65.8c-1.1,2.7-3.2,8.6-3.2,14.3C62.6,316.3,64.7,322.2,65.8,324.9z"/>
		<path class="st1" d="M454.7,302.2c0,0-2.2,3.9-2.2,8.3c0,4.5,2.2,8.3,2.2,8.3l41.6-8.3L454.7,302.2z"/>
		<g>
			<line class="st2" x1="405.8" y1="310.6" x2="59.9" y2="310.6"/>
			<rect x="59.9" y="307.8" class="st1" width="345.9" height="5.5"/>
		</g>
		<g>
			<path class="st0" d="M410.9,293.5c0,0-5.2,6-5.2,17.1c0,11.1,5.2,17.1,5.2,17.1"/>
			<path class="st1" d="M408.8,329.5c-0.2-0.3-5.8-6.9-5.8-18.9c0-12,5.6-18.6,5.8-18.9l4.2,3.6l-2.1-1.8l2.1,1.8
				c0,0.1-4.5,5.5-4.5,15.3c0,9.8,4.5,15.3,4.5,15.3L408.8,329.5z"/>
		</g>
	</g>
	<g>
		<path class="st2" d="M329.9,327.7c0,2.5,11.2,19.2,31.1,17.2c20.5-2,31.1-17.2,31.1-17.2h-20.3c0,0-5.7,3.2-13.4,3.2
			s-12.2-1.1-14.6-3.2s-1.9-4.8-7.8-4.8C331.7,322.9,329.9,325.2,329.9,327.7z"/>
		<path class="st1" d="M357.8,347.8c-11.4,0-19.4-5.6-23.3-9.2c-3.6-3.2-7.4-8.2-7.4-10.9c0-3.8,2.8-7.5,8.9-7.5
			c5.2,0,7,1.9,8.5,4.1c0.4,0.5,0.7,1,1.1,1.4c1.9,1.7,6,2.5,12.7,2.5c6.9,0,12-2.8,12-2.9l0.6-0.4h26.4l-3,4.4
			c-0.5,0.7-11.6,16.3-33.1,18.4C360.1,347.8,358.9,347.8,357.8,347.8z M332.7,327.5c0.8,2.2,10.2,16.4,28.1,14.6
			c12.1-1.2,20.6-7.3,25.1-11.7h-13.4c-1.9,0.9-7.2,3.2-14.1,3.2c-8.4,0-13.4-1.2-16.4-3.9c-0.9-0.8-1.5-1.7-2-2.3
			c-0.9-1.3-1.2-1.7-4-1.7C334.8,325.7,332.8,325.9,332.7,327.5z"/>
	</g>
	<g>
		<path class="st2" d="M140.5,229.6c0,0-7.4,14.5-8.1,27.4c-0.7,12.9,5.3,31,5.3,31s-9.9,11.4-11.5,19.7c-0.8,4.1-0.5,8.8,4.6,15.4
			c5.3,6.9,10.3,10.2,12.6,10.8c4.6,1.2,7.7-0.9,10.7-2.5s7.1-2.8,4.5-3.7c-7.9-0.7-17.1-16-14.8-19.7s8.7-14.5,8.7-14.5H168
			c0,0-17.3-20.4-17.1-26.2c0.2-5.8,12-27.4,12-27.4"/>
		<path class="st1" d="M146.1,337c-1,0-2.1-0.1-3.3-0.4c-3.7-0.9-9.3-5.6-14.1-11.8c-6.1-7.8-5.9-13.5-5.2-17.6
			c1.4-7.4,8.4-16.5,11.1-19.8c-1.4-4.7-5.6-19.2-5-30.5c0.7-13.4,8-27.9,8.4-28.5l4.9,2.5c-0.1,0.1-7.1,14.1-7.8,26.3
			c-0.7,12.3,5.1,29.8,5.2,29.9l0.5,1.5l-1,1.2c-2.6,3-9.6,12.2-10.9,18.4c-0.6,3.3-0.6,7.2,4.1,13.2c5,6.4,9.4,9.4,11.1,9.8
			c3.1,0.8,5.2-0.4,7.8-1.8l0.8-0.5c0.2-0.1,0.3-0.2,0.5-0.3c-4.4-2.6-8.3-7.6-10.6-12.3c-1.5-3-2.9-7.2-1.2-9.9
			c2.3-3.6,8.6-14.3,8.7-14.4l0.8-1.4h11.2c-5.7-7.1-14.2-18.5-14-23.5c0.2-6.1,10.3-24.9,12.4-28.6l4.9,2.7
			c-4.4,8.1-11.5,22.5-11.7,26.2c-0.1,2.8,8.4,14.8,16.4,24.3l3.9,4.6h-19.9c-1.8,3-6,10.1-7.9,13.1c-0.2,0.9,0.8,4.3,3.8,8.5
			c2.9,4.1,6.4,6.9,8.8,7.1l0.7,0.1c2.2,0.8,2.6,2.3,2.7,3.1c0.1,2.4-2.1,3.4-4.6,4.6c-0.7,0.3-1.5,0.7-2.2,1.1l-0.8,0.4
			C152.4,335.5,149.7,337,146.1,337z M146.2,309.3"/>
	</g>
	<g>
		<path class="st2" d="M247.9,239.9c0,0-6.9,14.8-4.6,26.8c2.3,12,18.2,26.8,18.2,26.8s-1.4,12,0,19.1c1.4,7.1,5.7,22.7,16.6,25.1
			s19.6-10,19.6-10h-14.6c0,0-7.6-9.8-6.5-17.1c1.1-7.3,14.8-17.1,14.8-17.1h13.1c0,0-8.6-9.1-16.3-8.9s-15.7,7-15.7,7
			s-4.9-8.9-6.2-10.6c-1.4-1.7-7-18.6-5.6-24.8c1.4-6.2,8.9-16.3,8.9-16.3"/>
		<path class="st1" d="M281,340.8c-1.1,0-2.3-0.1-3.5-0.4c-12.1-2.7-16.9-18.3-18.7-27.3c-1.2-6-0.5-15.1-0.2-18.6
			c-3.6-3.6-15.9-16.3-18-27.3c-2.5-12.8,4.5-27.9,4.8-28.5l5,2.4c-0.1,0.1-6.5,14.1-4.4,25.1c2.1,11,17.2,25.2,17.3,25.3l1,1
			l-0.2,1.4c0,0.1-1.3,11.7,0,18.3c1.2,6.2,5,20.8,14.4,22.9c5,1.1,9.6-1.8,12.7-4.5h-9.7l-0.8-1.1c-0.9-1.1-8.3-11-7-19.2
			c1.3-8.2,14.4-17.9,15.9-18.9l0.7-0.5h6.4c-2.7-1.8-5.9-3.4-8.6-3.3c-6.6,0.2-13.9,6.3-14,6.4l-2.6,2.2l-1.6-3
			c-2-3.6-5.1-9.2-5.9-10.2c-1.9-2.3-7.8-20.2-6.2-27.2c1.5-6.7,9.1-16.9,9.4-17.4l4.5,3.3c-2,2.7-7.4,10.7-8.5,15.3
			c-1.1,4.9,3.8,20.5,5.1,22.5c1,1.2,3.3,5.3,4.9,8.2c3.2-2.2,9-5.5,14.8-5.7c8.7-0.3,17.4,8.7,18.4,9.7l4.4,4.7h-18.6
			c-4.9,3.7-12.3,10.5-13,14.7c-0.7,4.4,3,10.8,5.1,13.9h18.4l-3,4.4C299.5,329.8,291.8,340.8,281,340.8z"/>
	</g>
	<g>
		<path class="st2" d="M304.5,263.2l29.2,30.3c0,0-0.7,1.7-3.5,7.4s-3.7,8.5-1.2,9.7c2.5,1.2,9.5-5.8,12.6-9.7
			c3.1-3.9,5.9-7.4,5.9-7.4h43.3c0,0-15.1-10.1-25.7-10.6s-20.9-1.1-20.9-1.1l-14.5-25"/>
		<path class="st1" d="M329.5,313.4c-0.6,0-1.2-0.1-1.8-0.4c-5.3-2.6-2.4-8.6,0-13.4c1.3-2.7,2.1-4.5,2.7-5.6l-27.9-28.9l4-3.8
			l30.4,31.6l-0.7,1.7c0,0.1-0.8,1.8-3.5,7.6c-0.5,1.1-2,4-2.3,5.5c2-1.1,6-4.7,9-8.5l6.7-8.4h34.2c-4.8-2.4-10.7-4.8-15.5-5.1
			l-22.4-1.2l-15.2-26.3l4.8-2.8l13.7,23.7l19.4,1c11.3,0.6,26.5,10.7,27.1,11.1l7.6,5.1h-51.1l-5,6.3
			C342.8,303.8,335,313.4,329.5,313.4z"/>
	</g>
	<path class="st1" d="M276.7,271l-0.8-5.5c32.2-4.7,52.6-11.3,52.8-11.4l1-0.3l0.9,0.4c0.1,0,12.2,4.9,30.3,4.5l0.1,5.5
		c-16.5,0.4-28.2-3.3-31.6-4.5C325.1,261.1,305.4,266.8,276.7,271z"/>
</g>
</svg>
