<?xml version="1.0" encoding="utf-8"?>
<!-- Generator: Adobe Illustrator 22.1.0, SVG Export Plug-In . SVG Version: 6.00 Build 0)  -->
<svg version="1.1" id="icon" xmlns="http://www.w3.org/2000/svg" xmlns:xlink="http://www.w3.org/1999/xlink" x="0px" y="0px"
	 viewBox="0 0 512 512" style="enable-background:new 0 0 512 512;" xml:space="preserve">
<style type="text/css">
	.st0{fill:#FFFFFF;}
	.st1{fill:#221E1F;}
	.st2{fill:#98CD70;}
	.st3{fill:#D07B84;}
	.st4{fill:#DCC576;}
	.st5{fill:none;}
</style>
<g>
	<g>
		<ellipse transform="matrix(0.59 -0.8074 0.8074 0.59 47.5303 384.1275)" class="st0" cx="402" cy="145.3" rx="74.6" ry="52.3"/>
		<path class="st1" d="M382.1,215.8c-9.6,0-18.4-2.7-25.7-8.1c-24.6-17.9-24.1-60.5,1.1-95l0,0c25.2-34.4,65.6-47.9,90.1-29.9
			c12.1,8.8,18.5,23.6,18.1,41.8c-0.3,17.8-7.1,36.6-19.2,53.2c-12.1,16.5-28,28.8-44.8,34.5C394.9,214.6,388.3,215.8,382.1,215.8z
			 M362.1,116.1c-23.3,31.9-24.4,71-2.3,87.1c10.6,7.6,24.9,9.1,40.3,3.8c15.7-5.3,30.7-16.9,42.2-32.5c11.5-15.6,17.9-33.4,18.2-50
			c0.3-16.3-5.3-29.5-15.8-37.1C422.2,71.2,385.3,84.1,362.1,116.1L362.1,116.1z"/>
	</g>
	<g>
		<path class="st2" d="M181.6,265.2c0,0,2.1,10.1,0,14.8c-2.1,4.8-16.7,18.4-16.7,18.4l30.7,4.2c0,0,3.8-10.4,4.8-17.1
			c0.9-6.7,0-14.7,0-14.7"/>
		<path class="st1" d="M197.5,305.8l-38.7-5.2l4.3-4c5.4-5.1,14.7-14.4,16-17.5c1.3-2.9,0.6-9.6-0.2-13.1l5.4-1.1
			c0.2,1.1,2.2,11.1-0.2,16.5c-1.6,3.6-8.5,10.7-13.2,15.3l22.7,3.1c1.1-3.3,3.2-9.9,3.9-14.5c0.9-6.2,0-14,0-14l5.5-0.6
			c0,0.3,1,8.5,0,15.5c-1,6.9-4.7,17.3-4.9,17.7L197.5,305.8z"/>
	</g>
	<g>
		<path class="st2" d="M320.7,162.6c-18-4.9-62.6-44-125.9-48.4S96.2,190.5,86.3,222.7s-14.3,58.3-10,99.8
			c4.3,41.6,29.2,84,43.7,99.5s33.8,35,61.1,35c36.6,0,49.7-27.1,52.7-39.9c4.2-22.2-17-65.1-45.9-66.6s-37.2,16.7-37.2,29.2
			c0,12.5,14.6,26.1,25.8,26.7s23.2-6.8,22-17.4c-1.2-10.6-9.3-5.5-9.3-5.5s1.8,9.3-6.2,10c-8.1,0.6-15.5-6.2-14.3-13.7
			c1.2-7.4,9.3-14.3,22.9-12.4c13.7,1.8,29.2,29.8,26.7,43.4c-2.5,13.6-8.1,34.7-37.8,28.5c-38.4-8.1-85.5-78.1-83.7-129
			c1.8-50.8,39.6-78.1,39.6-78.1s31,43.4,91.2,41c60.2-2.5,102.3-16.1,102.3-16.1s15.5,6.4,38.4,4.3c33.5-6.8,64.6-32.9,64.6-32.9
			s-20.5-37.8-39.7-49C374,168.1,338.7,167.4,320.7,162.6z"/>
		<path class="st1" d="M181.2,459.8c-29.4,0-49.7-21.6-63.1-35.9c-15.4-16.4-40.2-59.8-44.5-101.1c-4.4-42.7,0.3-69.3,10.1-100.9
			c3.6-11.9,37.7-115.5,111.4-110.5c45.4,3.1,81,23.7,104.7,37.3c9.5,5.4,16.8,9.8,21.7,11.1c6,1.6,14.3,2.8,22.9,4.1
			c17.4,2.5,37.1,5.3,50.2,13c19.6,11.5,39.9,48.5,40.9,50l1.1,2l-1.7,1.5c-1.3,1.1-32,26.6-65.8,33.4h-0.3
			c-20.3,1.8-34.9-2.8-38.7-4.1c-6.6,2-47.2,13.7-102.1,16c-52.8,2.2-84.1-30.7-91.7-39.7c-7.7,6.5-34.9,32.3-36.4,74.3
			C98,358.7,143,428.3,181.3,436.3c9.6,2,17.2,1.1,22.6-2.5c7.5-5.1,10.3-14.9,11.9-23.7c1.2-6.8-3-19.2-10-28.8
			c-4.8-6.6-10.1-10.8-14.3-11.4c-11.7-1.6-18.8,3.9-19.8,10.1c-0.4,2.4,0.4,4.7,2.2,6.8c2.3,2.5,5.7,3.8,9.1,3.6
			c1.3-0.1,2.3-0.5,2.8-1.3c1.2-1.6,1-4.3,0.8-5.3l-0.4-1.9l1.6-1c0.5-0.3,4.7-2.8,8.7-0.9c2.7,1.3,4.3,4.1,4.8,8.5
			c0.5,4.6-1,9.1-4.4,12.8c-4.7,5-12.8,8.1-20.4,7.6c-12.4-0.7-28.4-15.1-28.4-29.5c0-4.1,0.9-14.6,9.6-22.7
			c7.2-6.8,17.5-10,30.6-9.3c11.5,0.6,23,7.5,32.4,19.5c12,15.2,18.7,36.4,16.1,50.4C232.2,437.1,214.8,459.8,181.2,459.8z
			 M189.9,116.8c-66.1,0-97.4,95.6-100.8,106.7c-9.6,30.9-14.2,57-9.9,98.7c4.2,40.1,28.1,82.1,43,97.9
			c12.8,13.6,32.1,34.1,59.1,34.1c39.9,0,49.1-33.9,50-37.8c2.3-12.3-4.1-32-15-45.9c-8.4-10.7-18.4-16.8-28.3-17.4
			c-11.5-0.6-20.4,2-26.5,7.6c-7,6.6-7.8,15.3-7.8,18.6c0,10.9,13.6,23.3,23,23.8c6,0.3,12.4-2,16.1-5.9c1.6-1.7,3.4-4.5,3-8.4
			c-0.3-2.2-0.9-3.7-1.7-4.1c-0.5-0.2-1.2-0.2-1.8,0c0.1,2-0.2,5-2.1,7.4c-1.1,1.4-3.1,3.2-6.9,3.5c-5,0.4-10.2-1.6-13.6-5.4
			c-3-3.2-4.3-7.4-3.6-11.5c1.5-8.9,10.9-16.8,26.1-14.7c5.9,0.8,12.3,5.6,18.1,13.6c6.5,9,12.8,23.1,11,33.1
			c-1.8,10.1-4.9,21.1-14.2,27.4c-6.7,4.5-15.8,5.7-26.9,3.4c-18.9-4-41-22.5-58.8-49.6c-17.9-27.3-28.1-58-27.2-82.1
			c1.9-51.6,39.2-79.1,40.9-80.3l2.3-1.6l1.6,2.3c0.3,0.4,30.9,42.2,88.8,39.7c59.1-2.4,101.1-15.9,101.5-16l1-0.3l0.9,0.4
			c0.1,0.1,15.2,6.1,36.9,4.1c27.9-5.7,54.3-25.3,61.4-30.8c-4.5-7.9-21.7-36.7-37.6-45.9c-12.2-7-31.3-9.9-48.2-12.3
			c-8.9-1.3-17.3-2.5-23.6-4.2c-5.6-1.5-13.3-5.9-23-11.7c-23.1-13.4-58.2-33.6-102.2-36.6C193.1,116.9,191.5,116.8,189.9,116.8z"/>
	</g>
	<g>
		
			<ellipse transform="matrix(0.9874 -0.1585 0.1585 0.9874 -16.9844 51.0172)" class="st0" cx="311.4" cy="132" rx="54.8" ry="77.6"/>
		<path class="st1" d="M317.4,211.9c-29.1,0-56.6-30.1-63-70.7c-7-43.8,12.8-83.4,44.2-88.5s62.7,26.5,69.6,70.2l0,0
			c7,43.8-12.8,83.4-44.2,88.5C321.8,211.7,319.6,211.9,317.4,211.9z M305.3,57.6c-1.9,0-3.9,0.2-5.8,0.5
			c-28.4,4.5-46.1,41.4-39.5,82.1c6.5,40.8,34.9,70.1,63.3,65.6c28.4-4.5,46.1-41.4,39.5-82.1C356.6,85.8,331.6,57.6,305.3,57.6z"/>
	</g>
	<circle class="st1" cx="295.4" cy="144.9" r="12.8"/>
	<circle class="st1" cx="433.1" cy="132" r="12.8"/>
	<g>
		<g>
			<path class="st3" d="M44.2,293.7H6.9c0,0-4.2,8.7-4.2,17.2c0,8.6,4.2,17.2,4.2,17.2h37.2V293.7z"/>
			<path class="st1" d="M47,330.8H5.2l-0.8-1.6c-0.2-0.4-4.4-9.4-4.4-18.4s4.3-18,4.4-18.4l0.8-1.6H47V330.8z M8.9,325.3h32.6v-28.9
				H8.9c-1.1,2.7-3.2,8.7-3.2,14.4C5.6,316.6,7.7,322.6,8.9,325.3z"/>
		</g>
		<g>
			<path class="st0" d="M74,293.7H36.7c0,0-4.2,8.7-4.2,17.2c0,8.6,4.2,17.2,4.2,17.2H74V293.7z"/>
			<path class="st1" d="M76.8,330.8H35l-0.8-1.6c-0.2-0.4-4.4-9.4-4.4-18.4s4.3-18,4.4-18.4l0.8-1.6h41.8V330.8z M38.6,325.3h32.6
				v-28.9H38.6c-1.1,2.7-3.2,8.7-3.2,14.4C35.4,316.6,37.5,322.6,38.6,325.3z"/>
		</g>
		<g>
			<path class="st0" d="M87,293.7H49.8c0,0-4.2,8.7-4.2,17.2c0,8.6,4.2,17.2,4.2,17.2H87V293.7z"/>
			<path class="st1" d="M89.8,330.8H48l-0.8-1.6c-0.2-0.4-4.4-9.4-4.4-18.4s4.3-18,4.4-18.4l0.8-1.6h41.8V330.8z M51.6,325.3h32.6
				v-28.9H51.6c-1.1,2.7-3.2,8.7-3.2,14.4C48.4,316.6,50.5,322.6,51.6,325.3z"/>
		</g>
		<path class="st4" d="M411.9,293.7H62.8c0,0-4.2,8.7-4.2,17.2c0,8.6,4.2,17.2,4.2,17.2h349.1l85.8-17.2L411.9,293.7z"/>
		<path class="st0" d="M411.9,293.7c0,0-5.2,6-5.2,17.2c0,11.2,5.2,17.2,5.2,17.2l85.8-17.2L411.9,293.7z"/>
		<path class="st1" d="M412.2,330.8H61.1l-0.8-1.6c-0.2-0.4-4.4-9.4-4.4-18.4s4.3-18,4.4-18.4l0.8-1.6l351.4,0.1l99.5,19.9
			L412.2,330.8z M64.6,325.3h347l71.9-14.4l-71.9-14.4h-347c-1.1,2.7-3.2,8.7-3.2,14.4C61.4,316.6,63.5,322.6,64.6,325.3z"/>
		<path class="st1" d="M455.9,302.5c0,0-2.2,3.9-2.2,8.4c0,4.5,2.2,8.4,2.2,8.4l41.9-8.4L455.9,302.5z"/>
		<g>
			<line class="st5" x1="406.7" y1="310.9" x2="58.7" y2="310.9"/>
			<rect x="58.7" y="308.1" class="st1" width="348.1" height="5.5"/>
		</g>
		<g>
			<path class="st0" d="M411.9,293.7c0,0-5.2,6-5.2,17.2c0,11.2,5.2,17.2,5.2,17.2"/>
			<path class="st1" d="M409.8,329.9c-0.2-0.3-5.8-6.9-5.8-19s5.6-18.7,5.8-19l4.2,3.6l-2.1-1.8l2.1,1.8c0,0.1-4.5,5.5-4.5,15.4
				c0,9.9,4.5,15.4,4.5,15.4L409.8,329.9z"/>
		</g>
	</g>
	<g>
		<path class="st2" d="M330.4,328.1c0,2.5,11.3,19.3,31.3,17.3c20.6-2,31.3-17.3,31.3-17.3h-20.4c0,0-5.7,3.2-13.5,3.2
			c-7.7,0-12.3-1.1-14.7-3.2c-2.4-2.1-1.9-4.8-7.8-4.8C332.2,323.3,330.4,325.6,330.4,328.1z"/>
		<path class="st1" d="M358.4,348.3c-11.5,0-19.5-5.6-23.4-9.3c-3.6-3.2-7.4-8.3-7.4-11c0-3.8,2.8-7.5,9-7.5c5.2,0,7,1.9,8.6,4.1
			c0.4,0.5,0.7,1,1.1,1.4c1.9,1.7,6,2.5,12.8,2.5c6.9,0,12.1-2.8,12.1-2.9l0.6-0.4h26.6l-3,4.4c-0.5,0.7-11.7,16.4-33.3,18.5
			C360.8,348.3,359.5,348.3,358.4,348.3z M333.2,327.9c0.8,2.2,10.3,16.5,28.3,14.7c12.2-1.2,20.7-7.3,25.3-11.8h-13.5
			c-1.9,0.9-7.2,3.2-14.2,3.2c-8.5,0-13.5-1.2-16.5-3.9c-0.9-0.8-1.5-1.7-2-2.3c-0.9-1.3-1.2-1.7-4-1.7
			C335.3,326.1,333.3,326.3,333.2,327.9z"/>
	</g>
	<g>
		<path class="st2" d="M139.8,229.4c0,0-7.4,14.6-8.2,27.6c-0.7,13,5.3,31.2,5.3,31.2s-10,11.5-11.6,19.8c-0.8,4.1-0.5,8.9,4.6,15.5
			c5.3,6.9,10.4,10.3,12.7,10.9c4.6,1.2,7.7-0.9,10.8-2.5c3-1.6,7.1-2.8,4.5-3.7c-7.9-0.7-17.2-16.1-14.9-19.8
			c2.3-3.7,8.8-14.6,8.8-14.6h15.6c0,0-17.4-20.5-17.2-26.4c0.2-5.8,12.1-27.6,12.1-27.6"/>
		<path class="st1" d="M145.4,337.5c-1,0-2.1-0.1-3.3-0.4c-3.7-0.9-9.4-5.6-14.2-11.9c-6.1-7.8-5.9-13.6-5.2-17.7
			c1.4-7.4,8.5-16.6,11.2-19.9c-1.4-4.7-5.6-19.3-5-30.7c0.7-13.5,8.1-28.1,8.5-28.7l4.9,2.5c-0.1,0.1-7.1,14.2-7.8,26.5
			c-0.7,12.4,5.1,30,5.2,30.1l0.5,1.5l-1,1.2c-2.6,3-9.7,12.3-11,18.5c-0.6,3.3-0.6,7.2,4.1,13.3c5,6.4,9.5,9.5,11.2,9.9
			c3.1,0.8,5.2-0.4,7.8-1.8l0.8-0.5c0.2-0.1,0.3-0.2,0.5-0.3c-4.4-2.6-8.4-7.6-10.7-12.4c-1.5-3-2.9-7.2-1.2-10
			c2.3-3.6,8.7-14.4,8.8-14.5l0.8-1.4h11.3c-5.7-7.1-14.3-18.6-14.1-23.6c0.2-6.1,10.4-25.1,12.5-28.8l4.9,2.7
			c-4.4,8.2-11.6,22.6-11.8,26.4c-0.1,2.8,8.5,14.9,16.5,24.5l3.9,4.6h-20c-1.8,3-6,10.2-7.9,13.2c-0.2,0.9,0.8,4.3,3.8,8.6
			c2.9,4.1,6.4,6.9,8.9,7.1l0.7,0.1c2.2,0.8,2.6,2.3,2.7,3.1c0.1,2.4-2.1,3.4-4.6,4.6c-0.7,0.3-1.5,0.7-2.2,1.1l-0.8,0.4
			C151.7,336,149,337.5,145.4,337.5z"/>
	</g>
	<g>
		<path class="st2" d="M247.8,239.8c0,0-6.9,14.9-4.6,27c2.3,12.1,18.3,27,18.3,27s-1.4,12.1,0,19.2c1.4,7.1,5.7,22.8,16.7,25.3
			c11,2.4,19.7-10.1,19.7-10.1h-14.7c0,0-7.6-9.9-6.5-17.2c1.1-7.3,14.9-17.2,14.9-17.2h13.2c0,0-8.7-9.2-16.4-9
			c-7.7,0.2-15.8,7-15.8,7s-4.9-9-6.2-10.7c-1.4-1.7-7-18.7-5.6-25c1.4-6.2,9-16.4,9-16.4"/>
		<path class="st1" d="M281.2,341.3c-1.1,0-2.3-0.1-3.5-0.4c-12.2-2.7-17-18.4-18.8-27.5c-1.2-6-0.5-15.2-0.2-18.7
			c-3.6-3.6-16-16.4-18.1-27.5c-2.5-12.9,4.5-28.1,4.8-28.7l5,2.4c-0.1,0.1-6.5,14.2-4.4,25.3c2.1,11.1,17.3,25.4,17.4,25.5l1,1
			l-0.2,1.4c0,0.1-1.3,11.8,0,18.4c1.2,6.2,5,20.9,14.5,23c5,1.1,9.7-1.8,12.8-4.5h-9.8l-0.8-1.1c-0.9-1.1-8.4-11.1-7-19.3
			s14.5-18,16-19l0.7-0.5h6.4c-2.7-1.8-5.9-3.4-8.7-3.3c-6.6,0.2-14,6.3-14.1,6.4l-2.6,2.2l-1.6-3c-2-3.6-5.1-9.3-5.9-10.3
			c-1.9-2.3-7.8-20.3-6.2-27.4c1.5-6.7,9.2-17,9.5-17.5l4.5,3.3c-2,2.7-7.4,10.8-8.6,15.4c-1.1,4.9,3.8,20.6,5.1,22.6
			c1,1.2,3.3,5.3,4.9,8.3c3.2-2.2,9.1-5.5,14.9-5.7c8.8-0.3,17.5,8.8,18.5,9.8l4.4,4.7h-18.7c-4.9,3.7-12.4,10.6-13.1,14.8
			c-0.7,4.4,3,10.9,5.1,14H303l-3,4.4C299.8,330.2,292,341.3,281.2,341.3z"/>
	</g>
	<g>
		<path class="st2" d="M304.8,263.2l29.4,30.5c0,0-0.7,1.7-3.5,7.4c-2.8,5.7-3.7,8.6-1.2,9.8c2.5,1.2,9.6-5.8,12.7-9.8
			s5.9-7.4,5.9-7.4h43.6c0,0-15.2-10.2-25.9-10.7c-10.7-0.5-21-1.1-21-1.1l-14.6-25.2"/>
		<path class="st1" d="M330,313.7c-0.6,0-1.2-0.1-1.8-0.4c-5.3-2.6-2.4-8.7,0-13.5c1.3-2.7,2.1-4.5,2.7-5.6l-28.1-29.1l4-3.8
			l30.6,31.8l-0.7,1.7c0,0.1-0.8,1.8-3.5,7.6c-0.5,1.1-2,4-2.3,5.5c2-1.1,6-4.7,9.1-8.6l6.7-8.5h34.4c-4.8-2.4-10.8-4.8-15.6-5.1
			l-22.5-1.2l-15.3-26.5l4.8-2.8l13.8,23.8l19.5,1c11.4,0.6,26.7,10.8,27.3,11.2l7.6,5.1h-51.4l-5,6.3
			C343.3,304.1,335.5,313.7,330,313.7z"/>
	</g>
	<path class="st1" d="M276.8,271.1l-0.8-5.5c32.4-4.7,52.9-11.4,53.1-11.5l1-0.3l0.9,0.4c0.1,0,12.3,4.9,30.5,4.5l0.1,5.5
		c-16.6,0.4-28.4-3.3-31.8-4.5C325.5,261.1,305.7,266.8,276.8,271.1z"/>
</g>
</svg>
