<?xml version="1.0" encoding="utf-8"?>
<!-- Generator: Adobe Illustrator 19.2.0, SVG Export Plug-In . SVG Version: 6.00 Build 0)  -->
<svg version="1.1" xmlns="http://www.w3.org/2000/svg" xmlns:xlink="http://www.w3.org/1999/xlink" x="0px" y="0px"
	 viewBox="0 0 512 512" style="enable-background:new 0 0 512 512;" xml:space="preserve">
<style type="text/css">
	.st0{fill:#094AB1;}
	.st1{fill:#FFFFFF;}
</style>
<g id="icon">
	<g>
		<path id="path4256_3_" class="st0" d="M173.6,392.9c-28.4-7.1-44.2-29.6-44.2-63.1
			c0-10.7,0.8-15.8,3.4-22.7c6.5-16.9,23.9-29.6,46.7-34.3c11.3-2.3,14.8-4.8,14.8-10.6c0-1.8,1.3-7.2,3-12
			c7.5-21.8,21.4-39.9,36.2-47.4c15.5-7.8,23.4-9.5,42.1-9.4c26.7,0.1,40,5.9,58.6,25.5l10.2,10.7l9.2-3.2
			c44.4-15.4,88.6,10.8,92.1,54.5l1,11.9l8.7,3.1c24.9,8.9,36.7,27.7,34.5,55.3c-1.4,18-9.8,32.4-23.2,39.6l-6.3,3.4l-139.6,0.3
			C213.6,394.8,179.5,394.4,173.6,392.9L173.6,392.9z"/>
		<path id="path4248_3_" class="st0" d="M69,373.6c-16.6-3.9-34.1-18.6-42.3-35.3
			c-4.7-9.5-4.9-10.9-4.9-27.7c0-16,0.4-18.5,4.1-26.4c7.8-16.7,22.8-28.8,41.7-33.5c4-1,7.7-2.6,8.3-3.5c0.6-1,1.2-6.1,1.5-11.5
			c1.3-33.4,23.2-62.9,53.9-72.3c16.5-5.1,37.3-3.9,55.3,3.3c5.7,2.3,5.1,2.8,17.1-13c7.1-9.4,21.6-21,33.4-26.9
			c12.7-6.4,26-9.3,41.8-9.3c44.3,0.1,82.4,27.8,96.6,70.1c4.5,13.5,4.3,17.3-1,17.4c-2.3,0-9,1.3-14.8,2.8l-10.6,2.8l-9.6-9.6
			c-27.2-27.2-71.5-33-109.2-14.5c-15.1,7.4-27.2,18.1-36.3,32c-6.5,9.9-14.8,28.4-14.8,32.9c0,3.3-2.6,4.9-13.9,8.6
			c-34.8,11.4-55.1,37.8-55.1,71.5c0,12.3,3.2,27.3,7.6,35.9c1.7,3.2,2.6,6.3,2.1,6.9C118.3,375.5,74.9,375,69,373.6L69,373.6z"/>
		<path id="path4256_1_" class="st1" d="M274.2,193.4c0.5,0,1,0,1.5,0c26.7,0.1,40,5.9,58.6,25.5l10.2,10.7l9.2-3.2
			c8.7-3,17.4-4.4,25.8-4.4c34.4,0,63.5,23.8,66.4,58.9l1,11.9l8.7,3.1c24.9,8.9,36.7,27.7,34.5,55.3c-1.4,18-9.8,32.4-23.2,39.6
			l-6.3,3.4l-139.6,0.3c-17.6,0-33.3,0.1-47.1,0.1c-70.6,0-95.2-0.5-100.2-1.7c-28.4-7.1-44.2-29.6-44.2-63.1
			c0-10.7,0.8-15.8,3.4-22.7c6.5-16.9,23.9-29.6,46.7-34.3c11.3-2.3,14.8-4.8,14.8-10.6c0-1.8,1.3-7.2,3-12
			c7.5-21.8,21.4-39.9,36.2-47.4C248.6,195.3,256.5,193.4,274.2,193.4 M274.2,173.4L274.2,173.4c-20.6,0-31.8,2.6-49.7,11.6
			c-19.6,9.8-36.9,31.8-46.2,58.8c-0.8,2.4-1.9,5.9-2.8,9.5c0,0-0.1,0-0.1,0c-14,2.9-26.9,8.4-37.3,16
			c-11.2,8.2-19.5,18.8-24.1,30.6c-4,10.4-4.8,18.6-4.8,30c0,20.8,5.1,38.6,15.1,52.9c10.3,14.7,25.6,24.9,44.3,29.6
			c6.4,1.6,18.3,2.3,105,2.3c13.6,0,29,0,47.2-0.1l139.6-0.3l5,0l4.4-2.4l6.3-3.4c19.5-10.4,31.8-30.8,33.7-55.8
			c1.4-18.1-2-33.9-10.1-46.8c-7.7-12.3-19.2-21.5-34.2-27.6c-2-21.7-12-41.3-28.2-55.3c-15.8-13.7-36.4-21.2-58.1-21.2
			c-9.8,0-19.6,1.5-29.3,4.5l-1.4-1.4c-22.4-23.5-40.8-31.5-73-31.7C275.2,173.4,274.7,173.4,274.2,173.4L274.2,173.4z"/>
		<path id="path4248_1_" class="st1" d="M278.4,117.4c0.1,0,0.2,0,0.3,0c44.3,0.1,82.4,27.8,96.6,70.1c4.5,13.5,4.3,17.3-1,17.4
			c-2.3,0-9,1.3-14.8,2.8l-10.6,2.8l-9.6-9.6c-16.6-16.6-39.5-25.2-63.5-25.2c-15.3,0-31,3.5-45.7,10.8c-15.1,7.4-27.2,18.1-36.3,32
			c-6.5,9.9-14.8,28.4-14.8,32.9c0,3.3-2.6,4.9-13.9,8.6c-34.8,11.4-55.1,37.8-55.1,71.5c0,12.3,3.2,27.3,7.6,35.9
			c1.7,3.2,2.6,6.3,2.1,6.9c-0.6,0.6-8.3,0.8-17.6,0.8c-13.2,0-29.6-0.5-33.1-1.3l0,0c-16.6-3.9-34.1-18.6-42.3-35.3
			c-4.7-9.5-4.9-10.9-4.9-27.7c0-16,0.4-18.5,4.1-26.4c7.8-16.7,22.8-28.8,41.7-33.5c4-1,7.7-2.6,8.3-3.5c0.6-1,1.2-6.1,1.5-11.5
			c1.3-33.4,23.2-62.9,53.9-72.3c6.7-2.1,14.2-3.1,21.8-3.1c11.2,0,22.8,2.2,33.5,6.4c1.7,0.7,2.8,1.2,3.8,1.2
			c2.6,0,4.7-3,13.3-14.2c7.1-9.4,21.6-21,33.4-26.9C249.6,120.3,262.7,117.4,278.4,117.4 M278.4,97.3c-18.9,0-35,3.6-50.5,11.4
			c-14.4,7.3-31.4,21-40.3,32.7l-1.2,1.6c-0.5,0.6-0.9,1.2-1.4,1.9c-10.4-3.1-21.3-4.8-32-4.8c-9.8,0-19.2,1.3-27.7,4
			c-19.1,5.9-35.8,17.8-48.1,34.4c-11.8,15.8-18.6,34.6-19.8,54.2c-22.1,7.1-40,22.5-49.6,43c-5.4,11.6-6,17.3-6,35
			c0,18.7,0.6,23.5,7,36.5c10.9,22.2,33.3,40.6,55.7,45.9c7.1,1.7,28.7,1.9,37.7,1.9c3.6,0,8.7,0,12.9-0.2
			c5.8-0.2,12.9-0.5,18.9-6.5c3.3-3.3,8.3-10.6,4.8-22.4c-0.7-2.5-1.8-5.2-3.2-7.8c-2.6-5.1-5.4-16.7-5.4-26.8
			c0-25.1,14.7-43.7,41.3-52.4c6.6-2.2,11.5-4,15.4-6.4c9.4-5.8,11.8-13.9,12.2-19.2c1.2-4.2,6.7-16.5,11.6-23.9
			c7.2-10.9,16.5-19.1,28.4-25c11.5-5.7,24.3-8.7,36.8-8.7c19.3,0,36.8,6.9,49.3,19.3l9.6,9.6l8.1,8.1l11.1-2.9l10.6-2.8
			c4.7-1.2,9.1-2,10.6-2.2c10.8-0.4,16.6-6.3,19.1-9.9c7.8-11,3.4-24.3,0.1-33.9c-8.3-24.7-23.5-45.7-44.2-60.7
			c-20.7-15-45.4-23-71.3-23.1L278.4,97.3L278.4,97.3z"/>
	</g>
</g>
<g id="Guides">
</g>
</svg>
