<?xml version="1.0" encoding="utf-8"?>
<!-- Generator: Adobe Illustrator 22.1.0, SVG Export Plug-In . SVG Version: 6.00 Build 0)  -->
<svg version="1.1" id="icon" xmlns="http://www.w3.org/2000/svg" xmlns:xlink="http://www.w3.org/1999/xlink" x="0px" y="0px"
	 viewBox="0 0 512 512" style="enable-background:new 0 0 512 512;" xml:space="preserve">
<style type="text/css">
	.st0{fill:#094AB1;}
	.st1{fill:#FFFFFF;}
</style>
<g>
	<path class="st0" d="M173,393.9c-28.6-7.2-44.5-29.8-44.5-63.6c0-10.8,0.8-15.9,3.4-22.9c6.5-17,24.1-29.8,47-34.5
		c11.4-2.3,14.9-4.8,14.9-10.7c0-1.8,1.3-7.3,3-12.1c7.6-22,21.6-40.2,36.5-47.7c15.6-7.9,23.6-9.6,42.4-9.5
		c26.9,0.1,40.3,5.9,59,25.7l10.3,10.8l9.3-3.2c44.7-15.5,89.2,10.9,92.8,54.9l1,12l8.8,3.1c25.1,9,37,27.9,34.8,55.7
		c-1.4,18.1-9.9,32.6-23.4,39.9l-6.3,3.4l-140.6,0.3C213.3,395.9,179,395.5,173,393.9L173,393.9z"/>
	<path class="st0" d="M67.7,374.5c-16.7-3.9-34.3-18.7-42.6-35.6c-4.7-9.6-4.9-11-4.9-27.9c0-16.1,0.4-18.6,4.1-26.6
		c7.9-16.8,23-29,42-33.7c4-1,7.8-2.6,8.4-3.5c0.6-1,1.2-6.1,1.5-11.6c1.3-33.6,23.4-63.4,54.3-72.8c16.6-5.1,37.6-3.9,55.7,3.3
		c5.7,2.3,5.1,2.8,17.2-13.1c7.2-9.5,21.8-21.2,33.6-27.1c12.8-6.4,26.2-9.4,42.1-9.4c44.6,0.1,83,28,97.3,70.6
		c4.5,13.6,4.3,17.4-1,17.5c-2.3,0-9.1,1.3-14.9,2.8l-10.7,2.8l-9.7-9.7c-27.4-27.4-72-33.2-110-14.6c-15.2,7.5-27.4,18.2-36.6,32.2
		c-6.5,10-14.9,28.6-14.9,33.1c0,3.3-2.6,4.9-14,8.7c-35.1,11.5-55.5,38.1-55.5,72c0,12.4,3.2,27.5,7.7,36.2c1.7,3.2,2.6,6.3,2.1,7
		C117.3,376.4,73.6,375.9,67.7,374.5L67.7,374.5z"/>
	<path class="st1" d="M274.4,193c0.5,0,1,0,1.5,0c26.9,0.1,40.3,5.9,59,25.7l10.3,10.8l9.3-3.2c8.8-3,17.5-4.4,26-4.4
		c34.6,0,64,24,66.9,59.3l1,12l8.8,3.1c25.1,9,37,27.9,34.8,55.7c-1.4,18.1-9.9,32.6-23.4,39.9l-6.3,3.4l-140.6,0.3
		c-17.7,0-33.5,0.1-47.4,0.1c-71.1,0-95.9-0.5-100.9-1.7c-28.6-7.2-44.5-29.8-44.5-63.6c0-10.8,0.8-15.9,3.4-22.9
		c6.5-17,24.1-29.8,47-34.5c11.4-2.3,14.9-4.8,14.9-10.7c0-1.8,1.3-7.3,3-12.1c7.6-22,21.6-40.2,36.5-47.7
		C248.6,194.9,256.6,193,274.4,193 M274.4,172.9L274.4,172.9c-20.7,0-32,2.6-50.1,11.7c-19.7,9.9-37.2,32-46.5,59.2
		c-0.8,2.4-1.9,5.9-2.8,9.6h-0.1c-14.1,2.9-27.1,8.5-37.6,16.1c-11.3,8.3-19.6,18.9-24.3,30.8c-4,10.5-4.8,18.7-4.8,30.2
		c0,21,5.1,38.9,15.2,53.3c10.4,14.8,25.8,25.1,44.6,29.8c6.4,1.6,18.4,2.3,105.8,2.3c13.7,0,29.2,0,47.5-0.1l140.6-0.3h5l4.4-2.4
		l6.3-3.4c19.6-10.5,32-31,33.9-56.2c1.4-18.2-2-34.1-10.2-47.1c-7.8-12.4-19.3-21.7-34.4-27.8c-2-21.9-12.1-41.6-28.4-55.7
		c-15.9-13.8-36.7-21.4-58.5-21.4c-9.9,0-19.7,1.5-29.5,4.5l-1.4-1.4c-22.6-23.7-41.1-31.7-73.5-31.9
		C275.4,172.9,274.9,172.9,274.4,172.9L274.4,172.9z"/>
	<path class="st1" d="M278.6,116.4c0.1,0,0.2,0,0.3,0c44.6,0.1,83,28,97.3,70.6c4.5,13.6,4.3,17.4-1,17.5c-2.3,0-9.1,1.3-14.9,2.8
		l-10.7,2.8l-9.7-9.7c-16.7-16.7-39.8-25.4-64-25.4c-15.4,0-31.2,3.5-46,10.9c-15.2,7.5-27.4,18.2-36.6,32.2
		c-6.5,10-14.9,28.6-14.9,33.1c0,3.3-2.6,4.9-14,8.7c-35.1,11.5-55.5,38.1-55.5,72c0,12.4,3.2,27.5,7.7,36.2c1.7,3.2,2.6,6.3,2.1,7
		c-0.6,0.6-8.4,0.8-17.7,0.8c-13.3,0-29.8-0.5-33.3-1.3l0,0C51,370.8,33.3,356,25.1,339.1c-4.7-9.6-4.9-11-4.9-27.9
		c0-16.1,0.4-18.6,4.1-26.6c7.9-16.8,23-29,42-33.7c4-1,7.8-2.6,8.4-3.5c0.6-1,1.2-6.1,1.5-11.6c1.3-33.6,23.4-63.4,54.3-72.8
		c6.7-2.1,14.3-3.1,22-3.1c11.3,0,23,2.2,33.7,6.4c1.7,0.7,2.8,1.2,3.8,1.2c2.6,0,4.7-3,13.4-14.3c7.2-9.5,21.8-21.2,33.6-27.1
		C249.6,119.4,262.8,116.4,278.6,116.4 M278.6,96.2c-19,0-35.3,3.6-50.9,11.5c-14.5,7.4-31.6,21.2-40.6,32.9l-1.2,1.6
		c-0.5,0.6-0.9,1.2-1.4,1.9c-10.5-3.1-21.5-4.8-32.2-4.8c-9.9,0-19.3,1.3-27.9,4c-19.2,5.9-36.1,17.9-48.4,34.6
		c-11.9,15.9-18.7,34.9-19.9,54.6c-22.3,7.2-40.3,22.7-50,43.3c-5.4,11.7-6,17.4-6,35.3c0,18.8,0.6,23.7,7.1,36.8
		c11,22.4,33.5,40.9,56.1,46.2c7.2,1.7,28.9,1.9,38,1.9c3.6,0,8.8,0,13-0.2c5.8-0.2,13-0.5,19-6.5c3.3-3.3,8.4-10.7,4.8-22.6
		c-0.7-2.5-1.8-5.2-3.2-7.9c-2.6-5.1-5.4-16.8-5.4-27c0-25.3,14.8-44,41.6-52.8c6.6-2.2,11.6-4,15.5-6.4c9.5-5.8,11.9-14,12.3-19.3
		c1.2-4.2,6.7-16.6,11.7-24.1c7.3-11,16.6-19.2,28.6-25.2c11.6-5.7,24.5-8.8,37.1-8.8c19.4,0,37.1,7,49.7,19.4l9.7,9.7l8.2,8.2
		l11.2-2.9l10.7-2.8c4.7-1.2,9.2-2,10.7-2.2c10.9-0.4,16.7-6.3,19.2-10c7.9-11.1,3.4-24.5,0.1-34.1c-8.4-24.9-23.7-46-44.5-61.1
		c-20.9-15.1-45.7-23.2-71.8-23.3L278.6,96.2L278.6,96.2z"/>
</g>
</svg>
