<?xml version="1.0" encoding="utf-8"?>
<!-- Generator: Adobe Illustrator 19.2.0, SVG Export Plug-In . SVG Version: 6.00 Build 0)  -->
<svg version="1.1" id="icon" xmlns="http://www.w3.org/2000/svg" xmlns:xlink="http://www.w3.org/1999/xlink" x="0px" y="0px"
	 viewBox="0 0 512 512" style="enable-background:new 0 0 512 512;" xml:space="preserve">
<style type="text/css">
	.st0{fill:#FFFFFF;}
	.st1{fill:#5ABA53;}
</style>
<g>
	<path class="st0" d="M335.3,345.4c6.8,8.4,19.4,12.5,37.6,12.5c7.6,0,18.2-1.5,33-4.2l-1.5-28.1l-26.6,1.1c-8,0-12.9-2.3-14.8-6.5
		c-1.9-4.6-3-13.3-3-26.2v-71h44.4v-30H360v-46.7h-34.9v46.7h-24.7v30h24.7V298C325.1,321.1,328.5,337.1,335.3,345.4z"/>
	<path class="st0" d="M272.7,311.6c5.7-15.9,8.4-36.8,8.4-62.6c0-39.1-6.8-68.3-20.1-86.9c-13.3-18.6-36.4-28.1-69.5-28.1
		c-33,0-56.6,9.5-69.9,28.5c-13.3,19-20.1,47.8-20.1,86.9c0,38.7,6.5,67.2,19.7,85.4c12.9,17.8,36.4,27,69.9,27
		c9.1,0,15.6-0.8,19.7-1.9l28.5,47.1l33-15.6l-26.6-43.3C258.3,339.7,267.4,327.6,272.7,311.6z M232.8,312.4
		c-7.2,12.5-21.3,18.6-41.8,18.6c-20.5,0-34.5-6.5-41.8-19c-7.2-12.5-11-33.4-11-62.6c0-29.2,3.8-50.5,11.4-63.8
		c7.2-13.3,21.3-20.1,41.4-20.1s33.8,6.8,41.4,19.7c7.2,13.3,11,34.9,11,64.2C243.5,279,239.7,299.8,232.8,312.4z"/>
	<path class="st0" d="M500.2,228.8l-26.5-10.6l-46.3,45.1L399.5,242l-10.6,5.3l0,55.7l10.6,5.3l27.9-21.2l46.4,45l26.5-10.6
		L500.2,228.8z M402.2,287.1l0-23.8l13.3,11.8L402.2,287.1z M444.6,275.1l26.5-19.8l0,39.8L444.6,275.1z"/>
	<path class="st1" d="M191.1,165.5c-20.1,0-34.2,6.8-41.4,20.1c-7.6,13.3-11.4,34.5-11.4,63.8c0,29.2,3.8,50.1,11,62.6
		c7.2,12.5,21.3,19,41.8,19s34.5-6.1,41.8-18.6c6.8-12.5,10.6-33.4,10.6-63c0-29.2-3.8-50.9-11-64.2
		C224.9,172.3,211.2,165.5,191.1,165.5z"/>
	<g>
		<polygon class="st1" points="402.2,287.1 415.4,275.1 402.2,263.2 		"/>
		<path class="st1" d="M461,68.6h-17.8H72.3L1.6,139.3V375v19.4v49h49h17.8h371.3l70.6-70.6V136.6v-19.4V68.6H461z M272.7,311.6
			c-5.3,15.9-14.4,28.1-27,36.4l26.6,43.3l-33,15.6l-28.5-47.1c-4.2,1.1-10.6,1.9-19.7,1.9c-33.4,0-56.9-9.1-69.9-27
			c-13.3-18.2-19.7-46.7-19.7-85.4c0-39.1,6.8-68,20.1-86.9c13.3-19,36.8-28.5,69.9-28.5c33,0,56.2,9.5,69.5,28.1
			c13.3,18.6,20.1,47.8,20.1,86.9C281.1,274.8,278.4,295.7,272.7,311.6z M372.9,357.9c-18.2,0-30.8-4.2-37.6-12.5
			c-6.8-8.4-10.3-24.3-10.3-47.5v-74.8h-24.7v-30h24.7v-46.7H360v46.7h44.4v30H360v71c0,12.9,1.1,21.6,3,26.2
			c1.9,4.2,6.8,6.5,14.8,6.5l26.6-1.1l1.5,28.1C391.2,356.4,380.5,357.9,372.9,357.9z M473.7,332.1l-46.4-45l-27.9,21.2l-10.6-5.3
			l0-55.7l10.6-5.3l27.9,21.2l46.3-45.1l26.5,10.6l0,92.8L473.7,332.1z"/>
		<polygon class="st1" points="444.6,275.1 471.1,295 471.1,255.2 		"/>
	</g>
</g>
</svg>
