<?xml version="1.0" encoding="utf-8"?>
<!-- Generator: Adobe Illustrator 22.1.0, SVG Export Plug-In . SVG Version: 6.00 Build 0)  -->
<svg version="1.1" id="icon" xmlns="http://www.w3.org/2000/svg" xmlns:xlink="http://www.w3.org/1999/xlink" x="0px" y="0px"
	 viewBox="0 0 512 512" style="enable-background:new 0 0 512 512;" xml:space="preserve">
<style type="text/css">
	.st0{fill:#FFFFFF;}
	.st1{fill:#00AFF0;}
</style>
<g>
	<path id="path10" class="st0" d="M224.4,110.1c34.7-5.2,71.3,0.1,102.2,16.8c13.5,7.6,26.7,17.6,32.9,32.2c4.1,9.6,4.5,22.1-3,30.1
		c-8.2,8.4-21.5,11-32.6,7.4c-12.8-5.3-19-18.7-29.9-26.6c-13.6-11.2-31.9-14.2-49-13.9c-12.5,0.5-26,3.4-35,12.6
		c-8.5,9-11.6,24.5-3.3,34.5c7.8,9,19.7,12.3,30.8,15.4c20.9,5.2,42.2,9.5,63.2,14.5c21.9,5,44,14.6,58.5,32.4
		c25,32.3,19.3,83.6-11.7,110c-24.9,21.9-59.3,28.1-91.5,28.3c-34.3-0.5-71-7.6-97.3-31c-13.2-12-24.4-29.9-20.3-48.3
		c4.3-18.3,29.5-25.3,43.8-14c10.9,8.8,16.8,22,27.3,31.2c12.6,11.5,30.1,16.1,46.8,15.7c16.4,0.4,33.8-4.6,45.1-17.1
		c7.7-8.5,11.7-21.2,6.7-32.1c-4.1-10.2-14.6-15.7-24.6-18.4c-18.5-4.8-37.1-9.3-55.6-14.1c-20.3-4.9-41.4-9.5-58.9-21.6
		c-13.6-9.1-24-23.2-27.3-39.3c-5.5-25.3-1.6-54.4,16.8-73.7C175.1,122.5,200.1,113.8,224.4,110.1z"/>
	<path class="st1" d="M493.2,297.7c6.9-40,3.8-81.7-9.5-120.1C464.5,121,423,72.3,370.3,44.1C323.1,18.3,267.1,9.6,214.1,18.8
		C167.2-8.5,104.9-5.8,60.8,26c-29.2,20.4-50.3,52.1-57.6,87c-7.3,34.1-1.8,70.9,15.6,101.2c-7.1,42.2-3.4,86.3,11.7,126.3
		C51.3,396.6,94,444,147.4,470.9c46,23.5,99.6,31,150.4,22.3c45.6,26.4,105.8,24.8,149.7-4.7c31.6-20.6,54.6-54.4,61.8-91.4
		C516,363.5,510.2,327.5,493.2,297.7z M347.5,375.8c-24.9,21.9-59.3,28.1-91.5,28.3c-34.3-0.5-71-7.6-97.3-31
		c-13.2-12-24.4-29.9-20.3-48.3c4.3-18.3,29.5-25.3,43.8-14c10.9,8.8,16.8,22,27.3,31.2c12.6,11.5,30.1,16.1,46.8,15.7
		c16.4,0.4,33.8-4.6,45.1-17.1c7.7-8.5,11.7-21.2,6.7-32.1c-4.1-10.2-14.6-15.7-24.6-18.4c-18.5-4.8-37.1-9.3-55.6-14.1
		c-20.3-4.9-41.4-9.5-58.9-21.6c-13.6-9.1-24-23.2-27.3-39.3c-5.5-25.3-1.6-54.4,16.8-73.7c16.8-18.7,41.7-27.4,65.9-31.1
		c34.7-5.2,71.3,0.1,102.2,16.8c13.5,7.6,26.7,17.6,32.9,32.2c4.1,9.6,4.5,22.1-3,30.1c-8.2,8.4-21.5,11-32.6,7.4
		c-12.8-5.3-19-18.7-29.9-26.6c-13.6-11.2-31.9-14.2-49-13.9c-12.5,0.5-26,3.4-35,12.6c-8.5,9-11.6,24.5-3.3,34.5
		c7.8,9,19.7,12.3,30.8,15.4c20.9,5.2,42.2,9.5,63.2,14.5c21.9,5,44,14.6,58.5,32.4C384.1,297.9,378.5,349.3,347.5,375.8z"/>
</g>
</svg>
