<?xml version="1.0" encoding="utf-8"?>
<!-- Generator: Adobe Illustrator 19.2.0, SVG Export Plug-In . SVG Version: 6.00 Build 0)  -->
<svg version="1.1" id="icon" xmlns="http://www.w3.org/2000/svg" xmlns:xlink="http://www.w3.org/1999/xlink" x="0px" y="0px"
	 viewBox="0 0 512 512" style="enable-background:new 0 0 512 512;" xml:space="preserve">
<style type="text/css">
	.st0{fill:#F5F5F5;}
</style>
<g>
	<polygon points="268.6,510.4 404.4,219.8 303.4,1.6 208.6,1.6 107.6,219.8 243.4,510.4 	"/>
	
		<path id="path4148_3_" inkscape:connector-curvature="0" inkscape:export-xdpi="89.999992" inkscape:export-ydpi="89.999992" sodipodi:nodetypes="ccssscssassssssssssssssassccsscccsscassssccsscsscsssssscsssssssssccsccsscsssssccsccsssssssssssscscccccssccssssccscccccssssssscscscssccsccasscscccccccccscccccc" class="st0" d="
		M381.8,218.8l-91-193.2c0,0-1-1-2.1-1.1c0,0-0.8,1.7-0.9,3.4c-1,9.9,0.2,10.6-2.7,14.9c-1.6,2.3-4.1,5.8-4.1,6.4
		c0,1.9,1,1.7,2.9-0.1c0.9-0.9,2.8-1.6,3.8-2c1.6-0.6,2.6,0,3.6,0.7c0.9,0.6,1.2,2,1.6,2.9s5.8,22.2,12.4,47.6
		c10.7,40.9,12.1,43.8,11.7,47.1c0,0,0.5,5.3-0.5,7.2c-1.6,3.2-7.7,8.2-7.7,8.2c-7.6,7.3-7.6,6.1-7.1,8.2c0.5,1.9,0.5,1.7,2.4,1.6
		c1.2-0.1,3-0.2,3.7-0.9c2-1.9,6.8-4.6,9.4-4.3c5.7,0.7,5.2,1.5,11.5,25.8c2.7,10.6,4,16.8,4.9,20.6c1.2,5,0.3,6.7-3,10.2
		c-4.9,5-13.2,7.5-22.1,6c-5-0.8-8.2-3.4-8.8-5.2c-0.6-1.8-0.7-5,0.2-7.2c1.5-3.6,4.8-6.7,8.2-8.3c2-1,3.8-1.7,3.7-2.1
		c-0.4-1.5-14.2,2.8-19.3,7.1c-3.9,3.6-7.2,7.2-9.7,11.7l0.3-3.7c0.2-3.6,0.1-3.7,2-6.7c0.5-0.8,2.1-2.1,1.9-2.3
		c-0.3-0.4-2.5-0.5-4.4,0.4c-6.2,3.2-7.1,8.1-10.6,12.7c-0.2,0-1-1.7-1.8-3.8c-2.2-5.7-5.8-10.4-14.6-19.7c-8.4-8.9-10-11.8-10-16.9
		c0-2.6,2.1-7.3,4.6-10c3.1-3.4,5.3-3.8,11.8-6.9c15.3-7.4,20.7-12.1,23.8-20.2c1.7-4.6,1.6-8.1,0.4-14.2
		c-2.2-11.1-12.6-19.5-26.8-21.6l-3-0.4c1.3-2.7,3.5-4.7,5.5-6.4c0.9-0.8,3.6-2.3,6-3.5c9.6-4.8,9.7-5,10.7-9.8
		c0.3-1.4,0.7-2.1,0.2-2.2c-0.5,0-1.8,0.9-2.7,2.4c-1.4,2.2-2.1,2.6-6.9,3.9c-7.8,2.2-14,3.4-21.9,3.8c-1.2,0-1.6-0.3-1.6-1.3
		c0-0.7-1.3-4.9-2.9-9.3c-3.7-10-4.1-13.2-2.5-17.5c1.4-3.7,2.1-4,1.1-4c-1.5,0-6,4.9-6.8,8.3c-0.6,2.7-0.6,5,0.2,12.9l1,9.6
		l-3.9,6.9c-3.7,6.6-3.9,7-3.5,10.1c0.3,2.9,0.2,3.6-2.2,7.9c-2.5,4.5-2.6,4.8-2.2,9.1c0.4,5.5,0.7,6.2,2.9,7.5
		c1.4,0.8,2.3,1.5,2.8,1.3c0.4-0.2,0.4-1,0.4-1.9c0-3.1,2.4-6.9,7.6-11.9c3.3-3.2,6.5-5.7,8.8-6.7c2-0.9,3.7-1.9,3.9-2.3
		c9.6-1.6,23.3,6.5,27.4,14.3c3,6.1,1.6,12.4-5.2,18.5c-4.6,4.1-8.3,5.9-19.8,9.8c-15.3,5.1-24.7,15-25.2,27.1
		c-0.3,7.1-0.4,7,7,27.3c0.9,2.4,1.6,5.2,1.6,6.2c0,0.7-0.2,1-0.2,1s-0.9-0.9-2.2-2.9c-1.3-2-3.5-3.9-4.7-5c-2.4-2.1-6-4.4-6.6-3.7
		c-0.6,0.6,1.7,2.9,2.4,3.8c1.9,2.5,1.5,5.5,1.5,7.9c0,1.1-0.2,1.7-0.2,1.7c-3-4-5.7-9.2-9.8-12.6c-4.4-3.5-13.9-6-17.8-6.1
		c-2.6,0-1,1,2.8,2.8c6.2,3,10.1,10.9,8,15.4c-1.1,2-3.6,3.2-8.9,4.1c-10.8,1.8-21.6-3.3-24.2-10.8c-0.9-2.5-0.7-3.2,4.6-25.2
		c3-12.4,5.7-23.2,6-23.9c0.7-2,4-2.5,8.3-1.1c2.7,0.9,4.4,2,8.2,5.7c2.6,2.6,5.1,5,5.4,5c0,0,0.5-2-0.5-6.6
		c-0.9-4-1.2-3.4-8.8-10.6c-3-2.8-4.6-4.4-5.7-5.6c-1.7-1.9-2.2-2.4-2.2-4.2c0-1,0.2-4.1,0.4-5.1c6.7-30.9,13.8-63,24.2-96
		c0.6-1.1,2.3-2,3.2-1.9c2.7,0.4,7.3,8.4,8.2,8.3c0.6-5.5-4.5-12.7-6.9-16.2c0,0,0.9-18.2-1.9-19.5L127.2,220
		c27.7,64.2,66,133.8,90.8,193.7c0.3,0.9,1,1.6,1.6,1.6c0.8,0,1-4.3,1-37.2v-37.2l-3.8-1.1c-5.6-1.5-7.9-2.8-15.6-11.8
		c-6.7-7.9-6.9-8.8-7.3-12.3c-0.3-2.5,0-6.4,1-12.1c1.9-11.7,2.6-22,1.7-26.9c-0.4-2.2-0.3-4.3-0.3-4.3c0.5-0.3,8.3,2.7,10.7,4.3
		c6.7,3.5,9.5,9.3,12.1,15.3c1,2.2,3.1,6.3,3.1,6.3c-0.4-7.7,1.2-19.9-4.5-24.9l3.1,1.3c12.5,7.1,30.5,23.3,33.9,37.7
		c1.7,7.2,4.1,21.9,4.1,24.6c0,1.8,0.3,3.7-0.4,5.8c-1.2,3.3-4.3,8.6-10.4,19.5c-7.8,13.9-10,17.2-10.3,19.7
		c-0.3,2.9,0,3.9,4.4,13.8c2.6,5.9,4.8,11.5,4.8,12.4c0,1.7-6,11.2-11.4,17.9c-3.6,4.5-5.2,8.2-4.6,10.7c0.4,1.8,3.8,10.2,5.4,13.2
		c0,0,10.1,23.3,16.3,36.7c1,2.1,2.4,5.4,3.4,5.5c1.4,0,2.4-3.7,3.4-5.9c3.3-8,11.7-26.1,16.6-36.5c1.5-3.2,1.9-4.1,1.4-5.4
		c-0.9-2.5-2.6-2.4-6.3,0.8c-4,3.4-12.5,9.1-16.1,10.4c-3.8,1.3-5.5,0.7-8.8-1.7c-3-2.2-6.5-7.8-9.1-14.8c-1-2.7-1-3.1,0-5.3
		c1.2-3,3-5.4,4.8-7.7c1.3-1.2,4-5,5.9-7.5c1.7-2.2,4.6-6,4.9-6.7c1.1-2.2,0.6-5.7-2.1-16.4c-2.9-11.5-2.4-13-1.9-15.6
		c3.4-8,9-14.3,14-22.1l7.7-12c3.1-4.3,3.4-8.8,1-26.3c-4.3-15,5.7-38.2,17-42c1,4.5-2.4,18.4-0.1,20.3c6.5-12.2,8.1-20.1,21.8-24.6
		c4.1-1,7.6-3.6,11.1-5.2c-16.7,14.2-1.7,45.7-3.6,47.9c-3.9,8.2-10.3,18.7-17.4,21.9c-3.5,1.7-6.5,2.1-10.2,3.1l-0.1,17.2
		c-0.1,9.5,0.3,17.7,0.5,18.1c0.3,0.8,2.1,1.5,3,1.2l7.7-2.5c3.6-0.8,5.3-0.6,8.4-0.2c1.5,0.1,1.5-0.7,2.2-1.7L381.8,218.8z"/>
</g>
</svg>
