<svg version="1.1" xmlns="http://www.w3.org/2000/svg" x="0" y="0" viewBox="0 0 512 512" xml:space="preserve"><path d="M268.7 512l136.6-292.4L303.7 0h-95.4L106.7 219.6 243.3 512z"/><path d="M382.6 218.6L291 24.2s-1-1-2.1-1.1c0 0-.8 1.7-.9 3.4-1 10 .2 10.7-2.7 15-1.6 2.3-4.1 5.8-4.1 6.4 0 1.9 1 1.7 2.9-.1.9-.9 2.8-1.6 3.8-2 1.6-.6 2.6 0 3.6.7.9.6 1.2 2 1.6 2.9.4.9 5.8 22.3 12.5 47.9 10.8 41.2 12.2 44.1 11.8 47.4 0 0 .5 5.3-.5 7.2-1.6 3.2-7.7 8.3-7.7 8.3-7.6 7.3-7.6 6.1-7.1 8.3.5 1.9.5 1.7 2.4 1.6 1.2-.1 3-.2 3.7-.9 2-1.9 6.8-4.6 9.5-4.3 5.7.7 5.2 1.5 11.6 26 2.7 10.7 4 16.9 4.9 20.7 1.2 5 .3 6.7-3 10.3-4.9 5-13.3 7.5-22.2 6-5-.8-8.3-3.4-8.9-5.2s-.7-5 .2-7.2c1.5-3.6 4.8-6.7 8.3-8.4 2-1 3.8-1.7 3.7-2.1-.4-1.5-14.3 2.8-19.4 7.1-3.9 3.6-7.2 7.2-9.8 11.8l.3-3.7c.2-3.6.1-3.7 2-6.7.5-.8 2.1-2.1 1.9-2.3-.3-.4-2.5-.5-4.4.4-6.2 3.2-7.1 8.2-10.7 12.8-.2 0-1-1.7-1.8-3.8-2.2-5.7-5.8-10.5-14.7-19.8-8.5-9-10.1-11.9-10.1-17 0-2.6 2.1-7.3 4.6-10.1 3.1-3.4 5.3-3.8 11.9-6.9 15.4-7.4 20.8-12.2 23.9-20.3 1.7-4.6 1.6-8.2.4-14.3-2.2-11.2-12.7-19.6-27-21.7l-3-.4c1.3-2.7 3.5-4.7 5.5-6.4.9-.8 3.6-2.3 6-3.5 9.7-4.8 9.8-5 10.8-9.9.3-1.4.7-2.1.2-2.2-.5 0-1.8.9-2.7 2.4-1.4 2.2-2.1 2.6-6.9 3.9-7.8 2.2-14.1 3.4-22 3.8-1.2 0-1.6-.3-1.6-1.3 0-.7-1.3-4.9-2.9-9.4-3.7-10.1-4.1-13.3-2.5-17.6 1.4-3.7 2.1-4 1.1-4-1.5 0-6 4.9-6.8 8.4-.6 2.7-.6 5 .2 13l1 9.7-3.9 6.9c-3.7 6.6-3.9 7-3.5 10.2.3 2.9.2 3.6-2.2 7.9-2.5 4.5-2.6 4.8-2.2 9.2.4 5.5.7 6.2 2.9 7.5 1.4.8 2.3 1.5 2.8 1.3.4-.2.4-1 .4-1.9 0-3.1 2.4-6.9 7.6-12 3.3-3.2 6.5-5.7 8.9-6.7 2-.9 3.7-1.9 3.9-2.3 9.7-1.6 23.4 6.5 27.6 14.4 3 6.1 1.6 12.5-5.2 18.6-4.6 4.1-8.4 5.9-19.9 9.9-15.4 5.1-24.9 15.1-25.4 27.3-.3 7.1-.4 7 7 27.5.9 2.4 1.6 5.2 1.6 6.2 0 .7-.2 1-.2 1s-.9-.9-2.2-2.9c-1.3-2-3.5-3.9-4.7-5-2.4-2.1-6-4.4-6.6-3.7-.6.6 1.7 2.9 2.4 3.8 1.9 2.5 1.5 5.5 1.5 7.9 0 1.1-.2 1.7-.2 1.7-3-4-5.7-9.3-9.9-12.7-4.4-3.5-14-6-17.9-6.1-2.6 0-1 1 2.8 2.8 6.2 3 10.2 11 8.1 15.5-1.1 2-3.6 3.2-9 4.1-10.9 1.8-21.7-3.3-24.4-10.9-.9-2.5-.7-3.2 4.6-25.4 3-12.5 5.7-23.3 6-24.1.7-2 4-2.5 8.4-1.1 2.7.9 4.4 2 8.3 5.7 2.6 2.6 5.1 5 5.4 5 0 0 .5-2-.5-6.6-.9-4-1.2-3.4-8.9-10.7-3-2.8-4.6-4.4-5.7-5.6-1.7-1.9-2.2-2.4-2.2-4.2 0-1 .2-4.1.4-5.1 6.7-31.1 13.9-63.4 24.4-96.6.6-1.1 2.3-2 3.2-1.9 2.7.4 7.3 8.5 8.3 8.4.6-5.5-4.5-12.8-6.9-16.3 0 0 .9-18.3-1.9-19.6l-92.2 201.8c27.9 64.6 66.4 134.6 91.4 194.9.3.9 1 1.6 1.6 1.6.8 0 1-4.3 1-37.4v-37.4l-3.8-1.1c-5.6-1.5-7.9-2.8-15.7-11.9-6.7-7.9-6.9-8.9-7.3-12.4-.3-2.5 0-6.4 1-12.2 1.9-11.8 2.6-22.1 1.7-27.1-.4-2.2-.3-4.3-.3-4.3.5-.3 8.4 2.7 10.8 4.3 6.7 3.5 9.6 9.4 12.2 15.4 1 2.2 3.1 6.3 3.1 6.3-.4-7.7 1.2-20-4.5-25.1l3.1 1.3c12.6 7.1 30.7 23.4 34.1 37.9 1.7 7.2 4.1 22 4.1 24.8 0 1.8.3 3.7-.4 5.8-1.2 3.3-4.3 8.7-10.5 19.6-7.8 14-10.1 17.3-10.4 19.8-.3 2.9 0 3.9 4.4 13.9 2.6 5.9 4.8 11.6 4.8 12.5 0 1.7-6 11.3-11.5 18-3.6 4.5-5.2 8.3-4.6 10.8.4 1.8 3.8 10.3 5.4 13.3 0 0 10.2 23.4 16.4 36.9 1 2.1 2.4 5.4 3.4 5.5 1.4 0 2.4-3.7 3.4-5.9 3.3-8.1 11.8-26.3 16.7-36.7 1.5-3.2 1.9-4.1 1.4-5.4-.9-2.5-2.6-2.4-6.3.8-4 3.4-12.6 9.2-16.2 10.5-3.8 1.3-5.5.7-8.9-1.7-3-2.2-6.5-7.8-9.2-14.9-1-2.7-1-3.1 0-5.3 1.2-3 3-5.4 4.8-7.7 1.3-1.2 4-5 5.9-7.5 1.7-2.2 4.6-6 4.9-6.7 1.1-2.2.6-5.7-2.1-16.5-2.9-11.6-2.4-13.1-1.9-15.7 3.4-8.1 9.1-14.4 14.1-22.2l7.7-12.1c3.1-4.3 3.4-8.9 1-26.5-4.3-15.1 5.7-38.4 17.1-42.3 1 4.5-2.4 18.5-.1 20.4 6.5-12.3 8.2-20.2 21.9-24.8 4.1-1 7.6-3.6 11.2-5.2-16.8 14.3-1.7 46-3.6 48.2-3.9 8.3-10.4 18.8-17.5 22-3.5 1.7-6.5 2.1-10.3 3.1l-.1 17.3c-.1 9.6.3 17.8.5 18.2.3.8 2.1 1.5 3 1.2l7.7-2.5c3.6-.8 5.3-.6 8.5-.2 1.5.1 1.5-.7 2.2-1.7l70.7-155.5z" fill="#f5f5f5"/></svg>