<?xml version="1.0" encoding="utf-8"?>
<!-- Generator: Adobe Illustrator 22.1.0, SVG Export Plug-In . SVG Version: 6.00 Build 0)  -->
<svg version="1.1" id="icon" xmlns="http://www.w3.org/2000/svg" xmlns:xlink="http://www.w3.org/1999/xlink" x="0px" y="0px"
	 viewBox="0 0 512 512" style="enable-background:new 0 0 512 512;" xml:space="preserve">
<style type="text/css">
	.st0{fill:#0F80CC;}
	.st1{fill:#F4F4F4;}
</style>
<g>
	<path id="solid-background" class="st0" d="M387.5,22.7H66.3c-21.5,0-39.1,17.6-39.1,39.1V416c0,21.5,17.6,39.1,39.1,39.1h211.5
		C275.4,349.9,311.3,145.6,387.5,22.7z"/>
	<path id="feather" class="st1" d="M462.4,11.1c-22-19.6-48.6-11.7-74.9,11.6c-3.9,3.4-7.8,7.4-11.7,11.4
		c-45,47.7-86.7,136-99.6,203.6c5,10.3,9,23.3,11.6,33.3c0.7,2.5,1.3,4.9,1.7,7.1c1.1,4.8,1.7,8,1.7,8s-0.4-1.5-2-6.4
		c-0.3-0.9-0.7-1.9-1.1-3.1c-0.2-0.5-0.4-1.1-0.7-1.7c-2.9-6.9-11.1-21.2-14.6-27.4c-3,9-5.7,17.4-8,25.1
		c10.3,18.9,16.6,51.2,16.6,51.2s-0.5-2.1-3.1-9.4c-2.3-6.5-13.7-26.5-16.4-31.3c-4.6,17.1-6.5,28.7-4.8,31.6
		c3.2,5.4,6.4,14.9,9,25.3c6.2,23.5,10.4,52,10.4,52s0.1,1.9,0.4,4.8c-0.8,19.7-0.3,40.1,1.2,58.6c2,24.4,5.8,45.5,10.7,56.7
		l3.3-1.8c-7.2-22.2-10-51.1-8.8-84.6c1.9-51.1,13.7-112.8,35.4-177.1c36.6-97.3,87.6-175.1,134.2-212.3
		c-42.5,38.4-100,162.7-117.3,208.7c-19.3,51.5-33,99.9-41.2,146.3c14.2-43.5,60.2-62.1,60.2-62.1s22.6-27.8,48.9-67.6
		c-15.7,3.6-41.6,9.8-50.4,13.4c-12.8,5.3-16.2,7.2-16.2,7.2s41.4-25.2,77-36.7C462.8,168.5,516,59,462.4,11.1"/>
</g>
</svg>
