<?xml version="1.0" encoding="utf-8"?>
<!-- Generator: Adobe Illustrator 19.2.0, SVG Export Plug-In . SVG Version: 6.00 Build 0)  -->
<svg version="1.1" id="icon" xmlns="http://www.w3.org/2000/svg" xmlns:xlink="http://www.w3.org/1999/xlink" x="0px" y="0px"
	 viewBox="0 0 512 512" style="enable-background:new 0 0 512 512;" xml:space="preserve">
<style type="text/css">
	.st0{fill:#091A45;}
	.st1{fill:#FFFFFF;}
</style>
<g>
	<path class="st0" d="M509.8,240c0.2-0.3,0.3-0.6,0.5-0.9C501.6,106.4,391.3,1.5,256.4,1.5c-0.1,0-0.2,0-0.3,0c-0.1,0-0.2,0-0.3,0
		c-134.9,0-245.3,104.9-254,237.6c0.2,0.3,0.3,0.6,0.5,0.9c-0.3,5.3-0.5,10.6-0.5,16c0,25.1,3.6,49.3,10.4,72.2
		c-0.1,0.3-0.2,0.7-0.3,1l0,0c31.4,104.9,128.7,181.3,243.8,181.3c0.1,0,0.2,0,0.3,0c0.1,0,0.2,0,0.3,0
		c115.1,0,212.4-76.4,243.8-181.3l0,0c-0.1-0.3-0.2-0.7-0.3-1c6.8-22.9,10.4-47.1,10.4-72.2C510.4,250.6,510.2,245.3,509.8,240z"/>
	<path class="st1" d="M242.7,192.3c0,0.4,0,0.9,0,1.3L180.5,284c-10.1-0.5-20.2,1.3-29.8,5.3c-4.2,1.7-8.2,3.8-11.9,6.3L2,239.2
		c0,0-3.2,52.1,10,90.9l96.7,39.9c4.9,21.7,19.7,40.7,41.7,49.9c35.9,15,77.3-2.1,92.3-38c3.9-9.4,5.7-19.2,5.4-29.1l89.1-63.7
		c0.7,0,1.5,0,2.2,0c53.3,0,96.7-43.5,96.7-96.9c0-53.4-43.3-96.8-96.7-96.8C286.1,95.4,242.7,138.9,242.7,192.3z M227.8,375.6
		c-11.6,27.8-43.5,40.9-71.2,29.4c-12.8-5.3-22.5-15.1-28-26.7l31.5,13c20.5,8.5,43.9-1.2,52.4-21.6c8.5-20.5-1.1-44-21.6-52.5
		l-32.5-13.5c12.6-4.8,26.8-4.9,40.2,0.6c13.4,5.6,23.9,16.1,29.4,29.6C233.4,347.3,233.4,362.2,227.8,375.6 M339.4,256.8
		c-35.5,0-64.4-28.9-64.4-64.5c0-35.6,28.9-64.5,64.4-64.5c35.5,0,64.4,29,64.4,64.5C403.8,227.8,374.9,256.8,339.4,256.8
		 M291.1,192.2c0-26.8,21.7-48.5,48.4-48.5c26.7,0,48.4,21.7,48.4,48.5c0,26.8-21.7,48.5-48.4,48.5
		C312.8,240.6,291.1,218.9,291.1,192.2z"/>
</g>
</svg>
