<?xml version="1.0" encoding="utf-8"?>
<!-- Generator: Adobe Illustrator 22.1.0, SVG Export Plug-In . SVG Version: 6.00 Build 0)  -->
<svg version="1.1" id="icon" xmlns="http://www.w3.org/2000/svg" xmlns:xlink="http://www.w3.org/1999/xlink" x="0px" y="0px"
	 viewBox="0 0 512 512" style="enable-background:new 0 0 512 512;" xml:space="preserve">
<style type="text/css">
	.st0{fill:#091A45;}
	.st1{fill:#FFFFFF;}
</style>
<g>
	<path class="st0" d="M511.3,239.9c0.2-0.3,0.3-0.6,0.5-0.9C503.1,105.5,392.1,0,256.4,0c-0.1,0-0.2,0-0.3,0s-0.2,0-0.3,0
		C120.1,0,9.1,105.5,0.3,239c0.2,0.3,0.3,0.6,0.5,0.9c-0.3,5.3-0.5,10.7-0.5,16.1c0,25.2,3.6,49.6,10.5,72.6c-0.1,0.3-0.2,0.7-0.3,1
		l0,0C42.1,435.1,139.9,512,255.7,512c0.1,0,0.2,0,0.3,0s0.2,0,0.3,0c115.8,0,213.7-76.9,245.2-182.4l0,0c-0.1-0.3-0.2-0.7-0.3-1
		c6.8-23,10.5-47.4,10.5-72.6C511.9,250.6,511.7,245.2,511.3,239.9z"/>
	<path class="st1" d="M242.6,191.9c0,0.4,0,0.9,0,1.3l-62.6,90.9c-10.2-0.5-20.3,1.3-30,5.3c-4.2,1.7-8.2,3.8-12,6.3L0.5,239.1
		c0,0-3.2,52.4,10.1,91.4l97.3,40.1c4.9,21.8,19.8,40.9,41.9,50.2c36.1,15.1,77.8-2.1,92.8-38.2c3.9-9.5,5.7-19.3,5.4-29.3
		l89.6-64.1c0.7,0,1.5,0,2.2,0c53.6,0,97.3-43.8,97.3-97.5s-43.6-97.4-97.3-97.4C286.3,94.5,242.6,138.2,242.6,191.9z M227.7,376.3
		c-11.7,28-43.8,41.1-71.6,29.6c-12.9-5.3-22.6-15.2-28.2-26.9l31.7,13.1c20.6,8.6,44.2-1.2,52.7-21.7c8.6-20.6-1.1-44.3-21.7-52.8
		L157.8,304c12.7-4.8,27-4.9,40.4,0.6c13.5,5.6,24,16.2,29.6,29.8C233.3,347.8,233.3,362.8,227.7,376.3 M339.9,256.8
		c-35.7,0-64.8-29.1-64.8-64.9s29.1-64.9,64.8-64.9s64.8,29.2,64.8,64.9S375.6,256.8,339.9,256.8 M291.3,191.8
		c0-27,21.8-48.8,48.7-48.8s48.7,21.8,48.7,48.8s-21.8,48.8-48.7,48.8C313.2,240.5,291.3,218.7,291.3,191.8z"/>
</g>
</svg>
