<?xml version="1.0" encoding="utf-8"?>
<!-- Generator: Adobe Illustrator 22.1.0, SVG Export Plug-In . SVG Version: 6.00 Build 0)  -->
<svg version="1.1" id="icon" xmlns="http://www.w3.org/2000/svg" xmlns:xlink="http://www.w3.org/1999/xlink" x="0px" y="0px"
	 viewBox="0 0 512 512" style="enable-background:new 0 0 512 512;" xml:space="preserve">
<style type="text/css">
	.st0{fill:#215093;}
	.st1{fill:#FFFFFF;}
	.st2{fill:#B53937;}
	.st3{fill:#F2F3F3;}
	.st4{fill:#222F35;}
	.st5{fill:#0C2F93;}
</style>
<g>
	<path id="path2225_1_" class="st0" d="M0.2,6.1L6.3,0h478.8l26.6,26.6v478.7l-6.1,6.1H6.3l-6.1-6.1V6.1z"/>
	<path id="path3197_1_" class="st1" d="M50.4,511.5V208.7l411.2-0.1v302.9H50.4z"/>
	<rect x="68.8" y="266" class="st2" width="374.3" height="6.2"/>
	<rect x="68.8" y="327.3" class="st2" width="374.3" height="6.2"/>
	<rect x="68.8" y="388.7" class="st2" width="374.3" height="6.2"/>
	<rect id="rect6114" x="122.5" y="0.5" class="st3" width="275.2" height="167.8"/>
	<rect id="rect7085_1_" x="286.9" y="17.7" class="st0" width="66.6" height="140.7"/>
	<rect id="rect21704_1_" x="12" y="472.1" class="st4" width="27.8" height="27.8"/>
	<rect id="rect23666_1_" x="472.3" y="472.1" class="st4" width="27.8" height="27.8"/>
	<path id="path6175_1_" class="st5" d="M32,43L21.7,67.6h4.1v11.3l3.1,3.1h6.1l3.1-3.1V67.6h4.1L32,43z"/>
	<rect id="rect12988" x="52.4" y="447.3" class="st2" width="406.5" height="64.7"/>
</g>
</svg>
