<svg version="1.1" id="icon" xmlns="http://www.w3.org/2000/svg" x="0" y="0" viewBox="0 0 512 512" xml:space="preserve"><style type="text/css">.st0{fill:#215093}.st2{fill:#b53937}.st4{fill:#222f35}</style><path id="path2225_1_" class="st0" d="M.2 6.1L6.3 0h478.8l26.6 26.6v478.7l-6.1 6.1H6.3l-6.1-6.1V6.1z"/><path id="path3197_1_" d="M50.4 511.5V208.7l411.2-.1v302.9H50.4z" fill="#fff"/><path class="st2" d="M68.8 266h374.3v6.2H68.8zM68.8 327.3h374.3v6.2H68.8zM68.8 388.7h374.3v6.2H68.8z"/><path id="rect6114" fill="#f2f3f3" d="M122.5.5h275.2v167.8H122.5z"/><path id="rect7085_1_" class="st0" d="M286.9 17.7h66.6v140.7h-66.6z"/><path id="rect21704_1_" class="st4" d="M12 472.1h27.8v27.8H12z"/><path id="rect23666_1_" class="st4" d="M472.3 472.1h27.8v27.8h-27.8z"/><path id="path6175_1_" d="M32 43L21.7 67.6h4.1v11.3l3.1 3.1H35l3.1-3.1V67.6h4.1L32 43z" fill="#0c2f93"/><path id="rect12988" class="st2" d="M52.4 447.3h406.5V512H52.4z"/></svg>