<?xml version="1.0" encoding="utf-8"?>
<!-- Generator: Adobe Illustrator 19.2.0, SVG Export Plug-In . SVG Version: 6.00 Build 0)  -->
<svg version="1.1" id="icon" xmlns="http://www.w3.org/2000/svg" xmlns:xlink="http://www.w3.org/1999/xlink" x="0px" y="0px"
	 viewBox="0 0 512 512" style="enable-background:new 0 0 512 512;" xml:space="preserve">
<style type="text/css">
	.st0{fill:#8BC25B;}
	.st1{fill:#FFFFFF;}
</style>
<g>
	<circle class="st0" cx="256" cy="256" r="254.4"/>
	<path class="st1" d="M505.3,292.6c-2.9-2.6-5.9-5.1-8.8-7.5c-6.4-5.3-12.5-10.3-17.6-16.3c-24.4-28.8-40.6-63.2-56.2-96.5
		c-1.2-2.5-2.3-5-3.5-7.5c-12.2-25.9-21.4-45.7-29.8-64.4c-3.5-7.8-7.6-9.8-16.1-8.1c-16.9,3.4-34.2,5.9-51,8.4
		c-5.9,0.9-11.9,1.8-17.9,2.7c-5.7,0.9-8.8,1.7-9.9,3.7c-1.1,2,0,5,2.2,9.6c5.8,12.1,11.8,24.4,17.6,36.3
		c7.8,16,15.9,32.6,23.6,48.9c9.4,19.9,19.3,43.8,21.7,70.2c4.2,46.1-30.5,63.7-51.5,70.2c-32.1,9.8-54.1-8.6-69.8-25.6
		c-29.4-32.1-47.4-71.5-62-105.9c-9.6-22.7-18.8-45.9-27.6-68.5l-0.4-1.1c-2.9-7.3-6.5-9.2-14.2-7.4c-20.3,4.6-41,8.6-61.1,12.5
		c-8,1.6-16.2,3.2-24.4,4.8c-5.1,1-8.3,2.1-9.5,4.3c-1.3,2.4-0.3,6.2,1.9,11.8c8.6,21.9,17.2,43.9,25.7,65.8
		c9.2,23.4,18.3,46.7,27.4,70.1c17.3,44.3,34.6,88.7,52.1,133.4l22.9,58.6l0,0.1l0.1,0c27.8,10.1,57,15.2,86.8,15.2
		c14.1,0,28.3-1.2,42.2-3.5l1-0.2l-1-0.3c-3-0.9-5.4-3.2-7.6-7.4c-10-18.9-20.4-37.9-30.5-56.4c-4.6-8.5-9.4-17.2-14.1-25.8
		c-0.6-1.1-1-2.3-1.5-3.8c-0.2-0.7-0.5-1.4-0.8-2.2c28.7,2.6,62.5,3.9,96.1-6.2c16.7-5,30.4-12.8,40.8-23.1
		c10.8-10.7,18.3-24.6,22.5-41.1c0.4-1.6,1.1-3.3,1.7-4.8c0.1-0.3,0.4-0.6,0.8-1c0.2-0.2,0.4-0.4,0.7-0.7c20.5,22,46.2,33,78.4,33.7
		l0.2,0l0.1-0.1c11.3-23,18.9-47.6,22.8-73l0-0.1L505.3,292.6z"/>
</g>
</svg>
