<?xml version="1.0" encoding="utf-8"?>
<!-- Generator: Adobe Illustrator 22.1.0, SVG Export Plug-In . SVG Version: 6.00 Build 0)  -->
<svg version="1.1" id="icon" xmlns="http://www.w3.org/2000/svg" xmlns:xlink="http://www.w3.org/1999/xlink" x="0px" y="0px"
	 viewBox="0 0 512 512" style="enable-background:new 0 0 512 512;" xml:space="preserve">
<style type="text/css">
	.st0{fill:#8BC25B;}
	.st1{fill:#FFFFFF;}
</style>
<g>
	<circle class="st0" cx="256" cy="256" r="256"/>
	<path class="st1" d="M506.9,292.8c-2.9-2.6-5.9-5.1-8.9-7.5c-6.4-5.3-12.6-10.4-17.7-16.4c-24.6-29-40.9-63.6-56.6-97.1
		c-1.2-2.5-2.3-5-3.5-7.5c-12.3-26.1-21.5-46-30-64.8c-3.5-7.8-7.6-9.9-16.2-8.2c-17,3.4-34.4,5.9-51.3,8.5c-5.9,0.9-12,1.8-18,2.7
		c-5.7,0.9-8.9,1.7-10,3.7s0,5,2.2,9.7c5.8,12.2,11.9,24.6,17.7,36.5c7.8,16.1,16,32.8,23.7,49.2c9.5,20,19.4,44.1,21.8,70.6
		c4.2,46.4-30.7,64.1-51.8,70.6c-32.3,9.9-54.4-8.7-70.2-25.8c-29.6-32.3-47.7-71.9-62.4-106.6c-9.7-22.8-18.9-46.2-27.8-68.9
		l-0.4-1.1c-2.9-7.3-6.5-9.3-14.3-7.4c-20.4,4.6-41.3,8.7-61.5,12.6c-8.1,1.6-16.3,3.2-24.6,4.8c-5.1,1-8.4,2.1-9.6,4.3
		c-1.3,2.4-0.3,6.2,1.9,11.9c8.7,22,17.3,44.2,25.9,66.2c9.3,23.5,18.4,47,27.6,70.5c17.4,44.6,34.8,89.3,52.4,134.2l23,59v0.1h0.1
		c28,10.2,57.4,15.3,87.3,15.3c14.2,0,28.5-1.2,42.5-3.5l1-0.2l-1-0.3c-3-0.9-5.4-3.2-7.6-7.4c-10.1-19-20.5-38.1-30.7-56.8
		c-4.6-8.6-9.5-17.3-14.2-26c-0.6-1.1-1-2.3-1.5-3.8c-0.2-0.7-0.5-1.4-0.8-2.2c28.9,2.6,62.9,3.9,96.7-6.2
		c16.8-5,30.6-12.9,41.1-23.2c10.9-10.8,18.4-24.8,22.6-41.4c0.4-1.6,1.1-3.3,1.7-4.8c0.1-0.3,0.4-0.6,0.8-1
		c0.2-0.2,0.4-0.4,0.7-0.7c20.6,22.1,46.5,33.2,78.9,33.9h0.2l0.1-0.1c11.4-23.1,19-47.9,22.9-73.5v-0.1L506.9,292.8z"/>
</g>
</svg>
