<?xml version="1.0" encoding="utf-8"?>
<!-- Generator: Adobe Illustrator 19.2.0, SVG Export Plug-In . SVG Version: 6.00 Build 0)  -->
<svg version="1.1" id="icon" xmlns="http://www.w3.org/2000/svg" xmlns:xlink="http://www.w3.org/1999/xlink" x="0px" y="0px"
	 viewBox="0 0 512 512" style="enable-background:new 0 0 512 512;" xml:space="preserve">
<style type="text/css">
	.st0{fill:#FFFFFF;}
	.st1{fill:#68217A;}
</style>
<g>
	<path id="path3000" inkscape:connector-curvature="0" class="st0" d="M363.7,175.2L256,255.8l107.8,81.2L363.7,175.2z"/>
	<path id="path3002_1_" inkscape:connector-curvature="0" class="st0" d="M83.5,207.7l0.1,96.9l53.8-48.8L83.5,207.7z"/>
	<path class="st1" d="M378.3,468.9l87.9-35.1l0-355.4l-88-35.3L187.5,228.9L71,140.2l-25.2,12.7l0,206.4l25,12.5l116.4-88.6
		L378.3,468.9z M363.7,175.2l0,161.7L256,255.8L363.7,175.2z M83.5,304.6l-0.1-96.9l53.9,48.1L83.5,304.6z"/>
	<path class="st0" d="M370.9,506.7L184.5,325.9L74.3,409.8l-60.9-30.5l0-246.3l61-30.7l110.3,84l185.9-181l127.8,51.2l0,399.2
		L370.9,506.7z M187.1,283.3l191.2,185.6l87.9-35.1l0-355.4l-88-35.3L187.5,228.9L71,140.2l-25.2,12.7l0,206.4l25,12.5L187.1,283.3z
		"/>
</g>
</svg>
