<svg version="1.1" id="icon" xmlns="http://www.w3.org/2000/svg" x="0" y="0" viewBox="0 0 512 512" xml:space="preserve"><style type="text/css">.st0{fill:#fff}</style><path class="st0" d="M366.1 173.5l-110 82.3 110.1 82.9-.1-165.2zM80 206.7l.1 98.9 54.9-49.8-55-49.1z"/><path d="M381 473.4l89.8-35.8v-363l-89.9-36-194.7 189.7-119-90.6-25.7 13v210.8L67 374.2l118.9-90.5L381 473.4zm-14.9-299.9v165.1l-110-82.8 110-82.3zM80 305.6l-.1-98.9 55 49.1L80 305.6z" fill="#68217a"/><path class="st0" d="M373.4 512L183.1 327.4 70.6 413.1 8.4 381.9V130.4l62.3-31.3 112.6 85.8L373.1 0l130.5 52.3v407.6L373.4 512zM185.7 283.9L381 473.4l89.8-35.8v-363l-89.9-36-194.7 189.7-119-90.6-25.7 13v210.8L67 374.2l118.7-90.3z"/></svg>